<svg width="154" height="154" viewBox="0 0 154 154" fill="none" xmlns="http://www.w3.org/2000/svg">
<path d="M72.3594 69.3516C70.3656 70.1938 68.7672 71.4484 67.5813 73.1328C66.3953 74.8172 65.7937 76.8453 65.7937 79.2344C65.7937 82.2937 67.0828 84.6484 69.6438 86.3156C72.0672 87.8797 74.6109 88.275 77.275 87.4844C80.3516 86.5906 82.4312 84.4078 83.5312 80.9359C84.0469 79.3375 84.3047 77.55 84.3047 75.5563V66.9281C82.1391 66.9969 80.1109 67.2031 78.2031 67.5641C76.2953 67.925 74.3531 68.5266 72.3594 69.3516V69.3516ZM77 0C34.4781 0 0 34.4781 0 77C0 119.522 34.4781 154 77 154C119.522 154 154 119.522 154 77C154 34.4781 119.522 0 77 0ZM83.1531 45.1516C81.9156 43.2781 79.6984 42.3328 76.5016 42.3328C76.2781 42.3328 75.9859 42.35 75.5906 42.3844C75.2125 42.4188 74.4562 42.6422 73.3734 43.0203C72.2859 43.4094 71.2521 43.9349 70.2969 44.5844C69.3516 45.2375 68.3203 46.3031 67.2031 47.7469C66.1031 49.2078 65.2266 50.9094 64.5734 52.8688L48.4172 51.425C48.4172 49.2938 48.8297 47.1797 49.6203 45.0828C50.4281 42.9859 51.6484 40.975 53.2984 39.0672C54.9484 37.1422 56.925 35.4578 59.2281 34.0141C61.5313 32.5531 64.3156 31.4016 67.5469 30.525C70.7953 29.6484 74.2672 29.2188 78.0141 29.2188C81.675 29.2188 84.9922 29.6656 87.9484 30.5422C90.9047 31.4359 93.2937 32.5187 95.0641 33.825C96.7698 35.0555 98.2719 36.5461 99.5156 38.2422C100.702 39.8922 101.527 41.4219 101.991 42.8313C102.455 44.2406 102.678 45.5297 102.678 46.75V78.1172C102.678 79.2172 102.919 80.3516 103.417 81.5203C103.916 82.6891 104.5 83.7203 105.17 84.6141C105.841 85.5078 106.528 86.3156 107.233 87.0719C107.938 87.8109 108.539 88.3953 109.055 88.7734L109.759 89.3578L97.2984 101.286C95.8375 99.9625 94.3938 98.6391 92.9672 97.2641C91.5406 95.8891 90.475 94.8578 89.7875 94.1531L88.7391 93.0875C88.3266 92.6922 87.8797 92.1078 87.3641 91.3344C85.9719 93.4313 84.1844 95.2531 82.0188 96.8C79.8359 98.3469 77.4984 99.4813 75.0234 100.186C72.5312 100.891 69.9703 101.303 67.3406 101.406C64.7109 101.509 62.1844 101.148 59.7953 100.289C57.4062 99.4297 55.2406 98.2781 53.3328 96.8C51.425 95.3219 49.9125 93.3281 48.7781 90.7844C47.6437 88.2406 47.0766 85.3703 47.0766 82.1219C47.0766 79.1312 47.5922 76.3984 48.6062 73.9234C49.6375 71.4313 50.9437 69.3688 52.5594 67.7188C54.175 66.0687 56.1172 64.5906 58.4031 63.3016C60.6891 62.0125 62.9406 60.9984 65.1406 60.2594C67.3406 59.5375 69.7125 58.9187 72.2734 58.4203C74.8344 57.9219 77.0172 57.5953 78.8391 57.4406C80.6609 57.2859 82.4828 57.1656 84.3047 57.0969V50.325C84.3047 48.0047 83.9094 46.2859 83.1531 45.1516V45.1516ZM114.177 110.395C113.695 110.962 112.888 111.736 111.753 112.716C110.619 113.695 108.866 114.898 106.511 116.342C104.156 117.786 101.561 119.092 98.7766 120.278C95.975 121.464 92.5375 122.495 88.4469 123.372C84.3734 124.248 80.1625 124.678 75.8484 124.678C71.4828 124.678 67.1344 124.128 62.7688 123.028C58.4031 121.928 54.5875 120.57 51.2875 118.955C48.0047 117.339 44.825 115.483 41.8172 113.42C38.7922 111.341 36.3687 109.484 34.5297 107.834C32.7078 106.184 31.1609 104.62 29.9234 103.177C29.6313 102.85 29.4422 102.558 29.3734 102.3C29.3047 102.042 29.3219 101.819 29.425 101.664C29.5281 101.509 29.6828 101.389 29.8719 101.286C30.0772 101.195 30.303 101.16 30.5263 101.184C30.7496 101.208 30.9626 101.291 31.1437 101.423C38.1734 105.583 43.6734 108.522 47.6266 110.258C61.875 116.514 76.5016 118.113 91.5063 115.053C98.4672 113.627 105.617 111.237 112.973 107.869C113.523 107.662 114.005 107.611 114.4 107.714C114.795 107.817 115.002 108.127 115.002 108.642C115.002 109.123 114.727 109.725 114.177 110.395V110.395ZM124.472 105.411C124.163 107.319 123.63 109.123 122.908 110.877C121.67 113.816 120.106 116.033 118.25 117.477C117.631 117.975 117.15 118.13 116.823 117.958C116.497 117.786 116.497 117.356 116.823 116.686C117.597 115.088 118.405 112.939 119.264 110.206C120.123 107.491 120.244 105.738 119.625 104.964C119.436 104.706 119.161 104.517 118.766 104.345C118.387 104.191 117.889 104.088 117.288 104.019C116.686 103.95 116.136 103.916 115.672 103.881C115.191 103.847 114.555 103.847 113.747 103.881C112.939 103.916 112.372 103.95 112.011 103.984C111.032 104.08 110.052 104.166 109.072 104.242C108.848 104.277 108.608 104.311 108.367 104.328C108.109 104.345 107.903 104.362 107.766 104.38L107.302 104.431C107.13 104.448 107.009 104.466 106.923 104.466H106.373L106.202 104.431L106.098 104.345L106.012 104.191C105.789 103.623 106.648 102.919 108.591 102.059C110.533 101.2 112.423 100.667 114.245 100.461C115.93 100.203 117.906 100.203 120.175 100.409C122.444 100.616 123.836 101.045 124.352 101.681C124.747 102.283 124.781 103.52 124.472 105.411V105.411Z" fill="white"/>
</svg>
