<svg width="33" height="37" viewBox="0 0 33 37" fill="none" xmlns="http://www.w3.org/2000/svg">
<path d="M7.54167 25.8751H20.0833V29.4584H7.54167V25.8751ZM7.54167 18.7084H25.4583V22.2917H7.54167V18.7084ZM7.54167 11.5417H25.4583V15.1251H7.54167V11.5417ZM29.0417 4.37508H21.5525C20.8 2.29675 18.8292 0.791748 16.5 0.791748C14.1708 0.791748 12.2 2.29675 11.4475 4.37508H3.95833C3.7075 4.37508 3.47458 4.393 3.24167 4.44675C2.67105 4.56647 2.13807 4.82309 1.68863 5.1945C1.23919 5.56591 0.886758 6.04099 0.661667 6.57883C0.4825 6.99091 0.375 7.45675 0.375 7.95841V33.0417C0.375 33.5255 0.4825 34.0092 0.661667 34.4392C0.840833 34.8692 1.10958 35.2455 1.43208 35.5859C1.91583 36.0697 2.54292 36.428 3.24167 36.5713C3.47458 36.6072 3.7075 36.6251 3.95833 36.6251H29.0417C31.0125 36.6251 32.625 35.0126 32.625 33.0417V7.95841C32.625 5.98758 31.0125 4.37508 29.0417 4.37508ZM16.5 3.92716C17.2346 3.92716 17.8438 4.53633 17.8438 5.27091C17.8438 6.0055 17.2346 6.61466 16.5 6.61466C15.7654 6.61466 15.1562 6.0055 15.1562 5.27091C15.1562 4.53633 15.7654 3.92716 16.5 3.92716ZM29.0417 33.0417H3.95833V7.95841H29.0417V33.0417Z" fill="white"/>
</svg>
