<svg width="43" height="43" viewBox="0 0 43 43" fill="none" xmlns="http://www.w3.org/2000/svg">
<g clip-path="url(#clip0_545_5836)">
<path d="M42.2904 38.3717H0.104492L3.86168 8.05054H38.5332L42.2904 38.3717Z" fill="#89664C"/>
<path d="M17.3739 5.67749C13.5508 5.67749 6.43195 6.92989 4.1249 6.20481C4.1249 6.20481 4.71814 19.1902 1.48828 37.4488C6.03645 37.1192 12.1007 34.5485 16.5829 34.5485C21.1311 34.5485 21.1311 37.4488 21.1311 37.4488V8.90735C21.2629 8.90735 21.197 5.67749 17.3739 5.67749Z" fill="#B0BDC6"/>
<path d="M17.4404 5.21602C13.6173 5.21602 7.75079 6.4025 5.97107 4.09546C5.97107 4.09546 6.56431 18.7946 2.60938 35.2076C4.05952 37.251 11.8376 34.4825 16.3857 34.4825C20.9339 34.4825 21.1976 37.4487 21.1976 37.4487V8.44588C21.2635 8.44588 21.2635 5.21602 17.4404 5.21602Z" fill="#E1EBEF"/>
<path d="M16.6493 34.5486C12.1012 34.5486 4.12539 37.4489 1.55469 37.4489H21.2634C21.2634 37.4489 21.1975 34.5486 16.6493 34.5486Z" fill="#94989B"/>
<path d="M7.88281 9.50067L7.94873 8.97334C8.54197 8.97334 9.66253 8.7756 10.9149 8.51194C12.6287 8.18236 14.6062 7.78687 16.1882 7.78687C18.2975 7.78687 18.9566 8.24827 19.0885 8.31419L18.8907 8.51194L18.693 8.70968C18.693 8.70968 18.0338 8.31419 16.1882 8.31419C14.6721 8.31419 12.7606 8.70968 11.0468 9.03926C9.72845 9.30292 8.60788 9.50067 7.88281 9.50067Z" fill="#7D8B91"/>
<path d="M7.61914 12.3351L7.68506 11.7419C8.34421 11.7419 9.46478 11.5442 10.7172 11.2805C12.4969 10.9509 14.4744 10.5554 16.0563 10.5554C18.1656 10.5554 18.8907 11.0168 18.9566 11.0827L18.8248 11.3464L18.627 11.6101C18.627 11.6101 17.9679 11.1487 16.0563 11.1487C14.4744 11.1487 12.5628 11.5442 10.7831 11.8737C9.46478 12.1374 8.34421 12.3351 7.61914 12.3351Z" fill="#7D8B91"/>
<path d="M7.35547 15.3012L7.42138 14.708C8.08054 14.708 9.2011 14.4443 10.5194 14.1806C12.2991 13.7851 14.3425 13.3896 15.9904 13.3896C18.1656 13.3896 18.8907 13.917 18.9566 13.9829L18.7589 14.2465L18.5611 14.5102C18.5611 14.5102 17.902 14.0488 15.9245 14.0488C14.3425 14.0488 12.365 14.4443 10.5853 14.8398C9.26702 15.1035 8.08054 15.3012 7.35547 15.3012Z" fill="#7D8B91"/>
<path d="M7.0918 18.3996L7.15771 17.7404C7.81687 17.7404 9.00335 17.4768 10.3217 17.2131C12.1673 16.8176 14.2107 16.4221 15.9245 16.4221C18.1656 16.4221 18.8907 16.9494 18.9566 17.0154L18.6929 17.279L18.5611 17.5427C18.5611 17.5427 17.9019 17.0813 15.8586 17.0813C14.2107 17.0813 12.1673 17.4768 10.3876 17.8723C9.00335 18.1359 7.81687 18.3996 7.0918 18.3996Z" fill="#7D8B91"/>
<path d="M6.76172 21.6293L6.82763 20.9702C7.48679 20.9702 8.67327 20.7065 10.0575 20.4428C11.9031 20.0473 14.0124 19.5859 15.7262 19.5859C17.9674 19.5859 18.7583 20.1133 18.8243 20.1792L18.6265 20.4428L18.4288 20.7065C18.4288 20.7065 17.7696 20.2451 15.6603 20.2451C14.0124 20.2451 11.9031 20.7065 10.0575 21.102C8.73918 21.3657 7.48679 21.6293 6.76172 21.6293Z" fill="#7D8B91"/>
<path d="M6.43262 24.9909L6.49853 24.3317C7.15769 24.3317 8.41008 24.0681 9.79431 23.7385C11.7059 23.343 13.8811 22.8816 15.5949 22.8816C17.9019 22.8816 18.6929 23.4748 18.7588 23.5407L18.5611 23.8044L18.3633 24.0681C18.3633 24.0681 17.6383 23.5407 15.529 23.5407C13.8152 23.5407 11.7059 24.0022 9.79431 24.3976C8.476 24.7272 7.2236 24.9909 6.43262 24.9909Z" fill="#7D8B91"/>
<path d="M6.10254 28.4845L6.16845 27.7595C6.89353 27.7595 8.08 27.4958 9.53015 27.1662C11.5076 26.7048 13.6828 26.2434 15.4625 26.2434C17.8355 26.2434 18.6265 26.8366 18.6924 26.9026L18.5606 27.2321L18.3628 27.4958C18.3628 27.4958 17.6378 26.9685 15.4625 26.9685C13.7487 26.9685 11.5735 27.4299 9.59606 27.8913C8.21184 28.2209 6.89353 28.4845 6.10254 28.4845Z" fill="#7D8B91"/>
<path d="M5.77344 32.1755L5.83935 31.4504C6.56442 31.4504 7.81682 31.1867 9.26696 30.8571C11.2444 30.3957 13.5515 29.8684 15.3312 29.8684C17.7701 29.8684 18.5611 30.5276 18.627 30.5935L18.4292 30.8571L18.2974 31.1208C18.2974 31.1208 17.5723 30.5276 15.3312 30.5276C13.5515 30.5276 11.3103 31.0549 9.33288 31.5163C7.88273 31.8459 6.56442 32.1755 5.77344 32.1755Z" fill="#7D8B91"/>
<path d="M25.0206 5.67749C28.8437 5.67749 35.9626 6.92989 38.2696 6.20481C38.2696 6.20481 37.6764 19.1902 40.9063 37.4488C36.3581 37.1192 30.2939 34.5485 25.8116 34.5485C21.2634 34.5485 21.2634 37.4488 21.2634 37.4488V8.90735C21.1975 8.90735 21.1975 5.67749 25.0206 5.67749Z" fill="#B0BDC6"/>
<path d="M24.9545 5.21602C28.7776 5.21602 34.644 6.4025 36.4238 4.09546C36.4238 4.09546 35.8305 18.7946 39.7854 35.2076C38.3353 37.251 30.5573 34.4825 26.0091 34.4825C21.4609 34.4825 21.1973 37.4487 21.1973 37.4487V8.44588C21.1973 8.44588 21.1973 5.21602 24.9545 5.21602Z" fill="#D9E3E8"/>
<path d="M25.7454 34.5486C30.2936 34.5486 38.2694 37.4489 40.8401 37.4489H21.1973C21.1973 37.4489 21.1973 34.5486 25.7454 34.5486Z" fill="#94989B"/>
<path d="M34.5123 9.50067L34.4464 8.97334C33.8531 8.97334 32.7326 8.7756 31.4802 8.51194C29.7664 8.18236 27.7889 7.78687 26.2069 7.78687C24.0976 7.78687 23.4385 8.24827 23.3066 8.31419L23.5044 8.51194L23.7021 8.70968C23.7021 8.70968 24.3613 8.31419 26.2069 8.31419C27.723 8.31419 29.6345 8.70968 31.3483 9.03926C32.7326 9.30292 33.8531 9.50067 34.5123 9.50067Z" fill="#7D8B91"/>
<path d="M34.7759 12.3351L34.71 11.7419C34.0509 11.7419 32.9303 11.5442 31.6779 11.2805C29.8982 10.9509 27.9207 10.5554 26.3388 10.5554C24.2295 10.5554 23.5044 11.0168 23.4385 11.0827L23.6362 11.2805L23.834 11.5442C23.834 11.5442 24.4931 11.0827 26.4047 11.0827C27.9866 11.0827 29.8982 11.4782 31.6779 11.8078C32.9303 12.1374 34.0509 12.3351 34.7759 12.3351Z" fill="#7D8B91"/>
<path d="M35.0396 15.3012L34.9737 14.708C34.3145 14.708 33.194 14.4443 31.8757 14.1806C30.0959 13.7851 28.0526 13.3896 26.4047 13.3896C24.2295 13.3896 23.5044 13.917 23.4385 13.9829L23.6362 14.2465L23.834 14.5102C23.834 14.5102 24.4931 14.0488 26.4706 14.0488C28.0526 14.0488 30.03 14.4443 31.8097 14.8398C33.194 15.1035 34.3145 15.3012 35.0396 15.3012Z" fill="#7D8B91"/>
<path d="M35.3697 18.3996L35.3038 17.7404C34.6446 17.7404 33.4581 17.4768 32.1398 17.2131C30.2942 16.8176 28.2508 16.4221 26.537 16.4221C24.2959 16.4221 23.5708 16.9494 23.5049 17.0154L23.7026 17.279L23.9004 17.5427C23.9004 17.5427 24.5595 17.0813 26.6029 17.0813C28.2508 17.0813 30.2942 17.4768 32.0739 17.8723C33.3922 18.1359 34.6446 18.3996 35.3697 18.3996Z" fill="#7D8B91"/>
<path d="M35.6329 21.6293L35.5669 20.9702C34.9078 20.9702 33.7213 20.7065 32.3371 20.4428C30.4914 20.0473 28.3821 19.5859 26.6683 19.5859C24.4272 19.5859 23.6362 20.1133 23.5703 20.1792L23.7681 20.4428L23.9658 20.7065C23.9658 20.7065 24.625 20.2451 26.7343 20.2451C28.3821 20.2451 30.4914 20.7065 32.3371 21.102C33.6554 21.3657 34.9078 21.6293 35.6329 21.6293Z" fill="#7D8B91"/>
<path d="M35.9619 24.9909L35.896 24.3317C35.2369 24.3317 33.9845 24.0681 32.6003 23.7385C30.6887 23.343 28.5135 22.8816 26.7997 22.8816C24.4926 22.8816 23.7017 23.4748 23.6357 23.5407L23.8335 23.8044L24.0312 24.0681C24.0312 24.0681 24.7563 23.5407 26.8656 23.5407C28.5794 23.5407 30.6887 24.0022 32.6003 24.3976C33.9186 24.7272 35.171 24.9909 35.9619 24.9909Z" fill="#7D8B91"/>
<path d="M36.292 28.4845L36.2261 27.7595C35.501 27.7595 34.3146 27.4958 32.8644 27.1662C30.8869 26.7048 28.7117 26.2434 26.932 26.2434C24.5591 26.2434 23.7681 26.8366 23.7021 26.9026L23.8999 27.1662L24.0976 27.4299C24.0976 27.4299 24.8227 26.9026 26.9979 26.9026C28.7117 26.9026 30.8869 27.364 32.8644 27.8254C34.2486 28.2209 35.501 28.4845 36.292 28.4845Z" fill="#7D8B91"/>
<path d="M36.6211 32.1755L36.5552 31.4504C35.8301 31.4504 34.5777 31.1867 33.1276 30.8571C31.1501 30.3957 28.8431 29.8684 27.0634 29.8684C24.6245 29.8684 23.8335 30.5276 23.7676 30.5935L23.9653 30.8571L24.1631 31.1867C24.1631 31.1867 24.8881 30.5935 27.1293 30.5935C28.909 30.5935 31.1501 31.1208 33.1276 31.5822C34.5118 31.8459 35.8301 32.1755 36.6211 32.1755Z" fill="#7D8B91"/>
</g>
<defs>
<clipPath id="clip0_545_5836">
<rect width="42.1859" height="42.1859" fill="white" transform="translate(0.104492 0.140869)"/>
</clipPath>
</defs>
</svg>
