<svg width="82" height="82" viewBox="0 0 82 82" fill="none" xmlns="http://www.w3.org/2000/svg">
<path d="M32.1061 76.8333C30.3502 71.1072 27.7022 66.8394 24.16 64.0283C18.8477 59.8125 10.4072 62.4337 7.2897 58.0835C4.1722 53.7334 9.47374 45.7354 11.3335 41.0161C13.195 36.2969 4.20266 34.6288 5.25258 33.2887C5.95133 32.3946 10.4968 29.8182 18.8854 25.5558C21.2683 11.9625 30.0707 5.16666 45.2963 5.16666C68.1329 5.16666 76.8332 24.5274 76.8332 36.8433C76.8332 49.1575 66.2982 62.423 51.2912 65.2842C49.9493 67.2372 51.8843 71.0892 57.0962 76.8351" stroke="white" stroke-width="8.36171" stroke-linecap="round" stroke-linejoin="round"/>
<path fill-rule="evenodd" clip-rule="evenodd" d="M32.9374 23.9792C31.7657 28.5192 32.1133 31.7084 33.982 33.5431C35.8489 35.3795 39.0309 36.58 43.528 37.1443C42.5067 43.0031 43.7519 45.7497 47.26 45.3878C50.7681 45.0259 52.8769 43.5692 53.5846 41.0161C59.0671 42.557 62.0395 41.267 62.4999 37.1461C63.1897 30.9649 59.8572 26.036 58.4902 26.036C57.1249 26.036 53.5846 25.8694 53.5846 23.9792C53.5846 22.089 49.4494 21.0229 45.7174 21.0229C41.9853 21.0229 44.2303 18.5056 39.1061 19.5C35.6894 20.1629 33.6326 21.6554 32.9374 23.9792Z" fill="#2F88FF" stroke="white" stroke-width="7.16667" stroke-linejoin="round"/>
<path d="M52.6457 43.6875C50.8236 44.818 48.3242 46.6975 47.2707 48.1667C44.6388 51.8396 42.5049 54.0738 42.0391 56.4227" stroke="white" stroke-width="7.16667" stroke-linecap="round"/>
</svg>
