<svg width="375" height="319" viewBox="0 0 375 319" fill="none" xmlns="http://www.w3.org/2000/svg">
<path d="M11.5298 318.007H373.913" stroke="#263238" stroke-width="0.580392" stroke-linecap="round" stroke-linejoin="round"/>
<path d="M73.5507 208.383C78.8083 213.191 77.0558 241.462 93.4943 229.298C109.933 217.134 81.9277 209.931 83.5225 203.036C85.7657 193.42 122.752 204.959 116.549 186.496C110.345 168.033 88.228 195.805 82.4184 188.929C77.0733 182.602 103.694 159.735 91.2861 155.85C78.8784 151.965 81.5159 185.035 73.5507 185.035C67.3293 185.035 68.4948 153.417 57.0597 164.6C45.6246 175.784 70.6153 186.814 67.3469 193.757C64.8583 199.036 45.1864 186.006 46.0714 198.17C46.9565 210.335 67.9427 203.296 73.5507 208.383Z" fill="#407BFF"/>
<path d="M77.0558 193.92C77.0558 193.92 65.1037 209.816 66.4356 253.137" stroke="#263238" stroke-width="0.580392" stroke-linecap="round" stroke-linejoin="round"/>
<path d="M100.391 216.451C98.27 211.768 80.6836 208.566 90.7518 198.401C100.82 188.237 100.785 210.027 105.263 209.941C111.528 209.825 110.31 180.688 120.65 188.208C130.989 195.728 110.432 207.623 113.727 212.999C116.75 217.951 134.994 201.95 135.406 211.729C135.817 221.509 115.97 214.268 114.7 220.163C113.71 224.75 133.268 228.923 124.593 235.549C115.918 242.174 113.14 222.019 108.373 223.326C104.737 224.288 109.591 240.914 102.283 238.318C94.9753 235.722 102.616 221.355 100.391 216.451Z" fill="#407BFF"/>
<path opacity="0.3" d="M100.391 216.451C98.27 211.768 80.6836 208.566 90.7518 198.401C100.82 188.237 100.785 210.027 105.263 209.941C111.528 209.825 110.31 180.688 120.65 188.208C130.989 195.728 110.432 207.623 113.727 212.999C116.75 217.951 134.994 201.95 135.406 211.729C135.817 221.509 115.97 214.268 114.7 220.163C113.71 224.75 133.268 228.923 124.593 235.549C115.918 242.174 113.14 222.019 108.373 223.326C104.737 224.288 109.591 240.914 102.283 238.318C94.9753 235.722 102.616 221.355 100.391 216.451Z" fill="black"/>
<path d="M109.477 216.653C109.477 216.653 75.4175 212.758 72.0527 253.137" stroke="#263238" stroke-width="0.580392" stroke-linecap="round" stroke-linejoin="round"/>
<path d="M44.4944 212.277C39.2369 217.085 40.9894 245.357 24.5509 233.193C8.11235 221.028 36.1262 213.816 34.5226 206.931C32.2882 197.315 -4.70723 208.854 1.5054 190.391C7.71804 171.928 29.8171 199.709 35.6793 192.824C41.0157 186.506 14.4038 163.639 26.8116 159.744C39.2193 155.85 36.5468 188.939 44.5382 188.939C50.7596 188.939 49.6029 157.311 61.038 168.504C72.4731 179.698 47.4736 190.718 50.7508 197.661C53.2306 202.94 72.9113 189.91 72.0263 202.065C71.1412 214.22 50.0761 207.19 44.4944 212.277Z" fill="#407BFF"/>
<path opacity="0.3" d="M44.4944 212.277C39.2369 217.085 40.9894 245.357 24.5509 233.193C8.11235 221.028 36.1262 213.816 34.5226 206.931C32.2882 197.315 -4.70723 208.854 1.5054 190.391C7.71804 171.928 29.8171 199.709 35.6793 192.824C41.0157 186.506 14.4038 163.639 26.8116 159.744C39.2193 155.85 36.5468 188.939 44.5382 188.939C50.7596 188.939 49.6029 157.311 61.038 168.504C72.4731 179.698 47.4736 190.718 50.7508 197.661C53.2306 202.94 72.9113 189.91 72.0263 202.065C71.1412 214.22 50.0761 207.19 44.4944 212.277Z" fill="white"/>
<path d="M40.7266 197.815C40.7266 197.815 56.2362 220.547 59.7851 258.483" stroke="#263238" stroke-width="0.580392" stroke-linecap="round" stroke-linejoin="round"/>
<path d="M51.8287 317.844H76.0133C78.2585 317.855 80.4248 316.936 82.0798 315.271C83.7349 313.606 84.7571 311.318 84.9423 308.862L88.7453 259.82C88.8445 258.473 88.6884 257.118 88.287 255.84C87.8856 254.563 87.2474 253.39 86.4128 252.396C85.5781 251.403 84.565 250.609 83.4372 250.067C82.3095 249.524 81.0915 249.243 79.8601 249.242H48.0258C46.7947 249.243 45.5771 249.524 44.4497 250.067C43.3224 250.61 42.3098 251.403 41.4758 252.397C40.6419 253.391 40.0046 254.563 39.6042 255.841C39.2037 257.119 39.0489 258.473 39.1494 259.82L42.9523 308.862C43.1348 311.309 44.149 313.59 45.7933 315.254C47.4377 316.918 49.5921 317.842 51.8287 317.844Z" fill="#407BFF" stroke="#263238" stroke-width="0.580392" stroke-linecap="round" stroke-linejoin="round"/>
<path d="M232.924 247.415C224.836 247.415 201.493 241.645 201.493 241.645H264.355C264.355 241.645 241.003 247.415 232.924 247.415Z" fill="#263238" stroke="#263238" stroke-width="0.580392" stroke-linecap="round" stroke-linejoin="round"/>
<path d="M240.127 244.521H225.721V255.358H240.127V244.521Z" fill="#858585" stroke="#263238" stroke-width="0.580392" stroke-linecap="round" stroke-linejoin="round"/>
<path d="M242.256 255.358H223.592V301.948H242.256V255.358Z" fill="#999999" stroke="#263238" stroke-width="0.580392" stroke-linecap="round" stroke-linejoin="round"/>
<path d="M267.983 227.808H255.812C257.161 218.634 258.16 209.287 258.773 200.026H270.901C270.322 209.287 269.332 218.634 267.983 227.808Z" fill="#858585" stroke="#263238" stroke-width="0.580392" stroke-linecap="round" stroke-linejoin="round"/>
<path d="M286.411 117.962H234.116C227.982 117.962 223.943 123.664 225.134 130.376C228.474 150.881 230.471 171.622 231.11 192.439C231.104 193.86 231.356 195.267 231.85 196.58C232.344 197.892 233.07 199.084 233.987 200.086C234.904 201.088 235.994 201.88 237.192 202.417C238.391 202.953 239.674 203.222 240.968 203.209H284.991C287.727 203.179 290.363 202.078 292.425 200.103C294.486 198.128 295.837 195.41 296.233 192.439C298.356 171.839 299.123 151.098 298.529 130.376C298.24 123.664 292.553 117.962 286.411 117.962Z" fill="#858585" stroke="#263238" stroke-width="0.580392" stroke-linecap="round" stroke-linejoin="round"/>
<path d="M289.258 130.376C289.852 151.098 289.085 171.839 286.962 192.439C286.566 195.41 285.215 198.128 283.154 200.103C281.092 202.078 278.456 203.179 275.72 203.209H240.968C239.674 203.222 238.39 202.953 237.192 202.417C235.993 201.88 234.904 201.088 233.987 200.086C233.07 199.084 232.343 197.892 231.849 196.58C231.355 195.267 231.104 193.86 231.11 192.439C230.474 171.622 228.479 150.881 225.143 130.376C223.951 123.645 227.973 117.962 234.124 117.962H277.14C283.282 117.962 288.969 123.664 289.258 130.376Z" fill="#999999" stroke="#263238" stroke-width="0.580392" stroke-linecap="round" stroke-linejoin="round"/>
<path d="M264.355 310.314C264.355 310.57 264.303 310.823 264.202 311.054C264.102 311.285 263.955 311.488 263.774 311.648C263.592 311.809 263.38 311.923 263.153 311.981C262.926 312.04 262.69 312.042 262.462 311.988C256.74 310.622 239.61 306.66 232.924 306.66C226.238 306.66 209.099 310.622 203.377 311.988C203.149 312.042 202.914 312.04 202.687 311.982C202.46 311.923 202.249 311.809 202.068 311.648C201.887 311.488 201.741 311.284 201.642 311.053C201.542 310.822 201.491 310.57 201.493 310.314C201.492 309.286 201.813 308.289 202.401 307.489C202.989 306.689 203.81 306.135 204.726 305.92C211.421 304.343 226.694 300.91 232.924 300.91C239.154 300.91 254.427 304.343 261.122 305.92C262.037 306.137 262.857 306.692 263.445 307.491C264.033 308.291 264.354 309.287 264.355 310.314Z" fill="#263238" stroke="#263238" stroke-width="0.580392" stroke-linecap="round" stroke-linejoin="round"/>
<path d="M201.484 306.853C200.419 306.851 199.378 307.196 198.492 307.844C197.606 308.492 196.915 309.414 196.506 310.493C196.098 311.572 195.991 312.76 196.198 313.906C196.405 315.053 196.918 316.106 197.671 316.932C198.424 317.758 199.383 318.321 200.428 318.548C201.472 318.776 202.555 318.658 203.538 318.21C204.522 317.762 205.362 317.004 205.953 316.031C206.543 315.059 206.857 313.916 206.856 312.747C206.853 311.185 206.287 309.687 205.28 308.582C204.273 307.477 202.908 306.855 201.484 306.853ZM201.484 315.95C200.907 315.951 200.342 315.765 199.861 315.415C199.38 315.064 199.004 314.564 198.782 313.979C198.56 313.394 198.501 312.75 198.612 312.129C198.724 311.507 199.001 310.935 199.409 310.486C199.817 310.038 200.337 309.732 200.903 309.607C201.469 309.483 202.056 309.546 202.59 309.788C203.124 310.03 203.58 310.44 203.901 310.967C204.222 311.494 204.393 312.114 204.393 312.747C204.393 313.595 204.087 314.408 203.542 315.008C202.996 315.608 202.257 315.947 201.484 315.95Z" fill="#858585" stroke="#263238" stroke-width="0.580392" stroke-linecap="round" stroke-linejoin="round"/>
<path d="M232.924 306.853C231.857 306.849 230.814 307.193 229.926 307.842C229.038 308.49 228.345 309.414 227.937 310.495C227.528 311.577 227.422 312.767 227.631 313.915C227.84 315.063 228.355 316.116 229.112 316.942C229.868 317.768 230.83 318.328 231.877 318.552C232.924 318.776 234.008 318.654 234.992 318.2C235.975 317.746 236.813 316.982 237.4 316.004C237.987 315.026 238.295 313.879 238.287 312.709C238.275 311.155 237.706 309.668 236.702 308.572C235.698 307.475 234.34 306.858 232.924 306.853ZM232.924 315.95C232.348 315.951 231.784 315.766 231.304 315.417C230.824 315.068 230.449 314.571 230.225 313.988C230.002 313.405 229.941 312.763 230.05 312.143C230.159 311.522 230.433 310.95 230.837 310.5C231.241 310.05 231.758 309.741 232.322 309.612C232.885 309.484 233.471 309.541 234.006 309.777C234.54 310.013 234.999 310.418 235.324 310.939C235.649 311.461 235.826 312.077 235.833 312.709C235.838 313.132 235.766 313.552 235.622 313.944C235.478 314.336 235.265 314.693 234.994 314.995C234.724 315.296 234.401 315.536 234.046 315.699C233.691 315.863 233.309 315.948 232.924 315.95Z" fill="#858585" stroke="#263238" stroke-width="0.580392" stroke-linecap="round" stroke-linejoin="round"/>
<path d="M263.698 306.853C262.634 306.853 261.593 307.199 260.708 307.848C259.823 308.497 259.134 309.42 258.727 310.5C258.32 311.579 258.214 312.767 258.422 313.912C258.63 315.058 259.143 316.11 259.897 316.935C260.65 317.761 261.61 318.322 262.654 318.549C263.698 318.776 264.78 318.657 265.763 318.209C266.746 317.761 267.586 317.002 268.176 316.03C268.766 315.058 269.08 313.916 269.078 312.747C269.078 311.972 268.939 311.205 268.669 310.489C268.398 309.773 268.002 309.123 267.502 308.576C267.002 308.028 266.409 307.594 265.756 307.298C265.104 307.003 264.404 306.851 263.698 306.853ZM263.698 315.95C263.121 315.95 262.557 315.762 262.077 315.41C261.597 315.058 261.223 314.558 261.002 313.973C260.781 313.388 260.724 312.744 260.836 312.123C260.949 311.501 261.227 310.931 261.635 310.483C262.043 310.035 262.563 309.73 263.129 309.607C263.695 309.483 264.282 309.546 264.815 309.789C265.348 310.031 265.804 310.442 266.124 310.968C266.445 311.495 266.616 312.114 266.616 312.747C266.616 313.597 266.309 314.411 265.761 315.012C265.214 315.612 264.472 315.95 263.698 315.95Z" fill="#858585" stroke="#263238" stroke-width="0.580392" stroke-linecap="round" stroke-linejoin="round"/>
<path d="M248.854 225.942C227.875 226.673 206.875 225.654 186.036 222.894C185.074 222.703 184.085 222.75 183.142 223.032C182.199 223.313 181.325 223.822 180.584 224.522C179.843 225.221 179.253 226.093 178.858 227.074C178.462 228.055 178.271 229.12 178.298 230.192V231.317C178.349 233.68 179.15 235.949 180.563 237.733C181.975 239.516 183.911 240.703 186.036 241.087C206.875 243.843 227.875 244.862 248.854 244.136V225.942Z" fill="#999999" stroke="#263238" stroke-width="0.580392" stroke-linecap="round" stroke-linejoin="round"/>
<path d="M281.801 240.789C268.78 242.578 255.873 243.761 242.764 244.376C242.009 244.402 241.257 244.261 240.553 243.96C239.849 243.659 239.207 243.206 238.666 242.627C238.125 242.048 237.697 241.355 237.406 240.59C237.115 239.825 236.967 239.003 236.972 238.174V232.645C236.988 230.955 237.6 229.338 238.681 228.134C239.761 226.931 241.225 226.234 242.764 226.192C255.908 225.567 268.78 224.384 281.801 222.596C282.515 222.449 283.249 222.479 283.95 222.684C284.651 222.89 285.301 223.265 285.852 223.783C286.404 224.3 286.843 224.947 287.136 225.675C287.43 226.403 287.571 227.194 287.55 227.99V233.52C287.507 235.275 286.911 236.959 285.862 238.285C284.814 239.611 283.379 240.496 281.801 240.789Z" fill="#858585" stroke="#263238" stroke-width="0.580392" stroke-linecap="round" stroke-linejoin="round"/>
<path d="M194.623 315.594C194.623 312.382 193.983 305.978 190.531 297.66L186.035 279.87L172.015 286.437L175.959 300.064C175.959 300.064 163.91 306.372 159.459 308.074C156.497 309.209 147.629 311.44 148.067 315.613C148.067 315.907 148.12 316.199 148.223 316.47C148.325 316.742 148.476 316.989 148.665 317.197C148.855 317.405 149.08 317.57 149.328 317.683C149.576 317.796 149.841 317.854 150.109 317.854H192.572C192.843 317.855 193.111 317.797 193.36 317.684C193.61 317.571 193.837 317.404 194.028 317.194C194.219 316.984 194.369 316.734 194.472 316.459C194.574 316.185 194.625 315.89 194.623 315.594Z" fill="white" stroke="#263238" stroke-width="0.580392" stroke-linecap="round" stroke-linejoin="round"/>
<path d="M186.903 305.179C184.712 306.949 173.032 309.189 175.959 306.622C178.885 304.054 175.959 300.054 175.959 300.054C175.959 300.054 163.91 306.362 159.459 308.064C156.497 309.199 147.629 311.43 148.067 315.603C148.067 315.898 148.12 316.189 148.223 316.461C148.325 316.733 148.476 316.98 148.665 317.188C148.855 317.396 149.08 317.561 149.328 317.673C149.576 317.786 149.841 317.844 150.109 317.844H192.572C192.842 317.845 193.11 317.788 193.359 317.674C193.608 317.561 193.835 317.394 194.025 317.184C194.215 316.973 194.365 316.724 194.466 316.449C194.567 316.174 194.617 315.88 194.614 315.584C194.471 310.713 193.564 305.905 191.933 301.371C189.523 301.4 189.094 303.42 186.903 305.179Z" fill="#407BFF" stroke="#263238" stroke-width="0.580392" stroke-linecap="round" stroke-linejoin="round"/>
<path d="M204.761 317.844H235.868C236.179 317.843 236.481 317.724 236.721 317.507C236.96 317.289 237.124 316.987 237.183 316.651C237.656 313.94 237.551 307.872 234.747 299.814L234.466 283.466L218.536 286.437L220.551 300.381C220.551 300.381 214.137 308.132 211.088 309.516C208.95 310.478 204.078 310.593 203.429 316.248C203.412 316.451 203.434 316.655 203.493 316.848C203.553 317.042 203.648 317.219 203.773 317.369C203.899 317.52 204.052 317.639 204.222 317.721C204.392 317.803 204.576 317.845 204.761 317.844Z" fill="white" stroke="#263238" stroke-width="0.580392" stroke-linecap="round" stroke-linejoin="round"/>
<path d="M229.524 305.247C226.238 307.766 223.811 308.064 225.344 304.285C226.878 300.506 220.586 300.371 220.586 300.371C220.586 300.371 214.172 308.122 211.123 309.507C208.985 310.468 204.113 310.584 203.464 316.238C203.442 316.444 203.46 316.653 203.517 316.851C203.574 317.048 203.668 317.231 203.794 317.385C203.92 317.54 204.075 317.663 204.247 317.747C204.42 317.831 204.607 317.874 204.796 317.873H235.903C236.214 317.872 236.516 317.753 236.756 317.535C236.995 317.318 237.159 317.016 237.218 316.68C237.691 313.969 237.586 307.901 234.782 299.842C232.346 300.458 232.784 302.718 229.524 305.247Z" fill="#407BFF" stroke="#263238" stroke-width="0.580392" stroke-linecap="round" stroke-linejoin="round"/>
<path d="M201.668 192.997C201.668 192.997 198.531 196.517 185.712 198.767C172.892 201.017 146.28 208.056 146.604 219.595C146.929 231.135 171.438 292.678 171.438 292.678C171.438 292.678 183.705 290.12 189.401 286.274C189.401 286.274 179.525 242.357 172.121 230.817C172.121 230.817 205.357 226.327 223.741 217.999C242.125 209.671 231.312 190.689 231.312 190.689L201.668 192.997Z" fill="#263238" stroke="#263238" stroke-width="0.580392" stroke-linecap="round" stroke-linejoin="round"/>
<path d="M222.514 191.372C222.514 191.372 227.228 200.026 223.706 204.835C220.183 209.643 200.179 218.615 202.439 229.519C204.7 240.424 212.166 255.8 217.029 292.342C217.029 292.342 228.359 290.419 235.947 286.889C235.947 286.889 237.209 249.713 228.403 233.683C228.403 233.683 253.621 228.558 256.18 219.259C258.739 209.96 253.954 195.747 253.858 190.67L222.514 191.372Z" fill="#263238" stroke="#263238" stroke-width="0.580392" stroke-linecap="round" stroke-linejoin="round"/>
<path d="M207.355 205.144C206.772 205.093 206.186 205.093 205.603 205.144" stroke="#7F7F7F" stroke-width="0.435294" stroke-linecap="round" stroke-linejoin="round"/>
<path d="M208.494 199.401C208.494 199.401 213.673 201.075 215.706 208.489C215.732 208.61 215.723 208.738 215.679 208.854C215.636 208.97 215.56 209.068 215.463 209.134C215.367 209.2 215.253 209.23 215.139 209.222C215.025 209.213 214.917 209.165 214.829 209.085C213.441 207.518 211.732 206.337 209.844 205.642" stroke="#7F7F7F" stroke-width="0.435294" stroke-linecap="round" stroke-linejoin="round"/>
<path d="M169.685 230.414C169.685 227.288 157.417 225.606 160.703 222.721C163.989 219.836 171.437 229.212 171.437 229.212" stroke="#7F7F7F" stroke-width="0.435294" stroke-linecap="round" stroke-linejoin="round"/>
<path d="M229.962 242.915C229.962 239.337 218.238 237.385 218.825 233.539C219.412 229.692 226.86 237.27 226.86 237.27" stroke="#7F7F7F" stroke-width="0.435294" stroke-linecap="round" stroke-linejoin="round"/>
<path d="M170.14 292.9L171.429 296.169C171.5 296.35 171.626 296.498 171.786 296.587C171.946 296.677 172.13 296.702 172.305 296.659C175.135 295.957 186.947 292.9 191.092 289.63C191.212 289.533 191.303 289.399 191.353 289.245C191.403 289.09 191.41 288.923 191.372 288.765L190.566 285.12C190.539 284.994 190.486 284.877 190.41 284.778C190.335 284.678 190.239 284.599 190.132 284.547C190.024 284.495 189.906 284.471 189.789 284.477C189.671 284.483 189.556 284.519 189.453 284.582C187.587 285.697 182.391 288.361 170.657 291.746C170.55 291.777 170.451 291.834 170.365 291.911C170.28 291.988 170.21 292.085 170.161 292.194C170.112 292.303 170.085 292.423 170.081 292.544C170.078 292.666 170.098 292.787 170.14 292.9Z" fill="#999999" stroke="#263238" stroke-width="0.580392" stroke-linecap="round" stroke-linejoin="round"/>
<path d="M215.636 290.207C215.621 290.094 215.633 289.979 215.67 289.873C215.708 289.767 215.769 289.673 215.849 289.6C215.93 289.528 216.025 289.479 216.128 289.459C216.23 289.439 216.335 289.448 216.433 289.486C217.857 289.973 219.379 289.997 220.814 289.553C224.065 288.746 233.362 285.514 236.131 284.543C236.222 284.511 236.318 284.504 236.413 284.52C236.507 284.537 236.596 284.578 236.673 284.64C236.75 284.702 236.812 284.783 236.855 284.876C236.898 284.97 236.92 285.073 236.92 285.178V289.428C236.921 289.557 236.887 289.683 236.823 289.791C236.759 289.898 236.668 289.983 236.561 290.034C234.387 291.101 222.742 296.573 216.652 295.083C216.533 295.052 216.426 294.982 216.344 294.882C216.263 294.783 216.211 294.658 216.196 294.525L215.636 290.207Z" fill="#999999" stroke="#263238" stroke-width="0.580392" stroke-linecap="round" stroke-linejoin="round"/>
<path d="M225.011 201.161C224.927 202.49 224.485 203.762 223.741 204.815C221.165 208.325 209.835 214.047 204.761 221.163" stroke="#7F7F7F" stroke-width="0.580392" stroke-linecap="round" stroke-linejoin="round"/>
<path d="M224.459 196.353C224.656 197.062 224.805 197.785 224.906 198.517" stroke="#7F7F7F" stroke-width="0.580392" stroke-linecap="round" stroke-linejoin="round"/>
<path d="M157.356 310.228C158.071 311.658 158.588 313.198 158.889 314.796H190.531C190.648 313.282 191.273 311.871 192.283 310.834" stroke="#263238" stroke-width="0.580392" stroke-linecap="round" stroke-linejoin="round"/>
<path d="M212.341 310.228C212.341 310.228 216.722 310.593 218.361 314.796H234.904C235.404 313.541 235.7 312.2 235.781 310.834" stroke="#263238" stroke-width="0.580392" stroke-linecap="round" stroke-linejoin="round"/>
<path d="M186.404 138.656C186.807 140.348 187.228 142.031 187.648 143.676C192.029 160.985 197.725 193.92 197.725 193.92C225.765 200.411 255.339 193.92 255.339 193.92C255.496 186.746 254.699 177.274 253.814 167.322C258.406 165.927 261.7 161.273 261.911 153.532C262.13 144.156 260.579 127.28 259.72 119.395C258.958 112.461 259.501 108.336 249.713 103.047C244.806 99.9411 236.657 98.4698 226.641 96.9986C206.926 94.1137 192.695 98.4891 187.648 100.845C183.644 99.6911 182.531 104.845 182.531 104.845C180.314 103.009 177.738 110.798 177.738 110.798C171.253 119.875 166.154 135.165 164.454 140.608C164.078 141.798 163.389 142.839 162.473 143.599C157.873 147.445 160.432 152.205 160.432 152.205L169.851 155.369C169.851 155.369 174.417 156.677 177.904 150.09C180.813 144.589 185.58 135.252 186.404 138.656Z" fill="#407BFF"/>
<path opacity="0.3" d="M171.586 151.032C171.586 151.032 171.367 146.224 167.862 145.387C164.357 144.551 168.844 143.108 171.586 143.829C174.329 144.551 173.689 141.906 176.038 137.579C178.386 133.252 179.543 129.828 181.523 132.319C183.503 134.809 185.563 135.204 186.404 138.608C187.245 142.012 183.083 150.147 183.083 150.147L176.546 155.715L173.225 157.754H168.274L166.574 153.051L171.586 151.032Z" fill="black"/>
<path d="M186.404 138.656C186.807 140.348 187.228 142.031 187.648 143.676C192.029 160.985 197.725 193.92 197.725 193.92C225.765 200.411 255.339 193.92 255.339 193.92C255.496 186.746 254.699 177.274 253.814 167.322C258.406 165.927 261.7 161.273 261.911 153.532C262.13 144.156 260.579 127.28 259.72 119.395C258.958 112.461 259.501 108.336 249.713 103.047C244.806 99.9411 236.657 98.4698 226.641 96.9986C206.926 94.1137 192.695 98.4891 187.648 100.845C183.644 99.6911 182.531 104.845 182.531 104.845C180.314 103.009 177.738 110.798 177.738 110.798C171.253 119.875 166.154 135.165 164.454 140.608C164.078 141.798 163.389 142.839 162.473 143.599C157.873 147.445 160.432 152.205 160.432 152.205L169.851 155.369C169.851 155.369 174.417 156.677 177.904 150.09C180.813 144.589 185.58 135.252 186.404 138.656Z" stroke="#263238" stroke-width="0.580392" stroke-linecap="round" stroke-linejoin="round"/>
<path opacity="0.3" d="M255.338 193.872C255.361 187.693 255.083 181.517 254.506 175.37C255.461 190.016 227.675 194.603 226.799 186.66C225.923 178.717 253.814 167.274 238.637 171.274C225.397 174.765 199.731 171.428 193.422 170.524C195.85 183.025 197.725 193.872 197.725 193.872C225.765 200.363 255.338 193.872 255.338 193.872Z" fill="black"/>
<path opacity="0.3" d="M242.598 120.308C242.598 120.308 238.628 133.05 238.637 139.781C238.646 146.512 227.517 151.032 227.491 151.032C233.458 149.705 239.259 147.945 242.028 147.061C242.505 146.913 242.92 146.587 243.202 146.139C243.483 145.692 243.614 145.15 243.57 144.608C242.863 136.532 242.539 128.421 242.598 120.308Z" fill="black"/>
<path d="M182.732 117.106C182.77 123.11 183.757 129.061 185.65 134.694C185.705 134.859 185.711 135.039 185.666 135.208C185.621 135.377 185.529 135.526 185.402 135.633C185.275 135.74 185.12 135.8 184.96 135.804C184.8 135.808 184.642 135.756 184.511 135.656C183.004 134.473 180.875 132.069 178.956 127.222" stroke="#263238" stroke-width="0.435294" stroke-linecap="round" stroke-linejoin="round"/>
<path d="M257.091 156.369C254.778 147.955 250.773 145.849 247.671 145.637C247.576 145.622 247.486 145.577 247.414 145.506C247.342 145.435 247.29 145.343 247.266 145.24C247.241 145.137 247.245 145.029 247.277 144.928C247.309 144.828 247.367 144.74 247.444 144.676C249.249 143.608 252.762 142.752 257.082 148.003" stroke="#263238" stroke-width="0.435294" stroke-linecap="round" stroke-linejoin="round"/>
<path d="M212.639 132.29C212.601 132.644 212.447 132.97 212.204 133.207C211.962 133.444 211.649 133.575 211.324 133.575C211 133.575 210.686 133.444 210.444 133.207C210.202 132.97 210.047 132.644 210.01 132.29C209.988 132.086 210.006 131.88 210.063 131.685C210.119 131.49 210.212 131.31 210.336 131.157C210.46 131.004 210.613 130.882 210.783 130.798C210.953 130.714 211.138 130.671 211.324 130.671C211.511 130.671 211.695 130.714 211.865 130.798C212.036 130.882 212.188 131.004 212.312 131.157C212.436 131.31 212.529 131.49 212.586 131.685C212.642 131.88 212.66 132.086 212.639 132.29Z" fill="#999999" stroke="#263238" stroke-width="0.435294" stroke-linecap="round" stroke-linejoin="round"/>
<path d="M214.417 148.657C214.417 148.942 214.34 149.221 214.196 149.458C214.051 149.695 213.846 149.88 213.606 149.99C213.366 150.099 213.102 150.127 212.847 150.072C212.592 150.016 212.357 149.879 212.174 149.677C211.99 149.475 211.865 149.218 211.814 148.938C211.763 148.659 211.789 148.368 211.889 148.105C211.988 147.841 212.157 147.616 212.373 147.458C212.589 147.299 212.843 147.214 213.103 147.214C213.452 147.214 213.786 147.366 214.032 147.637C214.279 147.907 214.417 148.274 214.417 148.657Z" fill="#999999" stroke="#263238" stroke-width="0.435294" stroke-linecap="round" stroke-linejoin="round"/>
<path d="M218.825 188.102C218.827 188.39 218.751 188.672 218.606 188.912C218.462 189.152 218.256 189.339 218.014 189.451C217.773 189.562 217.506 189.592 217.249 189.537C216.992 189.482 216.755 189.345 216.569 189.142C216.383 188.94 216.257 188.681 216.205 188.399C216.153 188.117 216.179 187.824 216.279 187.559C216.378 187.293 216.548 187.065 216.766 186.905C216.984 186.745 217.24 186.66 217.502 186.66C217.851 186.66 218.186 186.812 218.434 187.082C218.682 187.352 218.823 187.719 218.825 188.102Z" fill="#999999" stroke="#263238" stroke-width="0.580392" stroke-linecap="round" stroke-linejoin="round"/>
<path d="M193.659 159.379C193.659 159.379 189.356 163.879 191.407 163.956C193.457 164.033 196.042 160.937 198.417 160.581C200.792 160.225 196.954 158.658 196.954 158.658L193.659 159.379Z" fill="white" stroke="#263238" stroke-width="0.580392" stroke-linecap="round" stroke-linejoin="round"/>
<path d="M218.781 154.311C218.588 154.122 218.362 153.978 218.116 153.888C217.87 153.799 217.611 153.766 217.353 153.792C215.25 153.984 209.204 154.484 206.925 154.33C202.877 154.052 190.951 151.282 190.951 151.282C190.677 151.231 190.395 151.247 190.128 151.33L182.741 153.715C182.472 153.8 182.225 153.955 182.022 154.167L177.553 158.667C177.407 158.818 177.282 158.993 177.185 159.187L176.256 161.052C176.065 161.435 175.992 161.877 176.051 162.309C176.11 162.742 176.296 163.141 176.581 163.447L183.959 163.658C184.415 163.682 184.861 163.509 185.203 163.177L187.394 161.119C187.54 160.98 187.667 160.818 187.77 160.639C188.305 159.677 190.399 156.504 193.641 156.792C193.641 156.792 186.631 160.879 187.954 162.562C189.278 164.245 194.64 159.437 196.393 159.917C198.145 160.398 198.259 165.12 207.784 163.408C208.21 163.329 208.646 163.352 209.063 163.475L217.738 166.139C217.996 166.217 218.264 166.238 218.529 166.201C218.794 166.164 219.049 166.069 219.28 165.922C219.511 165.775 219.713 165.579 219.874 165.346C220.035 165.112 220.152 164.846 220.218 164.562C220.893 161.831 221.489 157.023 218.781 154.311Z" fill="white" stroke="#263238" stroke-width="0.580392" stroke-linecap="round" stroke-linejoin="round"/>
<path d="M191.986 153.003L190.128 153.349C189.222 153.518 188.376 153.957 187.683 154.619L185.712 156.475C185.376 156.806 185.081 157.184 184.835 157.6L183.565 159.725C183.427 159.96 183.272 160.182 183.1 160.389C182.347 161.35 180.27 164.014 182.513 163.648" fill="white"/>
<path d="M191.986 153.003L190.128 153.349C189.222 153.518 188.376 153.957 187.683 154.619L185.712 156.475C185.376 156.806 185.081 157.184 184.835 157.6L183.565 159.725C183.427 159.96 183.272 160.182 183.1 160.389C182.347 161.35 180.27 164.014 182.513 163.648" stroke="#263238" stroke-width="0.580392" stroke-linecap="round" stroke-linejoin="round"/>
<path d="M186.754 153.725L184.835 154.302C184.236 154.462 183.686 154.794 183.24 155.263L181.742 156.84C181.595 156.984 181.462 157.145 181.348 157.321L178.885 160.908C178.885 160.908 177.571 163.447 178.885 163.495" fill="white"/>
<path d="M186.754 153.725L184.835 154.302C184.236 154.462 183.686 154.794 183.24 155.263L181.742 156.84C181.595 156.984 181.462 157.145 181.348 157.321L178.885 160.908C178.885 160.908 177.571 163.447 178.885 163.495" stroke="#263238" stroke-width="0.580392" stroke-linecap="round" stroke-linejoin="round"/>
<path d="M242.668 118.27C242.482 127.061 242.775 135.856 243.544 144.608C243.587 145.15 243.457 145.692 243.176 146.139C242.894 146.587 242.479 146.913 242.002 147.061C235.035 149.321 227.94 151.072 220.762 152.301" stroke="#263238" stroke-width="0.580392" stroke-linecap="round" stroke-linejoin="round"/>
<path d="M243.088 112.307C242.975 113.269 242.878 114.317 242.808 115.385" stroke="#263238" stroke-width="0.435294" stroke-linecap="round" stroke-linejoin="round"/>
<path d="M246.024 103.307C245.025 104.268 244.271 106.009 243.754 108.317" stroke="#263238" stroke-width="0.435294" stroke-linecap="round" stroke-linejoin="round"/>
<path d="M202.15 97.5948C202.15 97.5948 202.702 95.6715 205.655 94.5849C208.608 93.4983 218.851 91.777 224.118 94.5849C229.384 97.3928 219.298 112.673 219.298 112.673L214.628 119.77L210.466 123.193L208.608 117.106L206.198 114.356C206.198 114.356 200.993 109.673 201.431 105.047C201.87 100.422 202.15 97.5948 202.15 97.5948Z" fill="white"/>
<path d="M228.008 97.1909C227.185 94.0272 223.426 93.1425 223.426 93.1425C205.462 89.7768 201.668 96.989 201.668 96.989C199.465 103.503 199.465 110.669 201.668 117.183C201.668 117.183 206.777 114.856 207.653 117.183C208.529 119.51 210.133 124.472 210.133 124.472C212.571 122.964 214.699 120.917 216.381 118.462C219.158 114.452 225.678 118.462 225.678 118.462C229.901 110.452 228.008 97.1909 228.008 97.1909ZM223.627 96.9601C216.67 120.924 210.536 121.962 210.536 121.962C208.494 113.154 206.742 115.077 203.964 109.567C201.738 105.144 202.492 99.5469 202.877 97.4986C202.923 97.2542 203.017 97.0238 203.153 96.8242C203.29 96.6247 203.465 96.4609 203.666 96.3447C210.571 92.4982 219.018 93.9118 222.497 94.7484C222.712 94.7973 222.915 94.8955 223.094 95.0367C223.272 95.178 223.421 95.3589 223.531 95.5677C223.641 95.7766 223.71 96.0086 223.732 96.2485C223.755 96.4885 223.731 96.731 223.662 96.9601H223.627Z" fill="#407BFF"/>
<path opacity="0.4" d="M228.008 97.1909C227.185 94.0272 223.426 93.1425 223.426 93.1425C205.462 89.7768 201.668 96.989 201.668 96.989C199.465 103.503 199.465 110.669 201.668 117.183C201.668 117.183 206.777 114.856 207.653 117.183C208.529 119.51 210.133 124.472 210.133 124.472C212.571 122.964 214.699 120.917 216.381 118.462C219.158 114.452 225.678 118.462 225.678 118.462C229.901 110.452 228.008 97.1909 228.008 97.1909ZM223.627 96.9601C216.67 120.924 210.536 121.962 210.536 121.962C208.494 113.154 206.742 115.077 203.964 109.567C201.738 105.144 202.492 99.5469 202.877 97.4986C202.923 97.2542 203.017 97.0238 203.153 96.8242C203.29 96.6247 203.465 96.4609 203.666 96.3447C210.571 92.4982 219.018 93.9118 222.497 94.7484C222.712 94.7973 222.915 94.8955 223.094 95.0367C223.272 95.178 223.421 95.3589 223.531 95.5677C223.641 95.7766 223.71 96.0086 223.732 96.2485C223.755 96.4885 223.731 96.731 223.662 96.9601H223.627Z" fill="white"/>
<path d="M228.008 97.1909C227.185 94.0272 223.426 93.1425 223.426 93.1425C205.462 89.7768 201.668 96.989 201.668 96.989C199.465 103.503 199.465 110.669 201.668 117.183C201.668 117.183 206.777 114.856 207.653 117.183C208.529 119.51 210.133 124.472 210.133 124.472C212.571 122.964 214.699 120.917 216.381 118.462C219.158 114.452 225.678 118.462 225.678 118.462C229.901 110.452 228.008 97.1909 228.008 97.1909ZM223.627 96.9601C216.67 120.924 210.536 121.962 210.536 121.962C208.494 113.154 206.742 115.077 203.964 109.567C201.738 105.144 202.492 99.5469 202.877 97.4986C202.923 97.2542 203.017 97.0238 203.153 96.8242C203.29 96.6247 203.465 96.4609 203.666 96.3447C210.571 92.4982 219.018 93.9118 222.497 94.7484C222.712 94.7973 222.915 94.8955 223.094 95.0367C223.272 95.178 223.421 95.3589 223.531 95.5677C223.641 95.7766 223.71 96.0086 223.732 96.2485C223.755 96.4885 223.731 96.731 223.662 96.9601H223.627Z" stroke="#263238" stroke-width="0.580392" stroke-linecap="round" stroke-linejoin="round"/>
<path d="M198.68 60.5725C198.68 60.5725 183.196 63.9766 191.722 74.9968C201.177 87.2767 198.68 60.5725 198.68 60.5725Z" fill="#263238" stroke="#263238" stroke-width="0.580392" stroke-linecap="round" stroke-linejoin="round"/>
<path d="M192.572 87.5363C192.572 87.5363 188.892 71.1888 195.902 63.3323C202.912 55.4759 210.509 53.8796 216.205 57.7261C221.901 61.5726 224.267 71.1888 223.39 76.1507C222.514 81.1127 222.935 98.9026 215.127 106.278C207.32 113.654 202.518 111.836 197.357 101.787C193.931 95.2004 192.31 93.306 192.572 87.5363Z" fill="white" stroke="#263238" stroke-width="0.580392" stroke-linecap="round" stroke-linejoin="round"/>
<path d="M219.71 84.3341C219.71 84.3341 213.822 77.9201 212.017 70.3907C210.212 62.8612 209.195 61.5726 202.474 65.2556C195.753 68.9386 185.273 63.9863 188.016 54.6778C190.899 44.9078 199.705 57.5627 208.17 54.3605C216.635 51.1583 222.654 56.928 222.663 65.4191C222.663 65.4191 227.781 70.8715 222.663 84.9688L219.71 84.3341Z" fill="#263238" stroke="#263238" stroke-width="0.580392" stroke-linecap="round" stroke-linejoin="round"/>
<path d="M217.861 83.2571C217.861 83.2571 219.351 74.2948 223.487 75.1218C227.623 75.9488 224.67 89.1807 219.798 87.7383" fill="white"/>
<path d="M217.861 83.2571C217.861 83.2571 219.351 74.2948 223.487 75.1218C227.623 75.9488 224.67 89.1807 219.798 87.7383" stroke="#263238" stroke-width="0.580392" stroke-linecap="round" stroke-linejoin="round"/>
<path d="M198.172 86.2957C198.172 86.2957 196.542 94.6137 197.076 96.0368C197.611 97.46 202.614 96.3734 202.614 96.3734" fill="white"/>
<path d="M198.172 86.2957C198.172 86.2957 196.542 94.6137 197.076 96.0368C197.611 97.46 202.614 96.3734 202.614 96.3734" stroke="#263238" stroke-width="0.580392" stroke-linecap="round" stroke-linejoin="round"/>
<path d="M203.315 99.9988C203.315 99.9988 207.241 101.701 210.702 96.0369L203.315 99.9988Z" fill="white"/>
<path d="M203.315 99.9988C203.315 99.9988 207.241 101.701 210.702 96.0369" stroke="#263238" stroke-width="0.580392" stroke-linecap="round" stroke-linejoin="round"/>
<path d="M195.482 86.9881C195.622 87.7574 195.438 88.4594 195.07 88.5459C194.702 88.6324 194.272 88.0747 194.123 87.2958C193.974 86.5169 194.123 85.8245 194.535 85.738C194.947 85.6514 195.35 86.2092 195.482 86.9881Z" fill="#263238"/>
<path d="M205.085 86.142C205.234 86.9113 205.086 87.6132 204.674 87.6998C204.262 87.7863 203.885 87.219 203.736 86.4497C203.587 85.6804 203.736 84.9784 204.148 84.8918C204.56 84.8053 204.989 85.363 205.085 86.142Z" fill="#263238"/>
<path d="M197.497 86.6228C197.699 88.8056 195.744 90.8058 193.046 91.0943C190.347 91.3828 188.068 89.8634 187.867 87.6805C187.665 85.4977 189.76 84.5456 192.423 84.2475C195.087 83.9494 197.304 84.4495 197.497 86.6228Z" stroke="#263238" stroke-width="0.580392" stroke-linecap="round" stroke-linejoin="round"/>
<path d="M209.896 85.2668C210.097 87.4401 208.1 89.4499 205.445 89.7384C202.789 90.0269 200.467 88.4979 200.266 86.3246C200.064 84.1514 202.159 83.1801 204.822 82.8916C207.486 82.6032 209.703 83.084 209.896 85.2668Z" stroke="#263238" stroke-width="0.580392" stroke-linecap="round" stroke-linejoin="round"/>
<path d="M197.497 86.621L200.266 86.3247" stroke="#263238" stroke-width="0.580392" stroke-linecap="round" stroke-linejoin="round"/>
<path d="M209.563 84.1707L219.745 77.5836" stroke="#263238" stroke-width="0.580392" stroke-linecap="round" stroke-linejoin="round"/>
<path d="M221.489 94.4312L221.971 95.7101" stroke="#263238" stroke-width="0.580392" stroke-linecap="round" stroke-linejoin="round"/>
<path d="M191.758 83.1128C191.758 83.1128 193.309 80.9492 195.21 81.9877L191.758 83.1128Z" fill="white"/>
<path d="M191.758 83.1128C191.758 83.1128 193.309 80.9492 195.21 81.9877" stroke="#263238" stroke-width="0.580392" stroke-linecap="round" stroke-linejoin="round"/>
<path d="M207.618 82.1416C207.618 82.1416 204.892 79.2568 202.264 81.2954L207.618 82.1416Z" fill="white"/>
<path d="M207.618 82.1416C207.618 82.1416 204.892 79.2568 202.264 81.2954" stroke="#263238" stroke-width="0.580392" stroke-linecap="round" stroke-linejoin="round"/>
<path d="M195.201 55.7645C199.346 57.2069 206.321 58.9763 212.016 57.0819C220.779 54.197 217.773 64.9671 219.745 67.9385" stroke="#7F7F7F" stroke-width="0.580392" stroke-linecap="round" stroke-linejoin="round"/>
<path d="M191.608 54.322C191.608 54.322 192.301 54.6585 193.484 55.1201" stroke="#7F7F7F" stroke-width="0.580392" stroke-linecap="round" stroke-linejoin="round"/>
<path d="M202.08 61.1198C202.544 60.9661 203.026 60.7837 203.535 60.5725" stroke="#7F7F7F" stroke-width="0.580392" stroke-linecap="round" stroke-linejoin="round"/>
<path d="M192.572 59.8513C192.572 59.8513 194.43 62.9957 200.406 61.6014" stroke="#7F7F7F" stroke-width="0.580392" stroke-linecap="round" stroke-linejoin="round"/>
<path d="M214.83 66.0153C215.292 69.7271 216.567 73.2609 218.545 76.3142" stroke="#7F7F7F" stroke-width="0.580392" stroke-linecap="round" stroke-linejoin="round"/>
<path d="M214.628 62.6111C214.616 63.1855 214.633 63.7602 214.68 64.3325" stroke="#7F7F7F" stroke-width="0.580392" stroke-linecap="round" stroke-linejoin="round"/>
<path opacity="0.3" d="M222.391 165.774C222.231 165.92 222.116 166.117 222.062 166.338C222.008 166.559 222.016 166.793 222.087 167.008C222.158 167.223 222.287 167.409 222.458 167.541C222.628 167.673 222.831 167.744 223.04 167.745C228.963 167.745 244.946 167.822 251.08 167.428C258.747 166.947 252.894 157.811 246.699 161.292C241.082 164.514 229.13 159.148 222.391 165.774Z" fill="black"/>
<path d="M155.665 156.754C155.665 156.754 159.248 146.282 168.239 147.945C177.229 149.609 170.359 157.869 166.031 158.6C166.031 158.6 165.373 155.725 155.665 156.754Z" fill="white" stroke="#263238" stroke-width="0.580392" stroke-linecap="round" stroke-linejoin="round"/>
<path d="M148.033 162.696C146.85 163.995 144.002 164.11 145.921 161.292C147.49 159.026 149.619 157.301 152.055 156.321C156.313 154.234 157.978 154.657 161.834 153.725C165.689 152.792 166.416 154.523 167.748 155.321C170.929 157.244 171.691 157.571 172.498 159.494C173.304 161.417 174.18 163.918 171.691 163.918C169.431 163.918 169.282 159.812 167.091 159.975C164.9 160.139 163.805 163.918 162.272 163.918H161.693C160.379 163.918 160.309 162.716 161.106 160.831C161.904 158.946 162.789 157.244 162.789 157.244C161.488 157.996 160.447 159.195 159.827 160.658C158.775 163.11 158.583 164.139 156.646 164.139C154.71 164.139 154.894 162.562 156.769 159.081C155.655 159.813 154.734 160.85 154.096 162.091C153.15 164.014 152.65 163.918 151.415 163.918C149.785 163.918 149.899 160.975 152.782 159.052C152.799 159.052 152.16 158.186 148.033 162.696Z" fill="white" stroke="#263238" stroke-width="0.580392" stroke-linecap="round" stroke-linejoin="round"/>
<path d="M159.319 155.667C159.319 155.667 158.188 155.609 157.47 157.705L159.319 155.667Z" fill="white"/>
<path d="M159.319 155.667C159.319 155.667 158.188 155.609 157.47 157.705" stroke="#263238" stroke-width="0.435294" stroke-linecap="round" stroke-linejoin="round"/>
<path d="M303.305 65.1306C308.963 70.0102 314.35 75.2572 319.436 80.8435" stroke="#263238" stroke-width="0.435294" stroke-linecap="round" stroke-linejoin="round"/>
<path d="M297.188 60.0822C298.258 60.9284 299.327 61.7842 300.378 62.6593" stroke="#263238" stroke-width="0.435294" stroke-linecap="round" stroke-linejoin="round"/>
<path d="M291.081 55.476C292.179 56.2645 293.272 57.0723 294.358 57.8993" stroke="#263238" stroke-width="0.435294" stroke-linecap="round" stroke-linejoin="round"/>
<path d="M246.252 32.2048C260.762 37.158 274.633 44.1355 287.523 52.9662" stroke="#263238" stroke-width="0.435294" stroke-linecap="round" stroke-linejoin="round"/>
<path d="M236.683 29.243C238.436 29.7367 240.203 30.256 241.984 30.8009" stroke="#263238" stroke-width="0.435294" stroke-linecap="round" stroke-linejoin="round"/>
<path d="M226.834 26.8486C228.762 27.2525 230.684 27.6949 232.6 28.1757" stroke="#263238" stroke-width="0.435294" stroke-linecap="round" stroke-linejoin="round"/>
<path d="M218.062 25.2426C219.727 25.5055 221.386 25.7875 223.04 26.0888" stroke="#263238" stroke-width="0.435294" stroke-linecap="round" stroke-linejoin="round"/>
<path d="M165.216 25.6274C181.456 22.8515 197.966 22.528 214.286 24.6658" stroke="#263238" stroke-width="0.435294" stroke-linecap="round" stroke-linejoin="round"/>
<path d="M157.987 27.0218C159.476 26.7044 160.975 26.3967 162.464 26.1179" stroke="#263238" stroke-width="0.435294" stroke-linecap="round" stroke-linejoin="round"/>
<path d="M150.968 28.7045C152.466 28.3102 153.956 27.9448 155.463 27.5986" stroke="#263238" stroke-width="0.435294" stroke-linecap="round" stroke-linejoin="round"/>
<path d="M142.346 31.224C143.87 30.7336 145.395 30.2624 146.929 29.8201" stroke="#263238" stroke-width="0.435294" stroke-linecap="round" stroke-linejoin="round"/>
<path d="M90.1997 58.7359C104.708 47.5743 120.658 38.8584 137.517 32.878" stroke="#263238" stroke-width="0.435294" stroke-linecap="round" stroke-linejoin="round"/>
<path d="M83.1899 64.4383C84.5569 63.2779 85.9384 62.1368 87.3346 61.0149" stroke="#263238" stroke-width="0.435294" stroke-linecap="round" stroke-linejoin="round"/>
<path d="M76.0923 70.7849C77.5907 69.3617 79.1154 67.977 80.6488 66.6211" stroke="#263238" stroke-width="0.435294" stroke-linecap="round" stroke-linejoin="round"/>
<path d="M66.2256 80.8435C68.2819 78.5869 70.3732 76.3976 72.4995 74.2756" stroke="#263238" stroke-width="0.435294" stroke-linecap="round" stroke-linejoin="round"/>
<path d="M134.17 51.2785C136.962 38.4253 129.731 25.5215 118.019 22.4571C106.307 19.3927 94.5487 27.328 91.7563 40.1812C88.9639 53.0344 96.1948 65.9382 107.907 69.0026C119.619 72.0671 131.377 64.1317 134.17 51.2785Z" fill="#407BFF"/>
<path opacity="0.3" d="M134.17 51.2784C136.962 38.4252 129.731 25.5214 118.019 22.457C106.307 19.3925 94.5487 27.3279 91.7563 40.1811C88.9639 53.0343 96.1948 65.9381 107.907 69.0025C119.619 72.0669 131.377 64.1316 134.17 51.2784Z" fill="white"/>
<path d="M134.17 51.2785C136.962 38.4253 129.731 25.5215 118.019 22.4571C106.307 19.3927 94.5487 27.328 91.7563 40.1812C88.9639 53.0344 96.1948 65.9382 107.907 69.0026C119.619 72.0671 131.377 64.1317 134.17 51.2785Z" stroke="#263238" stroke-width="0.435294" stroke-linecap="round" stroke-linejoin="round"/>
<path d="M102.468 55.1202V49.1293C102.468 47.6291 102.082 47.206 100.601 47.206V44.2731C102.082 44.2731 102.468 43.8211 102.468 42.3499V36.359C102.429 35.8735 102.487 35.3845 102.639 34.9265C102.791 34.4685 103.032 34.0525 103.346 33.7079C103.66 33.3632 104.04 33.0983 104.457 32.9316C104.874 32.765 105.32 32.7007 105.762 32.7433H107.427V35.6282H106.945C105.911 35.6282 105.377 36.1474 105.377 37.9456V42.8211C105.436 43.46 105.286 44.1013 104.954 44.63C104.621 45.1587 104.128 45.5401 103.563 45.7059V45.7732C104.128 45.9391 104.621 46.3205 104.954 46.8491C105.286 47.3778 105.436 48.0191 105.377 48.6581V53.5431C105.377 55.3317 105.911 55.851 106.945 55.851H107.427V58.7358H105.762C105.32 58.7784 104.874 58.7141 104.457 58.5475C104.04 58.3809 103.66 58.1159 103.346 57.7713C103.032 57.4266 102.791 57.0107 102.639 56.5527C102.487 56.0946 102.429 55.6057 102.468 55.1202Z" fill="white" stroke="#263238" stroke-width="0.435294" stroke-linecap="round" stroke-linejoin="round"/>
<path d="M118.441 55.8029H118.915C119.957 55.8029 120.492 55.2836 120.492 53.495V48.61C120.434 47.9726 120.583 47.3333 120.914 46.8053C121.244 46.2772 121.734 45.8946 122.297 45.7251V45.6578C121.733 45.4901 121.242 45.1079 120.911 44.5794C120.581 44.0509 120.432 43.4107 120.492 42.773V37.8976C120.492 36.0993 119.957 35.5801 118.915 35.5801H118.441V32.6952H120.106C120.549 32.6526 120.994 32.7169 121.412 32.8835C121.829 33.0502 122.208 33.3151 122.522 33.6598C122.836 34.0044 123.078 34.4204 123.229 34.8784C123.381 35.3364 123.44 35.8254 123.401 36.3109V42.3018C123.401 43.8019 123.787 44.225 125.267 44.225V47.158C123.787 47.158 123.401 47.6099 123.401 49.0812V55.0721C123.44 55.5576 123.381 56.0466 123.229 56.5046C123.078 56.9626 122.836 57.3786 122.522 57.7232C122.208 58.0678 121.829 58.3328 121.412 58.4994C120.994 58.6661 120.549 58.7304 120.106 58.6878H118.441V55.8029Z" fill="white" stroke="#263238" stroke-width="0.435294" stroke-linecap="round" stroke-linejoin="round"/>
<path d="M70.7119 76.2565H58.1377C52.3498 76.2565 47.6577 81.4057 47.6577 87.7575V101.557C47.6577 107.909 52.3498 113.058 58.1377 113.058H70.7119C76.4999 113.058 81.1919 107.909 81.1919 101.557V87.7575C81.1919 81.4057 76.4999 76.2565 70.7119 76.2565Z" fill="#407BFF" stroke="#263238" stroke-width="0.435294" stroke-linecap="round" stroke-linejoin="round"/>
<path d="M52.2666 95.5467V93.7677L58.9699 90.5944V92.5176L54.3521 94.662L58.9699 96.7968V98.72L52.2666 95.5467Z" fill="white" stroke="#263238" stroke-width="0.435294" stroke-linecap="round" stroke-linejoin="round"/>
<path d="M66.4006 86.2478H68.4861L62.44 103.076H60.3545L66.4006 86.2478Z" fill="white" stroke="#263238" stroke-width="0.435294" stroke-linecap="round" stroke-linejoin="round"/>
<path d="M69.8706 96.7967L74.4885 94.6619L69.8706 92.4983V90.5751L76.5739 93.7484V95.5274L69.8706 98.7007V96.7967Z" fill="white" stroke="#263238" stroke-width="0.435294" stroke-linecap="round" stroke-linejoin="round"/>
<path d="M285.721 44.9464C288.06 33.9675 281.846 22.9864 271.842 20.4194C261.838 17.8524 251.831 24.6716 249.492 35.6505C247.153 46.6294 253.367 57.6104 263.371 60.1774C273.375 62.7444 283.382 55.9252 285.721 44.9464Z" fill="#407BFF"/>
<path opacity="0.2" d="M285.721 44.9464C288.06 33.9675 281.846 22.9864 271.842 20.4194C261.838 17.8525 251.831 24.6717 249.492 35.6505C247.153 46.6294 253.367 57.6105 263.371 60.1775C273.375 62.7445 283.382 55.9253 285.721 44.9464Z" fill="black"/>
<path d="M285.721 44.9464C288.06 33.9675 281.846 22.9864 271.842 20.4194C261.838 17.8524 251.831 24.6716 249.492 35.6505C247.153 46.6294 253.367 57.6104 263.371 60.1774C273.375 62.7444 283.382 55.9252 285.721 44.9464Z" stroke="#263238" stroke-width="0.435294" stroke-linecap="round" stroke-linejoin="round"/>
<path d="M256.101 44.5327V36.0705C256.101 33.6376 257.248 32.224 259.422 32.224C261.595 32.224 262.743 33.6568 262.743 36.0705V37.7341H260.613V35.9166C260.613 34.8781 260.158 34.455 259.483 34.455C258.808 34.455 258.361 34.8781 258.361 35.9166V44.7058C258.361 45.7444 258.808 46.1482 259.483 46.1482C260.158 46.1482 260.613 45.7444 260.613 44.7058V42.3018H262.743V44.5327C262.743 46.956 261.595 48.3792 259.422 48.3792C257.248 48.3792 256.101 46.956 256.101 44.5327Z" fill="white" stroke="#263238" stroke-width="0.435294" stroke-linecap="round" stroke-linejoin="round"/>
<path d="M266.563 41.1767H263.812V39.4169H266.563V36.3878H268.158V39.4169H270.91V41.1767H268.158V44.2539H266.563V41.1767Z" fill="white" stroke="#263238" stroke-width="0.435294" stroke-linecap="round" stroke-linejoin="round"/>
<path d="M274.765 41.1767H272.014V39.4169H274.765V36.3878H276.36V39.4169H279.111V41.1767H276.36V44.2539H274.765V41.1767Z" fill="white" stroke="#263238" stroke-width="0.435294" stroke-linecap="round" stroke-linejoin="round"/>
<path d="M196.288 0.413696H179.473C172.891 0.413696 167.556 6.26892 167.556 13.4917V31.9452C167.556 39.1679 172.891 45.0232 179.473 45.0232H196.288C202.87 45.0232 208.205 39.1679 208.205 31.9452V13.4917C208.205 6.26892 202.87 0.413696 196.288 0.413696Z" fill="#407BFF" stroke="#263238" stroke-width="0.435294" stroke-linecap="round" stroke-linejoin="round"/>
<path d="M175.661 27.416V18.021C175.661 15.3189 176.94 13.7226 179.35 13.7226C181.759 13.7226 183.083 15.3189 183.083 18.021V19.8673H180.717V17.8383C180.717 16.694 180.208 16.2228 179.464 16.2228C178.719 16.2228 178.211 16.694 178.211 17.8383V27.6084C178.211 28.7623 178.71 29.2143 179.464 29.2143C180.217 29.2143 180.717 28.7623 180.717 27.6084V24.9351H183.083V27.416C183.083 30.1086 181.803 31.7049 179.393 31.7049C176.984 31.7049 175.661 30.1086 175.661 27.416Z" fill="white" stroke="#263238" stroke-width="0.435294" stroke-linecap="round" stroke-linejoin="round"/>
<path d="M184.16 27.3102V26.3486H186.526V27.5506C186.526 28.8007 187.026 29.2527 187.823 29.2527C188.62 29.2527 189.12 28.8007 189.12 27.5025C189.12 26.0505 188.62 25.1273 186.982 23.5503C184.887 21.5309 184.204 20.1077 184.204 18.1075C184.204 15.3573 185.501 13.761 187.937 13.761C190.373 13.761 191.582 15.3573 191.582 18.1556V18.8768H189.216V17.9825C189.216 16.7324 188.76 16.2612 187.963 16.2612C187.166 16.2612 186.719 16.7324 186.719 17.9344C186.719 19.1364 187.236 20.1269 188.874 21.704C190.969 23.7234 191.635 25.1273 191.635 27.3006C191.635 30.1854 190.311 31.7433 187.849 31.7433C185.387 31.7433 184.16 30.1085 184.16 27.3102Z" fill="white" stroke="#263238" stroke-width="0.435294" stroke-linecap="round" stroke-linejoin="round"/>
<path d="M192.634 27.3102V26.3486H195V27.5506C195 28.8007 195.499 29.2527 196.297 29.2527C197.094 29.2527 197.593 28.8007 197.593 27.5025C197.593 26.0505 197.094 25.1273 195.455 23.5503C193.361 21.5309 192.678 20.1077 192.678 18.1075C192.678 15.3573 193.974 13.761 196.41 13.761C198.846 13.761 200.056 15.3573 200.056 18.1556V18.8768H197.681V17.9825C197.681 16.7324 197.225 16.2612 196.428 16.2612C195.631 16.2612 195.184 16.7324 195.184 17.9344C195.184 19.1364 195.701 20.1269 197.339 21.704C199.434 23.7234 200.099 25.1273 200.099 27.3006C200.099 30.1854 198.776 31.7433 196.314 31.7433C193.852 31.7433 192.634 30.1085 192.634 27.3102Z" fill="white" stroke="#263238" stroke-width="0.435294" stroke-linecap="round" stroke-linejoin="round"/>
<path d="M334.87 88.2186C337.247 77.2769 331.091 66.2921 321.121 63.6834C311.15 61.0747 301.141 67.8299 298.764 78.7717C296.387 89.7134 302.542 100.698 312.512 103.307C322.483 105.916 332.493 99.1604 334.87 88.2186Z" fill="#407BFF"/>
<path opacity="0.3" d="M334.87 88.2185C337.247 77.2768 331.091 66.292 321.121 63.6832C311.15 61.0745 301.141 67.8298 298.764 78.7715C296.387 89.7133 302.542 100.698 312.513 103.307C322.483 105.916 332.493 99.1603 334.87 88.2185Z" fill="white"/>
<path d="M334.87 88.2186C337.247 77.2769 331.091 66.2921 321.121 63.6834C311.15 61.0747 301.141 67.8299 298.764 78.7717C296.387 89.7134 302.542 100.698 312.512 103.307C322.483 105.916 332.493 99.1604 334.87 88.2186Z" stroke="#263238" stroke-width="0.435294" stroke-linecap="round" stroke-linejoin="round"/>
<path d="M309.5 87.5268V79.4396C309.5 77.1221 310.595 75.7469 312.672 75.7469C314.749 75.7469 315.844 77.1221 315.844 79.4396V81.0359H313.811V79.2953C313.811 78.3337 313.373 77.8914 312.733 77.8914C312.094 77.8914 311.656 78.3049 311.656 79.2953V87.6903C311.656 88.6519 312.085 89.0654 312.733 89.0654C313.382 89.0654 313.811 88.6807 313.811 87.6903V85.392H315.844V87.5172C315.844 89.8347 314.749 91.2098 312.672 91.2098C310.595 91.2098 309.5 89.8443 309.5 87.5268Z" fill="white" stroke="#263238" stroke-width="0.435294" stroke-linecap="round" stroke-linejoin="round"/>
<path d="M317.613 86.7285H316.649L316.807 85.0553H317.771L318.139 81.1223H317.149L317.307 79.4395H318.288L318.621 75.9777H320.321L319.988 79.4395H321.381L321.714 75.9777H323.423L323.09 79.4395H324.089L323.931 81.1223H322.932L322.555 85.0553H323.554L323.397 86.7285H322.406L321.995 91.027H320.295L320.706 86.7285H319.313L318.901 91.027H317.201L317.613 86.7285ZM320.864 85.0553L321.232 81.1223H319.848L319.471 85.0553H320.864Z" fill="white" stroke="#263238" stroke-width="0.435294" stroke-linecap="round" stroke-linejoin="round"/>
<path d="M97.4113 318.007H94.1604L93.2842 176.399H97.4113V318.007Z" fill="#858585" stroke="#263238" stroke-width="0.580392" stroke-linecap="round" stroke-linejoin="round"/>
<path d="M100.653 318.007H97.4111V176.399H101.53L100.653 318.007Z" fill="#999999" stroke="#263238" stroke-width="0.580392" stroke-linecap="round" stroke-linejoin="round"/>
<path d="M282.967 167.735H60.2144V176.409H282.967V167.735Z" fill="#263238" stroke="#263238" stroke-width="0.580392" stroke-linecap="round" stroke-linejoin="round"/>
<path d="M329.513 167.735H279.637V176.409H329.513V167.735Z" fill="#858585" stroke="#263238" stroke-width="0.580392" stroke-linecap="round" stroke-linejoin="round"/>
<path d="M293.07 176.399H71.623V190.689H293.07V176.399Z" fill="#407BFF" stroke="#263238" stroke-width="0.580392" stroke-miterlimit="10"/>
<path d="M293.07 190.699H318.858V176.409H293.07V190.699Z" fill="#407BFF"/>
<path opacity="0.3" d="M293.07 190.698H318.858V176.409H293.07V190.698Z" fill="black"/>
<path d="M293.07 190.699H318.858V176.409H293.07V190.699Z" stroke="#263238" stroke-width="0.580392" stroke-miterlimit="10"/>
<path d="M293.07 318.007H289.827L288.951 176.399H293.07V318.007Z" fill="#858585" stroke="#263238" stroke-width="0.580392" stroke-linecap="round" stroke-linejoin="round"/>
<path d="M296.321 318.007H293.07V176.399H297.197L296.321 318.007Z" fill="#999999" stroke="#263238" stroke-width="0.580392" stroke-linecap="round" stroke-linejoin="round"/>
<path d="M71.6233 318.007H68.3723L67.4961 176.399H71.6233V318.007Z" fill="#858585" stroke="#263238" stroke-width="0.580392" stroke-linecap="round" stroke-linejoin="round"/>
<path d="M74.8652 318.007H71.623V176.399H75.7414L74.8652 318.007Z" fill="#999999" stroke="#263238" stroke-width="0.580392" stroke-linecap="round" stroke-linejoin="round"/>
<path d="M318.858 318.007H315.607L314.73 176.399H318.858V318.007Z" fill="#858585" stroke="#263238" stroke-width="0.580392" stroke-linecap="round" stroke-linejoin="round"/>
<path d="M322.101 318.007H318.858V176.399H322.977L322.101 318.007Z" fill="#999999" stroke="#263238" stroke-width="0.580392" stroke-linecap="round" stroke-linejoin="round"/>
<path d="M204.156 166.774H178.053C177.796 166.771 177.551 166.657 177.371 166.458C177.19 166.258 177.089 165.988 177.089 165.706V163.341L205.129 164.302V165.706C205.129 165.989 205.027 166.261 204.844 166.461C204.662 166.661 204.414 166.774 204.156 166.774Z" fill="#858585" stroke="#263238" stroke-width="0.580392" stroke-linecap="round" stroke-linejoin="round"/>
<path d="M174.171 166.774H121.692C121.261 166.756 120.844 166.592 120.501 166.305C120.157 166.017 119.903 165.62 119.773 165.168L108.505 125.03C108.42 124.796 108.39 124.542 108.417 124.292C108.445 124.042 108.528 123.803 108.66 123.597C108.792 123.391 108.969 123.224 109.174 123.112C109.38 122.999 109.607 122.945 109.837 122.953H162.315C162.746 122.968 163.162 123.13 163.506 123.416C163.85 123.702 164.104 124.098 164.234 124.549L175.503 164.687C175.587 164.922 175.617 165.176 175.589 165.426C175.562 165.677 175.479 165.916 175.347 166.122C175.215 166.329 175.039 166.497 174.834 166.61C174.628 166.724 174.401 166.78 174.171 166.774Z" fill="#999999" stroke="#263238" stroke-width="0.580392" stroke-linecap="round" stroke-linejoin="round"/>
<path d="M177.825 164.687L166.556 124.549C166.426 124.098 166.172 123.702 165.828 123.416C165.484 123.13 165.068 122.968 164.637 122.953H162.315C162.746 122.968 163.162 123.13 163.506 123.416C163.85 123.702 164.104 124.098 164.234 124.549L175.503 164.687C175.587 164.922 175.617 165.176 175.589 165.426C175.562 165.677 175.479 165.916 175.347 166.122C175.215 166.329 175.039 166.496 174.834 166.61C174.628 166.724 174.401 166.78 174.171 166.774H176.528C176.755 166.774 176.978 166.713 177.179 166.596C177.379 166.48 177.551 166.312 177.679 166.106C177.807 165.901 177.887 165.664 177.912 165.416C177.938 165.169 177.908 164.919 177.825 164.687Z" fill="#858585" stroke="#263238" stroke-width="0.580392" stroke-linecap="round" stroke-linejoin="round"/>
<path d="M145.255 144.858C145.319 145.305 145.293 145.762 145.179 146.197C145.064 146.632 144.864 147.034 144.592 147.374C144.32 147.715 143.984 147.985 143.606 148.167C143.229 148.349 142.819 148.437 142.407 148.426C141.513 148.401 140.656 148.029 139.988 147.376C139.32 146.723 138.886 145.83 138.762 144.858C138.697 144.412 138.723 143.955 138.838 143.521C138.952 143.087 139.152 142.685 139.424 142.346C139.696 142.006 140.033 141.736 140.411 141.556C140.788 141.375 141.198 141.288 141.609 141.3C142.502 141.327 143.357 141.698 144.024 142.349C144.691 143 145.127 143.889 145.255 144.858Z" fill="white" stroke="#263238" stroke-width="0.580392" stroke-linecap="round" stroke-linejoin="round"/>
</svg>
