<svg width="422" height="319" viewBox="0 0 422 319" fill="none" xmlns="http://www.w3.org/2000/svg">
<rect width="422" height="319" fill="#E5E5E5"/>
<g clip-path="url(#clip0_0_1)">
<rect width="1440" height="6489" transform="translate(-195 -1552)" fill="#191919"/>
<g filter="url(#filter0_bd_0_1)">
<g clip-path="url(#clip1_0_1)">
<rect x="-10" y="-53" width="483" height="700" rx="5" fill="url(#paint0_linear_0_1)" fill-opacity="0.9" shape-rendering="crispEdges"/>
<path d="M12.0991 318.007H420.861" stroke="#263238" stroke-width="0.580392" stroke-linecap="round" stroke-linejoin="round"/>
<path d="M82.0582 208.383C87.9885 213.191 86.0117 241.462 104.554 229.298C123.096 217.134 91.5072 209.931 93.3061 203.036C95.8364 193.42 137.557 204.959 130.559 186.496C123.561 168.033 98.6138 195.805 92.0608 188.929C86.0315 182.602 116.059 159.735 102.063 155.85C88.0676 151.965 91.0427 185.035 82.0582 185.035C75.0405 185.035 76.3551 153.417 63.4565 164.6C50.5579 175.784 78.747 186.814 75.0603 193.757C72.2532 199.036 50.0637 186.006 51.062 198.17C52.0603 210.335 75.7324 203.296 82.0582 208.383Z" fill="#407BFF"/>
<path d="M86.0118 193.92C86.0118 193.92 72.53 209.816 74.0324 253.137" stroke="#263238" stroke-width="0.580392" stroke-linecap="round" stroke-linejoin="round"/>
<path d="M112.333 216.451C109.941 211.768 90.1039 208.566 101.461 198.401C112.817 188.237 112.778 210.027 117.828 209.941C124.895 209.825 123.522 180.688 135.185 188.208C146.848 195.728 123.66 207.623 127.376 212.999C130.786 217.951 151.365 201.95 151.829 211.729C152.294 221.509 129.907 214.268 128.473 220.163C127.357 224.75 149.418 228.923 139.632 235.549C129.847 242.174 126.714 222.019 121.337 223.326C117.235 224.288 122.711 240.914 114.468 238.318C106.225 235.722 114.843 221.355 112.333 216.451Z" fill="#407BFF"/>
<path opacity="0.3" d="M112.333 216.451C109.941 211.768 90.1039 208.566 101.461 198.401C112.817 188.237 112.778 210.027 117.828 209.941C124.895 209.825 123.522 180.688 135.185 188.208C146.848 195.728 123.66 207.623 127.376 212.999C130.786 217.951 151.365 201.95 151.829 211.729C152.294 221.509 129.907 214.268 128.473 220.163C127.357 224.75 149.418 228.923 139.632 235.549C129.847 242.174 126.714 222.019 121.337 223.326C117.235 224.288 122.711 240.914 114.468 238.318C106.225 235.722 114.843 221.355 112.333 216.451Z" fill="black"/>
<path d="M122.583 216.653C122.583 216.653 84.1636 212.758 80.3682 253.137" stroke="#263238" stroke-width="0.580392" stroke-linecap="round" stroke-linejoin="round"/>
<path d="M49.2829 212.277C43.3525 217.085 45.3293 245.357 26.7869 233.193C8.24458 221.028 39.8437 213.816 38.0349 206.931C35.5145 197.315 -6.2157 208.854 0.792049 190.391C7.79979 171.928 32.7272 199.709 39.3396 192.824C45.3589 186.506 15.3413 163.639 29.337 159.744C43.3327 155.85 40.3181 188.939 49.3323 188.939C56.3499 188.939 55.0453 157.311 67.9439 168.504C80.8425 179.698 52.6434 190.718 56.3401 197.661C59.1372 202.94 81.3367 189.91 80.3384 202.065C79.3401 214.22 55.579 207.19 49.2829 212.277Z" fill="#407BFF"/>
<path opacity="0.3" d="M49.2829 212.277C43.3525 217.085 45.3293 245.357 26.7869 233.193C8.24458 221.028 39.8437 213.816 38.0349 206.931C35.5145 197.315 -6.2157 208.854 0.792049 190.391C7.79979 171.928 32.7272 199.709 39.3396 192.824C45.3589 186.506 15.3413 163.639 29.337 159.744C43.3327 155.85 40.3181 188.939 49.3323 188.939C56.3499 188.939 55.0453 157.311 67.9439 168.504C80.8425 179.698 52.6434 190.718 56.3401 197.661C59.1372 202.94 81.3367 189.91 80.3384 202.065C79.3401 214.22 55.579 207.19 49.2829 212.277Z" fill="white"/>
<path d="M45.0327 197.815C45.0327 197.815 62.5274 220.547 66.5304 258.483" stroke="#263238" stroke-width="0.580392" stroke-linecap="round" stroke-linejoin="round"/>
<path d="M57.5559 317.844H84.8357C87.3681 317.855 89.8117 316.936 91.6786 315.271C93.5455 313.606 94.6985 311.318 94.9075 308.862L99.1971 259.82C99.309 258.473 99.133 257.118 98.6802 255.84C98.2274 254.563 97.5075 253.39 96.5661 252.396C95.6246 251.403 94.4818 250.609 93.2097 250.067C91.9377 249.524 90.5638 249.243 89.1747 249.242H53.2662C51.8775 249.243 50.5041 249.524 49.2325 250.067C47.9609 250.61 46.8187 251.403 45.878 252.397C44.9373 253.391 44.2184 254.563 43.7668 255.841C43.3151 257.119 43.1404 258.473 43.2537 259.82L47.5434 308.862C47.7493 311.309 48.8932 313.59 50.748 315.254C52.6029 316.918 55.033 317.842 57.5559 317.844V317.844Z" fill="#407BFF" stroke="#263238" stroke-width="0.580392" stroke-linecap="round" stroke-linejoin="round"/>
<path d="M261.828 247.415C252.705 247.415 226.375 241.645 226.375 241.645H297.282C297.282 241.645 270.941 247.415 261.828 247.415Z" fill="#263238" stroke="#263238" stroke-width="0.580392" stroke-linecap="round" stroke-linejoin="round"/>
<path d="M269.953 244.521H253.704V255.358H269.953V244.521Z" fill="#858585" stroke="#263238" stroke-width="0.580392" stroke-linecap="round" stroke-linejoin="round"/>
<path d="M272.355 255.358H251.302V301.948H272.355V255.358Z" fill="#999999" stroke="#263238" stroke-width="0.580392" stroke-linecap="round" stroke-linejoin="round"/>
<path d="M301.374 227.808H287.645C289.167 218.634 290.294 209.287 290.986 200.026H304.665C304.013 209.287 302.896 218.634 301.374 227.808Z" fill="#858585" stroke="#263238" stroke-width="0.580392" stroke-linecap="round" stroke-linejoin="round"/>
<path d="M322.161 117.962H263.173C256.254 117.962 251.698 123.664 253.042 130.376C256.809 150.881 259.062 171.622 259.783 192.439C259.776 193.86 260.06 195.267 260.617 196.58C261.174 197.892 261.993 199.084 263.028 200.086C264.062 201.088 265.291 201.88 266.643 202.417C267.995 202.953 269.442 203.222 270.902 203.209H320.559C323.646 203.179 326.619 202.078 328.944 200.103C331.269 198.128 332.793 195.41 333.241 192.439C335.635 171.839 336.5 151.098 335.83 130.376C335.504 123.664 329.089 117.962 322.161 117.962Z" fill="#858585" stroke="#263238" stroke-width="0.580392" stroke-linecap="round" stroke-linejoin="round"/>
<path d="M325.372 130.376C326.042 151.098 325.177 171.839 322.783 192.439C322.335 195.41 320.812 198.128 318.487 200.103C316.162 202.078 313.188 203.179 310.102 203.209H270.902C269.442 203.222 267.994 202.953 266.643 202.417C265.291 201.88 264.062 201.088 263.027 200.086C261.993 199.084 261.173 197.892 260.616 196.58C260.059 195.267 259.776 193.86 259.782 192.439C259.064 171.622 256.815 150.881 253.051 130.376C251.707 123.645 256.244 117.962 263.182 117.962H311.703C318.632 117.962 325.046 123.664 325.372 130.376Z" fill="#999999" stroke="#263238" stroke-width="0.580392" stroke-linecap="round" stroke-linejoin="round"/>
<path d="M297.282 310.314C297.282 310.57 297.224 310.823 297.11 311.054C296.997 311.285 296.831 311.488 296.627 311.648C296.422 311.809 296.183 311.923 295.927 311.981C295.671 312.04 295.404 312.042 295.147 311.988C288.693 310.622 269.37 306.66 261.828 306.66C254.287 306.66 234.954 310.622 228.5 311.988C228.243 312.042 227.977 312.04 227.722 311.982C227.466 311.923 227.228 311.809 227.023 311.648C226.819 311.488 226.655 311.284 226.543 311.053C226.43 310.822 226.373 310.57 226.375 310.314C226.374 309.286 226.735 308.289 227.399 307.489C228.063 306.689 228.989 306.135 230.022 305.92C237.573 304.343 254.801 300.91 261.828 300.91C268.856 300.91 286.084 304.343 293.635 305.92C294.667 306.137 295.592 306.692 296.255 307.491C296.919 308.291 297.281 309.287 297.282 310.314V310.314Z" fill="#263238" stroke="#263238" stroke-width="0.580392" stroke-linecap="round" stroke-linejoin="round"/>
<path d="M226.365 306.853C225.164 306.851 223.989 307.196 222.989 307.844C221.99 308.492 221.211 309.414 220.75 310.493C220.289 311.572 220.168 312.76 220.402 313.906C220.636 315.053 221.214 316.106 222.064 316.932C222.913 317.758 223.995 318.321 225.173 318.548C226.352 318.776 227.573 318.658 228.682 318.21C229.791 317.762 230.739 317.004 231.405 316.031C232.071 315.059 232.426 313.916 232.424 312.747C232.421 311.185 231.782 309.687 230.646 308.582C229.51 307.477 227.971 306.855 226.365 306.853V306.853ZM226.365 315.95C225.713 315.951 225.076 315.765 224.534 315.415C223.991 315.064 223.568 314.564 223.317 313.979C223.066 313.394 223 312.75 223.126 312.129C223.251 311.507 223.564 310.935 224.024 310.486C224.484 310.038 225.07 309.732 225.709 309.607C226.348 309.483 227.01 309.546 227.612 309.788C228.214 310.03 228.729 310.44 229.091 310.967C229.453 311.494 229.646 312.114 229.646 312.747C229.646 313.595 229.301 314.408 228.686 315.008C228.071 315.608 227.236 315.947 226.365 315.95Z" fill="#858585" stroke="#263238" stroke-width="0.580392" stroke-linecap="round" stroke-linejoin="round"/>
<path d="M261.828 306.853C260.625 306.849 259.448 307.193 258.446 307.842C257.444 308.49 256.663 309.414 256.203 310.495C255.742 311.577 255.622 312.767 255.858 313.915C256.094 315.063 256.675 316.116 257.528 316.942C258.381 317.768 259.467 318.328 260.648 318.552C261.829 318.776 263.051 318.654 264.161 318.2C265.27 317.746 266.215 316.982 266.877 316.004C267.539 315.026 267.887 313.879 267.877 312.709C267.864 311.155 267.222 309.668 266.089 308.572C264.957 307.475 263.426 306.858 261.828 306.853ZM261.828 315.95C261.178 315.951 260.543 315.766 260.001 315.417C259.459 315.068 259.036 314.571 258.784 313.988C258.532 313.405 258.464 312.763 258.586 312.143C258.709 311.522 259.018 310.95 259.474 310.5C259.93 310.05 260.512 309.741 261.149 309.612C261.785 309.484 262.446 309.541 263.048 309.777C263.651 310.013 264.168 310.418 264.535 310.939C264.902 311.461 265.102 312.077 265.11 312.709C265.115 313.132 265.034 313.552 264.871 313.944C264.709 314.336 264.468 314.693 264.163 314.995C263.858 315.296 263.495 315.536 263.094 315.699C262.693 315.863 262.263 315.948 261.828 315.95Z" fill="#858585" stroke="#263238" stroke-width="0.580392" stroke-linecap="round" stroke-linejoin="round"/>
<path d="M296.541 306.853C295.34 306.853 294.167 307.199 293.168 307.848C292.17 308.497 291.392 309.42 290.933 310.5C290.474 311.579 290.355 312.767 290.59 313.912C290.824 315.058 291.403 316.11 292.253 316.935C293.103 317.761 294.185 318.322 295.363 318.549C296.541 318.776 297.761 318.657 298.87 318.209C299.979 317.761 300.926 317.002 301.592 316.03C302.257 315.058 302.612 313.916 302.61 312.747C302.61 311.972 302.453 311.205 302.148 310.489C301.842 309.773 301.395 309.123 300.832 308.576C300.268 308.028 299.599 307.594 298.863 307.298C298.126 307.003 297.337 306.851 296.541 306.853V306.853ZM296.541 315.95C295.89 315.95 295.254 315.762 294.712 315.41C294.171 315.058 293.749 314.558 293.5 313.973C293.251 313.388 293.186 312.744 293.313 312.123C293.44 311.501 293.753 310.931 294.214 310.483C294.674 310.035 295.26 309.73 295.899 309.607C296.537 309.483 297.199 309.546 297.8 309.789C298.402 310.031 298.916 310.442 299.278 310.968C299.639 311.495 299.832 312.114 299.832 312.747C299.832 313.597 299.486 314.411 298.868 315.012C298.251 315.612 297.414 315.95 296.541 315.95Z" fill="#858585" stroke="#263238" stroke-width="0.580392" stroke-linecap="round" stroke-linejoin="round"/>
<path d="M279.797 225.942C256.133 226.673 232.445 225.654 208.939 222.894C207.854 222.703 206.739 222.75 205.675 223.032C204.611 223.313 203.625 223.822 202.789 224.522C201.953 225.221 201.288 226.093 200.842 227.074C200.396 228.055 200.181 229.12 200.211 230.192V231.317C200.269 233.68 201.172 235.949 202.766 237.733C204.359 239.516 206.542 240.703 208.939 241.087C232.445 243.843 256.133 244.862 279.797 244.136V225.942Z" fill="#999999" stroke="#263238" stroke-width="0.580392" stroke-linecap="round" stroke-linejoin="round"/>
<path d="M316.961 240.789C302.274 242.578 287.714 243.761 272.928 244.376C272.076 244.402 271.228 244.261 270.433 243.96C269.639 243.659 268.915 243.206 268.305 242.627C267.695 242.048 267.212 241.355 266.884 240.59C266.555 239.825 266.389 239.003 266.395 238.174V232.645C266.412 230.955 267.103 229.338 268.322 228.134C269.54 226.931 271.192 226.234 272.928 226.192C287.754 225.567 302.274 224.384 316.961 222.596C317.766 222.449 318.594 222.479 319.384 222.684C320.175 222.89 320.909 223.265 321.531 223.783C322.153 224.3 322.647 224.947 322.979 225.675C323.31 226.403 323.469 227.194 323.445 227.99V233.52C323.397 235.275 322.724 236.959 321.542 238.285C320.359 239.611 318.74 240.496 316.961 240.789V240.789Z" fill="#858585" stroke="#263238" stroke-width="0.580392" stroke-linecap="round" stroke-linejoin="round"/>
<path d="M218.625 315.594C218.625 312.382 217.904 305.978 214.009 297.66L208.939 279.87L193.124 286.437L197.572 300.064C197.572 300.064 183.982 306.372 178.961 308.074C175.62 309.209 165.617 311.44 166.111 315.613C166.111 315.907 166.171 316.199 166.287 316.47C166.402 316.742 166.572 316.989 166.786 317.197C167 317.405 167.254 317.57 167.533 317.683C167.813 317.796 168.112 317.854 168.414 317.854H216.312C216.617 317.855 216.919 317.797 217.201 317.684C217.483 317.571 217.739 317.404 217.954 317.194C218.169 316.984 218.339 316.734 218.455 316.459C218.57 316.185 218.628 315.89 218.625 315.594V315.594Z" fill="white" stroke="#263238" stroke-width="0.580392" stroke-linecap="round" stroke-linejoin="round"/>
<path d="M209.917 305.179C207.446 306.949 194.271 309.189 197.572 306.622C200.873 304.054 197.572 300.054 197.572 300.054C197.572 300.054 183.982 306.362 178.961 308.064C175.62 309.199 165.617 311.43 166.111 315.603C166.111 315.898 166.171 316.189 166.287 316.461C166.402 316.733 166.572 316.98 166.786 317.188C167 317.396 167.254 317.561 167.533 317.673C167.813 317.786 168.112 317.844 168.414 317.844H216.312C216.617 317.845 216.918 317.788 217.2 317.674C217.481 317.561 217.736 317.394 217.951 317.184C218.165 316.973 218.334 316.724 218.448 316.449C218.562 316.174 218.619 315.88 218.615 315.584C218.453 310.713 217.43 305.905 215.591 301.371C212.873 301.4 212.388 303.42 209.917 305.179Z" fill="#407BFF" stroke="#263238" stroke-width="0.580392" stroke-linecap="round" stroke-linejoin="round"/>
<path d="M230.061 317.844H265.15C265.501 317.843 265.84 317.724 266.111 317.507C266.381 317.289 266.566 316.987 266.632 316.651C267.166 313.94 267.047 307.872 263.884 299.814L263.568 283.466L245.599 286.437L247.872 300.381C247.872 300.381 240.637 308.132 237.198 309.516C234.786 310.478 229.291 310.593 228.559 316.248C228.54 316.451 228.564 316.655 228.631 316.848C228.698 317.042 228.806 317.219 228.947 317.369C229.089 317.52 229.261 317.639 229.453 317.721C229.645 317.803 229.852 317.845 230.061 317.844Z" fill="white" stroke="#263238" stroke-width="0.580392" stroke-linecap="round" stroke-linejoin="round"/>
<path d="M257.993 305.247C254.287 307.766 251.549 308.064 253.279 304.285C255.008 300.506 247.912 300.371 247.912 300.371C247.912 300.371 240.677 308.122 237.237 309.507C234.825 310.468 229.33 310.584 228.598 316.238C228.573 316.444 228.593 316.653 228.657 316.851C228.722 317.048 228.828 317.231 228.97 317.385C229.112 317.54 229.287 317.663 229.482 317.747C229.677 317.831 229.888 317.874 230.101 317.873H265.189C265.54 317.872 265.88 317.753 266.15 317.535C266.421 317.318 266.605 317.016 266.672 316.68C267.205 313.969 267.087 307.901 263.924 299.842C261.176 300.458 261.67 302.718 257.993 305.247Z" fill="#407BFF" stroke="#263238" stroke-width="0.580392" stroke-linecap="round" stroke-linejoin="round"/>
<path d="M226.572 192.997C226.572 192.997 223.034 196.517 208.574 198.767C194.113 201.017 164.096 208.056 164.461 219.595C164.827 231.135 192.473 292.678 192.473 292.678C192.473 292.678 206.31 290.12 212.735 286.274C212.735 286.274 201.595 242.357 193.243 230.817C193.243 230.817 230.733 226.327 251.47 217.999C272.207 209.671 260.01 190.689 260.01 190.689L226.572 192.997Z" fill="#263238" stroke="#263238" stroke-width="0.580392" stroke-linecap="round" stroke-linejoin="round"/>
<path d="M250.086 191.372C250.086 191.372 255.404 200.026 251.43 204.835C247.457 209.643 224.892 218.615 227.442 229.519C229.992 240.424 238.413 255.8 243.899 292.342C243.899 292.342 256.679 290.419 265.238 286.889C265.238 286.889 266.662 249.713 256.728 233.683C256.728 233.683 285.174 228.558 288.06 219.259C290.947 209.96 285.55 195.747 285.441 190.67L250.086 191.372Z" fill="#263238" stroke="#263238" stroke-width="0.580392" stroke-linecap="round" stroke-linejoin="round"/>
<path d="M232.987 205.144C232.329 205.093 231.668 205.093 231.01 205.144" stroke="#7F7F7F" stroke-width="0.435294" stroke-linecap="round" stroke-linejoin="round"/>
<path d="M234.272 199.401C234.272 199.401 240.113 201.075 242.406 208.489C242.436 208.61 242.426 208.738 242.377 208.854C242.328 208.97 242.243 209.068 242.133 209.134C242.024 209.2 241.896 209.23 241.768 209.222C241.639 209.213 241.517 209.165 241.418 209.085C239.852 207.518 237.924 206.337 235.794 205.642" stroke="#7F7F7F" stroke-width="0.435294" stroke-linecap="round" stroke-linejoin="round"/>
<path d="M190.496 230.414C190.496 227.288 176.658 225.606 180.365 222.721C184.071 219.836 192.473 229.212 192.473 229.212" stroke="#7F7F7F" stroke-width="0.435294" stroke-linecap="round" stroke-linejoin="round"/>
<path d="M258.487 242.915C258.487 239.337 245.263 237.385 245.925 233.539C246.587 229.692 254.989 237.27 254.989 237.27" stroke="#7F7F7F" stroke-width="0.435294" stroke-linecap="round" stroke-linejoin="round"/>
<path d="M191.009 292.9L192.462 296.169C192.543 296.35 192.685 296.498 192.866 296.587C193.046 296.677 193.253 296.702 193.451 296.659C196.643 295.957 209.967 292.9 214.642 289.63C214.778 289.533 214.881 289.399 214.937 289.245C214.993 289.09 215.001 288.923 214.958 288.765L214.049 285.12C214.018 284.994 213.958 284.877 213.873 284.778C213.788 284.678 213.681 284.599 213.559 284.547C213.437 284.495 213.305 284.471 213.172 284.477C213.039 284.483 212.91 284.519 212.794 284.582C210.688 285.697 204.827 288.361 191.593 291.746C191.472 291.777 191.359 291.834 191.263 291.911C191.166 291.988 191.088 292.085 191.033 292.194C190.977 292.303 190.947 292.423 190.943 292.544C190.939 292.666 190.962 292.787 191.009 292.9V292.9Z" fill="#999999" stroke="#263238" stroke-width="0.580392" stroke-linecap="round" stroke-linejoin="round"/>
<path d="M242.327 290.207C242.311 290.094 242.324 289.979 242.366 289.873C242.409 289.767 242.478 289.673 242.569 289.6C242.659 289.528 242.767 289.479 242.882 289.459C242.998 289.439 243.116 289.448 243.227 289.486C244.833 289.973 246.549 289.997 248.169 289.553C251.836 288.746 262.323 285.514 265.446 284.543C265.548 284.511 265.657 284.504 265.763 284.52C265.869 284.537 265.97 284.578 266.057 284.64C266.144 284.702 266.214 284.783 266.262 284.876C266.311 284.97 266.336 285.073 266.336 285.178V289.428C266.337 289.557 266.299 289.683 266.227 289.791C266.155 289.898 266.052 289.983 265.93 290.034C263.479 291.101 250.343 296.573 243.474 295.083C243.34 295.052 243.219 294.982 243.127 294.882C243.035 294.783 242.977 294.658 242.96 294.525L242.327 290.207Z" fill="#999999" stroke="#263238" stroke-width="0.580392" stroke-linecap="round" stroke-linejoin="round"/>
<path d="M252.903 201.161C252.807 202.49 252.309 203.762 251.47 204.815C248.564 208.325 235.784 214.047 230.061 221.163" stroke="#7F7F7F" stroke-width="0.580392" stroke-linecap="round" stroke-linejoin="round"/>
<path d="M252.28 196.353C252.502 197.062 252.67 197.785 252.784 198.517" stroke="#7F7F7F" stroke-width="0.580392" stroke-linecap="round" stroke-linejoin="round"/>
<path d="M176.589 310.228C177.395 311.658 177.978 313.198 178.319 314.796H214.01C214.142 313.282 214.846 311.871 215.986 310.834" stroke="#263238" stroke-width="0.580392" stroke-linecap="round" stroke-linejoin="round"/>
<path d="M238.611 310.228C238.611 310.228 243.553 310.593 245.401 314.796H264.062C264.625 313.541 264.96 312.2 265.051 310.834" stroke="#263238" stroke-width="0.580392" stroke-linecap="round" stroke-linejoin="round"/>
<path d="M209.354 138.656C209.809 140.348 210.283 142.031 210.758 143.676C215.7 160.985 222.124 193.92 222.124 193.92C253.753 200.411 287.112 193.92 287.112 193.92C287.29 186.746 286.39 177.274 285.392 167.322C290.571 165.927 294.287 161.273 294.525 153.532C294.772 144.156 293.022 127.28 292.054 119.395C291.194 112.461 291.807 108.336 280.766 103.047C275.231 99.9411 266.039 98.4698 254.742 96.9986C232.503 94.1137 216.451 98.4891 210.758 100.845C206.241 99.6911 204.986 104.845 204.986 104.845C202.485 103.009 199.579 110.798 199.579 110.798C192.265 119.875 186.512 135.165 184.595 140.608C184.171 141.798 183.393 142.839 182.361 143.599C177.172 147.445 180.058 152.205 180.058 152.205L190.683 155.369C190.683 155.369 195.833 156.677 199.767 150.09C203.048 144.589 208.425 135.252 209.354 138.656Z" fill="#407BFF"/>
<path opacity="0.3" d="M192.64 151.032C192.64 151.032 192.393 146.224 188.44 145.387C184.486 144.551 189.547 143.108 192.64 143.829C195.734 144.551 195.013 141.906 197.662 137.579C200.31 133.252 201.615 129.828 203.849 132.319C206.083 134.809 208.405 135.204 209.354 138.608C210.303 142.012 205.608 150.147 205.608 150.147L198.235 155.715L194.489 157.754H188.904L186.987 153.051L192.64 151.032Z" fill="black"/>
<path d="M209.354 138.656C209.809 140.348 210.283 142.031 210.758 143.676C215.7 160.985 222.124 193.92 222.124 193.92C253.753 200.411 287.112 193.92 287.112 193.92C287.29 186.746 286.39 177.274 285.392 167.322C290.571 165.927 294.287 161.273 294.525 153.532C294.772 144.156 293.022 127.28 292.054 119.395C291.194 112.461 291.807 108.336 280.766 103.047C275.231 99.9411 266.039 98.4698 254.742 96.9986C232.503 94.1137 216.451 98.4891 210.758 100.845C206.241 99.6911 204.986 104.845 204.986 104.845C202.485 103.009 199.579 110.798 199.579 110.798C192.265 119.875 186.512 135.165 184.595 140.608C184.171 141.798 183.393 142.839 182.361 143.599C177.172 147.445 180.058 152.205 180.058 152.205L190.683 155.369C190.683 155.369 195.833 156.677 199.767 150.09C203.048 144.589 208.425 135.252 209.354 138.656Z" stroke="#263238" stroke-width="0.580392" stroke-linecap="round" stroke-linejoin="round"/>
<path opacity="0.3" d="M287.111 193.872C287.136 187.693 286.823 181.517 286.172 175.37C287.25 190.016 255.907 194.603 254.919 186.66C253.931 178.717 285.391 167.274 268.272 171.274C253.338 174.765 224.387 171.428 217.271 170.524C220.009 183.025 222.124 193.872 222.124 193.872C253.753 200.363 287.111 193.872 287.111 193.872Z" fill="black"/>
<path opacity="0.3" d="M272.74 120.308C272.74 120.308 268.263 133.05 268.273 139.781C268.283 146.512 255.73 151.032 255.7 151.032C262.431 149.705 268.974 147.945 272.098 147.061C272.636 146.913 273.104 146.587 273.421 146.139C273.739 145.692 273.886 145.15 273.837 144.608C273.04 136.532 272.674 128.421 272.74 120.308V120.308Z" fill="black"/>
<path d="M205.213 117.106C205.255 123.11 206.369 129.061 208.504 134.694C208.566 134.859 208.572 135.039 208.522 135.208C208.471 135.377 208.367 135.526 208.224 135.633C208.08 135.74 207.906 135.8 207.725 135.804C207.545 135.808 207.367 135.756 207.219 135.656C205.519 134.473 203.117 132.069 200.953 127.222" stroke="#263238" stroke-width="0.435294" stroke-linecap="round" stroke-linejoin="round"/>
<path d="M289.088 156.369C286.479 147.955 281.962 145.849 278.463 145.637C278.355 145.622 278.254 145.577 278.173 145.506C278.091 145.435 278.033 145.343 278.006 145.24C277.978 145.137 277.983 145.029 278.018 144.928C278.054 144.828 278.119 144.74 278.206 144.676C280.242 143.608 284.206 142.752 289.078 148.003" stroke="#263238" stroke-width="0.435294" stroke-linecap="round" stroke-linejoin="round"/>
<path d="M238.947 132.29C238.905 132.644 238.73 132.97 238.457 133.207C238.184 133.444 237.83 133.575 237.464 133.575C237.098 133.575 236.745 133.444 236.471 133.207C236.198 132.97 236.024 132.644 235.982 132.29C235.957 132.086 235.978 131.88 236.041 131.685C236.105 131.49 236.21 131.31 236.35 131.157C236.49 131.004 236.662 130.882 236.854 130.798C237.046 130.714 237.254 130.671 237.464 130.671C237.675 130.671 237.883 130.714 238.075 130.798C238.267 130.882 238.438 131.004 238.578 131.157C238.718 131.31 238.824 131.49 238.887 131.685C238.951 131.88 238.971 132.086 238.947 132.29V132.29Z" fill="#999999" stroke="#263238" stroke-width="0.435294" stroke-linecap="round" stroke-linejoin="round"/>
<path d="M240.953 148.657C240.953 148.942 240.866 149.221 240.703 149.458C240.54 149.695 240.309 149.88 240.038 149.99C239.767 150.099 239.469 150.127 239.181 150.072C238.894 150.016 238.629 149.879 238.422 149.677C238.215 149.475 238.073 149.218 238.016 148.938C237.959 148.659 237.988 148.368 238.101 148.105C238.213 147.841 238.403 147.616 238.647 147.458C238.891 147.299 239.177 147.214 239.47 147.214C239.864 147.214 240.241 147.366 240.519 147.637C240.797 147.907 240.953 148.274 240.953 148.657Z" fill="#999999" stroke="#263238" stroke-width="0.435294" stroke-linecap="round" stroke-linejoin="round"/>
<path d="M245.925 188.102C245.927 188.39 245.841 188.672 245.678 188.912C245.515 189.152 245.283 189.339 245.01 189.451C244.738 189.562 244.437 189.592 244.147 189.537C243.857 189.482 243.59 189.345 243.381 189.142C243.171 188.94 243.028 188.681 242.969 188.399C242.911 188.117 242.94 187.824 243.053 187.559C243.165 187.293 243.357 187.065 243.602 186.905C243.848 186.745 244.137 186.66 244.432 186.66C244.827 186.66 245.205 186.812 245.484 187.082C245.764 187.352 245.922 187.719 245.925 188.102V188.102Z" fill="#999999" stroke="#263238" stroke-width="0.580392" stroke-linecap="round" stroke-linejoin="round"/>
<path d="M217.538 159.379C217.538 159.379 212.685 163.879 214.998 163.956C217.311 164.033 220.226 160.937 222.905 160.581C225.584 160.225 221.254 158.658 221.254 158.658L217.538 159.379Z" fill="white" stroke="#263238" stroke-width="0.580392" stroke-linecap="round" stroke-linejoin="round"/>
<path d="M245.875 154.311C245.658 154.122 245.403 153.978 245.125 153.888C244.848 153.799 244.555 153.766 244.264 153.792C241.892 153.984 235.072 154.484 232.502 154.33C227.936 154.052 214.484 151.282 214.484 151.282C214.174 151.231 213.857 151.247 213.555 151.33L205.223 153.715C204.919 153.8 204.641 153.955 204.412 154.167L199.371 158.667C199.206 158.818 199.065 158.993 198.956 159.187L197.908 161.052C197.692 161.435 197.611 161.877 197.677 162.309C197.743 162.742 197.953 163.141 198.274 163.447V163.447L206.596 163.658C207.111 163.682 207.614 163.509 208 163.177L210.471 161.119C210.636 160.98 210.779 160.818 210.896 160.639C211.499 159.677 213.861 156.504 217.518 156.792C217.518 156.792 209.611 160.879 211.103 162.562C212.596 164.245 218.645 159.437 220.622 159.917C222.599 160.398 222.727 165.12 233.471 163.408C233.951 163.329 234.444 163.352 234.914 163.475L244.699 166.139C244.989 166.217 245.293 166.238 245.591 166.201C245.89 166.164 246.178 166.069 246.438 165.922C246.699 165.775 246.926 165.579 247.108 165.346C247.29 165.112 247.422 164.846 247.496 164.562C248.257 161.831 248.929 157.023 245.875 154.311Z" fill="white" stroke="#263238" stroke-width="0.580392" stroke-linecap="round" stroke-linejoin="round"/>
<path d="M215.651 153.003L213.555 153.349C212.533 153.518 211.579 153.957 210.798 154.619L208.574 156.475C208.195 156.806 207.863 157.184 207.585 157.6L206.152 159.725C205.997 159.96 205.821 160.182 205.628 160.389C204.778 161.35 202.436 164.014 204.966 163.648" fill="white"/>
<path d="M215.651 153.003L213.555 153.349C212.533 153.518 211.579 153.957 210.798 154.619L208.574 156.475C208.195 156.806 207.863 157.184 207.585 157.6L206.152 159.725C205.997 159.96 205.821 160.182 205.628 160.389C204.778 161.35 202.436 164.014 204.966 163.648" stroke="#263238" stroke-width="0.580392" stroke-linecap="round" stroke-linejoin="round"/>
<path d="M209.75 153.725L207.585 154.302C206.909 154.462 206.288 154.794 205.786 155.263L204.096 156.84C203.93 156.984 203.78 157.145 203.651 157.321L200.874 160.908C200.874 160.908 199.391 163.447 200.874 163.495" fill="white"/>
<path d="M209.75 153.725L207.585 154.302C206.909 154.462 206.288 154.794 205.786 155.263L204.096 156.84C203.93 156.984 203.78 157.145 203.651 157.321L200.874 160.908C200.874 160.908 199.391 163.447 200.874 163.495" stroke="#263238" stroke-width="0.580392" stroke-linecap="round" stroke-linejoin="round"/>
<path d="M272.819 118.27C272.609 127.061 272.939 135.856 273.808 144.608C273.856 145.15 273.709 145.692 273.392 146.139C273.074 146.587 272.606 146.913 272.068 147.061C264.21 149.321 256.206 151.072 248.109 152.301" stroke="#263238" stroke-width="0.580392" stroke-linecap="round" stroke-linejoin="round"/>
<path d="M273.294 112.307C273.165 113.269 273.057 114.317 272.978 115.385" stroke="#263238" stroke-width="0.435294" stroke-linecap="round" stroke-linejoin="round"/>
<path d="M276.605 103.307C275.478 104.268 274.628 106.009 274.045 108.317" stroke="#263238" stroke-width="0.435294" stroke-linecap="round" stroke-linejoin="round"/>
<path d="M227.116 97.5948C227.116 97.5948 227.739 95.6715 231.07 94.5849C234.4 93.4983 245.955 91.777 251.895 94.5849C257.835 97.3928 246.459 112.673 246.459 112.673L241.191 119.77L236.496 123.193L234.4 117.106L231.682 114.356C231.682 114.356 225.811 109.673 226.305 105.047C226.8 100.422 227.116 97.5948 227.116 97.5948Z" fill="white"/>
<path d="M256.284 97.1909C255.355 94.0272 251.114 93.1425 251.114 93.1425C230.852 89.7768 226.573 96.989 226.573 96.989C224.088 103.503 224.088 110.669 226.573 117.183C226.573 117.183 232.335 114.856 233.323 117.183C234.312 119.51 236.12 124.472 236.12 124.472C238.871 122.964 241.271 120.917 243.168 118.462C246.301 114.452 253.655 118.462 253.655 118.462C258.419 110.452 256.284 97.1909 256.284 97.1909ZM251.342 96.9601C243.494 120.924 236.575 121.962 236.575 121.962C234.272 113.154 232.295 115.077 229.162 109.567C226.652 105.144 227.502 99.5469 227.937 97.4986C227.988 97.2542 228.094 97.0238 228.248 96.8242C228.402 96.6247 228.599 96.4609 228.826 96.3447C236.615 92.4982 246.143 93.9118 250.067 94.7484C250.31 94.7973 250.539 94.8955 250.74 95.0367C250.941 95.178 251.109 95.3589 251.233 95.5677C251.357 95.7766 251.435 96.0086 251.46 96.2485C251.486 96.4885 251.459 96.731 251.381 96.9601H251.342Z" fill="#407BFF"/>
<path opacity="0.4" d="M256.283 97.1909C255.354 94.0272 251.114 93.1425 251.114 93.1425C230.852 89.7768 226.572 96.989 226.572 96.989C224.087 103.503 224.087 110.669 226.572 117.183C226.572 117.183 232.334 114.856 233.323 117.183C234.311 119.51 236.12 124.472 236.12 124.472C238.871 122.964 241.27 120.917 243.167 118.462C246.3 114.452 253.654 118.462 253.654 118.462C258.418 110.452 256.283 97.1909 256.283 97.1909ZM251.341 96.9601C243.493 120.924 236.575 121.962 236.575 121.962C234.272 113.154 232.295 115.077 229.162 109.567C226.651 105.144 227.501 99.5469 227.936 97.4986C227.987 97.2542 228.093 97.0238 228.247 96.8242C228.401 96.6247 228.599 96.4609 228.826 96.3447C236.614 92.4982 246.142 93.9118 250.066 94.7484C250.309 94.7973 250.539 94.8955 250.74 95.0367C250.941 95.178 251.109 95.3589 251.233 95.5677C251.357 95.7766 251.434 96.0086 251.46 96.2485C251.485 96.4885 251.458 96.731 251.381 96.9601H251.341Z" fill="white"/>
<path d="M256.284 97.1909C255.355 94.0272 251.114 93.1425 251.114 93.1425C230.852 89.7768 226.573 96.989 226.573 96.989C224.088 103.503 224.088 110.669 226.573 117.183C226.573 117.183 232.335 114.856 233.323 117.183C234.312 119.51 236.12 124.472 236.12 124.472C238.871 122.964 241.271 120.917 243.168 118.462C246.301 114.452 253.655 118.462 253.655 118.462C258.419 110.452 256.284 97.1909 256.284 97.1909ZM251.342 96.9601C243.494 120.924 236.575 121.962 236.575 121.962C234.272 113.154 232.295 115.077 229.162 109.567C226.652 105.144 227.502 99.5469 227.937 97.4986C227.988 97.2542 228.094 97.0238 228.248 96.8242C228.402 96.6247 228.599 96.4609 228.826 96.3447C236.615 92.4982 246.143 93.9118 250.067 94.7484C250.31 94.7973 250.539 94.8955 250.74 95.0367C250.941 95.178 251.109 95.3589 251.233 95.5677C251.357 95.7766 251.435 96.0086 251.46 96.2485C251.486 96.4885 251.459 96.731 251.381 96.9601H251.342Z" stroke="#263238" stroke-width="0.580392" stroke-linecap="round" stroke-linejoin="round"/>
<path d="M223.201 60.5725C223.201 60.5725 205.736 63.9766 215.354 74.9968C226.018 87.2767 223.201 60.5725 223.201 60.5725Z" fill="#263238" stroke="#263238" stroke-width="0.580392" stroke-linecap="round" stroke-linejoin="round"/>
<path d="M216.312 87.5363C216.312 87.5363 212.161 71.1888 220.068 63.3323C227.975 55.4759 236.545 53.8796 242.969 57.7261C249.394 61.5726 252.063 71.1888 251.074 76.1507C250.086 81.1127 250.56 98.9026 241.754 106.278C232.947 113.654 227.531 111.836 221.709 101.787C217.844 95.2004 216.016 93.306 216.312 87.5363Z" fill="white" stroke="#263238" stroke-width="0.580392" stroke-linecap="round" stroke-linejoin="round"/>
<path d="M246.923 84.3341C246.923 84.3341 240.281 77.9201 238.245 70.3907C236.209 62.8612 235.063 61.5726 227.482 65.2556C219.901 68.9386 208.079 63.9863 211.173 54.6778C214.425 44.9078 224.358 57.5627 233.906 54.3605C243.454 51.1583 250.245 56.928 250.254 65.4191C250.254 65.4191 256.027 70.8715 250.254 84.9688L246.923 84.3341Z" fill="#263238" stroke="#263238" stroke-width="0.580392" stroke-linecap="round" stroke-linejoin="round"/>
<path d="M244.838 83.2571C244.838 83.2571 246.518 74.2948 251.183 75.1218C255.849 75.9488 252.518 89.1807 247.022 87.7383" fill="white"/>
<path d="M244.838 83.2571C244.838 83.2571 246.518 74.2948 251.183 75.1218C255.849 75.9488 252.518 89.1807 247.022 87.7383" stroke="#263238" stroke-width="0.580392" stroke-linecap="round" stroke-linejoin="round"/>
<path d="M222.628 86.2957C222.628 86.2957 220.79 94.6137 221.393 96.0368C221.996 97.46 227.64 96.3734 227.64 96.3734" fill="white"/>
<path d="M222.628 86.2957C222.628 86.2957 220.79 94.6137 221.393 96.0368C221.996 97.46 227.64 96.3734 227.64 96.3734" stroke="#263238" stroke-width="0.580392" stroke-linecap="round" stroke-linejoin="round"/>
<path d="M228.43 99.9988C228.43 99.9988 232.858 101.701 236.762 96.0369Z" fill="white"/>
<path d="M228.43 99.9988C228.43 99.9988 232.858 101.701 236.762 96.0369" stroke="#263238" stroke-width="0.580392" stroke-linecap="round" stroke-linejoin="round"/>
<path d="M219.594 86.9881C219.752 87.7574 219.544 88.4594 219.129 88.5459C218.714 88.6324 218.23 88.0747 218.062 87.2958C217.894 86.5169 218.062 85.8245 218.526 85.738C218.991 85.6514 219.445 86.2092 219.594 86.9881Z" fill="#263238"/>
<path d="M230.427 86.142C230.595 86.9113 230.427 87.6132 229.963 87.6998C229.498 87.7863 229.073 87.219 228.905 86.4497C228.737 85.6804 228.905 84.9784 229.369 84.8918C229.834 84.8053 230.318 85.363 230.427 86.142Z" fill="#263238"/>
<path d="M221.867 86.6228C222.095 88.8056 219.891 90.8058 216.846 91.0943C213.802 91.3828 211.232 89.8634 211.005 87.6805C210.778 85.4977 213.14 84.5456 216.145 84.2475C219.149 83.9494 221.65 84.4495 221.867 86.6228Z" stroke="#263238" stroke-width="0.580392" stroke-linecap="round" stroke-linejoin="round"/>
<path d="M235.853 85.2668C236.08 87.4401 233.827 89.4499 230.832 89.7384C227.837 90.0269 225.218 88.4979 224.99 86.3246C224.763 84.1514 227.125 83.1801 230.13 82.8916C233.135 82.6032 235.635 83.084 235.853 85.2668Z" stroke="#263238" stroke-width="0.580392" stroke-linecap="round" stroke-linejoin="round"/>
<path d="M221.867 86.621L224.991 86.3247" stroke="#263238" stroke-width="0.580392" stroke-linecap="round" stroke-linejoin="round"/>
<path d="M235.478 84.1707L246.963 77.5836" stroke="#263238" stroke-width="0.580392" stroke-linecap="round" stroke-linejoin="round"/>
<path d="M248.93 94.4312L249.473 95.7101" stroke="#263238" stroke-width="0.580392" stroke-linecap="round" stroke-linejoin="round"/>
<path d="M215.394 83.1128C215.394 83.1128 217.143 80.9492 219.288 81.9877Z" fill="white"/>
<path d="M215.394 83.1128C215.394 83.1128 217.143 80.9492 219.288 81.9877" stroke="#263238" stroke-width="0.580392" stroke-linecap="round" stroke-linejoin="round"/>
<path d="M233.283 82.1416C233.283 82.1416 230.209 79.2568 227.244 81.2954Z" fill="white"/>
<path d="M233.283 82.1416C233.283 82.1416 230.209 79.2568 227.244 81.2954" stroke="#263238" stroke-width="0.580392" stroke-linecap="round" stroke-linejoin="round"/>
<path d="M219.277 55.7645C223.952 57.2069 231.82 58.9763 238.245 57.0819C248.129 54.197 244.738 64.9671 246.962 67.9385" stroke="#7F7F7F" stroke-width="0.580392" stroke-linecap="round" stroke-linejoin="round"/>
<path d="M215.225 54.322C215.225 54.322 216.006 54.6585 217.34 55.1201" stroke="#7F7F7F" stroke-width="0.580392" stroke-linecap="round" stroke-linejoin="round"/>
<path d="M227.037 61.1198C227.561 60.9661 228.105 60.7837 228.678 60.5725" stroke="#7F7F7F" stroke-width="0.580392" stroke-linecap="round" stroke-linejoin="round"/>
<path d="M216.312 59.8513C216.312 59.8513 218.407 62.9957 225.148 61.6014" stroke="#7F7F7F" stroke-width="0.580392" stroke-linecap="round" stroke-linejoin="round"/>
<path d="M241.418 66.0153C241.939 69.7271 243.377 73.2609 245.609 76.3142" stroke="#7F7F7F" stroke-width="0.580392" stroke-linecap="round" stroke-linejoin="round"/>
<path d="M241.19 62.6111C241.177 63.1855 241.196 63.7602 241.249 64.3325" stroke="#7F7F7F" stroke-width="0.580392" stroke-linecap="round" stroke-linejoin="round"/>
<path opacity="0.3" d="M249.948 165.774C249.767 165.92 249.638 166.117 249.576 166.338C249.515 166.559 249.525 166.793 249.605 167.008C249.685 167.223 249.83 167.409 250.023 167.541C250.215 167.673 250.444 167.744 250.679 167.745C257.361 167.745 275.389 167.822 282.308 167.428C290.957 166.947 284.354 157.811 277.366 161.292C271.03 164.514 257.549 159.148 249.948 165.774Z" fill="black"/>
<path d="M174.681 156.754C174.681 156.754 178.724 146.282 188.865 147.945C199.006 149.609 191.257 157.869 186.374 158.6C186.374 158.6 185.633 155.725 174.681 156.754Z" fill="white" stroke="#263238" stroke-width="0.580392" stroke-linecap="round" stroke-linejoin="round"/>
<path d="M166.072 162.696C164.738 163.995 161.526 164.11 163.69 161.292C165.461 159.026 167.862 157.301 170.609 156.321C175.413 154.234 177.29 154.657 181.639 153.725C185.988 152.792 186.809 154.523 188.311 155.321C191.899 157.244 192.759 157.571 193.668 159.494C194.578 161.417 195.566 163.918 192.759 163.918C190.209 163.918 190.041 159.812 187.57 159.975C185.099 160.139 183.863 163.918 182.134 163.918H181.481C179.999 163.918 179.92 162.716 180.819 160.831C181.719 158.946 182.717 157.244 182.717 157.244C181.249 157.996 180.076 159.195 179.376 160.658C178.19 163.11 177.972 164.139 175.788 164.139C173.604 164.139 173.811 162.562 175.926 159.081C174.67 159.813 173.631 160.85 172.912 162.091C171.844 164.014 171.281 163.918 169.887 163.918C168.049 163.918 168.177 160.975 171.429 159.052C171.449 159.052 170.728 158.186 166.072 162.696Z" fill="white" stroke="#263238" stroke-width="0.580392" stroke-linecap="round" stroke-linejoin="round"/>
<path d="M178.803 155.667C178.803 155.667 177.528 155.609 176.717 157.705Z" fill="white"/>
<path d="M178.803 155.667C178.803 155.667 177.528 155.609 176.717 157.705" stroke="#263238" stroke-width="0.435294" stroke-linecap="round" stroke-linejoin="round"/>
<path d="M341.216 65.1306C347.599 70.0102 353.675 75.2572 359.413 80.8435" stroke="#263238" stroke-width="0.435294" stroke-linecap="round" stroke-linejoin="round"/>
<path d="M334.317 60.0822C335.523 60.9284 336.729 61.7842 337.915 62.6593" stroke="#263238" stroke-width="0.435294" stroke-linecap="round" stroke-linejoin="round"/>
<path d="M327.429 55.476C328.667 56.2645 329.9 57.0723 331.125 57.8993" stroke="#263238" stroke-width="0.435294" stroke-linecap="round" stroke-linejoin="round"/>
<path d="M276.862 32.2048C293.229 37.158 308.875 44.1355 323.415 52.9662" stroke="#263238" stroke-width="0.435294" stroke-linecap="round" stroke-linejoin="round"/>
<path d="M266.068 29.243C268.045 29.7367 270.038 30.256 272.048 30.8009" stroke="#263238" stroke-width="0.435294" stroke-linecap="round" stroke-linejoin="round"/>
<path d="M254.959 26.8486C257.133 27.2525 259.301 27.6949 261.463 28.1757" stroke="#263238" stroke-width="0.435294" stroke-linecap="round" stroke-linejoin="round"/>
<path d="M245.065 25.2426C246.943 25.5055 248.814 25.7875 250.679 26.0888" stroke="#263238" stroke-width="0.435294" stroke-linecap="round" stroke-linejoin="round"/>
<path d="M185.455 25.6274C203.773 22.8515 222.396 22.528 240.805 24.6658" stroke="#263238" stroke-width="0.435294" stroke-linecap="round" stroke-linejoin="round"/>
<path d="M177.3 27.0218C178.981 26.7044 180.671 26.3967 182.351 26.1179" stroke="#263238" stroke-width="0.435294" stroke-linecap="round" stroke-linejoin="round"/>
<path d="M169.383 28.7045C171.073 28.3102 172.754 27.9448 174.454 27.5986" stroke="#263238" stroke-width="0.435294" stroke-linecap="round" stroke-linejoin="round"/>
<path d="M159.658 31.224C161.378 30.7336 163.097 30.2624 164.827 29.8201" stroke="#263238" stroke-width="0.435294" stroke-linecap="round" stroke-linejoin="round"/>
<path d="M100.838 58.7359C117.203 47.5743 135.194 38.8584 154.211 32.878" stroke="#263238" stroke-width="0.435294" stroke-linecap="round" stroke-linejoin="round"/>
<path d="M92.9307 64.4383C94.4726 63.2779 96.0309 62.1368 97.6058 61.0149" stroke="#263238" stroke-width="0.435294" stroke-linecap="round" stroke-linejoin="round"/>
<path d="M84.9248 70.7849C86.615 69.3617 88.3348 67.977 90.0645 66.6211" stroke="#263238" stroke-width="0.435294" stroke-linecap="round" stroke-linejoin="round"/>
<path d="M73.7954 80.8435C76.1148 78.5869 78.4738 76.3976 80.8723 74.2756" stroke="#263238" stroke-width="0.435294" stroke-linecap="round" stroke-linejoin="round"/>
<path d="M150.435 51.2785C153.585 38.4253 145.429 25.5215 132.217 22.4571C119.006 19.3927 105.743 27.328 102.593 40.1812C99.4435 53.0344 107.6 65.9382 120.811 69.0026C134.022 72.0671 147.285 64.1317 150.435 51.2785Z" fill="#407BFF"/>
<path opacity="0.3" d="M150.436 51.2784C153.585 38.4252 145.429 25.5214 132.218 22.457C119.007 19.3925 105.744 27.3279 102.594 40.1811C99.444 53.0343 107.6 65.9381 120.812 69.0025C134.023 72.0669 147.286 64.1316 150.436 51.2784Z" fill="white"/>
<path d="M150.435 51.2785C153.585 38.4253 145.429 25.5215 132.217 22.4571C119.006 19.3927 105.743 27.328 102.593 40.1812C99.4435 53.0344 107.6 65.9382 120.811 69.0026C134.022 72.0671 147.285 64.1317 150.435 51.2785Z" stroke="#263238" stroke-width="0.435294" stroke-linecap="round" stroke-linejoin="round"/>
<path d="M114.676 55.1202V49.1293C114.676 47.6291 114.241 47.206 112.57 47.206V44.2731C114.241 44.2731 114.676 43.8211 114.676 42.3499V36.359C114.632 35.8735 114.698 35.3845 114.869 34.9265C115.04 34.4685 115.313 34.0525 115.667 33.7079C116.021 33.3632 116.449 33.0983 116.92 32.9316C117.39 32.765 117.893 32.7007 118.392 32.7433H120.27V35.6282H119.726C118.56 35.6282 117.957 36.1474 117.957 37.9456V42.8211C118.024 43.46 117.855 44.1013 117.48 44.63C117.105 45.1587 116.549 45.5401 115.911 45.7059V45.7732C116.549 45.9391 117.105 46.3205 117.48 46.8491C117.855 47.3778 118.024 48.0191 117.957 48.6581V53.5431C117.957 55.3317 118.56 55.851 119.726 55.851H120.27V58.7358H118.392C117.893 58.7784 117.39 58.7141 116.92 58.5475C116.449 58.3809 116.021 58.1159 115.667 57.7713C115.313 57.4266 115.04 57.0107 114.869 56.5527C114.698 56.0946 114.632 55.6057 114.676 55.1202Z" fill="white" stroke="#263238" stroke-width="0.435294" stroke-linecap="round" stroke-linejoin="round"/>
<path d="M132.694 55.8029H133.228C134.404 55.8029 135.007 55.2836 135.007 53.495V48.61C134.941 47.9726 135.11 47.3333 135.482 46.8053C135.855 46.2772 136.408 45.8946 137.043 45.7251V45.6578C136.407 45.4901 135.853 45.1079 135.48 44.5794C135.107 44.0509 134.939 43.4107 135.007 42.773V37.8976C135.007 36.0993 134.404 35.5801 133.228 35.5801H132.694V32.6952H134.572C135.071 32.6526 135.573 32.7169 136.044 32.8835C136.515 33.0502 136.943 33.3151 137.297 33.6598C137.651 34.0044 137.923 34.4204 138.095 34.8784C138.266 35.3364 138.332 35.8254 138.288 36.3109V42.3018C138.288 43.8019 138.723 44.225 140.393 44.225V47.158C138.723 47.158 138.288 47.6099 138.288 49.0812V55.0721C138.332 55.5576 138.266 56.0466 138.095 56.5046C137.923 56.9626 137.651 57.3786 137.297 57.7232C136.943 58.0678 136.515 58.3328 136.044 58.4994C135.573 58.6661 135.071 58.7304 134.572 58.6878H132.694V55.8029Z" fill="white" stroke="#263238" stroke-width="0.435294" stroke-linecap="round" stroke-linejoin="round"/>
<path d="M78.8558 76.2565H64.6723C58.1436 76.2565 52.8511 81.4057 52.8511 87.7575V101.557C52.8511 107.909 58.1436 113.058 64.6723 113.058H78.8558C85.3845 113.058 90.6771 107.909 90.6771 101.557V87.7575C90.6771 81.4057 85.3845 76.2565 78.8558 76.2565Z" fill="#407BFF" stroke="#263238" stroke-width="0.435294" stroke-linecap="round" stroke-linejoin="round"/>
<path d="M58.0498 95.5467V93.7677L65.6111 90.5944V92.5176L60.4022 94.662L65.6111 96.7968V98.72L58.0498 95.5467Z" fill="white" stroke="#263238" stroke-width="0.435294" stroke-linecap="round" stroke-linejoin="round"/>
<path d="M73.9928 86.2478H76.3452L69.5252 103.076H67.1729L73.9928 86.2478Z" fill="white" stroke="#263238" stroke-width="0.435294" stroke-linecap="round" stroke-linejoin="round"/>
<path d="M77.9067 96.7967L83.1156 94.6619L77.9067 92.4983V90.5751L85.468 93.7484V95.5274L77.9067 98.7007V96.7967Z" fill="white" stroke="#263238" stroke-width="0.435294" stroke-linecap="round" stroke-linejoin="round"/>
<path d="M321.382 44.9464C324.021 33.9675 317.012 22.9864 305.727 20.4194C294.443 17.8524 283.156 24.6716 280.517 35.6505C277.879 46.6294 284.888 57.6104 296.172 60.1774C307.457 62.7444 318.744 55.9252 321.382 44.9464Z" fill="#407BFF"/>
<path opacity="0.2" d="M321.382 44.9464C324.02 33.9675 317.011 22.9864 305.727 20.4194C294.442 17.8525 283.155 24.6716 280.517 35.6505C277.878 46.6294 284.887 57.6105 296.172 60.1775C307.457 62.7445 318.743 55.9253 321.382 44.9464Z" fill="black"/>
<path d="M321.382 44.9464C324.021 33.9675 317.012 22.9864 305.727 20.4194C294.443 17.8524 283.156 24.6716 280.517 35.6505C277.879 46.6294 284.888 57.6104 296.172 60.1774C307.457 62.7444 318.744 55.9252 321.382 44.9464Z" stroke="#263238" stroke-width="0.435294" stroke-linecap="round" stroke-linejoin="round"/>
<path d="M287.971 44.5327V36.0705C287.971 33.6376 289.266 32.224 291.717 32.224C294.168 32.224 295.463 33.6568 295.463 36.0705V37.7341H293.061V35.9166C293.061 34.8781 292.547 34.455 291.786 34.455C291.025 34.455 290.521 34.8781 290.521 35.9166V44.7058C290.521 45.7444 291.025 46.1482 291.786 46.1482C292.547 46.1482 293.061 45.7444 293.061 44.7058V42.3018H295.463V44.5327C295.463 46.956 294.168 48.3792 291.717 48.3792C289.266 48.3792 287.971 46.956 287.971 44.5327Z" fill="white" stroke="#263238" stroke-width="0.435294" stroke-linecap="round" stroke-linejoin="round"/>
<path d="M299.773 41.1767H296.669V39.4169H299.773V36.3878H301.572V39.4169H304.675V41.1767H301.572V44.2539H299.773V41.1767Z" fill="white" stroke="#263238" stroke-width="0.435294" stroke-linecap="round" stroke-linejoin="round"/>
<path d="M309.024 41.1767H305.921V39.4169H309.024V36.3878H310.823V39.4169H313.927V41.1767H310.823V44.2539H309.024V41.1767Z" fill="white" stroke="#263238" stroke-width="0.435294" stroke-linecap="round" stroke-linejoin="round"/>
<path d="M220.503 0.413696H201.536C194.112 0.413696 188.094 6.26892 188.094 13.4917V31.9452C188.094 39.1679 194.112 45.0232 201.536 45.0232H220.503C227.927 45.0232 233.946 39.1679 233.946 31.9452V13.4917C233.946 6.26892 227.927 0.413696 220.503 0.413696Z" fill="#407BFF" stroke="#263238" stroke-width="0.435294" stroke-linecap="round" stroke-linejoin="round"/>
<path d="M197.236 27.416V18.021C197.236 15.3189 198.679 13.7226 201.397 13.7226C204.116 13.7226 205.608 15.3189 205.608 18.021V19.8673H202.939V17.8383C202.939 16.694 202.366 16.2228 201.526 16.2228C200.686 16.2228 200.113 16.694 200.113 17.8383V27.6084C200.113 28.7623 200.676 29.2143 201.526 29.2143C202.376 29.2143 202.939 28.7623 202.939 27.6084V24.9351H205.608V27.416C205.608 30.1086 204.165 31.7049 201.447 31.7049C198.729 31.7049 197.236 30.1086 197.236 27.416Z" fill="white" stroke="#263238" stroke-width="0.435294" stroke-linecap="round" stroke-linejoin="round"/>
<path d="M206.824 27.3102V26.3486H209.492V27.5506C209.492 28.8007 210.056 29.2527 210.955 29.2527C211.855 29.2527 212.418 28.8007 212.418 27.5025C212.418 26.0505 211.855 25.1273 210.006 23.5503C207.644 21.5309 206.873 20.1077 206.873 18.1075C206.873 15.3573 208.336 13.761 211.084 13.761C213.831 13.761 215.195 15.3573 215.195 18.1556V18.8768H212.527V17.9825C212.527 16.7324 212.013 16.2612 211.113 16.2612C210.214 16.2612 209.71 16.7324 209.71 17.9344C209.71 19.1364 210.293 20.1269 212.141 21.704C214.504 23.7234 215.255 25.1273 215.255 27.3006C215.255 30.1854 213.762 31.7433 210.985 31.7433C208.207 31.7433 206.824 30.1085 206.824 27.3102Z" fill="white" stroke="#263238" stroke-width="0.435294" stroke-linecap="round" stroke-linejoin="round"/>
<path d="M216.382 27.3102V26.3486H219.051V27.5506C219.051 28.8007 219.614 29.2527 220.513 29.2527C221.413 29.2527 221.976 28.8007 221.976 27.5025C221.976 26.0505 221.413 25.1273 219.564 23.5503C217.202 21.5309 216.431 20.1077 216.431 18.1075C216.431 15.3573 217.894 13.761 220.642 13.761C223.39 13.761 224.754 15.3573 224.754 18.1556V18.8768H222.075V17.9825C222.075 16.7324 221.561 16.2612 220.662 16.2612C219.762 16.2612 219.258 16.7324 219.258 17.9344C219.258 19.1364 219.841 20.1269 221.69 21.704C224.052 23.7234 224.803 25.1273 224.803 27.3006C224.803 30.1854 223.311 31.7433 220.533 31.7433C217.756 31.7433 216.382 30.1085 216.382 27.3102Z" fill="white" stroke="#263238" stroke-width="0.435294" stroke-linecap="round" stroke-linejoin="round"/>
<path d="M376.821 88.2186C379.503 77.2769 372.559 66.2921 361.313 63.6834C350.066 61.0747 338.776 67.8299 336.094 78.7717C333.413 89.7134 340.356 100.698 351.603 103.307C362.849 105.916 374.14 99.1604 376.821 88.2186Z" fill="#407BFF"/>
<path opacity="0.3" d="M376.821 88.2185C379.503 77.2768 372.559 66.292 361.313 63.6832C350.066 61.0745 338.776 67.8298 336.094 78.7715C333.413 89.7133 340.356 100.698 351.603 103.307C362.849 105.916 374.14 99.1603 376.821 88.2185Z" fill="white"/>
<path d="M376.821 88.2186C379.503 77.2769 372.559 66.2921 361.313 63.6834C350.066 61.0747 338.776 67.8299 336.094 78.7717C333.413 89.7134 340.356 100.698 351.603 103.307C362.849 105.916 374.14 99.1604 376.821 88.2186Z" stroke="#263238" stroke-width="0.435294" stroke-linecap="round" stroke-linejoin="round"/>
<path d="M348.205 87.5268V79.4396C348.205 77.1221 349.44 75.7469 351.783 75.7469C354.125 75.7469 355.361 77.1221 355.361 79.4396V81.0359H353.067V79.2953C353.067 78.3337 352.573 77.8914 351.852 77.8914C351.13 77.8914 350.636 78.3049 350.636 79.2953V87.6903C350.636 88.6519 351.12 89.0654 351.852 89.0654C352.583 89.0654 353.067 88.6807 353.067 87.6903V85.392H355.361V87.5172C355.361 89.8347 354.125 91.2098 351.783 91.2098C349.44 91.2098 348.205 89.8443 348.205 87.5268Z" fill="white" stroke="#263238" stroke-width="0.435294" stroke-linecap="round" stroke-linejoin="round"/>
<path d="M357.357 86.7285H356.27L356.447 85.0553H357.535L357.95 81.1223H356.833L357.011 79.4395H358.118L358.493 75.9777H360.411L360.035 79.4395H361.607L361.983 75.9777H363.91L363.534 79.4395H364.661L364.483 81.1223H363.356L362.931 85.0553H364.058L363.88 86.7285H362.763L362.299 91.027H360.381L360.846 86.7285H359.274L358.81 91.027H356.892L357.357 86.7285ZM361.024 85.0553L361.439 81.1223H359.877L359.452 85.0553H361.024Z" fill="white" stroke="#263238" stroke-width="0.435294" stroke-linecap="round" stroke-linejoin="round"/>
<path d="M108.972 318.007H105.305L104.317 176.399H108.972V318.007Z" fill="#858585" stroke="#263238" stroke-width="0.580392" stroke-linecap="round" stroke-linejoin="round"/>
<path d="M112.629 318.007H108.972V176.399H113.618L112.629 318.007Z" fill="#999999" stroke="#263238" stroke-width="0.580392" stroke-linecap="round" stroke-linejoin="round"/>
<path d="M318.275 167.735H67.0146V176.409H318.275V167.735Z" fill="#263238" stroke="#263238" stroke-width="0.580392" stroke-linecap="round" stroke-linejoin="round"/>
<path d="M370.779 167.735H314.52V176.409H370.779V167.735Z" fill="#858585" stroke="#263238" stroke-width="0.580392" stroke-linecap="round" stroke-linejoin="round"/>
<path d="M329.672 176.399H79.8838V190.689H329.672V176.399Z" fill="#407BFF" stroke="#263238" stroke-width="0.580392" stroke-miterlimit="10"/>
<path d="M329.672 190.699H358.761V176.409H329.672V190.699Z" fill="#407BFF"/>
<path opacity="0.3" d="M329.672 190.698H358.761V176.409H329.672V190.698Z" fill="black"/>
<path d="M329.672 190.699H358.761V176.409H329.672V190.699Z" stroke="#263238" stroke-width="0.580392" stroke-miterlimit="10"/>
<path d="M329.671 318.007H326.014L325.026 176.399H329.671V318.007Z" fill="#858585" stroke="#263238" stroke-width="0.580392" stroke-linecap="round" stroke-linejoin="round"/>
<path d="M333.339 318.007H329.672V176.399H334.327L333.339 318.007Z" fill="#999999" stroke="#263238" stroke-width="0.580392" stroke-linecap="round" stroke-linejoin="round"/>
<path d="M79.8839 318.007H76.2169L75.2285 176.399H79.8839V318.007Z" fill="#858585" stroke="#263238" stroke-width="0.580392" stroke-linecap="round" stroke-linejoin="round"/>
<path d="M83.5409 318.007H79.8838V176.399H84.5293L83.5409 318.007Z" fill="#999999" stroke="#263238" stroke-width="0.580392" stroke-linecap="round" stroke-linejoin="round"/>
<path d="M358.76 318.007H355.093L354.104 176.399H358.76V318.007Z" fill="#858585" stroke="#263238" stroke-width="0.580392" stroke-linecap="round" stroke-linejoin="round"/>
<path d="M362.418 318.007H358.761V176.399H363.406L362.418 318.007Z" fill="#999999" stroke="#263238" stroke-width="0.580392" stroke-linecap="round" stroke-linejoin="round"/>
<path d="M229.379 166.774H199.934C199.645 166.771 199.369 166.657 199.165 166.458C198.961 166.258 198.847 165.988 198.847 165.706V163.341L230.476 164.302V165.706C230.476 165.989 230.36 166.261 230.155 166.461C229.949 166.661 229.67 166.774 229.379 166.774Z" fill="#858585" stroke="#263238" stroke-width="0.580392" stroke-linecap="round" stroke-linejoin="round"/>
<path d="M195.556 166.774H136.361C135.874 166.756 135.404 166.592 135.017 166.305C134.629 166.017 134.343 165.62 134.196 165.168L121.485 125.03C121.39 124.796 121.356 124.542 121.387 124.292C121.417 124.042 121.512 123.803 121.661 123.597C121.81 123.391 122.009 123.224 122.24 123.112C122.472 122.999 122.729 122.945 122.988 122.953H182.183C182.669 122.968 183.138 123.13 183.526 123.416C183.914 123.702 184.201 124.098 184.347 124.549L197.058 164.687C197.153 164.922 197.186 165.176 197.156 165.426C197.125 165.677 197.031 165.916 196.882 166.122C196.734 166.329 196.535 166.497 196.303 166.61C196.072 166.724 195.815 166.78 195.556 166.774Z" fill="#999999" stroke="#263238" stroke-width="0.580392" stroke-linecap="round" stroke-linejoin="round"/>
<path d="M199.678 164.687L186.967 124.549C186.82 124.098 186.533 123.702 186.145 123.416C185.758 123.13 185.289 122.968 184.802 122.953H182.183C182.669 122.968 183.138 123.13 183.526 123.416C183.914 123.702 184.201 124.098 184.348 124.549L197.058 164.687C197.153 164.922 197.187 165.176 197.156 165.426C197.125 165.677 197.031 165.916 196.883 166.122C196.734 166.329 196.535 166.496 196.303 166.61C196.072 166.724 195.815 166.78 195.556 166.774H198.215C198.471 166.774 198.723 166.713 198.949 166.596C199.175 166.48 199.369 166.312 199.513 166.106C199.657 165.901 199.747 165.664 199.776 165.416C199.805 165.169 199.771 164.919 199.678 164.687Z" fill="#858585" stroke="#263238" stroke-width="0.580392" stroke-linecap="round" stroke-linejoin="round"/>
<path d="M162.939 144.858C163.011 145.305 162.982 145.762 162.853 146.197C162.724 146.632 162.498 147.034 162.191 147.374C161.885 147.715 161.505 147.985 161.079 148.167C160.653 148.349 160.191 148.437 159.726 148.426C158.718 148.401 157.751 148.029 156.998 147.376C156.245 146.723 155.755 145.83 155.615 144.858C155.542 144.412 155.571 143.955 155.7 143.521C155.83 143.087 156.056 142.685 156.362 142.346C156.669 142.006 157.049 141.736 157.475 141.556C157.901 141.375 158.362 141.288 158.827 141.3C159.834 141.327 160.798 141.698 161.551 142.349C162.303 143 162.795 143.889 162.939 144.858V144.858Z" fill="white" stroke="#263238" stroke-width="0.580392" stroke-linecap="round" stroke-linejoin="round"/>
<g clip-path="url(#clip2_0_1)">
<rect width="161.995" height="23" transform="translate(-35 27.4304) rotate(-42.0163)" fill="#2B50C8"/>
<path d="M9.51245 10.4767C8.66035 11.2872 7.73499 11.8031 6.73637 12.0242C5.73817 12.2284 4.73022 12.1438 3.71253 11.7703C2.70353 11.3886 1.74002 10.7152 0.822003 9.75003C-0.0960113 8.7849 -0.72042 7.78893 -1.05122 6.7621C-1.38203 5.73527 -1.41636 4.73283 -1.15423 3.75479C-0.883404 2.76848 -0.317596 1.86594 0.543195 1.04717C1.41268 0.220126 2.34239 -0.299842 3.33231 -0.512737C4.33094 -0.733903 5.33475 -0.653617 6.34375 -0.27188C7.35318 0.0928923 8.3169 0.757843 9.23491 1.72297C10.1529 2.6881 10.7771 3.69256 11.1075 4.73636C11.4296 5.77145 11.4594 6.78651 11.1968 7.78152C10.9347 8.75956 10.3732 9.65796 9.51245 10.4767ZM8.60684 9.52465C9.58935 8.59009 10.0359 7.53603 9.94641 6.36245C9.85694 5.18888 9.24568 4.0065 8.11264 2.8153C6.97959 1.62411 5.83339 0.958835 4.67403 0.819486C3.5064 0.671441 2.43132 1.0647 1.4488 1.99925C0.483675 2.91727 0.0458456 3.96306 0.135316 5.13664C0.216515 6.30151 0.823637 7.47955 1.95668 8.67075C3.08146 9.85325 4.23179 10.5229 5.4077 10.6796C6.57533 10.8276 7.64171 10.4427 8.60684 9.52465ZM16.0036 4.25279C15.6558 4.58361 15.3082 4.56642 14.9609 4.20124L9.78771 -1.23739C9.44863 -1.59388 9.44863 -1.9334 9.78773 -2.25594C10.1355 -2.58676 10.479 -2.57392 10.8181 -2.21743L11.4259 -1.57836C11.2542 -2.17681 11.2645 -2.75798 11.4568 -3.32186C11.6492 -3.88574 11.9845 -4.39511 12.4627 -4.84999C13.9669 -6.28077 15.5129 -6.16145 17.1009 -4.49204L20.4256 -0.996708C20.7729 -0.631524 20.7727 -0.283524 20.4249 0.0472925C20.0684 0.386379 19.7165 0.37333 19.3691 0.00814617L16.1065 -3.42197C15.5441 -4.01322 15.0173 -4.33197 14.5262 -4.37821C14.0355 -4.44141 13.5379 -4.23317 13.0336 -3.75349C12.4511 -3.19937 12.1596 -2.57431 12.1592 -1.87831C12.1591 -1.19928 12.4445 -0.55979 13.0151 0.0401546L16.0173 3.19639C16.3646 3.56157 16.3601 3.91371 16.0036 4.25279ZM30.6249 -9.60512C29.1468 -8.19916 27.6239 -7.54549 26.0561 -7.64413C24.4883 -7.74277 23.0055 -8.52681 21.6078 -9.99624C20.6815 -10.9701 20.0573 -11.9745 19.7352 -13.0096C19.4131 -14.0447 19.3962 -15.0637 19.6844 -16.0666C19.9726 -17.0694 20.5775 -18.0092 21.4992 -18.8858C22.047 -19.4069 22.6518 -19.8331 23.3136 -20.1645C23.9672 -20.5047 24.6511 -20.6998 25.3654 -20.7498C25.5698 -20.7786 25.7428 -20.7361 25.8842 -20.6222C26.0174 -20.5171 26.1029 -20.3749 26.1409 -20.1957C26.1793 -20.0334 26.1542 -19.877 26.0655 -19.7265C25.9856 -19.5842 25.839 -19.4945 25.6259 -19.4574C25.0047 -19.3965 24.4363 -19.2367 23.9206 -18.978C23.3965 -18.728 22.8911 -18.3714 22.4042 -17.9083C21.3608 -16.9158 20.8751 -15.8246 20.9472 -14.6344C21.011 -13.453 21.6094 -12.2667 22.7425 -11.0755C23.9003 -9.85825 25.0722 -9.20082 26.2581 -9.10325C27.4439 -9.00567 28.6064 -9.4986 29.7454 -10.582C30.4845 -11.285 31.0732 -12.0851 31.5115 -12.9824L28.9188 -15.7082L27.0537 -13.9342C26.7407 -13.6365 26.4477 -13.6311 26.1748 -13.918C25.9102 -14.1962 25.9343 -14.4842 26.2474 -14.7819L28.5819 -17.0025C28.8863 -17.292 29.1831 -17.2846 29.4726 -16.9803L32.7105 -13.5762C32.9669 -13.3067 33.0366 -13.0418 32.9198 -12.7816C32.7034 -12.2778 32.3843 -11.734 31.9623 -11.1504C31.5489 -10.5751 31.1032 -10.06 30.6249 -9.60512ZM38.3797 -16.9813C37.7624 -16.3941 37.0994 -16.0203 36.3909 -15.8597C35.6824 -15.6992 34.9705 -15.7425 34.2552 -15.9896C33.5403 -16.2536 32.8645 -16.7204 32.2277 -17.3899C31.5909 -18.0594 31.1626 -18.7534 30.9429 -19.4719C30.7237 -20.2073 30.7119 -20.9248 30.9076 -21.6244C31.1034 -22.324 31.5099 -22.9674 32.1273 -23.5546C32.7359 -24.1336 33.3945 -24.5033 34.103 -24.6638C34.8202 -24.8326 35.5363 -24.785 36.2511 -24.5209C36.9664 -24.2739 37.6425 -23.8156 38.2793 -23.1461C38.9161 -22.4766 39.3442 -21.7741 39.5634 -21.0386C39.7831 -20.3202 39.7907 -19.607 39.5863 -18.8991C39.3905 -18.1995 38.9883 -17.5602 38.3797 -16.9813ZM37.5733 -17.8291C38.1646 -18.3915 38.44 -19.0509 38.3995 -19.8073C38.3507 -20.5724 37.9542 -21.3463 37.2098 -22.1288C36.4572 -22.92 35.7042 -23.3548 34.9507 -23.4331C34.1972 -23.5113 33.5249 -23.2693 32.9336 -22.7069C32.3337 -22.1362 32.054 -21.4727 32.0945 -20.7162C32.1436 -19.9681 32.5445 -19.1984 33.2971 -18.4071C34.0415 -17.6246 34.7902 -17.1857 35.5432 -17.0905C36.2967 -17.0122 36.9734 -17.2584 37.5733 -17.8291ZM35.9217 -29.8468C35.4609 -29.4085 35.0237 -29.4067 34.6102 -29.8415C34.205 -30.2675 34.2328 -30.6997 34.6936 -31.138C35.1544 -31.5764 35.5875 -31.5825 35.9927 -31.1564C36.4062 -30.7217 36.3826 -30.2852 35.9217 -29.8468ZM43.4643 -21.9171C43.1166 -21.5863 42.7607 -21.6122 42.3968 -21.9948L37.3229 -27.3291C36.9673 -27.7029 36.9634 -28.0553 37.3112 -28.3861C37.6677 -28.7252 38.0237 -28.7078 38.3793 -28.3339L43.4532 -22.9996C43.8171 -22.617 43.8208 -22.2562 43.4643 -21.9171ZM46.5205 -24.7744C46.1727 -24.4436 45.8251 -24.4607 45.4777 -24.8259L40.3046 -30.2646C39.9655 -30.621 39.9655 -30.9606 40.3046 -31.2831C40.6524 -31.6139 40.9959 -31.6011 41.3349 -31.2446L41.9428 -30.6055C41.7711 -31.204 41.7814 -31.7852 41.9737 -32.349C42.1661 -32.9129 42.5014 -33.4223 42.9796 -33.8772C44.4838 -35.3079 46.0298 -35.1886 47.6178 -33.5192L50.9425 -30.0239C51.2898 -29.6587 51.2896 -29.3107 50.9418 -28.9799C50.5853 -28.6408 50.2334 -28.6538 49.886 -29.019L46.6234 -32.4491C46.061 -33.0404 45.5342 -33.3591 45.0431 -33.4054C44.5523 -33.4686 44.0548 -33.2603 43.5505 -32.7807C42.968 -32.2265 42.6765 -31.6015 42.676 -30.9055C42.676 -30.2265 42.9614 -29.587 43.532 -28.987L46.5342 -25.8308C46.8815 -25.4656 46.877 -25.1135 46.5205 -24.7744ZM58.4734 -31.6225C58.0126 -31.1842 57.5067 -30.8106 56.9557 -30.5019C56.4217 -30.1927 55.8648 -29.9859 55.2851 -29.8816C55.0802 -29.8358 54.911 -29.857 54.7774 -29.9452C54.6607 -30.033 54.5789 -30.1539 54.5318 -30.3079C54.493 -30.4531 54.5007 -30.593 54.555 -30.7274C54.618 -30.8702 54.735 -30.9649 54.9059 -31.0115C55.5118 -31.1406 56.03 -31.3271 56.4605 -31.571C56.891 -31.8149 57.2758 -32.0981 57.6149 -32.4206C58.8669 -33.6116 58.8809 -34.8505 57.6569 -36.1373L56.59 -37.2589C56.7879 -36.6853 56.8028 -36.095 56.6349 -35.4881C56.4673 -34.8981 56.1357 -34.3674 55.6401 -33.896C55.0576 -33.3419 54.4251 -32.997 53.7427 -32.8613C53.0602 -32.7256 52.3783 -32.7808 51.697 -33.027C51.016 -33.2902 50.3778 -33.7348 49.7824 -34.3609C49.1869 -34.9869 48.7789 -35.6422 48.5583 -36.3267C48.3382 -37.0283 48.3171 -37.7121 48.4951 -38.3782C48.673 -39.0442 49.0533 -39.6544 49.6358 -40.2085C50.1314 -40.6799 50.6739 -40.9889 51.2632 -41.1354C51.8526 -41.2819 52.4246 -41.2464 52.9794 -41.0288L52.3343 -41.707C51.9952 -42.0635 51.9995 -42.4071 52.3473 -42.7379C52.6951 -43.0688 53.0386 -43.0559 53.3777 -42.6994L58.5508 -37.2608C59.4771 -36.287 59.9283 -35.325 59.9046 -34.375C59.8895 -33.4332 59.4124 -32.5157 58.4734 -31.6225ZM55.017 -34.9429C55.6256 -35.5218 55.9097 -36.1895 55.8692 -36.9459C55.8287 -37.7024 55.4735 -38.4327 54.8036 -39.137C54.1337 -39.8413 53.4262 -40.2282 52.681 -40.2978C51.9275 -40.3761 51.2465 -40.1257 50.6378 -39.5468C50.0379 -38.9761 49.7581 -38.3126 49.7986 -37.5562C49.8309 -36.8084 50.1819 -36.0824 50.8518 -35.3781C51.5217 -34.6738 52.2334 -34.2826 52.9869 -34.2043C53.7403 -34.126 54.417 -34.3722 55.017 -34.9429Z" fill="white"/>
</g>
</g>
<rect x="-9.5" y="-52.5" width="482" height="699" rx="4.5" stroke="url(#paint1_linear_0_1)" shape-rendering="crispEdges"/>
</g>
</g>
<defs>
<filter id="filter0_bd_0_1" x="-30" y="-57" width="523" height="744" filterUnits="userSpaceOnUse" color-interpolation-filters="sRGB">
<feFlood flood-opacity="0" result="BackgroundImageFix"/>
<feGaussianBlur in="BackgroundImage" stdDeviation="2"/>
<feComposite in2="SourceAlpha" operator="in" result="effect1_backgroundBlur_0_1"/>
<feColorMatrix in="SourceAlpha" type="matrix" values="0 0 0 0 0 0 0 0 0 0 0 0 0 0 0 0 0 0 127 0" result="hardAlpha"/>
<feOffset dy="20"/>
<feGaussianBlur stdDeviation="10"/>
<feComposite in2="hardAlpha" operator="out"/>
<feColorMatrix type="matrix" values="0 0 0 0 0 0 0 0 0 0 0 0 0 0 0 0 0 0 0.25 0"/>
<feBlend mode="normal" in2="effect1_backgroundBlur_0_1" result="effect2_dropShadow_0_1"/>
<feBlend mode="normal" in="SourceGraphic" in2="effect2_dropShadow_0_1" result="shape"/>
</filter>
<linearGradient id="paint0_linear_0_1" x1="231.5" y1="-53" x2="231.5" y2="647" gradientUnits="userSpaceOnUse">
<stop stop-color="#353535" stop-opacity="0.57"/>
<stop offset="1" stop-color="#5C5C5C" stop-opacity="0.17"/>
</linearGradient>
<linearGradient id="paint1_linear_0_1" x1="447.965" y1="-53.0001" x2="-175.425" y2="157.804" gradientUnits="userSpaceOnUse">
<stop stop-color="#6E7079"/>
<stop offset="1" stop-color="#383838"/>
</linearGradient>
<clipPath id="clip0_0_1">
<rect width="1440" height="6489" fill="white" transform="translate(-195 -1552)"/>
</clipPath>
<clipPath id="clip1_0_1">
<rect x="-10" y="-53" width="483" height="700" rx="5" fill="white"/>
</clipPath>
<clipPath id="clip2_0_1">
<rect width="161.995" height="23" fill="white" transform="translate(-35 27.4304) rotate(-42.0163)"/>
</clipPath>
</defs>
</svg>
