<svg width="48" height="48" viewBox="0 0 48 48" fill="none" xmlns="http://www.w3.org/2000/svg">
<path d="M23.8285 45.9319C35.9218 45.9319 45.7253 36.1283 45.7253 24.035C45.7253 11.9417 35.9218 2.13818 23.8285 2.13818C11.7352 2.13818 1.93164 11.9417 1.93164 24.035C1.93164 36.1283 11.7352 45.9319 23.8285 45.9319Z" fill="#4FD1D9"/>
<path d="M17.4789 15.5683C19.1577 13.8165 21.3473 12.9407 23.975 12.9407C27.4785 12.9407 30.1061 14.1085 31.7119 16.4442C32.5877 17.758 33.0987 19.0718 33.1716 20.3856H28.7193C28.4273 19.3638 28.0624 18.6339 27.6244 18.1229C26.8216 17.1741 25.6537 16.7361 24.1209 16.7361C22.5152 16.7361 21.2744 17.393 20.3985 18.7068C19.5226 20.0207 19.0117 21.8454 19.0117 24.1811C19.0117 26.5897 19.5226 28.3415 20.4715 29.5093C21.4203 30.6771 22.6612 31.261 24.1209 31.261C25.6537 31.261 26.8216 30.7501 27.6244 29.7283C28.0624 29.2173 28.4273 28.3415 28.7193 27.2466H33.0987C32.7337 29.5823 31.7848 31.407 30.1791 32.8668C28.6463 34.3266 26.6026 35.0565 24.1939 35.0565C21.2014 35.0565 18.7927 34.1076 17.114 32.1369C15.3622 30.1662 14.5593 27.4656 14.5593 24.0351C14.4863 20.3856 15.5082 17.539 17.4789 15.5683Z" fill="white"/>
</svg>
