<svg width="26" height="26" viewBox="0 0 26 26" fill="none" xmlns="http://www.w3.org/2000/svg">
<path d="M11.3139 6.28005L7.36709 1.72422C6.91209 1.19922 6.07792 1.20156 5.54942 1.73122L2.30376 4.98272C1.33776 5.94989 1.06126 7.38606 1.62009 8.53756C4.95864 15.45 10.5335 21.0327 17.4413 24.3809C18.5916 24.9397 20.0266 24.6632 20.9926 23.6961L24.2686 20.4142C24.7994 19.8834 24.8006 19.0446 24.2709 18.5896L19.6976 14.6637C19.2193 14.2531 18.4761 14.3067 17.9966 14.7874L16.4053 16.3811C16.3238 16.4664 16.2165 16.5227 16.1 16.5413C15.9835 16.5598 15.864 16.5396 15.7601 16.4837C13.1589 14.9858 11.0012 12.8253 9.50676 10.2222C9.45079 10.1181 9.43052 9.99849 9.44907 9.88174C9.46761 9.76499 9.52394 9.65754 9.60942 9.57589L11.1961 7.98806C11.6768 7.50506 11.7293 6.75839 11.3139 6.27889V6.28005Z" stroke="white" stroke-width="2.33333" stroke-linecap="round" stroke-linejoin="round"/>
</svg>
