<svg width="36" height="36" viewBox="0 0 36 36" fill="none" xmlns="http://www.w3.org/2000/svg">
<path d="M18.4185 2.50417C18.1499 2.39652 17.8501 2.39652 17.5815 2.50417L4.1535 7.87492L9.5625 10.0372L23.409 4.49992L18.4185 2.50417ZM26.4375 5.71267L12.591 11.2499L18 13.4122L31.8465 7.87492L26.4375 5.71267ZM33.75 9.53767L19.125 15.3877V33.2122L33.75 27.3622V9.53992V9.53767ZM16.875 33.2144V15.3854L2.25 9.53767V27.3644L16.875 33.2144ZM16.7467 0.413921C17.5513 0.0921695 18.4487 0.0921695 19.2533 0.413921L35.2935 6.83092C35.502 6.9145 35.6808 7.0586 35.8067 7.24467C35.9326 7.43074 35.9999 7.65025 36 7.87492V27.3644C35.9997 27.814 35.8647 28.2532 35.6125 28.6254C35.3602 28.9976 35.0023 29.2856 34.5848 29.4524L18.4185 35.9189C18.1499 36.0266 17.8501 36.0266 17.5815 35.9189L1.4175 29.4524C0.999565 29.286 0.64112 28.9981 0.388445 28.6259C0.135769 28.2537 0.000464241 27.8143 0 27.3644L0 7.87492C5.22899e-05 7.65025 0.0673734 7.43074 0.193291 7.24467C0.319208 7.0586 0.497954 6.9145 0.7065 6.83092L16.7467 0.413921Z" fill="white"/>
</svg>
