<svg width="235" height="457" viewBox="0 0 235 457" fill="none" xmlns="http://www.w3.org/2000/svg">
<path d="M206.584 456.823L28.4757 456.914C21.5889 456.917 14.9828 454.185 10.1099 449.318C5.23703 444.452 2.49624 437.849 2.49019 430.963L2.28468 29.7512C2.28168 25.864 3.04454 22.0143 4.52969 18.422C6.01484 14.8296 8.19317 11.5651 10.9403 8.81484C13.6873 6.06457 16.9494 3.88246 20.54 2.39316C24.1306 0.903853 27.9794 0.136531 31.8666 0.135032L206.687 0.0437012C213.651 0.0437012 220.33 2.81032 225.255 7.73494C230.18 12.6596 232.946 19.3388 232.946 26.3032L233.163 430.266C233.157 437.312 230.354 444.066 225.37 449.046C220.386 454.025 213.629 456.823 206.584 456.823Z" fill="#455A64"/>
<path d="M6.10956 421.692L5.90405 35.3457C5.91917 26.982 9.25144 18.9659 15.1697 13.0562C21.088 7.14647 29.1089 3.8258 37.4726 3.82279L197.701 3.73145C201.85 3.72845 205.958 4.5427 209.791 6.12769C213.624 7.71267 217.108 10.0373 220.043 12.9689C222.977 15.9005 225.306 19.3815 226.895 23.2131C228.484 27.0447 229.303 31.1519 229.304 35.3L229.51 421.646C229.513 425.794 228.698 429.902 227.113 433.736C225.528 437.569 223.204 441.053 220.272 443.987C217.341 446.922 213.86 449.251 210.028 450.84C206.196 452.429 202.089 453.248 197.941 453.249L37.7123 453.34C33.5579 453.342 29.444 452.524 25.6061 450.933C21.7683 449.343 18.2818 447.011 15.3463 444.071C12.4108 441.132 10.084 437.642 8.49899 433.802C6.91402 429.961 6.10206 425.846 6.10956 421.692Z" fill="#263238"/>
<path d="M101.032 18.1286C100.35 18.1286 99.6971 17.8579 99.2153 17.3761C98.7335 16.8944 98.4629 16.241 98.4629 15.5597C98.4629 14.8784 98.7335 14.225 99.2153 13.7432C99.6971 13.2615 100.35 12.9908 101.032 12.9908H134.016C134.367 12.9674 134.719 13.0163 135.05 13.1345C135.382 13.2527 135.685 13.4377 135.942 13.678C136.199 13.9183 136.404 14.2088 136.544 14.5315C136.684 14.8542 136.756 15.2022 136.756 15.554C136.756 15.9057 136.684 16.2538 136.544 16.5765C136.404 16.8992 136.199 17.1897 135.942 17.43C135.685 17.6703 135.382 17.8553 135.05 17.9735C134.719 18.0917 134.367 18.1406 134.016 18.1171L101.032 18.1286Z" fill="#455A64"/>
<path d="M83.3469 18.1399C82.8383 18.1422 82.3405 17.9934 81.9166 17.7125C81.4926 17.4316 81.1616 17.0312 80.9654 16.562C80.7692 16.0928 80.7168 15.576 80.8146 15.0769C80.9124 14.5779 81.1562 14.1191 81.515 13.7586C81.8738 13.3982 82.3315 13.1524 82.8301 13.0524C83.3287 12.9523 83.8458 13.0026 84.3159 13.1966C84.7859 13.3907 85.1878 13.72 85.4706 14.1427C85.7534 14.5654 85.9043 15.0625 85.9043 15.571C85.9043 16.2504 85.6353 16.902 85.156 17.3835C84.6767 17.8649 84.0262 18.1369 83.3469 18.1399Z" fill="#455A64"/>
<path d="M92.7888 18.1284C92.2802 18.1307 91.7825 17.982 91.3585 17.7011C90.9346 17.4202 90.6035 17.0198 90.4073 16.5506C90.2112 16.0814 90.1586 15.5645 90.2565 15.0654C90.3543 14.5664 90.5981 14.1076 90.9569 13.7472C91.3157 13.3868 91.7734 13.141 92.272 13.0409C92.7706 12.9409 93.2877 12.9911 93.7578 13.1852C94.2278 13.3793 94.6297 13.7085 94.9125 14.1312C95.1953 14.5539 95.3462 15.051 95.3462 15.5596C95.3463 16.2389 95.0772 16.8906 94.5979 17.372C94.1186 17.8534 93.4681 18.1254 92.7888 18.1284Z" fill="#455A64"/>
<path d="M151.85 18.0943C151.342 18.0943 150.844 17.9433 150.422 17.6605C149.999 17.3778 149.67 16.9759 149.476 16.5058C149.282 16.0358 149.231 15.5187 149.331 15.02C149.432 14.5214 149.677 14.0637 150.038 13.7049C150.398 13.3461 150.857 13.1023 151.356 13.0045C151.855 12.9067 152.372 12.9592 152.841 13.1554C153.31 13.3516 153.711 13.6826 153.992 14.1065C154.272 14.5305 154.421 15.0283 154.419 15.5368C154.419 15.8736 154.352 16.2071 154.223 16.5182C154.094 16.8292 153.905 17.1116 153.666 17.3493C153.427 17.5869 153.144 17.775 152.832 17.9029C152.521 18.0307 152.187 18.0958 151.85 18.0943Z" fill="#455A64"/>
<path d="M142.408 18.1058C141.9 18.1058 141.403 17.9551 140.981 17.6728C140.558 17.3906 140.229 16.9894 140.034 16.52C139.84 16.0506 139.789 15.534 139.888 15.0357C139.987 14.5374 140.232 14.0797 140.591 13.7204C140.951 13.3612 141.408 13.1165 141.907 13.0174C142.405 12.9183 142.921 12.9691 143.391 13.1636C143.86 13.358 144.261 13.6872 144.544 14.1097C144.826 14.5321 144.977 15.0288 144.977 15.5369C144.978 15.8747 144.913 16.2094 144.784 16.5217C144.656 16.8341 144.466 17.1179 144.228 17.3567C143.989 17.5956 143.705 17.7847 143.393 17.9133C143.08 18.0419 142.746 18.1073 142.408 18.1058Z" fill="#455A64"/>
<path d="M199.414 8.97197H168.359C166.895 8.97134 165.469 9.44477 164.296 10.3215C163.123 11.1982 162.265 12.431 161.851 13.8357L159.317 22.5356C158.859 24.1091 157.902 25.4911 156.59 26.4734C155.278 27.4557 153.683 27.985 152.044 27.9816H83.2439C81.606 27.9826 80.0117 27.454 78.6989 26.4745C77.3861 25.4951 76.4252 24.1174 75.9597 22.547L73.4137 13.8471C73.0008 12.4426 72.143 11.2102 70.9694 10.3352C69.7958 9.46012 68.3698 8.98975 66.9059 8.9948H35.8283C29.2867 8.98267 23.0081 11.5689 18.3728 16.1849C13.7376 20.8008 11.1252 27.0687 11.1101 33.6103L11.3156 422.503C11.3261 425.741 11.9744 428.946 13.2234 431.934C14.4724 434.922 16.2978 437.635 18.5952 439.917C20.8926 442.2 23.6171 444.008 26.6132 445.237C29.6092 446.467 32.8181 447.094 36.0567 447.084L199.608 447.004C206.15 447.016 212.428 444.43 217.063 439.814C221.699 435.198 224.311 428.93 224.326 422.388L224.121 33.5075C224.087 26.9808 221.468 20.7335 216.837 16.1345C212.206 11.5354 205.941 8.9598 199.414 8.97197Z" fill="#FAFAFA"/>
<path d="M232.969 99.3047C233.371 99.3077 233.756 99.4686 234.04 99.7527C234.324 100.037 234.485 100.421 234.488 100.823V150.294C234.488 150.695 234.329 151.079 234.047 151.364C233.765 151.648 233.381 151.809 232.981 151.812L232.969 99.3047Z" fill="#455A64"/>
<path d="M2.31904 131.787C1.9042 131.787 1.50635 131.951 1.21301 132.245C0.919673 132.538 0.754883 132.936 0.754883 133.351V163.458C0.757897 163.874 0.925228 164.272 1.22038 164.565C1.51553 164.858 1.91455 165.022 2.33045 165.022L2.31904 131.787Z" fill="#455A64"/>
<path d="M2.29612 88.3101C2.08975 88.3101 1.88542 88.3509 1.6949 88.4302C1.50438 88.5095 1.33144 88.6258 1.18604 88.7722C1.04065 88.9187 0.925671 89.0924 0.847739 89.2835C0.769808 89.4746 0.730469 89.6793 0.731975 89.8856V119.981C0.734964 120.398 0.901916 120.797 1.19675 121.092C1.49158 121.387 1.8906 121.554 2.30754 121.557L2.29612 88.3101Z" fill="#455A64"/>
<path d="M2.28467 55.7595C1.92433 55.7595 1.57876 55.9027 1.32396 56.1575C1.06917 56.4123 0.926025 56.7578 0.926025 57.1182V69.8712C0.926019 70.0491 0.961238 70.2252 1.02966 70.3894C1.09807 70.5536 1.19834 70.7026 1.32465 70.8279C1.45096 70.9531 1.60083 71.0521 1.7656 71.1191C1.93037 71.1862 2.10679 71.2199 2.28467 71.2184V55.7595Z" fill="#455A64"/>
<path d="M173.976 21.6335H172.389V23.8599H173.976V21.6335Z" fill="white"/>
<path d="M176.557 20.6404H174.97V23.8486H176.557V20.6404Z" fill="white"/>
<path d="M179.137 19.8982H177.55V23.8485H179.137V19.8982Z" fill="white"/>
<path d="M181.717 18.4597H180.13V23.8486H181.717V18.4597Z" fill="white"/>
<path d="M205.122 23.9512H197.13C197.056 23.9527 196.982 23.9394 196.913 23.9119C196.844 23.8845 196.781 23.8435 196.727 23.7914C196.674 23.7393 196.632 23.6772 196.603 23.6085C196.574 23.5399 196.56 23.4662 196.56 23.3918V19.43C196.56 19.2805 196.618 19.1371 196.723 19.0303C196.827 18.9236 196.97 18.8621 197.119 18.8591H205.111C205.15 18.8618 205.186 18.8783 205.213 18.9056C205.24 18.9328 205.257 18.9691 205.259 19.0076V20.3091H206.116C206.135 20.3091 206.154 20.3129 206.171 20.3205C206.188 20.3281 206.204 20.3392 206.217 20.3532C206.23 20.3672 206.24 20.3836 206.246 20.4016C206.252 20.4196 206.254 20.4386 206.253 20.4575V22.3528C206.253 22.3922 206.237 22.4299 206.209 22.4577C206.181 22.4856 206.144 22.5012 206.104 22.5012H205.248V23.8028C205.25 23.8208 205.248 23.8389 205.242 23.8561C205.237 23.8734 205.228 23.8893 205.216 23.9031C205.204 23.9169 205.19 23.9283 205.174 23.9365C205.158 23.9448 205.14 23.9498 205.122 23.9512ZM204.974 19.1446H197.13C197.058 19.1446 196.988 19.1734 196.937 19.2248C196.885 19.2762 196.856 19.3459 196.856 19.4186V23.3803C196.856 23.453 196.885 23.5227 196.937 23.5741C196.988 23.6255 197.058 23.6544 197.13 23.6544H204.94V22.3528C204.94 22.3165 204.954 22.2816 204.98 22.2559C205.006 22.2302 205.04 22.2158 205.077 22.2158H205.933V20.5945H205.122C205.086 20.5945 205.051 20.5801 205.026 20.5544C205 20.5287 204.985 20.4939 204.985 20.4575L204.974 19.1446Z" fill="white"/>
<path d="M197.519 23.0151V19.8068L204.312 19.7954V21.2454V21.5651V23.0151H197.519Z" fill="white"/>
<path d="M189.298 23.6545C189.298 23.5394 189.264 23.4268 189.2 23.3311C189.136 23.2353 189.045 23.1607 188.939 23.1166C188.833 23.0725 188.715 23.061 188.602 23.0835C188.49 23.1059 188.386 23.1614 188.304 23.2428C188.223 23.3242 188.167 23.428 188.145 23.5409C188.123 23.6539 188.134 23.771 188.178 23.8774C188.222 23.9838 188.297 24.0747 188.393 24.1387C188.488 24.2027 188.601 24.2368 188.716 24.2368C188.871 24.2368 189.019 24.1755 189.128 24.0663C189.237 23.9571 189.298 23.809 189.298 23.6545Z" fill="white"/>
<path d="M186.729 22.2614L187.472 22.9921C187.803 22.6644 188.25 22.4806 188.716 22.4806C189.182 22.4806 189.629 22.6644 189.961 22.9921L190.703 22.25C190.174 21.7255 189.461 21.4302 188.716 21.428C188.346 21.4287 187.98 21.5027 187.639 21.6458C187.298 21.7888 186.989 21.9981 186.729 22.2614Z" fill="white"/>
<path d="M188.716 19.8069C187.535 19.808 186.402 20.2759 185.565 21.1085L186.307 21.8506C186.948 21.2161 187.814 20.8602 188.716 20.8602C189.618 20.8602 190.484 21.2161 191.125 21.8506L191.867 21.1085C191.454 20.6941 190.963 20.3658 190.422 20.1424C189.881 19.919 189.301 19.805 188.716 19.8069Z" fill="white"/>
<path d="M184.354 19.8867L185.097 20.6288C185.569 20.1494 186.133 19.7691 186.754 19.5103C187.376 19.2515 188.043 19.1194 188.716 19.1217C190.072 19.1229 191.373 19.6606 192.335 20.6174L193.077 19.8752C192.505 19.3022 191.825 18.8476 191.076 18.5374C190.328 18.2273 189.526 18.0676 188.716 18.0676C187.906 18.0676 187.104 18.2273 186.355 18.5374C185.607 18.8476 184.927 19.3022 184.354 19.8752V19.8867Z" fill="white"/>
<path d="M54.9523 117.652C54.9273 120.563 54.0399 123.401 52.4021 125.807C50.7644 128.213 48.45 130.079 45.7514 131.17C43.0529 132.261 40.0915 132.527 37.2418 131.935C34.392 131.343 31.7818 129.919 29.7413 127.843C27.7008 125.768 26.3216 123.133 25.7781 120.274C25.2346 117.415 25.5513 114.458 26.688 111.779C27.8247 109.099 29.7305 106.817 32.1642 105.22C34.598 103.624 37.4506 102.785 40.3611 102.81C42.2938 102.826 44.2042 103.223 45.9835 103.978C47.7627 104.733 49.3759 105.831 50.7308 107.209C52.0857 108.587 53.1559 110.219 53.8802 112.011C54.6045 113.803 54.9688 115.72 54.9523 117.652Z" fill="#0E2E96"/>
<path d="M128.513 106.315C128.513 106.475 114.813 106.498 98.0295 106.315C81.2462 106.132 67.5342 105.938 67.5342 105.767C67.5342 105.596 81.2348 105.584 98.0295 105.767C114.824 105.949 128.525 106.155 128.513 106.315Z" fill="#263238"/>
<path d="M178.281 120.278C178.281 120.438 153.391 120.37 122.69 120.118C91.9896 119.867 67.1001 119.525 67.1001 119.365C67.1001 119.205 91.9896 119.273 122.702 119.525C153.414 119.776 178.281 120.107 178.281 120.278Z" fill="#E0E0E0"/>
<path d="M178.189 131.25C178.189 131.41 153.3 131.341 122.599 131.09C91.8983 130.839 66.9746 130.554 66.9746 130.337C66.9746 130.12 91.8527 130.245 122.565 130.496C153.277 130.748 178.189 131.079 178.189 131.25Z" fill="#E0E0E0"/>
<path d="M144.794 105.653C144.789 106.199 144.623 106.732 144.316 107.184C144.008 107.636 143.574 107.986 143.067 108.191C142.561 108.396 142.005 108.446 141.47 108.335C140.935 108.224 140.444 107.957 140.061 107.567C139.678 107.178 139.419 106.683 139.317 106.146C139.215 105.609 139.274 105.054 139.487 104.551C139.7 104.048 140.058 103.62 140.515 103.32C140.972 103.02 141.507 102.862 142.054 102.867C142.417 102.87 142.775 102.944 143.109 103.086C143.443 103.227 143.746 103.433 144.001 103.692C144.255 103.951 144.456 104.257 144.592 104.594C144.728 104.93 144.797 105.29 144.794 105.653Z" fill="#2BC83B"/>
<path d="M223.276 78.9936C223.276 79.1534 175.723 78.9023 117.096 78.4227C58.4686 77.9432 10.916 77.418 10.916 77.281C10.916 77.144 58.4572 77.3724 117.096 77.8519C175.735 78.3314 223.287 78.8338 223.276 78.9936Z" fill="#E0E0E0"/>
<path d="M222.659 155.055C222.659 155.226 175.095 154.964 116.479 154.484C57.8636 154.004 10.2996 153.479 10.2996 153.342C10.2996 153.205 57.8522 153.434 116.479 153.913C175.107 154.393 222.659 154.895 222.659 155.055Z" fill="#E0E0E0"/>
<path d="M49.3989 279.805C55.1461 274.058 55.1461 264.74 49.3989 258.992C43.6516 253.245 34.3335 253.245 28.5863 258.992C22.839 264.74 22.839 274.058 28.5862 279.805C34.3335 285.552 43.6516 285.552 49.3989 279.805Z" fill="#FF725E"/>
<path d="M127.269 258.186C127.269 258.346 113.625 258.369 96.7849 258.186C79.9445 258.003 66.2896 257.809 66.2896 257.638C66.2896 257.467 79.9902 257.455 96.7849 257.638C113.58 257.821 127.28 258.026 127.269 258.186Z" fill="#263238"/>
<path d="M177.036 272.127C177.036 272.286 152.147 272.218 121.446 271.967C90.7449 271.716 65.8555 271.373 65.8555 271.213C65.8555 271.053 90.7449 271.122 121.457 271.373C152.169 271.624 177.036 271.978 177.036 272.127Z" fill="#E0E0E0"/>
<path d="M176.945 283.121C176.945 283.281 152.056 283.213 121.355 282.962C90.6539 282.71 65.7645 282.368 65.7759 282.208C65.7873 282.048 90.6539 282.117 121.366 282.368C152.078 282.619 176.945 282.95 176.945 283.121Z" fill="#E0E0E0"/>
<path d="M143.504 258.075C143.801 256.578 142.829 255.124 141.332 254.826C139.836 254.529 138.381 255.501 138.084 256.998C137.787 258.494 138.759 259.949 140.255 260.246C141.752 260.544 143.206 259.571 143.504 258.075Z" fill="#2BC83B"/>
<path d="M222.031 230.865C222.031 231.025 174.479 230.774 115.851 230.294C57.2242 229.815 9.67163 229.289 9.67163 229.152C9.67163 229.015 57.2128 229.244 115.851 229.723C174.49 230.203 222.043 230.705 222.031 230.865Z" fill="#E0E0E0"/>
<path d="M221.415 306.926C221.415 307.097 174.604 306.789 116.845 306.241C59.0851 305.693 12.2747 305.099 12.2747 304.962C12.2747 304.825 59.0852 305.099 116.856 305.647C174.627 306.195 221.415 306.766 221.415 306.926Z" fill="#E0E0E0"/>
<path d="M52.5319 413.951C52.5069 416.861 51.6198 419.698 49.9826 422.104C48.3454 424.51 46.0316 426.377 43.3337 427.468C40.6359 428.559 37.6751 428.826 34.8256 428.235C31.9761 427.643 29.3659 426.221 27.3249 424.146C25.284 422.072 23.9038 419.439 23.3591 416.58C22.8143 413.721 23.1293 410.765 24.2642 408.085C25.3992 405.406 27.3032 403.123 29.7355 401.525C32.1678 399.927 35.0192 399.086 37.9293 399.109C41.8335 399.142 45.5648 400.724 48.303 403.507C51.0412 406.29 52.5623 410.047 52.5319 413.951Z" fill="#E0E0E0"/>
<path d="M126.093 402.625C126.093 402.785 112.392 402.808 95.5972 402.625C78.8025 402.442 65.1133 402.248 65.1133 402.077C65.1133 401.906 78.8139 401.894 95.6086 402.077C112.403 402.26 126.093 402.465 126.093 402.625Z" fill="#263238"/>
<path d="M175.849 416.588C175.849 416.748 150.959 416.68 120.27 416.429C89.5806 416.177 64.6797 415.835 64.6797 415.675C64.6797 415.515 89.5691 415.584 120.27 415.835C150.971 416.086 175.849 416.417 175.849 416.588Z" fill="#E0E0E0"/>
<path d="M175.758 427.549C175.758 427.72 150.868 427.652 120.179 427.4C89.4893 427.149 64.5884 426.807 64.5884 426.647C64.5884 426.487 89.4779 426.544 120.179 426.795C150.88 427.046 175.769 427.4 175.758 427.549Z" fill="#E0E0E0"/>
<path d="M142.328 401.963C142.324 402.509 142.157 403.042 141.85 403.494C141.542 403.946 141.108 404.296 140.601 404.501C140.095 404.706 139.539 404.756 139.004 404.645C138.469 404.534 137.979 404.267 137.595 403.877C137.212 403.488 136.953 402.993 136.851 402.457C136.749 401.92 136.808 401.365 137.021 400.862C137.235 400.358 137.592 399.93 138.049 399.63C138.506 399.33 139.042 399.173 139.588 399.177C139.951 399.18 140.309 399.254 140.644 399.396C140.978 399.538 141.281 399.744 141.535 400.002C141.789 400.261 141.99 400.567 142.127 400.904C142.263 401.24 142.331 401.6 142.328 401.963Z" fill="#FF725E"/>
<path d="M210.219 202.219C215.966 196.472 215.966 187.154 210.219 181.406C204.472 175.659 195.154 175.659 189.406 181.406C183.659 187.154 183.659 196.472 189.406 202.219C195.154 207.966 204.472 207.966 210.219 202.219Z" fill="#455A64"/>
<path d="M128.33 180.789C128.33 180.961 114.63 180.983 97.8464 180.846C81.0631 180.709 67.3511 180.458 67.3511 180.298C67.3511 180.138 81.0517 180.104 97.8464 180.298C114.641 180.492 128.33 180.607 128.33 180.789Z" fill="#263238"/>
<path d="M178.098 194.73C178.098 194.901 153.209 194.821 122.508 194.57C91.807 194.319 66.9175 193.988 66.9175 193.816C66.9175 193.645 91.807 193.725 122.508 193.976C153.209 194.227 178.098 194.57 178.098 194.73Z" fill="#E0E0E0"/>
<path d="M178.007 205.702C178.007 205.862 153.117 205.793 122.416 205.542C91.7156 205.291 66.8262 204.96 66.8262 204.788C66.8262 204.617 91.7157 204.697 122.428 204.948C153.14 205.199 178.007 205.542 178.007 205.702Z" fill="#E0E0E0"/>
<path d="M144.611 180.116C144.607 180.662 144.44 181.195 144.133 181.647C143.826 182.099 143.391 182.449 142.885 182.654C142.378 182.859 141.822 182.909 141.287 182.798C140.752 182.687 140.262 182.42 139.879 182.03C139.495 181.641 139.236 181.146 139.134 180.609C139.032 180.073 139.091 179.518 139.305 179.014C139.518 178.511 139.876 178.083 140.332 177.783C140.789 177.483 141.325 177.325 141.871 177.33C142.603 177.339 143.302 177.637 143.815 178.159C144.328 178.68 144.614 179.384 144.611 180.116Z" fill="#2BC83B"/>
<path d="M223.998 306.7L12.2734 304.963L11.6495 381.022L223.374 382.759L223.998 306.7Z" fill="#F5F5F5"/>
<path d="M209.219 354.219C214.966 348.472 214.966 339.154 209.219 333.406C203.472 327.659 194.154 327.659 188.406 333.406C182.659 339.154 182.659 348.472 188.406 354.219C194.154 359.966 203.472 359.966 209.219 354.219Z" fill="#2B50C8"/>
<path d="M50.219 198.219C55.9662 192.472 55.9662 183.154 50.2189 177.406C44.4717 171.659 35.1536 171.659 29.4063 177.406C23.6591 183.154 23.6591 192.472 29.4063 198.219C35.1536 203.966 44.4717 203.966 50.219 198.219Z" fill="#2B50C8"/>
<path d="M128.49 332.398C128.49 332.558 114.79 332.581 98.0065 332.398C81.2233 332.215 67.5112 332.021 67.5112 331.85C67.5112 331.679 81.2119 331.667 98.0065 331.85C114.801 332.033 128.49 332.238 128.49 332.398Z" fill="#263238"/>
<path d="M178.258 346.338C178.258 346.498 153.368 346.43 122.667 346.178C91.9666 345.927 67.0771 345.585 67.0771 345.425C67.0771 345.265 91.9666 345.334 122.667 345.585C153.368 345.836 178.258 346.19 178.258 346.338Z" fill="#E0E0E0"/>
<path d="M178.167 357.333C178.167 357.493 153.277 357.424 122.576 357.173C91.8755 356.922 66.9746 356.614 66.9746 356.42C66.9746 356.226 91.8641 356.328 122.576 356.58C153.289 356.831 178.167 357.162 178.167 357.333Z" fill="#E0E0E0"/>
<path d="M144.771 331.736C144.767 332.282 144.6 332.815 144.293 333.267C143.986 333.719 143.551 334.069 143.045 334.274C142.538 334.479 141.982 334.529 141.447 334.418C140.912 334.307 140.422 334.04 140.039 333.65C139.656 333.261 139.397 332.766 139.294 332.229C139.192 331.693 139.251 331.137 139.465 330.634C139.678 330.131 140.036 329.703 140.493 329.403C140.949 329.103 141.485 328.945 142.031 328.95C142.394 328.953 142.753 329.027 143.087 329.169C143.421 329.31 143.724 329.516 143.978 329.775C144.233 330.034 144.434 330.34 144.57 330.677C144.706 331.013 144.774 331.373 144.771 331.736Z" fill="#2BC83B"/>
<path d="M127.885 51.501C127.694 51.8516 127.456 52.1742 127.177 52.46C126.698 53.0537 126.035 53.8986 125.088 54.9376L121.937 58.5568L120.053 60.6804C119.726 61.0784 119.379 61.4594 119.014 61.8221C118.551 62.2043 117.956 62.3889 117.358 62.3359C116.766 62.2741 116.221 61.9832 115.84 61.5253L114.824 60.3836L112.917 58.2828L109.72 54.7092C108.807 53.6817 108.088 52.8482 107.597 52.2545C107.317 51.9714 107.075 51.6528 106.877 51.3069C106.877 51.3069 107.22 51.5581 107.768 52.1061C108.316 52.6541 109.081 53.4305 110.051 54.3895L113.34 57.8832L115.28 59.9611L116.297 61.1028C116.435 61.2752 116.606 61.4183 116.801 61.5239C116.995 61.6294 117.208 61.6952 117.428 61.7175C117.648 61.7398 117.87 61.7182 118.082 61.6538C118.293 61.5894 118.49 61.4837 118.66 61.3426C118.968 61.0686 119.322 60.6233 119.642 60.2808L121.549 58.18L124.802 54.6407C125.727 53.6474 126.492 52.8368 127.086 52.3573C127.315 52.0396 127.584 51.7519 127.885 51.501Z" fill="white"/>
<path d="M114.139 59.8696C113.033 61.3491 111.807 62.7353 110.474 64.0141C109.274 65.4337 107.892 66.689 106.364 67.7475C107.473 66.2669 108.702 64.8807 110.04 63.6031C111.238 62.1854 112.616 60.9303 114.139 59.8696Z" fill="white"/>
<path d="M128.992 68.1814C127.44 66.9427 126.021 65.5461 124.757 64.0141C123.341 62.6184 122.064 61.0889 120.943 59.4473C122.498 60.6874 123.921 62.0838 125.191 63.6145C126.604 65.0086 127.878 66.5382 128.992 68.1814Z" fill="white"/>
<path d="M43.8776 58.2142C43.8776 58.3169 39.9729 58.3968 35.1549 58.3968C30.3368 58.3968 26.4321 58.3169 26.4321 58.2142C26.4321 58.1114 30.3368 58.0315 35.1549 58.0315C39.9729 58.0315 43.8776 58.1114 43.8776 58.2142Z" fill="#263238"/>
<path d="M43.8776 62.6783C43.8776 62.781 39.9729 62.861 35.1549 62.861C30.3368 62.861 26.4321 62.781 26.4321 62.6783C26.4321 62.5755 30.3368 62.4956 35.1549 62.4956C39.9729 62.4956 43.8776 62.5755 43.8776 62.6783Z" fill="#263238"/>
<path d="M43.8776 67.1424C43.8776 67.2452 39.9729 67.3365 35.1549 67.3365C30.3368 67.3365 26.4321 67.2451 26.4321 67.1538C26.4321 67.0625 30.3368 66.9597 35.1549 66.9597C39.9729 66.9597 43.8776 67.0511 43.8776 67.1424Z" fill="#263238"/>
<path d="M207.611 61.0571C207.554 61.0571 207.611 60.6232 207.36 59.9153C207.079 58.9046 206.468 58.0167 205.625 57.3921C204.95 56.8799 204.146 56.5656 203.302 56.4842C202.459 56.4029 201.61 56.5578 200.849 56.9316C200.089 57.3054 199.447 57.8834 198.997 58.6009C198.546 59.3184 198.304 60.1471 198.297 60.9944C198.291 61.8417 198.52 62.6741 198.959 63.3985C199.399 64.123 200.031 64.7109 200.786 65.0965C201.54 65.4821 202.387 65.6503 203.231 65.5821C204.076 65.5139 204.885 65.2122 205.568 64.7106C206.416 64.0912 207.041 63.2141 207.349 62.2102C207.554 61.4909 207.554 61.0685 207.611 61.0685C207.626 61.1707 207.626 61.2745 207.611 61.3767C207.618 61.6762 207.587 61.9754 207.52 62.2673C207.272 63.3612 206.65 64.3343 205.762 65.0188C205.012 65.5797 204.121 65.92 203.188 66.0013C202.256 66.0826 201.319 65.9017 200.484 65.479C199.649 65.0563 198.948 64.4087 198.461 63.6091C197.974 62.8095 197.721 61.8898 197.729 60.9537C197.737 60.0176 198.006 59.1023 198.507 58.3112C199.007 57.52 199.719 56.8845 200.561 56.4762C201.403 56.0679 202.343 55.9031 203.274 56.0004C204.205 56.0976 205.091 56.4531 205.83 57.0268C206.707 57.7266 207.31 58.7129 207.532 59.8126C207.597 60.1047 207.624 60.4041 207.611 60.7031C207.639 60.8195 207.639 60.9406 207.611 61.0571Z" fill="#263238"/>
<path d="M210.18 69.3461C209.304 68.7597 208.532 68.0303 207.897 67.1882C207.117 66.4613 206.464 65.6083 205.967 64.665C206.844 65.2514 207.616 65.9808 208.251 66.8229C209.034 67.5473 209.686 68.4008 210.18 69.3461Z" fill="#263238"/>
</svg>
