<svg width="41" height="36" viewBox="0 0 41 36" fill="none" xmlns="http://www.w3.org/2000/svg">
<path d="M21.5105 0.933105L3.92185 5.78568C3.92185 5.78568 0.691406 5.69483 0.691406 9.12606C0.691406 10.5421 1.31946 11.5974 1.31946 11.5974L14.7192 34.0084C16.0003 36.0493 18.7212 34.7714 18.7212 34.7714L39.2684 24.7615L38.4995 23.9814C38.3185 23.0445 38.2131 21.3098 39.485 20.0182C39.5133 19.9892 39.5186 19.9497 39.5337 19.9135L40.1914 19.6495L21.5105 0.933105ZM12.2287 14.0379L9.05816 9.05036L22.0563 5.20701L25.6528 9.12211L12.2287 14.0379ZM37.8293 22.0926C37.7865 22.3954 37.7648 22.6904 37.7694 22.9669L24.2808 29.3692L37.8175 23.6245C37.8306 23.7292 37.8425 23.8345 37.8589 23.9293L20.5678 32.281L37.9952 24.5521L38.0057 24.5929L18.7212 33.8182C18.712 33.8241 17.8318 34.2922 16.9496 34.2922C16.078 34.2922 15.5348 33.8445 15.2873 32.9242C14.6507 30.5594 18.2676 29.2191 18.3222 29.1993L38.3244 20.5455C38.1809 20.8088 38.0814 21.0768 37.9985 21.3441L25.3012 27.3211L37.8293 22.0926Z" fill="white"/>
</svg>
