<svg width="75" height="59" viewBox="0 0 75 59" fill="none" xmlns="http://www.w3.org/2000/svg">
<g clip-path="url(#clip0_338_839)">
<path d="M63.532 4.8624C58.6134 2.56105 53.41 0.925839 48.0592 0C47.3927 1.20498 46.6139 2.82568 46.0769 4.11504C40.3078 3.24756 34.5917 3.24756 28.9286 4.11504C28.3919 2.82598 27.5956 1.20498 26.9229 0C21.5669 0.926266 16.3589 2.56564 11.4381 4.87441C1.64588 19.672 -1.00871 34.1016 0.318437 48.327C6.81326 53.177 13.1074 56.1234 19.2955 58.0515C20.8334 55.9366 22.1928 53.6975 23.3598 51.3574C21.138 50.5116 18.9962 49.4692 16.9596 48.2426C17.4956 47.8454 18.0189 47.4314 18.5288 47.0013C30.8692 52.7733 44.2778 52.7733 56.4712 47.0013C56.9833 47.4285 57.5064 47.8424 58.04 48.2426C56.0002 49.4724 53.8543 50.5169 51.6281 51.3636C52.8017 53.7132 54.1588 55.9544 55.6925 58.0573C61.8864 56.1296 68.1864 53.1832 74.6812 48.327C76.2386 31.8363 72.0211 17.5389 63.532 4.86211V4.8624ZM25.0412 39.5786C21.3366 39.5786 18.2985 36.1201 18.2985 31.9087C18.2985 27.6973 21.2719 24.2329 25.0412 24.2329C28.8108 24.2329 31.8486 27.6911 31.7839 31.9087C31.7897 36.1201 28.8108 39.5786 25.0412 39.5786ZM49.9585 39.5786C46.2539 39.5786 43.2161 36.1201 43.2161 31.9087C43.2161 27.6973 46.1891 24.2329 49.9585 24.2329C53.7281 24.2329 56.7659 27.6911 56.7011 31.9087C56.7011 36.1201 53.7281 39.5786 49.9585 39.5786Z" fill="#5865F2"/>
</g>
<defs>
<clipPath id="clip0_338_839">
<rect width="75" height="58.3008" fill="white"/>
</clipPath>
</defs>
</svg>
