<svg width="133" height="96" viewBox="0 0 133 96" fill="none" xmlns="http://www.w3.org/2000/svg">
<g clip-path="url(#clip0_338_940)">
<path d="M130.101 36.5822C127.11 34.5066 120.254 33.7282 114.895 34.766C114.272 29.5768 111.405 25.0368 106.419 21.0152L103.553 18.9395L101.558 21.9233C99.0656 25.8152 97.8192 31.2638 98.1928 36.453C98.3173 38.2687 98.9406 41.512 100.81 44.366C99.0656 45.4039 95.4508 46.7011 90.7147 46.7011H0.59921L0.350129 47.739C-0.522692 52.9277 -0.522693 69.1434 9.69793 81.5969C17.4257 91.0666 28.8927 95.8666 43.9741 95.8666C76.6296 95.8666 100.81 80.1693 112.153 51.7601C116.64 51.8898 126.237 51.7601 131.098 42.0304C131.223 41.7709 131.472 41.252 132.344 39.3066L132.843 38.2687L130.101 36.5822ZM72.6412 0H58.9314V12.9725H72.6412V0ZM72.6412 15.567H58.9314V28.5395H72.6412V15.5665V15.567ZM56.438 15.567H42.7282V28.5395H56.438V15.5665V15.567ZM40.2348 15.567H26.5244V28.5395H40.2348V15.5665V15.567ZM24.0315 31.1341H10.3212V44.1066H24.031V31.1336L24.0315 31.1341ZM40.2348 31.1341H26.5244V44.1066H40.2348V31.1336V31.1341ZM56.438 31.1341H42.7282V44.1066H56.438V31.1336V31.1341ZM72.6418 31.1341H58.9309V44.1066H72.6418V31.1336V31.1341ZM88.845 31.1341H75.1341V44.1066H88.845V31.1336V31.1341Z" fill="#2396ED"/>
</g>
<defs>
<clipPath id="clip0_338_940">
<rect width="132.843" height="96" fill="white"/>
</clipPath>
</defs>
</svg>
