<svg width="22" height="28" viewBox="0 0 22 28" fill="none" xmlns="http://www.w3.org/2000/svg">
<path d="M13.2628 0H4C3.07174 0 2.1815 0.368749 1.52513 1.02513C0.868749 1.6815 0.5 2.57174 0.5 3.5V24.5C0.5 25.4283 0.868749 26.3185 1.52513 26.9749C2.1815 27.6313 3.07174 28 4 28H18C18.9283 28 19.8185 27.6313 20.4749 26.9749C21.1313 26.3185 21.5 25.4283 21.5 24.5V8.23725C21.4999 7.77316 21.3155 7.32811 20.9872 7L14.5 0.51275C14.1719 0.184539 13.7268 9.91155e-05 13.2628 0V0ZM13.625 6.125V2.625L18.875 7.875H15.375C14.9109 7.875 14.4658 7.69063 14.1376 7.36244C13.8094 7.03425 13.625 6.58913 13.625 6.125ZM8.6305 13.3805C8.71185 13.2991 8.80843 13.2346 8.91473 13.1906C9.02102 13.1466 9.13495 13.1239 9.25 13.1239C9.36505 13.1239 9.47898 13.1466 9.58527 13.1906C9.69157 13.2346 9.78815 13.2991 9.8695 13.3805C9.95085 13.4619 10.0154 13.5584 10.0594 13.6647C10.1034 13.771 10.1261 13.8849 10.1261 14C10.1261 14.1151 10.1034 14.229 10.0594 14.3353C10.0154 14.4416 9.95085 14.5381 9.8695 14.6195L6.98725 17.5L9.8695 20.3805C10.0338 20.5448 10.1261 20.7676 10.1261 21C10.1261 21.2324 10.0338 21.4552 9.8695 21.6195C9.7052 21.7838 9.48236 21.8761 9.25 21.8761C9.01764 21.8761 8.7948 21.7838 8.6305 21.6195L5.1305 18.1195C5.04901 18.0382 4.98436 17.9417 4.94025 17.8354C4.89614 17.7291 4.87344 17.6151 4.87344 17.5C4.87344 17.3849 4.89614 17.2709 4.94025 17.1646C4.98436 17.0583 5.04901 16.9618 5.1305 16.8805L8.6305 13.3805ZM13.3695 13.3805L16.8695 16.8805C16.951 16.9618 17.0156 17.0583 17.0597 17.1646C17.1039 17.2709 17.1266 17.3849 17.1266 17.5C17.1266 17.6151 17.1039 17.7291 17.0597 17.8354C17.0156 17.9417 16.951 18.0382 16.8695 18.1195L13.3695 21.6195C13.2052 21.7838 12.9824 21.8761 12.75 21.8761C12.5176 21.8761 12.2948 21.7838 12.1305 21.6195C11.9662 21.4552 11.8739 21.2324 11.8739 21C11.8739 20.7676 11.9662 20.5448 12.1305 20.3805L15.0128 17.5L12.1305 14.6195C12.0491 14.5381 11.9846 14.4416 11.9406 14.3353C11.8966 14.229 11.8739 14.1151 11.8739 14C11.8739 13.8849 11.8966 13.771 11.9406 13.6647C11.9846 13.5584 12.0491 13.4619 12.1305 13.3805C12.2119 13.2991 12.3084 13.2346 12.4147 13.1906C12.521 13.1466 12.6349 13.1239 12.75 13.1239C12.8651 13.1239 12.979 13.1466 13.0853 13.1906C13.1916 13.2346 13.2881 13.2991 13.3695 13.3805Z" fill="#F8F8F8"/>
</svg>
