<svg width="157" height="46" viewBox="0 0 157 46" fill="none" xmlns="http://www.w3.org/2000/svg">
<g clip-path="url(#clip0_338_961)">
<path d="M1.02173 35.4565V17.9839H22.8374V16.9618H1.02173V1.02173H24.2166V0H0V36.4783H24.4209V35.4565H1.02203H1.02173ZM44.0909 10.2179L35.0481 22.122L26.2092 10.2182H24.8808L34.4348 22.8886L23.9609 36.478H25.1872L35.0475 23.6543L44.959 36.478H46.2362L35.7117 22.888L45.3166 10.2176H44.0906L44.0909 10.2179ZM49.302 45.4702V29.1217H49.4041C50.0174 31.5058 51.2265 33.4217 53.0317 34.8693C54.8368 36.3167 57.1357 37.0407 59.9286 37.0407C61.7338 37.0407 63.3348 36.6745 64.7312 35.9423C66.1277 35.21 67.2941 34.2137 68.2309 32.9534C69.1674 31.6931 69.8828 30.2286 70.3768 28.5596C70.8705 26.8909 71.1176 25.1366 71.1176 23.2976C71.1176 21.3219 70.8619 19.4996 70.351 17.8308C69.8402 16.1618 69.0993 14.7142 68.1288 13.4882C67.158 12.2619 65.9829 11.308 64.6034 10.6272C63.2241 9.94589 61.6657 9.60521 59.9286 9.60521C58.6003 9.60521 57.3657 9.80116 56.2247 10.1927C55.0837 10.5846 54.0706 11.1378 53.185 11.8532C52.2942 12.5741 51.5189 13.4269 50.8858 14.3821C50.2388 15.3529 49.7448 16.4172 49.4041 17.5754H49.302V10.2179H48.2803V45.4702H49.302ZM59.9286 36.0695C56.7273 36.0695 54.1555 34.9711 52.2142 32.7744C50.2728 30.5776 49.302 27.4183 49.302 23.297C49.302 21.5939 49.5406 19.9761 50.0174 18.4435C50.4942 16.9109 51.1838 15.5654 52.0863 14.4075C52.989 13.2493 54.1046 12.3297 55.4327 11.6487C56.761 10.9673 58.2599 10.6266 59.9286 10.6266C61.6317 10.6266 63.122 10.9673 64.3991 11.6487C65.6763 12.3297 66.7324 13.2579 67.5667 14.433C68.4011 15.608 69.0312 16.9535 69.4572 18.469C69.8828 19.9847 70.0956 21.5939 70.0956 23.297C70.0956 24.8299 69.9 26.3542 69.5081 27.8696C69.1165 29.3854 68.5118 30.7478 67.6943 31.9572C66.8771 33.1659 65.8299 34.1536 64.5525 34.9202C63.275 35.6865 61.7338 36.0695 59.9286 36.0695ZM76.7374 36.4783V21.6111C76.7374 20.1806 76.9417 18.7839 77.3507 17.4218C77.7592 16.0594 78.3893 14.8586 79.2408 13.82C80.0924 12.7811 81.1736 11.9636 82.4851 11.3675C83.7963 10.7714 85.3546 10.5245 87.1598 10.6266V9.6049C85.5929 9.57117 84.2222 9.74105 83.0472 10.1158C81.8718 10.4905 80.8587 11.0013 80.0071 11.6487C79.1556 12.2957 78.4745 13.0534 77.9637 13.9221C77.4532 14.7894 77.0744 15.7278 76.8395 16.7064H76.7374V10.2179H75.7157V36.4786H76.7374V36.4783ZM88.437 23.5525H110.406C110.474 21.7473 110.295 20.0104 109.869 18.3414C109.444 16.6724 108.762 15.1907 107.826 13.8966C106.889 12.6023 105.68 11.5634 104.198 10.78C102.717 9.99648 100.954 9.6049 98.9106 9.6049C97.4458 9.6049 96.0153 9.91155 94.6189 10.5248C93.2224 11.1378 91.9962 12.0317 90.9404 13.2067C89.8847 14.3818 89.0331 15.8208 88.3861 17.5242C87.7391 19.227 87.4153 21.1683 87.4153 23.3482C87.4153 25.2896 87.6367 27.1034 88.0795 28.7893C88.5222 30.4752 89.2033 31.94 90.1229 33.1831C91.0428 34.4262 92.2265 35.3885 93.6738 36.0695C95.1212 36.7509 96.8669 37.0744 98.9106 37.0403C101.908 37.0403 104.428 36.1971 106.472 34.5115C108.516 32.8253 109.725 30.4497 110.099 27.3842H109.078C108.635 30.2795 107.502 32.4509 105.68 33.8982C103.858 35.3459 101.567 36.0695 98.8082 36.0695C96.9349 36.0695 95.3511 35.746 94.0568 35.099C92.7628 34.452 91.7067 33.5661 90.8892 32.4423C90.072 31.3181 89.4673 29.9983 89.0757 28.4826C88.6838 26.9672 88.471 25.3236 88.437 23.5525ZM109.384 22.5307H88.4373C88.5391 20.6915 88.8798 19.0396 89.4587 17.5751C90.038 16.1103 90.7957 14.8586 91.7325 13.82C92.6689 12.7811 93.7591 11.9893 95.0022 11.4441C96.2453 10.8992 97.5822 10.6266 99.0127 10.6266C100.716 10.6266 102.214 10.9419 103.509 11.572C104.803 12.2022 105.884 13.0623 106.753 14.1521C107.621 15.2419 108.277 16.5108 108.72 17.9581C109.163 19.4058 109.384 20.9301 109.384 22.5307ZM131.608 17.9839H132.63C132.63 15.0545 131.779 12.9258 130.076 11.5975C128.372 10.2691 126.056 9.6049 123.127 9.6049C121.492 9.6049 120.113 9.80943 118.989 10.2182C117.865 10.6266 116.945 11.1547 116.23 11.8017C115.515 12.4487 115.004 13.1641 114.697 13.9475C114.391 14.731 114.237 15.4804 114.237 16.1955C114.237 17.626 114.493 18.767 115.004 19.6186C115.515 20.4701 116.315 21.1343 117.405 21.6111C118.154 21.9515 119.006 22.2581 119.96 22.531C120.913 22.8033 122.02 23.0928 123.281 23.3991C124.404 23.672 125.511 23.9443 126.601 24.2166C127.691 24.4892 128.654 24.8554 129.488 25.315C130.323 25.775 131.004 26.3625 131.532 27.0779C132.059 27.793 132.323 28.7298 132.323 29.8876C132.323 31.0118 132.06 31.9654 131.532 32.7486C131.008 33.528 130.319 34.1823 129.514 34.6648C128.696 35.1585 127.785 35.516 126.78 35.7374C125.775 35.9588 124.796 36.0695 123.843 36.0695C120.743 36.0695 118.367 35.3799 116.715 34.0006C115.064 32.621 114.238 30.4497 114.238 27.4863H113.216C113.216 30.7904 114.11 33.2086 115.898 34.7415C117.686 36.2741 120.334 37.0403 123.843 37.0403C124.966 37.0403 126.099 36.9125 127.24 36.657C128.381 36.4016 129.403 35.9846 130.305 35.4053C131.2 34.8343 131.952 34.0653 132.502 33.1577C133.064 32.2377 133.345 31.1139 133.345 29.7855C133.345 28.5252 133.098 27.5035 132.605 26.7201C132.111 25.9369 131.464 25.2896 130.663 24.7787C129.863 24.2678 128.96 23.8677 127.955 23.5782C126.945 23.287 125.931 23.0059 124.915 22.7349C123.665 22.4069 122.413 22.0834 121.16 21.7644C120.088 21.4918 119.091 21.1683 118.172 20.7936C117.286 20.4189 116.579 19.8826 116.051 19.1844C115.523 18.4861 115.259 17.4899 115.259 16.1955C115.259 15.9573 115.328 15.5313 115.464 14.9184C115.6 14.3051 115.924 13.6835 116.435 13.0534C116.945 12.4235 117.729 11.8615 118.785 11.3675C119.84 10.8738 121.288 10.6266 123.127 10.6266C124.388 10.6266 125.537 10.7631 126.576 11.0354C127.615 11.308 128.509 11.7422 129.258 12.3383C130.007 12.9344 130.586 13.6921 130.995 14.6117C131.404 15.5317 131.608 16.6555 131.608 17.9839ZM155.263 17.9839H156.285C156.285 15.0545 155.433 12.9258 153.73 11.5975C152.027 10.2691 149.711 9.6049 146.782 9.6049C145.147 9.6049 143.768 9.80943 142.644 10.2182C141.52 10.6266 140.6 11.1547 139.885 11.8017C139.169 12.4487 138.659 13.1641 138.352 13.9475C138.045 14.731 137.892 15.4804 137.892 16.1955C137.892 17.626 138.148 18.767 138.659 19.6186C139.169 20.4701 139.97 21.1343 141.06 21.6111C141.809 21.9515 142.661 22.2581 143.614 22.531C144.568 22.8033 145.675 23.0928 146.935 23.3991C148.059 23.672 149.166 23.9443 150.256 24.2166C151.346 24.4892 152.308 24.8554 153.143 25.315C153.977 25.775 154.658 26.3625 155.186 27.0779C155.714 27.793 155.978 28.7298 155.978 29.8876C155.978 31.0118 155.714 31.9654 155.186 32.7486C154.663 33.528 153.974 34.1822 153.169 34.6648C152.351 35.1585 151.44 35.516 150.435 35.7374C149.43 35.9588 148.451 36.0695 147.497 36.0695C144.398 36.0695 142.022 35.3799 140.37 34.0006C138.718 32.621 137.892 30.4497 137.892 27.4863H136.871C136.871 30.7904 137.764 33.2086 139.553 34.7415C141.341 36.2741 143.989 37.0403 147.497 37.0403C148.621 37.0403 149.754 36.9125 150.895 36.657C152.035 36.4016 153.058 35.9846 153.96 35.4053C154.855 34.8343 155.607 34.0653 156.157 33.1577C156.719 32.2377 157 31.1139 157 29.7855C157 28.5252 156.753 27.5035 156.259 26.7201C155.765 25.9369 155.118 25.2896 154.318 24.7787C153.517 24.2678 152.615 23.8677 151.61 23.5782C150.6 23.287 149.586 23.0059 148.57 22.7349C147.32 22.4069 146.068 22.0834 144.815 21.7644C143.742 21.4918 142.746 21.1683 141.826 20.7936C140.941 20.4189 140.234 19.8826 139.706 19.1844C139.178 18.4861 138.914 17.4899 138.914 16.1955C138.914 15.9573 138.982 15.5313 139.119 14.9184C139.255 14.3051 139.579 13.6835 140.089 13.0534C140.6 12.4235 141.383 11.8615 142.439 11.3675C143.495 10.8738 144.943 10.6266 146.782 10.6266C148.042 10.6266 149.192 10.7631 150.231 11.0354C151.27 11.308 152.163 11.7422 152.913 12.3383C153.662 12.9344 154.241 13.6921 154.65 14.6117C155.059 15.5317 155.263 16.6555 155.263 17.9839H155.263Z" fill="#222222"/>
</g>
<defs>
<clipPath id="clip0_338_961">
<rect width="157" height="45.6895" fill="white"/>
</clipPath>
</defs>
</svg>
