<svg width="96" height="110" viewBox="0 0 96 110" fill="none" xmlns="http://www.w3.org/2000/svg">
<g clip-path="url(#clip0_338_968)">
<path d="M21.4427 71.2498C31.7964 71.9554 34.0091 71.6996 34.0091 73.795C34.0091 78.0584 20.0358 78.0712 20.0358 74.1191C20.0379 73.034 20.7371 72.1153 21.4427 71.2498ZM27.4008 46.3857C20.5176 46.3857 20.2064 55.8653 27.2409 55.8653C34.1711 55.8653 34.0006 46.3857 27.4008 46.3857ZM95.5 17.0535V92.0893C95.5 94.803 94.422 97.4056 92.5031 99.3245C90.5842 101.243 87.9816 102.321 85.2679 102.321H10.2321C7.51841 102.321 4.91582 101.243 2.99693 99.3245C1.07803 97.4056 0 94.803 0 92.0893L0 17.0535C0 14.3398 1.07803 11.7372 2.99693 9.81832C4.91582 7.89942 7.51841 6.8214 10.2321 6.8214H85.2679C87.9816 6.8214 90.5842 7.89942 92.5031 9.81832C94.422 11.7372 95.5 14.3398 95.5 17.0535ZM47.1105 31.8283C47.1105 34.9172 48.8969 36.7057 51.9836 36.7057C55.1257 36.7057 56.9142 34.9172 56.9142 31.8283C56.9142 28.7395 55.1299 27.0725 51.9878 27.0725C48.9011 27.0725 47.1105 28.7438 47.1105 31.8283ZM42.4591 41.5681H31.8966C26.5673 40.1718 14.5105 40.5342 14.5105 51.5337C14.5105 55.5413 16.5143 58.3552 19.1682 59.6576C15.8236 62.7209 14.2397 64.164 14.2397 66.2105C14.2397 67.6749 14.8345 69.0286 16.623 69.7832C14.7258 71.5738 13.6386 72.8699 13.6386 75.3085C13.6429 79.5869 17.3797 82.0703 27.1834 82.0703C36.6098 82.0703 42.0776 78.5508 42.0776 72.322C42.0776 64.5051 36.0598 64.7929 21.8755 63.9274L23.6618 61.0645C27.2857 62.075 39.4769 62.3926 39.4769 52.0198C39.4769 49.5278 38.4473 47.7947 37.4731 46.5477L42.457 46.1683L42.4591 41.5681ZM60.4379 64.9826L57.6667 64.6032C56.8523 64.4944 56.7991 64.39 56.7991 63.5181V41.0394H45.5863L44.9916 45.4243C48.349 46.6074 48.6155 46.4603 48.6155 47.5922V63.5245C48.6155 64.7225 48.5494 64.5008 44.9916 64.989V69.2652H60.4293L60.4379 64.9826ZM81.8571 67.1484L80.3927 62.3798C71.6676 65.6562 72.3242 59.7344 72.3242 58.8135V45.8698H80.3927V40.4532H72.7569C72.1451 40.4532 72.3306 40.9904 72.3306 32.2184H67.1762C66.5814 38.1232 64.6863 40.5065 59.9284 41.0479V45.8698C64.292 45.8698 64.1534 45.6886 64.1534 46.4113V60.602C64.1534 66.7242 66.5899 69.3227 73.0362 69.3227C76.1165 69.3227 79.5272 68.2931 81.8571 67.1484Z" fill="black"/>
</g>
<defs>
<clipPath id="clip0_338_968">
<rect width="95.5" height="109.143" fill="white"/>
</clipPath>
</defs>
</svg>
