<svg width="127" height="127" viewBox="0 0 127 127" fill="none" xmlns="http://www.w3.org/2000/svg">
<path d="M23.1894 0C10.3435 0 0 10.3435 0 23.1894V103.811C0 116.657 10.3435 127 23.1894 127H66.8854V77.351H53.7568V59.4757H66.8854V44.204C66.8854 32.2057 74.6425 21.1892 92.5116 21.1892C99.7466 21.1892 105.097 21.8837 105.097 21.8837L104.676 38.5764C104.676 38.5764 99.2195 38.5248 93.2656 38.5248C86.8218 38.5248 85.7885 41.4938 85.7885 46.4227V59.4759H105.188L104.342 77.3511H85.7885V127H103.811C116.656 127 127 116.657 127 103.811V23.1896C127 10.3436 116.656 0.000127 103.811 0.000127H23.1893L23.1894 0Z" fill="white"/>
</svg>
