<svg width="111" height="98" viewBox="0 0 111 98" fill="none" xmlns="http://www.w3.org/2000/svg">
<g clip-path="url(#clip0_338_183)">
<rect width="161.995" height="23" transform="translate(-25 80.4304) rotate(-42.0163)" fill="#2B50C8"/>
<path d="M19.487 63.4761C18.6349 64.2866 17.7095 64.8024 16.7109 65.0236C15.721 65.2365 14.7215 65.1521 13.7125 64.7703C12.7035 64.3886 11.7442 63.7195 10.8344 62.7631C9.91639 61.7979 9.28764 60.8061 8.94814 59.7875C8.60907 58.752 8.57473 57.7496 8.84513 56.7802C9.11596 55.7939 9.68177 54.8914 10.5426 54.0726C11.4033 53.2538 12.3287 52.738 13.3186 52.5251C14.309 52.2953 15.3085 52.3797 16.317 52.7784C17.326 53.1601 18.2854 53.8292 19.1951 54.7856C20.1049 55.7421 20.7293 56.738 21.0684 57.7736C21.3992 58.8004 21.4292 59.807 21.1583 60.7933C20.8962 61.7713 20.3391 62.6656 19.487 63.4761ZM18.6186 62.5631C19.5924 61.6369 20.0387 60.5913 19.9575 59.4264C19.8768 58.2445 19.2575 57.045 18.0996 55.8277C16.9417 54.6104 15.7831 53.9321 14.6238 53.7928C13.4644 53.6534 12.3935 54.051 11.411 54.9856C10.4371 55.9119 9.9906 56.9659 10.0714 58.1478C10.1526 59.3126 10.768 60.4994 11.9176 61.708C13.0671 62.9165 14.2257 63.5949 15.3934 63.7429C16.5697 63.8827 17.6448 63.4894 18.6186 62.5631ZM22.3488 48.159C23.8704 46.7117 25.4293 46.8271 27.0254 48.5052L30.3874 52.0396C30.5445 52.2048 30.6207 52.3807 30.6161 52.5674C30.6118 52.737 30.5271 52.9004 30.3619 53.0576C30.1967 53.2147 30.0249 53.2953 29.8466 53.2993C29.6599 53.2946 29.4881 53.2097 29.3309 53.0445L26.031 49.5752C25.4687 48.984 24.9419 48.6652 24.4507 48.619C23.9683 48.5645 23.4749 48.7771 22.9706 49.2568C22.3881 49.8109 22.0924 50.4316 22.0837 51.1189C22.075 51.8062 22.3601 52.4542 22.9391 53.0628L25.966 56.2451C26.1232 56.4103 26.1994 56.5862 26.1947 56.7729C26.1905 56.9425 26.1058 57.1059 25.9406 57.2631C25.7754 57.4202 25.6036 57.5008 25.4252 57.5048C25.2386 57.5001 25.0667 57.4152 24.9096 57.25L19.6744 51.7461C19.5256 51.5896 19.4535 51.4181 19.4581 51.2315C19.4628 51.0448 19.5477 50.873 19.7129 50.7158C19.8695 50.567 20.0367 50.499 20.2146 50.5119C20.4012 50.5166 20.5648 50.5928 20.7054 50.7407L21.3381 51.4058C21.1746 50.8161 21.1847 50.2434 21.3683 49.6878C21.5437 49.1235 21.8705 48.6139 22.3488 48.159ZM38.5568 36.0214C38.6872 35.8973 38.8287 35.8372 38.9814 35.841C39.1428 35.8366 39.2897 35.9039 39.422 36.043L42.511 39.2906C42.7095 39.4992 42.8236 39.6888 42.8533 39.8593C42.8916 40.0216 42.8528 40.2158 42.7368 40.4421C42.5296 40.9207 42.2196 41.4392 41.8067 41.9976C41.3938 42.5559 40.9395 43.0708 40.4439 43.5422C39.5309 44.4106 38.5662 44.9722 37.5498 45.2268C36.5334 45.4815 35.512 45.4262 34.4856 45.061C33.4679 44.6876 32.4917 44.0096 31.5572 43.0271C30.6392 42.0619 30.0191 41.0618 29.697 40.0267C29.3749 38.9916 29.3621 37.977 29.6586 36.9828C29.9468 35.98 30.53 35.0609 31.4082 34.2256C32.0168 33.6467 32.6729 33.2047 33.3766 32.8998C34.072 32.5862 34.7633 32.4337 35.4506 32.4424C35.739 32.4496 35.9576 32.5315 36.1065 32.688C36.2223 32.8097 36.2909 32.9515 36.3123 33.1133C36.3255 33.2664 36.2799 33.3926 36.1755 33.4918C36.0712 33.5911 35.8998 33.6547 35.6615 33.6827C34.8785 33.7649 34.2424 33.9145 33.7532 34.1315C33.2557 34.3397 32.7678 34.6713 32.2896 35.1261C31.2549 36.1103 30.7695 37.1931 30.8333 38.3745C30.9058 39.5477 31.521 40.7429 32.6788 41.9602C33.8615 43.2035 35.0412 43.8866 36.218 44.0094C37.3951 44.1153 38.5271 43.6513 39.614 42.6175C40.4226 41.8484 41.0416 41.0278 41.4708 40.1558L38.816 37.3647L36.9118 39.1759C36.764 39.3165 36.6094 39.3891 36.448 39.3935C36.2866 39.398 36.1481 39.3393 36.0323 39.2176C35.9082 39.0872 35.8566 38.9458 35.8774 38.7936C35.8899 38.6326 35.97 38.4818 36.1179 38.3412L38.5568 36.0214ZM48.2782 36.0656C47.6782 36.6362 47.0196 37.006 46.3024 37.1747C45.5939 37.3353 44.8779 37.2876 44.1543 37.0319C43.4312 36.7592 42.7553 36.2924 42.1268 35.6316C41.4982 34.9708 41.07 34.2768 40.842 33.5496C40.6145 32.8054 40.5986 32.0836 40.7943 31.384C40.9988 30.6761 41.401 30.0368 42.0009 29.4662C42.6009 28.8955 43.2594 28.5258 43.9767 28.357C44.6939 28.1882 45.414 28.2402 46.1372 28.5129C46.8607 28.7687 47.5368 29.227 48.1654 29.8878C48.7939 30.5486 49.2219 31.2511 49.4495 31.9952C49.6774 32.7224 49.6892 33.4399 49.4847 34.1478C49.2803 34.8557 48.8781 35.4949 48.2782 36.0656ZM47.447 35.1917C48.073 34.5963 48.3569 33.9371 48.2986 33.2141C48.2407 32.4742 47.8354 31.7087 47.0828 30.9174C46.3468 30.1436 45.6107 29.7093 44.8746 29.6145C44.1303 29.511 43.4494 29.7528 42.8321 30.34C42.2148 30.9272 41.9392 31.5951 42.0053 32.3437C42.0632 33.0836 42.4602 33.8405 43.1962 34.6143C43.9406 35.3968 44.6764 35.8397 45.4038 35.9427C46.1399 36.0375 46.821 35.7872 47.447 35.1917ZM53.3879 31.1556C53.2314 31.3044 53.0596 31.385 52.8726 31.3973C52.686 31.3926 52.5141 31.3077 52.357 31.1425L47.1218 25.6387C46.9647 25.4735 46.8926 25.3019 46.9055 25.124C46.9189 24.9291 47.0038 24.7572 47.1603 24.6083C47.3168 24.4595 47.4884 24.3874 47.675 24.392C47.8534 24.388 48.0211 24.4686 48.1782 24.6338L53.4134 30.1376C53.5788 30.3115 53.655 30.4875 53.6421 30.6654C53.6292 30.8433 53.5444 31.0067 53.3879 31.1556ZM45.8577 23.2389C45.6491 23.4374 45.4216 23.5378 45.1754 23.5401C44.9292 23.5425 44.711 23.4436 44.5208 23.2436C44.3388 23.0524 44.2552 22.8338 44.2698 22.588C44.2844 22.3423 44.3961 22.1201 44.6048 21.9216C44.8134 21.7231 45.0409 21.6227 45.2871 21.6204C45.5333 21.6181 45.7474 21.7126 45.9293 21.9038C46.1195 22.1038 46.2073 22.3267 46.1927 22.5725C46.1781 22.8183 46.0664 23.0404 45.8577 23.2389ZM52.8274 19.1682C54.349 17.7209 55.9079 17.8362 57.5041 19.5144L60.866 23.0488C61.0232 23.214 61.0994 23.3899 61.0947 23.5765C61.0905 23.7462 61.0058 23.9096 60.8406 24.0667C60.6754 24.2239 60.5036 24.3044 60.3252 24.3085C60.1386 24.3038 59.9668 24.2189 59.8096 24.0537L56.5097 20.5844C55.9473 19.9932 55.4206 19.6744 54.9294 19.6282C54.447 19.5737 53.9536 19.7863 53.4493 20.2659C52.8667 20.8201 52.5711 21.4408 52.5624 22.1281C52.5537 22.8154 52.8388 23.4634 53.4177 24.072L56.4447 27.2543C56.6018 27.4195 56.6781 27.5954 56.6734 27.782C56.6692 27.9517 56.5844 28.1151 56.4192 28.2722C56.254 28.4294 56.0823 28.5099 55.9039 28.514C55.7173 28.5093 55.5454 28.4244 55.3883 28.2592L50.1531 22.7553C50.0043 22.5988 49.9322 22.4273 49.9368 22.2406C49.9415 22.054 50.0264 21.8821 50.1916 21.725C50.3481 21.5761 50.5154 21.5082 50.6933 21.5211C50.8799 21.5258 51.0435 21.602 51.1841 21.7498L51.8168 22.415C51.6533 21.8252 51.6634 21.2525 51.847 20.6969C52.0224 20.1326 52.3492 19.623 52.8274 19.1682ZM62.2213 10.2826C62.3865 10.1254 62.5624 10.0492 62.749 10.0539C62.9356 10.0585 63.1034 10.1391 63.2523 10.2956L68.5122 15.8256C69.4137 16.7733 69.8484 17.7179 69.8164 18.6592C69.7926 19.6093 69.3025 20.5392 68.3461 21.4489C67.4157 22.3338 66.4682 22.8873 65.5035 23.1093C65.0251 23.2332 64.6784 23.1821 64.4633 22.956C64.3475 22.8343 64.2829 22.7053 64.2693 22.5692C64.2644 22.4248 64.3142 22.3029 64.4185 22.2037C64.5054 22.121 64.7198 22.033 65.0617 21.9397C65.5149 21.8067 65.9348 21.6475 66.3214 21.4619C66.708 21.2764 67.1056 20.9892 67.5143 20.6005C68.1316 20.0133 68.4396 19.4057 68.4384 18.7775C68.4454 18.1581 68.1512 17.5353 67.5557 16.9093L66.4888 15.7877C66.6949 16.37 66.7101 16.9518 66.5343 17.5331C66.3671 18.1061 66.0271 18.6366 65.5141 19.1245C64.9576 19.6538 64.338 19.9948 63.6551 20.1475C62.9809 20.2919 62.2947 20.2408 61.5964 19.9941C60.9067 19.7392 60.2642 19.2987 59.6687 18.6727C59.0732 18.0467 58.6655 17.3829 58.4453 16.6814C58.2339 15.9716 58.2172 15.2837 58.3951 14.6176C58.5818 13.9432 58.9533 13.3414 59.5098 12.812C60.0141 12.3324 60.5565 12.0234 61.1372 11.8851C61.7178 11.7469 62.294 11.7868 62.8657 12.0048L62.1958 11.3005C62.047 11.144 61.9705 10.9766 61.9665 10.7982C61.9712 10.6116 62.0561 10.4397 62.2213 10.2826ZM64.8916 18.0522C65.5002 17.4733 65.7882 16.8184 65.7556 16.0876C65.7147 15.3482 65.3551 14.6219 64.677 13.9089C64.007 13.2047 63.308 12.818 62.5797 12.7488C61.8519 12.6627 61.1794 12.9132 60.562 13.5004C59.9447 14.0876 59.6521 14.7551 59.6844 15.5028C59.717 16.2336 60.0683 16.9512 60.7382 17.6554C61.4164 18.3684 62.1237 18.7638 62.8602 18.8417C63.5971 18.9025 64.2743 18.6394 64.8916 18.0522Z" fill="white"/>
</g>
<defs>
<clipPath id="clip0_338_183">
<rect width="161.995" height="23" fill="white" transform="translate(-25 80.4304) rotate(-42.0163)"/>
</clipPath>
</defs>
</svg>
