<svg width="111" height="98" viewBox="0 0 111 98" fill="none" xmlns="http://www.w3.org/2000/svg">
<g clip-path="url(#clip0_338_697)">
<rect width="161.995" height="23" transform="translate(-25 80.4304) rotate(-42.0163)" fill="#2BC83B"/>
<path d="M12.6595 67.8543C12.5257 68.0038 12.3962 68.0883 12.2713 68.1078C12.1463 68.1273 12.0342 68.0849 11.9349 67.9805C11.753 67.7892 11.7665 67.5887 11.9754 67.3789L12.2197 67.1134C12.4988 66.8148 12.6336 66.5154 12.6242 66.2153C12.6092 65.9094 12.428 65.5738 12.0807 65.2086L8.11086 61.0351C8.00611 60.9249 7.95818 60.8049 7.96709 60.675C7.97049 60.5393 8.02146 60.4245 8.12 60.3308C8.23013 60.226 8.35016 60.1781 8.48009 60.187C8.6045 60.1901 8.71908 60.2468 8.82384 60.3569L12.8019 64.5391C13.3092 65.0724 13.5706 65.5911 13.5863 66.0951C13.5965 66.5933 13.369 67.0912 12.9039 67.5888L12.6595 67.8543ZM17.5728 63.2141C17.1728 63.5945 16.7338 63.841 16.2556 63.9535C15.7833 64.0605 15.3059 64.0288 14.8236 63.8583C14.3415 63.6765 13.8909 63.3653 13.4719 62.9247C13.0528 62.4842 12.7673 62.0215 12.6154 61.5368C12.4637 61.0407 12.4531 60.5594 12.5836 60.093C12.7199 59.6211 12.988 59.1949 13.388 58.8145C13.7879 58.434 14.227 58.1876 14.7051 58.075C15.1833 57.9625 15.6634 57.9972 16.1455 58.179C16.6278 58.3495 17.0785 58.655 17.4976 59.0956C17.9166 59.5361 18.202 60.0044 18.3537 60.5005C18.5056 60.9853 18.5135 61.4636 18.3772 61.9356C18.2409 62.4075 17.9727 62.8336 17.5728 63.2141ZM17.0187 62.6315C17.436 62.2345 17.6253 61.7951 17.5864 61.3131C17.5478 60.8199 17.2776 60.3095 16.7759 59.782C16.2852 59.2661 15.7945 58.9765 15.3038 58.9133C14.8075 58.8443 14.3536 59.0056 13.9421 59.397C13.5305 59.7885 13.3468 60.2338 13.3909 60.7328C13.4295 61.2261 13.6941 61.7307 14.1848 62.2466C14.6811 62.7683 15.1716 63.0635 15.6566 63.1322C16.1473 63.1954 16.6013 63.0285 17.0187 62.6315ZM20.9793 59.9407C20.875 60.04 20.7604 60.0937 20.6357 60.1019C20.5113 60.0988 20.3968 60.0422 20.292 59.932L16.8019 56.2628C16.6971 56.1527 16.6491 56.0383 16.6577 55.9197C16.6666 55.7898 16.7232 55.6752 16.8276 55.5759C16.9319 55.4767 17.0463 55.4286 17.1707 55.4317C17.2896 55.429 17.4014 55.4828 17.5062 55.5929L20.9963 59.2621C21.1065 59.3781 21.1574 59.4953 21.1487 59.6139C21.1401 59.7326 21.0836 59.8415 20.9793 59.9407ZM15.9592 54.663C15.82 54.7953 15.6684 54.8622 15.5043 54.8638C15.3401 54.8653 15.1947 54.7994 15.0679 54.6661C14.9466 54.5386 14.8908 54.3929 14.9005 54.2291C14.9103 54.0652 14.9847 53.9171 15.1239 53.7848C15.263 53.6525 15.4146 53.5855 15.5787 53.584C15.7429 53.5824 15.8856 53.6454 16.0069 53.7729C16.1337 53.9062 16.1922 54.0548 16.1825 54.2187C16.1727 54.3825 16.0983 54.5306 15.9592 54.663ZM20.6056 51.9491C21.62 50.9843 22.6593 51.0612 23.7234 52.1799L25.9647 54.5362C26.0695 54.6464 26.1203 54.7636 26.1172 54.8881C26.1143 55.0012 26.0579 55.1101 25.9477 55.2148C25.8376 55.3196 25.7231 55.3733 25.6042 55.376C25.4798 55.3729 25.3652 55.3163 25.2604 55.2061L23.0605 52.8933C22.6856 52.4991 22.3344 52.2866 22.007 52.2558C21.6853 52.2195 21.3564 52.3612 21.0202 52.681C20.6318 53.0504 20.4348 53.4642 20.429 53.9224C20.4231 54.3806 20.6132 54.8126 20.9992 55.2184L23.0172 57.3399C23.1219 57.45 23.1727 57.5673 23.1696 57.6917C23.1668 57.8048 23.1103 57.9138 23.0002 58.0185C22.89 58.1233 22.7755 58.177 22.6566 58.1797C22.5322 58.1766 22.4176 58.1199 22.3129 58.0098L18.8228 54.3406C18.7235 54.2362 18.6754 54.1219 18.6786 53.9975C18.6817 53.873 18.7383 53.7585 18.8484 53.6537C18.9528 53.5545 19.0642 53.5091 19.1829 53.5178C19.3073 53.5209 19.4163 53.5717 19.5101 53.6703L19.9319 54.1137C19.8229 53.7205 19.8296 53.3387 19.952 52.9683C20.069 52.5921 20.2868 52.2524 20.6056 51.9491ZM31.2542 49.1075C31.4736 48.9319 31.6632 48.9282 31.8231 49.0963C31.9169 49.1948 31.9509 49.306 31.9251 49.4299C31.8997 49.5424 31.809 49.6618 31.653 49.788L31.4017 49.994C30.9049 50.4003 30.4306 50.5864 29.9788 50.5525C29.5269 50.5186 29.0667 50.2552 28.598 49.7625L26.5222 47.5801L25.9396 48.1342C25.8411 48.228 25.7408 48.2792 25.6387 48.288C25.5369 48.2854 25.4474 48.2436 25.3702 48.1624C25.2875 48.0755 25.2474 47.9811 25.25 47.8793C25.2583 47.772 25.3118 47.6715 25.4103 47.5778L25.9928 47.0237L25.0583 46.0411C24.9535 45.931 24.9055 45.8166 24.9141 45.698C24.9172 45.5736 24.9738 45.459 25.084 45.3543C25.1883 45.255 25.3027 45.207 25.4271 45.2101C25.546 45.2074 25.6578 45.2611 25.7626 45.3712L26.6971 46.3538L27.6623 45.4357C27.755 45.3475 27.8523 45.3047 27.9541 45.3072C28.0617 45.3043 28.1568 45.3463 28.2395 45.4332C28.3167 45.5144 28.3511 45.6086 28.3428 45.7159C28.3347 45.8119 28.2843 45.904 28.1916 45.9922L27.2264 46.9102L29.3354 49.1274C29.6386 49.4462 29.9229 49.6174 30.1883 49.6411C30.454 49.6534 30.7255 49.5442 31.0029 49.3134L31.2542 49.1075ZM34.5549 47.061C34.155 47.4414 33.7159 47.6879 33.2378 47.8004C32.7654 47.9074 32.2881 47.8757 31.8057 47.7052C31.3236 47.5233 30.873 47.2122 30.454 46.7716C30.035 46.3311 29.7495 45.8684 29.5975 45.3836C29.4458 44.8875 29.4352 44.4063 29.5657 43.9399C29.702 43.468 29.9701 43.0418 30.3701 42.6614C30.7701 42.2809 31.2091 42.0344 31.6872 41.9219C32.1654 41.8094 32.6455 41.844 33.1276 42.0258C33.61 42.1964 34.0607 42.5019 34.4797 42.9424C34.8987 43.383 35.1841 43.8513 35.3358 44.3474C35.4878 44.8322 35.4956 45.3105 35.3593 45.7824C35.223 46.2543 34.9549 46.6805 34.5549 47.061ZM34.0008 46.4784C34.4182 46.0814 34.6074 45.642 34.5685 45.16C34.5299 44.6667 34.2598 44.1564 33.758 43.6289C33.2673 43.113 32.7766 42.8234 32.2859 42.7602C31.7897 42.6912 31.3358 42.8524 30.9242 43.2439C30.5127 43.6354 30.3289 44.0806 30.373 44.5797C30.4116 45.073 30.6763 45.5776 31.167 46.0934C31.6632 46.6151 32.1538 46.9103 32.6387 46.9791C33.1294 47.0423 33.5834 46.8754 34.0008 46.4784ZM42.0784 28.4442C42.0299 28.3467 42.0181 28.2531 42.043 28.1632C42.0624 28.0675 42.1068 27.9865 42.1764 27.9204C42.2691 27.8321 42.375 27.7867 42.4939 27.784C42.613 27.77 42.7167 27.8094 42.805 27.9021C42.8436 27.9427 42.879 27.9974 42.9112 28.0661L46.2144 35.4738C46.2626 35.5825 46.274 35.6931 46.2485 35.8057C46.2176 35.9124 46.1586 36.0071 46.0717 36.0898C45.9905 36.167 45.8959 36.2184 45.7877 36.244C45.674 36.2638 45.5641 36.2469 45.458 36.1933L39.172 32.9974L42.0322 39.4519C42.0804 39.5606 42.0918 39.6712 42.0663 39.7837C42.0354 39.8905 41.9793 39.9824 41.8981 40.0596C41.817 40.1368 41.7223 40.1882 41.6142 40.2138C41.5005 40.2336 41.3906 40.2167 41.2844 40.1631L34.0424 36.5019C33.9809 36.472 33.9309 36.4368 33.8923 36.3963C33.8041 36.3035 33.7672 36.1951 33.7816 36.0709C33.8018 35.9413 33.8583 35.8324 33.9511 35.7442C34.0206 35.678 34.1037 35.6376 34.2002 35.6231C34.2971 35.5972 34.3929 35.6109 34.4878 35.6642L40.8983 38.9736L37.9893 32.433C37.9356 32.3185 37.9213 32.2107 37.9464 32.1094C37.9661 32.0024 38.0136 31.9131 38.089 31.8414C38.1643 31.7697 38.2559 31.7267 38.3638 31.7124C38.4717 31.6982 38.5815 31.7207 38.6931 31.7801L45.0623 35.046L42.0784 28.4442ZM46.494 27.3245C47.5548 26.3156 48.6145 26.3675 49.6731 27.4805L51.9226 29.8455C52.0219 29.9498 52.07 30.0642 52.0668 30.1886C52.0695 30.3075 52.0187 30.4166 51.9144 30.5158C51.81 30.6151 51.6956 30.6631 51.5712 30.66C51.4468 30.6569 51.335 30.6032 51.2358 30.4988L50.8388 30.0815C50.9657 30.4355 50.9823 30.7896 50.8886 31.1437C50.7893 31.4921 50.5919 31.8068 50.2963 32.088C50.0238 32.3472 49.7193 32.532 49.3827 32.6424C49.0519 32.7473 48.7261 32.7646 48.4053 32.6943C48.0845 32.624 47.8111 32.4701 47.585 32.2324C47.2818 31.9136 47.1286 31.59 47.1255 31.2618C47.1169 30.9277 47.2622 30.5465 47.5615 30.1183C47.8553 29.6843 48.3326 29.153 48.9934 28.5245L49.1847 28.3425L48.9118 28.0556C48.581 27.7078 48.2659 27.5217 47.9666 27.4972C47.6731 27.4672 47.3669 27.6039 47.0481 27.9071C46.654 28.282 46.356 28.7697 46.1543 29.3701C46.0915 29.6175 46.0282 29.7716 45.9644 29.8322C45.8949 29.8984 45.8121 29.9274 45.7161 29.9194C45.6201 29.9113 45.5335 29.8667 45.4563 29.7855C45.3791 29.7044 45.3362 29.6128 45.3274 29.5107C45.3189 29.3973 45.3394 29.2564 45.3889 29.0879C45.4815 28.7789 45.625 28.4713 45.8194 28.1649C46.0141 27.8473 46.239 27.5671 46.494 27.3245ZM49.8626 31.4406C50.2104 31.1098 50.3842 30.7237 50.3839 30.2823C50.3839 29.8296 50.2075 29.4178 49.8546 29.0468L49.6148 28.7946L49.4582 28.9435C48.9481 29.4287 48.5818 29.8213 48.3593 30.1213C48.1313 30.4155 48.0089 30.6699 47.9922 30.8845C47.9758 31.0878 48.0613 31.288 48.2488 31.4851C48.4638 31.7112 48.7242 31.8224 49.0298 31.8187C49.3358 31.8037 49.6134 31.6777 49.8626 31.4406ZM53.8992 28.6279C53.7948 28.7271 53.6803 28.7809 53.5556 28.7891C53.4312 28.786 53.3166 28.7293 53.2119 28.6192L49.7218 24.95C49.617 24.8398 49.5689 24.7255 49.5776 24.6068C49.5865 24.4769 49.6431 24.3623 49.7474 24.2631C49.8518 24.1638 49.9661 24.1158 50.0905 24.1189C50.2094 24.1162 50.3213 24.1699 50.426 24.2801L53.9161 27.9493C54.0264 28.0652 54.0772 28.1825 54.0686 28.3011C54.06 28.4197 54.0035 28.5287 53.8992 28.6279ZM48.879 23.3501C48.7399 23.4825 48.5883 23.5494 48.4241 23.5509C48.26 23.5525 48.1145 23.4866 47.9877 23.3533C47.8664 23.2258 47.8106 23.0801 47.8204 22.9162C47.8302 22.7524 47.9046 22.6043 48.0437 22.4719C48.1828 22.3396 48.3345 22.2727 48.4986 22.2711C48.6627 22.2696 48.8055 22.3326 48.9268 22.4601C49.0536 22.5934 49.1121 22.742 49.1023 22.9059C49.0926 23.0697 49.0181 23.2178 48.879 23.3501ZM57.0585 24.5628C57.2779 24.3873 57.4676 24.3835 57.6275 24.5516C57.7212 24.6502 57.7552 24.7613 57.7295 24.8852C57.704 24.9977 57.6133 25.1171 57.4574 25.2434L57.2061 25.4493C56.7093 25.8556 56.235 26.0418 55.7831 26.0078C55.3313 25.9739 54.871 25.7106 54.4024 25.2179L52.3265 23.0355L51.744 23.5896C51.6454 23.6833 51.5451 23.7346 51.443 23.7433C51.3412 23.7408 51.2517 23.6989 51.1746 23.6178C51.0919 23.5308 51.0518 23.4364 51.0543 23.3347C51.0627 23.2274 51.1161 23.1268 51.2146 23.0331L51.7972 22.479L50.8626 21.4965C50.7579 21.3863 50.7098 21.272 50.7184 21.1533C50.7216 21.0289 50.7782 20.9143 50.8883 20.8096C50.9927 20.7103 51.107 20.6623 51.2314 20.6654C51.3503 20.6627 51.4622 20.7164 51.5669 20.8266L52.5015 21.8091L53.4666 20.8911C53.5594 20.8028 53.6566 20.76 53.7584 20.7626C53.866 20.7596 53.9612 20.8016 54.0439 20.8885C54.121 20.9697 54.1555 21.0639 54.1471 21.1712C54.1391 21.2672 54.0887 21.3593 53.9959 21.4475L53.0308 22.3656L55.1397 24.5827C55.443 24.9016 55.7273 25.0728 55.9927 25.0964C56.2583 25.1087 56.5298 24.9995 56.8072 24.7688L57.0585 24.5628ZM58.9429 23.8304C58.8385 23.9297 58.724 23.9834 58.5993 23.9916C58.4749 23.9885 58.3603 23.9318 58.2556 23.8217L53.0038 18.3005C52.8991 18.1903 52.851 18.076 52.8597 17.9574C52.8686 17.8274 52.9252 17.7128 53.0295 17.6136C53.1281 17.5199 53.2395 17.4746 53.364 17.4777C53.4886 17.4695 53.6034 17.5204 53.7081 17.6306L58.9598 23.1518C59.0646 23.2619 59.1125 23.382 59.1036 23.5119C59.095 23.6305 59.0414 23.7367 58.9429 23.8304ZM60.9637 21.9082C60.8594 22.0074 60.7449 22.0612 60.6202 22.0694C60.4958 22.0663 60.3812 22.0096 60.2764 21.8995L56.7863 18.2303C56.6816 18.1201 56.6335 18.0058 56.6421 17.8871C56.651 17.7572 56.7077 17.6426 56.812 17.5434C56.9163 17.4441 57.0307 17.3961 57.1551 17.3992C57.274 17.3965 57.3858 17.4502 57.4906 17.5604L60.9807 21.2296C61.091 21.3455 61.1418 21.4628 61.1332 21.5814C61.1246 21.7 61.0681 21.809 60.9637 21.9082ZM55.9436 16.6304C55.8045 16.7628 55.6529 16.8297 55.4887 16.8312C55.3246 16.8328 55.1791 16.7669 55.0523 16.6336C54.931 16.5061 54.8752 16.3604 54.885 16.1965C54.8947 16.0327 54.9692 15.8846 55.1083 15.7522C55.2474 15.6199 55.399 15.553 55.5632 15.5514C55.7273 15.5499 55.87 15.6129 55.9913 15.7404C56.1181 15.8737 56.1767 16.0223 56.1669 16.1862C56.1572 16.35 56.0827 16.4981 55.9436 16.6304ZM64.0706 18.9861C63.804 19.2397 63.5186 19.4505 63.2145 19.6183C62.9162 19.7806 62.6191 19.892 62.3234 19.9525C62.1529 19.9821 62.0169 19.9901 61.9154 19.9762C61.8141 19.951 61.7222 19.895 61.6395 19.808C61.5678 19.7327 61.5302 19.6525 61.5267 19.5675C61.5234 19.4713 61.5566 19.39 61.6261 19.3239C61.6957 19.2577 61.8385 19.2047 62.0545 19.1648C62.3276 19.1038 62.5786 19.0252 62.8073 18.929C63.0364 18.8216 63.2784 18.6466 63.5335 18.404C63.8465 18.1062 64.0376 17.8196 64.1067 17.5441C64.1758 17.2685 64.1112 17.0264 63.9127 16.8177C63.7914 16.6902 63.663 16.6191 63.5276 16.6044C63.3866 16.5839 63.2103 16.6191 62.9987 16.71C62.7815 16.7951 62.4919 16.9491 62.1298 17.1721C61.515 17.5471 61.0092 17.7467 60.6125 17.7707C60.2158 17.7947 59.8658 17.6473 59.5626 17.3285C59.3255 17.0793 59.1855 16.7928 59.1427 16.4692C59.0998 16.1456 59.1478 15.8129 59.2865 15.4712C59.431 15.124 59.6597 14.8015 59.9727 14.5038C60.1988 14.2888 60.4465 14.1139 60.7158 13.9792C60.9854 13.8331 61.2538 13.738 61.5208 13.6937C61.8502 13.6454 62.0866 13.6966 62.23 13.8473C62.3017 13.9227 62.3391 14.0085 62.3424 14.1047C62.3456 14.201 62.3154 14.2795 62.2516 14.3401C62.182 14.4063 62.0308 14.4563 61.798 14.4901C61.5364 14.5401 61.3056 14.6051 61.1056 14.6849C60.9055 14.7648 60.6983 14.9067 60.4838 15.1108C60.2114 15.3699 60.049 15.6403 59.9967 15.9219C59.9502 16.198 60.0234 16.4375 60.2164 16.6404C60.3377 16.7679 60.4659 16.8447 60.601 16.8707C60.7365 16.8854 60.9041 16.8585 61.1039 16.7899C61.3039 16.71 61.5648 16.5723 61.8866 16.3766C62.3635 16.0886 62.7588 15.8948 63.0725 15.7951C63.392 15.69 63.6698 15.6686 63.9059 15.7311C64.142 15.7936 64.3703 15.9408 64.5909 16.1726C64.9382 16.5378 65.0658 16.9796 64.9736 17.4978C64.8759 18.0103 64.5749 18.5064 64.0706 18.9861ZM68.1903 13.9745C68.4097 13.7989 68.5994 13.7951 68.7593 13.9632C68.853 14.0618 68.887 14.173 68.8613 14.2968C68.8358 14.4094 68.7451 14.5287 68.5892 14.655L68.3379 14.8609C67.8411 15.2672 67.3668 15.4534 66.9149 15.4195C66.4631 15.3855 66.0028 15.1222 65.5342 14.6295L63.4583 12.4471L62.8757 13.0012C62.7772 13.0949 62.6769 13.1462 62.5748 13.1549C62.473 13.1524 62.3835 13.1105 62.3063 13.0294C62.2236 12.9424 62.1836 12.8481 62.1861 12.7463C62.1945 12.639 62.2479 12.5385 62.3464 12.4447L62.929 11.8906L61.9944 10.9081C61.8897 10.798 61.8416 10.6836 61.8502 10.565C61.8534 10.4406 61.91 10.326 62.0201 10.2212C62.1244 10.122 62.2388 10.0739 62.3632 10.077C62.4821 10.0743 62.594 10.1281 62.6987 10.2382L63.6333 11.2207L64.5984 10.3027C64.6911 10.2145 64.7884 10.1716 64.8902 10.1742C64.9978 10.1712 65.0929 10.2132 65.1756 10.3002C65.2528 10.3813 65.2873 10.4755 65.2789 10.5828C65.2709 10.6788 65.2205 10.7709 65.1277 10.8592L64.1626 11.7772L66.2715 13.9944C66.5748 14.3132 66.8591 14.4844 67.1245 14.508C67.3901 14.5203 67.6616 14.4111 67.939 14.1804L68.1903 13.9745Z" fill="white"/>
</g>
<defs>
<clipPath id="clip0_338_697">
<rect width="161.995" height="23" fill="white" transform="translate(-25 80.4304) rotate(-42.0163)"/>
</clipPath>
</defs>
</svg>
