<svg id="Layer_1" data-name="Layer 1" xmlns="http://www.w3.org/2000/svg" viewBox="0 0 500 208.84"><defs><style>.cls-1{fill:#19100a;}.cls-2{fill:#fc0001;}</style></defs><path class="cls-1" d="M549.66,466.66c-11,0-19.13,5.39-19.13,18.34,0,9.76,5.38,16.54,18.54,16.54,11.15,0,18.72-6.57,18.72-16.94,0-11.76-6.77-17.94-18.13-17.94Zm-21.92,91.48c-2.6,3.18-5.18,6.57-5.18,10.56,0,8,10.16,10.36,24.11,10.36,11.56,0,27.3-.81,27.3-11.56,0-6.38-7.57-6.78-17.14-7.38l-29.09-2Zm59-90.88c3.58,4.59,7.38,11,7.38,20.13,0,22.12-17.34,35.07-42.44,35.07a63.12,63.12,0,0,1-15.75-1.79l-6.58,10.56,19.53,1.19c34.48,2.2,54.8,3.2,54.8,29.69,0,22.93-20.13,35.87-54.8,35.87-36.07,0-49.82-9.17-49.82-24.91,0-9,4-13.74,11-20.32-6.58-2.78-8.76-7.76-8.76-13.15,0-4.38,2.18-8.37,5.78-12.16s7.57-7.57,12.35-12c-9.76-4.79-17.14-15.15-17.14-29.9,0-22.91,15.15-38.65,45.63-38.65,8.57,0,13.76.79,18.34,2h38.86v16.94l-18.34,1.39Z" transform="translate(-250 -395.58)"/><path class="cls-1" d="M640.12,431.05c-11.36,0-17.94-6.58-17.94-17.94s6.58-17.53,17.94-17.53c11.56,0,18.13,6.18,18.13,17.53s-6.57,17.94-18.13,17.94ZM614.41,550.81V535.07l10.16-1.39c2.79-.4,3.19-1,3.19-4V471.1c0-2.18-.6-3.59-2.59-4.18l-10.76-3.79L616.6,447h41.25v82.69c0,3.19.19,3.59,3.19,4l10.16,1.39v15.74Z" transform="translate(-250 -395.58)"/><path class="cls-1" d="M750,543.09c-8.57,4.17-21.12,8-32.48,8-23.71,0-32.68-9.56-32.68-32.09v-52.2c0-1.19,0-2-1.6-2h-14V447c17.55-2,24.52-10.77,26.71-32.49h18.93v28.31c0,1.39,0,2,1.6,2h28.09v19.93H714.93v47.62c0,11.76,2.79,16.34,13.55,16.34a47.26,47.26,0,0,0,16.14-3.19L750,543.06v0Z" transform="translate(-250 -395.58)"/><path class="cls-2" d="M454.75,490.79l-91.12-91.11a13.43,13.43,0,0,0-19,0L325.71,418.6l24,24A16,16,0,0,1,369.92,463l23.13,23.13a16,16,0,1,1-9.58,9L361.9,473.52v56.77a16.17,16.17,0,0,1,4.23,3,16,16,0,1,1-22.62,0,16.19,16.19,0,0,1,5.24-3.49V472.53a16,16,0,0,1-8.68-21L316.41,427.9l-62.47,62.47a13.44,13.44,0,0,0,0,19l91.11,91.11a13.38,13.38,0,0,0,9.45,3.93h.11a13.4,13.4,0,0,0,9.45-3.93l90.69-90.69a13.46,13.46,0,0,0,0-19Z" transform="translate(-250 -395.58)"/></svg>