<svg width="108" height="108" viewBox="0 0 108 108" fill="none" xmlns="http://www.w3.org/2000/svg">
<path d="M98.1247 45.1868H94.5V45H54V63H79.4318C75.7215 73.4782 65.7518 81 54 81C39.0893 81 27 68.9108 27 54C27 39.0893 39.0893 27 54 27C60.8828 27 67.1445 29.5965 71.9123 33.8377L84.6405 21.1095C76.6035 13.6192 65.853 9 54 9C29.1488 9 9 29.1488 9 54C9 78.8512 29.1488 99 54 99C78.8512 99 99 78.8512 99 54C99 50.9827 98.6895 48.0375 98.1247 45.1868Z" fill="#FFC107"/>
<path d="M14.1885 33.0548L28.9732 43.8975C32.9737 33.993 42.6622 27 54 27C60.8827 27 67.1445 29.5965 71.9122 33.8377L84.6405 21.1095C76.6035 13.6192 65.853 9 54 9C36.7155 9 21.726 18.7582 14.1885 33.0548Z" fill="#FF3D00"/>
<path d="M53.9997 99C65.6232 99 76.1847 94.5518 84.17 87.318L70.2425 75.5325C65.5727 79.0839 59.8665 81.0047 53.9997 81C42.2952 81 32.357 73.5368 28.613 63.1215L13.9385 74.4278C21.386 89.001 36.5105 99 53.9997 99Z" fill="#4CAF50"/>
<path d="M98.1247 45.1868H94.5V45H54V63H79.4318C77.657 67.9869 74.4601 72.3446 70.236 75.5347L70.2428 75.5303L84.1702 87.3158C83.1848 88.2112 99 76.5 99 54C99 50.9827 98.6895 48.0375 98.1247 45.1868Z" fill="#1976D2"/>
</svg>
