<svg width="75" height="75" viewBox="0 0 75 75" fill="none" xmlns="http://www.w3.org/2000/svg">
<path fill-rule="evenodd" clip-rule="evenodd" d="M15.775 47.2627C15.7758 48.2949 15.5731 49.3172 15.1784 50.2709C14.7836 51.2246 14.2047 52.0912 13.4747 52.8209C12.7447 53.5506 11.8779 54.1292 10.924 54.5235C9.97012 54.9179 8.94782 55.1202 7.91563 55.119C6.88396 55.1194 5.86233 54.9165 4.90916 54.5218C3.95598 54.127 3.08996 53.5483 2.36061 52.8187C1.63126 52.089 1.05288 51.2228 0.658552 50.2695C0.264225 49.3161 0.061681 48.2944 0.0625025 47.2627C0.0616806 46.2308 0.264327 45.2089 0.65885 44.2553C1.05337 43.3018 1.63203 42.4354 2.36171 41.7057C3.0914 40.976 3.95779 40.3974 4.91132 40.0028C5.86486 39.6083 6.88682 39.4057 7.91875 39.4065H15.7781V47.2627H15.775ZM19.7031 47.2627C19.7023 46.2308 19.905 45.2089 20.2995 44.2553C20.694 43.3018 21.2727 42.4354 22.0023 41.7057C22.732 40.976 23.5984 40.3974 24.5519 40.0028C25.5055 39.6083 26.5274 39.4057 27.5594 39.4065C28.5913 39.4057 29.6133 39.6083 30.5668 40.0028C31.5203 40.3974 32.3867 40.976 33.1164 41.7057C33.8461 42.4354 34.4248 43.3018 34.8193 44.2553C35.2138 45.2089 35.4165 46.2308 35.4156 47.2627V66.9065C35.4165 67.9384 35.2138 68.9604 34.8193 69.9139C34.4248 70.8675 33.8461 71.7339 33.1164 72.4635C32.3867 73.1932 31.5203 73.7719 30.5668 74.1664C29.6133 74.5609 28.5913 74.7636 27.5594 74.7627C26.5274 74.7636 25.5055 74.5609 24.5519 74.1664C23.5984 73.7719 22.732 73.1932 22.0023 72.4635C21.2727 71.7339 20.694 70.8675 20.2995 69.9139C19.905 68.9604 19.7023 67.9384 19.7031 66.9065V47.2627Z" fill="#E01E5A"/>
<path fill-rule="evenodd" clip-rule="evenodd" d="M27.5594 15.7156C26.5272 15.7164 25.505 15.5137 24.5512 15.119C23.5975 14.7243 22.731 14.1453 22.0012 13.4153C21.2715 12.6853 20.6929 11.8185 20.2986 10.8646C19.9042 9.91074 19.7019 8.88844 19.7031 7.85625C19.7023 6.82432 19.905 5.80236 20.2995 4.84882C20.694 3.89529 21.2727 3.0289 22.0023 2.29921C22.732 1.56953 23.5984 0.990872 24.5519 0.59635C25.5055 0.201827 26.5275 -0.000819436 27.5594 2.49027e-06C28.5913 -0.000819436 29.6133 0.201827 30.5668 0.59635C31.5203 0.990872 32.3867 1.56953 33.1164 2.29921C33.8461 3.0289 34.4248 3.89529 34.8193 4.84882C35.2138 5.80236 35.4165 6.82432 35.4156 7.85625V15.7188H27.5625L27.5594 15.7156ZM27.5594 19.7031C28.5913 19.7023 29.6133 19.905 30.5668 20.2995C31.5203 20.694 32.3867 21.2727 33.1164 22.0023C33.8461 22.732 34.4248 23.5984 34.8193 24.5519C35.2138 25.5055 35.4165 26.5275 35.4156 27.5594C35.4165 28.5913 35.2138 29.6133 34.8193 30.5668C34.4248 31.5203 33.8461 32.3867 33.1164 33.1164C32.3867 33.8461 31.5203 34.4248 30.5668 34.8193C29.6133 35.2138 28.5913 35.4165 27.5594 35.4156H7.85625C6.82459 35.4165 5.80288 35.2139 4.84955 34.8196C3.89621 34.4253 3.02996 33.8469 2.30032 33.1175C1.57068 32.3882 0.991954 31.5221 0.597248 30.569C0.202542 29.6158 -0.000408532 28.5942 2.49027e-06 27.5625C-0.000819436 26.5306 0.201827 25.5086 0.59635 24.5551C0.990872 23.6015 1.56953 22.7351 2.29921 22.0055C3.0289 21.2758 3.89529 20.6971 4.84882 20.3026C5.80236 19.9081 6.82432 19.7054 7.85625 19.7063H27.5625L27.5594 19.7031Z" fill="#36C5F0"/>
<path fill-rule="evenodd" clip-rule="evenodd" d="M59.0471 27.5594C59.0463 26.5272 59.249 25.505 59.6437 24.5512C60.0384 23.5975 60.6174 22.731 61.3474 22.0012C62.0774 21.2715 62.9442 20.6929 63.8981 20.2986C64.852 19.9042 65.8743 19.7019 66.9064 19.7031C67.9384 19.7023 68.9603 19.905 69.9139 20.2995C70.8674 20.694 71.7338 21.2727 72.4635 22.0023C73.1932 22.732 73.7718 23.5984 74.1664 24.552C74.5609 25.5055 74.7635 26.5275 74.7627 27.5594C74.7635 28.5913 74.5609 29.6133 74.1664 30.5668C73.7718 31.5203 73.1932 32.3867 72.4635 33.1164C71.7338 33.8461 70.8674 34.4248 69.9139 34.8193C68.9603 35.2138 67.9384 35.4165 66.9064 35.4156H59.0471V27.5625V27.5594ZM55.1189 27.5594C55.1198 28.5913 54.9171 29.6133 54.5226 30.5668C54.1281 31.5203 53.5494 32.3867 52.8197 33.1164C52.0901 33.8461 51.2237 34.4248 50.2701 34.8193C49.3166 35.2138 48.2946 35.4165 47.2627 35.4156C46.2305 35.4169 45.2082 35.2145 44.2543 34.8202C43.3004 34.4258 42.4337 33.8473 41.7036 33.1175C40.9736 32.3878 40.3947 31.5213 40 30.5675C39.6053 29.6138 39.4025 28.5916 39.4033 27.5594V7.85626C39.4025 6.82406 39.6053 5.80184 40 4.8481C40.3947 3.89436 40.9736 3.02783 41.7036 2.29811C42.4337 1.56838 43.3004 0.989793 44.2543 0.595454C45.2082 0.201116 46.2305 -0.00122744 47.2627 5.60162e-06C48.2946 -0.000816325 49.3166 0.201831 50.2701 0.596353C51.2237 0.990875 52.0901 1.56953 52.8197 2.29921C53.5494 3.0289 54.1281 3.89529 54.5226 4.84883C54.9171 5.80236 55.1198 6.82433 55.1189 7.85626V27.5625V27.5594Z" fill="#2EB67D"/>
<path fill-rule="evenodd" clip-rule="evenodd" d="M47.2625 59.0471C48.2944 59.0463 49.3164 59.2489 50.2699 59.6435C51.2235 60.038 52.0899 60.6166 52.8195 61.3463C53.5492 62.076 54.1279 62.9424 54.5224 63.8959C54.9169 64.8495 55.1196 65.8714 55.1188 66.9034C55.12 67.9356 54.9176 68.9579 54.5233 69.9118C54.129 70.8657 53.5504 71.7324 52.8207 72.4624C52.0909 73.1925 51.2244 73.7714 50.2707 74.1661C49.3169 74.5608 48.2947 74.7636 47.2625 74.7627C46.2303 74.7636 45.2081 74.5608 44.2544 74.1661C43.3006 73.7714 42.4341 73.1925 41.7044 72.4624C40.9746 71.7324 40.396 70.8657 40.0017 69.9118C39.6074 68.9579 39.405 67.9356 39.4063 66.9034V59.0471H47.2625ZM47.2625 55.119C46.2306 55.1198 45.2086 54.9172 44.2551 54.5226C43.3015 54.1281 42.4351 53.5495 41.7055 52.8198C40.9758 52.0901 40.3971 51.2237 40.0026 50.2702C39.6081 49.3166 39.4054 48.2947 39.4063 47.2627C39.4054 46.2308 39.6081 45.2089 40.0026 44.2553C40.3971 43.3018 40.9758 42.4354 41.7055 41.7057C42.4351 40.976 43.3015 40.3974 44.2551 40.0028C45.2086 39.6083 46.2306 39.4057 47.2625 39.4065H66.9656C67.9976 39.4057 69.0195 39.6083 69.9731 40.0028C70.9266 40.3974 71.793 40.976 72.5227 41.7057C73.2524 42.4354 73.831 43.3018 74.2255 44.2553C74.6201 45.2089 74.8227 46.2308 74.8219 47.2627C74.8227 48.2947 74.6201 49.3166 74.2255 50.2702C73.831 51.2237 73.2524 52.0901 72.5227 52.8198C71.793 53.5495 70.9266 54.1281 69.9731 54.5226C69.0195 54.9172 67.9976 55.1198 66.9656 55.119H47.2625Z" fill="#ECB22E"/>
</svg>
