<svg width="43" height="43" viewBox="0 0 43 43" fill="none" xmlns="http://www.w3.org/2000/svg">
<path d="M8.60059 31.1746V24.0044L17.2178 28.9515C18.5211 29.7 19.9977 30.0938 21.5006 30.0938C23.0035 30.0938 24.4801 29.7 25.7834 28.9515L34.4006 24.0065V31.1746C34.4008 31.3159 34.3732 31.4558 34.3194 31.5864C34.2655 31.717 34.1864 31.8357 34.0867 31.9357L34.0824 31.9379L34.0781 31.9443L34.063 31.9572L34.0136 32.0045L33.8416 32.1636C33.6911 32.2948 33.4761 32.4797 33.1944 32.6968C32.4222 33.2898 31.6016 33.8169 30.7413 34.2728C27.8959 35.7822 24.7215 36.565 21.5006 36.5518C18.2796 36.565 15.1053 35.7822 12.2599 34.2728C11.4003 33.8169 10.5804 33.2897 9.80889 32.6968C9.52518 32.4781 9.25115 32.2471 8.98759 32.0045L8.93814 31.9572C8.83277 31.8557 8.74867 31.7342 8.69071 31.5999C8.63276 31.4655 8.60212 31.321 8.60059 31.1746Z" fill="white"/>
<path d="M40.3107 18.1327L24.7125 27.0875C23.735 27.6488 22.6276 27.9442 21.5004 27.9442C20.3732 27.9442 19.2657 27.6488 18.2883 27.0875L4.30039 19.0572V29.0246C4.30039 29.3098 4.18713 29.5832 3.98553 29.7848C3.78393 29.9864 3.5105 30.0996 3.22539 30.0996C2.94028 30.0996 2.66685 29.9864 2.46525 29.7848C2.26365 29.5832 2.15039 29.3098 2.15039 29.0246V17.1996C2.15028 17.0058 2.20258 16.8156 2.30174 16.6491C2.4009 16.4825 2.54324 16.3459 2.71369 16.2536L18.2883 7.3118C19.2655 6.74985 20.3731 6.4541 21.5004 6.4541C22.6277 6.4541 23.7353 6.74985 24.7125 7.3118L40.3107 16.2687C40.4747 16.3629 40.6108 16.4987 40.7055 16.6623C40.8002 16.826 40.8501 17.0117 40.8501 17.2007C40.8501 17.3898 40.8002 17.5755 40.7055 17.7391C40.6108 17.9028 40.4747 18.0385 40.3107 18.1327Z" fill="white"/>
</svg>
