<svg width="63" height="63" viewBox="0 0 63 63" fill="none" xmlns="http://www.w3.org/2000/svg">
<g clip-path="url(#clip0_338_2933)">
<path d="M0.580078 0.905518H62.5416V62.8671H0.580078V0.905518Z" fill="#F7DF1E"/>
<path d="M16.8718 52.685L21.6133 49.8154C22.5282 51.4373 23.3604 52.8096 25.3564 52.8096C27.2697 52.8096 28.4763 52.0612 28.4763 49.15V29.3518H34.299V49.2323C34.299 55.2631 30.7638 58.0083 25.606 58.0083C20.948 58.0083 18.2442 55.5959 16.8716 52.6845L16.8718 52.685ZM37.4617 52.061L42.2027 49.316C43.4509 51.3542 45.073 52.8515 47.9426 52.8515C50.3555 52.8515 51.8939 51.6452 51.8939 49.9814C51.8939 47.9851 50.3134 47.2778 47.6515 46.1136L46.1961 45.4892C41.9951 43.7013 39.2085 41.4552 39.2085 36.7136C39.2085 32.3463 42.5358 29.0188 47.735 29.0188C51.4367 29.0188 54.0986 30.3084 56.0117 33.6773L51.4778 36.589C50.4794 34.8006 49.3985 34.0936 47.7347 34.0936C46.0293 34.0936 44.9479 35.175 44.9479 36.589C44.9479 38.3358 46.0293 39.0433 48.5247 40.1247L49.9803 40.7484C54.93 42.8699 57.7166 45.0325 57.7166 49.8984C57.7166 55.1395 53.599 58.0091 48.0673 58.0091C42.6604 58.0091 39.1666 55.4304 37.4615 52.0612" fill="black"/>
</g>
<defs>
<clipPath id="clip0_338_2933">
<rect width="61.9615" height="61.9615" fill="white" transform="translate(0.580566 0.905518)"/>
</clipPath>
</defs>
</svg>
