<svg width="26" height="27" viewBox="0 0 26 27" fill="none" xmlns="http://www.w3.org/2000/svg">
<path d="M22.0059 22.5074H18.2651V16.649C18.2651 15.252 18.2402 13.4537 16.3195 13.4537C14.3711 13.4537 14.073 14.9758 14.073 16.5473V22.507H10.3323V10.4598H13.9234V12.1062H13.9737C14.3331 11.4917 14.8524 10.9862 15.4764 10.6435C16.1003 10.3007 16.8056 10.1337 17.517 10.1601C21.3085 10.1601 22.0075 12.654 22.0075 15.8985L22.0059 22.5074ZM6.11125 8.81311C4.9123 8.81331 3.94018 7.84149 3.93999 6.64255C3.93979 5.4436 4.91151 4.47149 6.11046 4.47129C7.3094 4.47099 8.28152 5.44281 8.28171 6.64176C8.28182 7.21752 8.05321 7.76974 7.64617 8.17694C7.23913 8.58415 6.687 8.81298 6.11125 8.81311ZM7.98171 22.5075H4.23694V10.4598H7.98161V22.5074L7.98171 22.5075ZM23.8709 0.997138H2.35721C1.34041 0.985698 0.506567 1.80022 0.494141 2.81701V24.4204C0.506172 25.4377 1.33992 26.253 2.35711 26.2424H23.8709C24.8902 26.255 25.7272 25.4397 25.7413 24.4204V2.81533C25.7268 1.79657 24.8897 0.982147 23.8709 0.995461" fill="#A9A8A8"/>
</svg>
