<svg width="520" height="283" viewBox="0 0 520 283" fill="none" xmlns="http://www.w3.org/2000/svg">
<path d="M11.4172 60.3073L123.42 30.988C123.85 30.8727 124.307 30.9269 124.698 31.1393C125.089 31.3518 125.384 31.7064 125.521 32.1297L147.693 106.478C147.758 106.704 147.777 106.941 147.749 107.174C147.721 107.407 147.646 107.632 147.529 107.836C147.411 108.039 147.254 108.217 147.067 108.359C146.879 108.5 146.665 108.602 146.437 108.659L30.0729 137.122C29.8509 137.178 29.62 137.19 29.3936 137.155C29.1673 137.121 28.9499 137.042 28.7544 136.923C28.5588 136.804 28.3889 136.647 28.2546 136.462C28.1203 136.277 28.0243 136.066 27.9721 135.843L10.1956 62.3738C10.0936 61.9383 10.1638 61.4803 10.3914 61.0953C10.619 60.7103 10.9865 60.428 11.4172 60.3073Z" fill="#EBEBEB"/>
<path d="M9.7959 60.7411L53.1812 2.61623C54.0772 1.41084 55.3638 0.553834 56.8214 0.191522C58.279 -0.17079 59.8171 -0.0159397 61.1733 0.62964L125.11 30.5541" fill="#EBEBEB"/>
<path d="M16.7033 63.5498L10.1384 38.4548L112.185 12.5264L118.967 38.3064L78.6872 91.0195L16.7033 63.5498Z" fill="#FAFAFA"/>
<path d="M16.7033 63.5156L17.845 64.0065L21.1446 65.4565L33.7035 70.9939L78.7785 90.9169H78.6644L118.933 38.1923V38.2836C117.974 34.6301 116.946 30.7369 115.919 26.8664C114.64 22.0255 113.384 17.2303 112.151 12.5607L112.277 12.6406L10.1498 38.512V38.4435C12.2049 46.367 13.8376 52.6464 14.9565 56.9393C15.5159 59.0857 15.9383 60.7298 16.2238 61.8487C16.3722 62.4081 16.4749 62.8306 16.5549 63.116L16.6576 63.5499C16.6576 63.5499 16.6576 63.4129 16.5434 63.1274L16.2009 61.8715C15.9041 60.7298 15.4702 59.1086 14.8994 56.9736C13.7576 52.6807 12.125 46.4012 10.0356 38.4663L112.082 12.4922H112.174V12.5949C113.395 17.2646 114.663 22.0484 115.93 26.8893C116.969 30.8168 117.985 34.71 118.944 38.3064L78.7785 91.0767H78.71L33.635 71.108L21.0761 65.525L17.7879 64.0636L16.7033 63.5156Z" fill="#E0E0E0"/>
<path d="M90.4812 35.3153C90.4812 35.3153 79.064 38.4207 64.9409 42.1656C50.8178 45.9104 39.3664 48.8446 39.355 48.7876C39.3436 48.7305 50.7722 45.6821 64.8838 41.9372C78.9955 38.1924 90.4583 35.2582 90.4812 35.3153Z" fill="#E0E0E0"/>
<path d="M102.389 44.7916C102.389 44.8487 86.9648 48.9132 67.9209 53.9254C48.8771 58.9375 33.4296 62.865 33.4068 62.808C33.3839 62.7509 48.82 58.6863 67.8753 53.6742C86.9306 48.6621 102.367 44.7345 102.389 44.7916Z" fill="#E0E0E0"/>
<path d="M105.369 56.5397C105.369 56.5397 90.6639 60.4786 72.4992 65.2053C54.3344 69.9321 39.5834 73.7911 39.5606 73.6769C39.5377 73.5627 54.2659 69.738 72.4421 65.0113C90.6182 60.2845 105.358 56.4826 105.369 56.5397Z" fill="#E0E0E0"/>
<path d="M95.0596 70.126H94.9568L94.66 70.2059L93.5183 70.537L89.2711 71.6787L75.1937 75.5035C69.7134 76.9877 64.7355 78.2893 61.1277 79.2141L56.8577 80.3558L55.716 80.6412L55.4077 80.7097H55.3049C55.3049 80.7097 55.3049 80.7097 55.4077 80.7097L55.7045 80.6298L56.8463 80.3101L61.1049 79.1684L75.1594 75.3893C80.6397 73.9051 85.6176 72.6035 89.214 71.6787L93.4954 70.5941L94.6371 70.3086L94.934 70.2401L95.0596 70.126Z" fill="#E0E0E0"/>
<path d="M84.5558 83.3472C84.5558 83.3472 81.2791 84.2834 77.2146 85.3223C73.1501 86.3613 69.8391 87.1491 69.8277 87.092C69.8162 87.0349 73.093 86.1558 77.1689 85.1168C81.2448 84.0778 84.5444 83.2901 84.5558 83.3472Z" fill="#E0E0E0"/>
<path d="M147.442 108.043C147.324 108.055 147.205 108.055 147.088 108.043L146.072 107.803L142.144 106.821L127.747 103.11L106.42 97.5274L93.8607 94.205L87.1931 92.4468L85.5033 92.0015C84.9325 91.8531 84.3616 91.6933 83.8022 91.5677C82.6747 91.3434 81.5196 91.2934 80.377 91.4193C78.0719 91.6833 75.9097 92.6705 74.2003 94.2393L69.1653 98.9089L59.7461 107.894L43.7621 123.091L32.95 133.297L29.993 136.049L29.2052 136.757L28.9312 136.985C28.9312 136.985 28.9997 136.882 29.1595 136.711L29.9016 135.958L32.7787 133.16L43.4538 122.817L59.3694 107.517L68.7657 98.4979L73.755 93.7369C75.5586 92.0796 77.8409 91.0364 80.2743 90.7571C81.489 90.6149 82.7187 90.6689 83.9163 90.9169C84.5215 91.0539 85.0581 91.2023 85.6517 91.3507L87.3415 91.8074C89.6249 92.4011 91.6686 93.5885 93.8493 94.1594C98.2107 95.3011 102.572 95.8605 106.579 96.9223L127.884 102.631L142.224 106.524L146.117 107.666L147.133 107.963C147.339 108.043 147.453 108.043 147.442 108.043Z" fill="#E0E0E0"/>
<path d="M46.1483 242.537C49.9126 241.56 53.3082 239.502 55.9156 236.617C58.523 233.731 60.2278 230.145 60.8194 226.302C62.6347 215.467 55.8871 205.306 45.7258 203.582C35.5645 201.858 25.8714 209.29 24.0332 220.091C23.3235 223.948 23.7722 227.929 25.3225 231.532C26.8729 235.134 29.4555 238.197 32.7445 240.333C3.74484 239.957 0 270.943 0 270.943L66.9047 282.246C66.9047 282.246 73.5153 251.385 46.1483 242.537Z" fill="#EBEBEB"/>
<path d="M473.403 2.62985L362.048 45.4644L390.917 120.515L502.273 77.6801L473.403 2.62985Z" fill="#EBEBEB"/>
<path d="M474.099 3.39258C473.934 3.88306 473.716 4.35398 473.448 4.79689L471.393 8.71299L463.652 22.9959L437.701 70.069L437.484 70.4572L437.062 70.3201L436.034 69.989L384.143 53.3999L368.456 48.2621L364.208 46.8007C363.705 46.6538 363.216 46.4628 362.747 46.2299C363.267 46.3055 363.779 46.4278 364.277 46.5952L368.593 47.8511L384.383 52.6692L436.365 68.9615L437.393 69.2812L436.753 69.5438L463.013 22.6191L471.005 8.49606C471.93 6.90907 472.672 5.64177 473.288 4.68272C473.526 4.23321 473.797 3.80197 474.099 3.39258Z" fill="#E0E0E0"/>
<path d="M391.61 121.286C391.336 121.184 395.743 107.677 401.474 91.1107C407.205 74.5444 412.081 61.1977 412.366 61.289C412.651 61.3804 408.233 74.8983 402.502 91.4647C396.77 108.031 391.906 121.378 391.61 121.286Z" fill="#E0E0E0"/>
<path d="M449.027 46.1159C449.175 45.8647 461.38 52.8863 476.28 61.8145C491.179 70.7428 503.133 78.1868 502.973 78.4494C502.813 78.712 490.62 71.679 475.72 62.7508C460.821 53.8225 448.867 46.3899 449.027 46.1159Z" fill="#E0E0E0"/>
<path d="M442.189 174.138L436.058 226.252L513.379 235.349L519.51 183.235L442.189 174.138Z" fill="#EBEBEB"/>
<path d="M519.711 183.921C519.461 184.149 519.189 184.352 518.9 184.526L516.525 186.159L507.722 192.062L478.38 211.357L478.141 211.517L477.935 211.311L477.444 210.809L452.52 185.463C449.392 182.243 446.812 179.606 445.031 177.722L443.01 175.598C442.767 175.359 442.545 175.099 442.348 174.822C442.624 175.021 442.88 175.246 443.113 175.495L445.225 177.528L452.874 185.109L477.992 210.318L478.483 210.809H478.038L507.448 191.696L516.377 185.988L518.831 184.469C519.105 184.257 519.399 184.073 519.711 183.921Z" fill="#E0E0E0"/>
<path d="M436.262 226.93C436.125 226.793 442.782 220.331 451.105 212.51C459.428 204.689 466.324 198.456 466.461 198.593C466.598 198.73 459.942 205.192 451.618 213.024C443.295 220.856 436.388 227.078 436.262 226.93Z" fill="#E0E0E0"/>
<path d="M492.241 200.967C492.412 200.865 497.321 208.64 503.213 218.321C509.104 228.003 513.774 235.915 513.568 236.03C513.363 236.144 508.499 228.369 502.608 218.687C496.716 209.005 492.081 201.07 492.241 200.967Z" fill="#E0E0E0"/>
</svg>
