<svg width="225" height="65" viewBox="0 0 225 65" fill="none" xmlns="http://www.w3.org/2000/svg">
<g clip-path="url(#clip0_338_951)">
<path fill-rule="evenodd" clip-rule="evenodd" d="M209.493 26.5706C209.291 26.6111 209.088 27.0571 209.088 27.3001C209.047 28.9226 209.007 33.2213 209.007 36.1411C209.007 36.2224 209.128 36.3845 209.25 36.3845C209.858 36.4249 211.318 36.4654 212.575 36.4654C214.319 36.4654 215.333 36.2224 215.901 35.9793C217.361 35.249 218.05 33.6674 218.05 31.9232C218.05 27.9901 215.293 26.4893 211.196 26.4893C210.912 26.4489 210.102 26.4489 209.493 26.5706ZM219.956 44.6981C219.956 40.6832 216.996 38.4526 211.643 38.4526C211.399 38.4526 209.696 38.4121 209.29 38.493C209.169 38.5339 209.007 38.6152 209.007 38.7369C209.007 41.6158 208.966 46.1988 209.088 47.983C209.169 48.7534 209.737 49.8485 210.426 50.1728C211.156 50.5784 212.819 50.6593 213.954 50.6593C217.158 50.6593 219.956 48.8751 219.956 44.6981ZM201.221 24.3404C201.626 24.3404 202.842 24.4617 205.965 24.4617C208.926 24.4617 211.278 24.3808 214.157 24.3808C217.685 24.3808 222.551 25.6377 222.551 30.9098C222.551 33.5052 220.726 35.5737 218.334 36.5875C218.213 36.628 218.213 36.7088 218.334 36.7493C221.74 37.6014 224.742 39.7099 224.742 43.6838C224.742 47.5774 222.308 50.0511 218.78 51.5922C216.631 52.5247 213.954 52.8491 211.237 52.8491C209.169 52.8491 203.613 52.606 200.531 52.6873C200.207 52.5652 200.815 51.1053 201.099 50.8623C201.829 50.8214 202.396 50.781 203.167 50.5375C204.262 50.2541 204.384 49.9293 204.546 48.2669C204.627 46.8475 204.627 41.8183 204.627 38.25C204.627 33.3431 204.668 30.0177 204.627 28.3957C204.587 27.1389 204.141 26.7328 203.248 26.4893C202.558 26.3681 201.423 26.2055 200.49 26.0842C200.287 25.8811 200.977 24.5021 201.221 24.3404ZM177.821 49.5646C178.795 50.3345 180.701 50.6588 182.404 50.6588C184.594 50.6588 186.783 50.2541 188.892 48.3473C191.042 46.4014 192.542 43.4004 192.542 38.6152C192.542 34.0321 190.798 30.3012 187.229 28.1118C185.202 26.8541 182.606 26.3276 179.605 26.3276C178.713 26.3276 177.862 26.3681 177.335 26.6111C177.213 26.6924 176.929 27.0571 176.929 27.2597C176.848 28.0709 176.848 34.316 176.848 37.9661C176.848 41.7375 176.848 47.0096 176.929 47.6178C176.929 48.2265 177.213 49.159 177.821 49.5646H177.821ZM168.615 24.34C169.386 24.34 172.346 24.4617 173.766 24.4617C176.321 24.4617 178.146 24.3404 182.971 24.3404C187.026 24.3404 190.433 25.4351 192.866 27.5032C195.826 30.0581 197.368 33.5865 197.368 37.8848C197.368 44.0086 194.57 47.537 191.771 49.5646C188.974 51.6327 185.324 52.8491 180.133 52.8491C177.375 52.8491 172.63 52.7682 168.696 52.7273H168.656C168.453 52.3626 168.98 50.9432 169.305 50.9027C170.359 50.781 170.643 50.7401 171.171 50.538C172.022 50.2132 172.184 49.7672 172.306 48.2669C172.427 45.4684 172.387 42.1027 172.387 38.2904C172.387 35.5737 172.427 30.2607 172.346 28.5574C172.225 27.1384 171.617 26.7732 170.4 26.5298C169.792 26.4085 168.98 26.2459 167.845 26.1246C167.683 25.8403 168.413 24.5834 168.615 24.3404V24.34Z" fill="#8E714E"/>
<path fill-rule="evenodd" clip-rule="evenodd" d="M119.546 51.1458C118.532 51.024 117.802 50.8623 116.91 50.4567C116.788 50.3754 116.585 49.9702 116.585 49.8076C116.504 48.3882 116.504 44.3329 116.504 41.6162C116.504 39.426 116.14 37.5201 115.207 36.1819C114.112 34.6403 112.53 33.7487 110.502 33.7487C108.718 33.7487 106.325 34.9651 104.338 36.6684C104.298 36.7088 103.973 36.9932 104.014 36.5467C104.014 36.1006 104.095 35.2086 104.135 34.5999C104.176 34.0321 103.852 33.7487 103.852 33.7487C102.554 34.3973 98.9042 35.249 97.5657 35.3703C96.5927 35.5737 96.3493 36.5063 97.3635 36.8306H97.4039C98.4982 37.1549 99.2286 37.5201 99.7959 37.8853C100.202 38.2096 100.161 38.6556 100.161 39.0208C100.201 42.0618 100.202 46.7257 100.08 49.2807C100.04 50.2945 99.7559 50.6593 99.0255 50.8214L99.1068 50.781C98.539 50.9027 98.093 51.024 97.4035 51.1053C97.16 51.3488 97.16 52.6465 97.4035 52.9304C97.8496 52.9304 100.202 52.8086 102.149 52.8086C104.825 52.8086 106.204 52.9304 106.893 52.9304C107.177 52.6061 107.258 51.3892 107.096 51.1053C106.325 51.0649 105.758 50.984 105.231 50.8214C104.501 50.6588 104.298 50.2945 104.257 49.4429C104.176 47.2931 104.176 42.7513 104.176 39.6694C104.176 38.8178 104.419 38.4122 104.662 38.1687C105.595 37.3579 107.096 36.7901 108.434 36.7901C109.732 36.7901 110.583 37.1958 111.232 37.7231C112.124 38.4526 112.408 39.5073 112.53 40.2776C112.733 42.0214 112.652 45.4685 112.652 48.4695C112.652 50.0915 112.53 50.4971 111.922 50.6997C111.638 50.8214 110.908 50.984 110.056 51.0645C109.772 51.3488 109.854 52.6061 110.056 52.8899C111.232 52.8899 112.611 52.7682 114.639 52.7682C117.153 52.7682 118.775 52.8899 119.424 52.8899C119.627 52.6465 119.708 51.4705 119.546 51.1458ZM130.779 35.655C128.63 35.655 127.292 37.3175 127.292 39.9125C127.292 42.5487 128.468 45.5902 131.793 45.5902C132.361 45.5902 133.415 45.3467 133.901 44.779C134.672 44.0495 135.2 42.5892 135.2 41.048C135.2 37.6822 133.537 35.6546 130.779 35.6546V35.655ZM130.495 53.579C129.684 53.579 129.116 53.8225 128.751 54.0255C127.048 55.1197 126.278 56.1744 126.278 57.4321C126.278 58.6077 126.724 59.5402 127.697 60.3514C128.873 61.3652 130.495 61.8522 132.563 61.8522C136.7 61.8522 138.525 59.6215 138.525 57.4321C138.525 55.8905 137.754 54.8767 136.173 54.3094C135.037 53.8225 132.969 53.579 130.495 53.579ZM130.779 64.1232C128.305 64.1232 126.521 63.5959 124.98 62.4199C123.479 61.2844 122.831 59.5811 122.831 58.4051C122.831 58.0808 122.912 57.1882 123.642 56.3774C124.088 55.8905 125.061 54.958 127.373 53.3764C127.454 53.336 127.494 53.2956 127.494 53.2138C127.494 53.133 127.413 53.0517 127.332 53.0117C125.426 52.2817 124.858 51.1053 124.696 50.4567V50.3754C124.656 50.1319 124.574 49.8889 124.94 49.6455C125.224 49.4429 125.629 49.1994 126.075 48.916C126.764 48.5099 127.494 48.0639 127.94 47.6987C128.022 47.6178 128.022 47.537 128.022 47.4557C128.022 47.3744 127.94 47.2931 127.859 47.2531C125.021 46.3201 123.602 44.2112 123.602 41.048C123.602 38.9799 124.534 37.1145 126.196 35.9385C127.332 35.0464 130.171 33.9513 132.036 33.9513H132.158C134.064 33.9917 135.118 34.3973 136.619 34.9247C137.43 35.2086 138.201 35.3298 139.255 35.3298C140.836 35.3298 141.526 34.8434 142.093 34.276C142.134 34.3569 142.215 34.5599 142.256 35.0868C142.296 35.6142 142.134 36.3845 141.729 36.9523C141.404 37.3983 140.674 37.7231 139.944 37.7231H139.741C139.011 37.6418 138.687 37.5605 138.687 37.5605L138.525 37.6418C138.484 37.7231 138.525 37.804 138.565 37.9257L138.606 38.007C138.687 38.3717 138.849 39.4664 138.849 39.7507C138.849 43.0761 137.511 44.5355 136.092 45.6306C134.713 46.6444 133.131 47.2931 131.347 47.4557C131.306 47.4557 131.145 47.4557 130.779 47.4961C130.576 47.4961 130.293 47.537 130.252 47.537H130.211C129.887 47.6178 129.076 48.0234 129.076 48.7125C129.076 49.3207 129.441 50.0511 131.185 50.1728C131.549 50.2132 131.914 50.2132 132.32 50.2541C134.632 50.4158 137.511 50.6189 138.849 51.0649C140.715 51.754 141.891 53.4169 141.891 55.4041C141.891 58.4055 139.742 61.2035 136.173 62.9468C134.429 63.7176 132.685 64.1232 130.779 64.1232ZM153.894 35.8576C153.043 35.8576 152.272 36.0598 151.705 36.4654C150.123 37.4388 149.312 39.3856 149.312 42.224C149.312 47.537 151.988 51.2679 155.801 51.2679C156.936 51.2679 157.828 50.9432 158.599 50.2945C159.775 49.3207 160.383 47.3744 160.383 44.6572C160.383 39.3856 157.747 35.8572 153.895 35.8572L153.894 35.8576ZM154.625 53.2143C147.731 53.2143 145.257 48.1452 145.257 43.4004C145.257 40.0751 146.595 37.5201 149.271 35.695C151.178 34.519 153.449 33.8704 155.476 33.8704C160.748 33.8704 164.439 37.6418 164.439 43.0761C164.439 46.7662 162.979 49.6859 160.18 51.4705C158.842 52.3626 156.531 53.2143 154.624 53.2143H154.625ZM82.3584 35.8572C81.5067 35.8572 80.7364 36.0598 80.1682 36.4654C78.587 37.4388 77.7758 39.3856 77.7758 42.224C77.7758 47.537 80.452 51.2679 84.2643 51.2679C85.3998 51.2679 86.2919 50.9432 87.0627 50.2945C88.2383 49.3207 88.8469 47.3744 88.8469 44.6572C88.8469 39.3856 86.2515 35.8572 82.3584 35.8572ZM83.0883 53.2143C76.1942 53.2143 73.7205 48.1452 73.7205 43.4004C73.7205 40.0751 75.0586 37.5201 77.7349 35.695C79.6412 34.519 81.9123 33.8704 83.94 33.8704C89.2121 33.8704 92.9022 37.6418 92.9022 43.0761C92.9022 46.7662 91.4423 49.6859 88.6439 51.4705C87.3462 52.3626 85.0347 53.2143 83.0883 53.2143ZM36.7357 52.8086C36.6544 52.6874 36.5731 52.3222 36.614 51.8761C36.614 51.5514 36.6952 51.3488 36.7357 51.2679C37.5873 51.1458 38.0334 51.024 38.5199 50.9027C39.3311 50.6997 39.6554 50.2541 39.6958 49.2403C39.818 46.807 39.818 42.1836 39.7771 38.9799V38.8986C39.7771 38.5339 39.7771 38.0874 39.3311 37.7631C38.682 37.3579 37.9117 36.9932 36.8978 36.7084C36.5331 36.5876 36.2896 36.3845 36.3301 36.1415C36.3301 35.8981 36.5735 35.6142 37.1009 35.5329C38.439 35.4111 41.9261 34.5599 43.3051 33.9513C43.3864 34.0321 43.5081 34.276 43.5081 34.6003L43.4677 35.046C43.4268 35.4924 43.3864 36.0198 43.3864 36.5467C43.3864 36.7088 43.549 36.8306 43.7107 36.8306C43.792 36.8306 43.8733 36.7901 43.9541 36.7493C46.5495 34.7216 48.9015 33.9917 50.1179 33.9917C52.1056 33.9917 53.6467 34.9247 54.8227 36.871C54.9035 36.9932 54.9848 37.0336 55.1066 37.0336C55.1874 37.0336 55.3087 36.9932 55.3496 36.9119C57.7424 35.0868 60.1352 33.9917 61.7164 33.9917C65.4878 33.9917 67.7184 36.7901 67.7184 41.5349C67.7184 42.8731 67.7184 44.6168 67.678 46.1988C67.678 47.6178 67.6376 48.9155 67.6376 49.8485C67.6376 50.0506 67.921 50.6997 68.3671 50.8214C68.9348 51.1053 69.7056 51.2271 70.7195 51.3892H70.7599C70.8412 51.6731 70.679 52.7274 70.5169 52.9304C70.2734 52.9304 69.9082 52.9304 69.5031 52.8899C68.4765 52.8364 67.4487 52.8093 66.4207 52.8086C63.9066 52.8086 62.6089 52.8491 61.3512 52.9304C61.2708 52.6061 61.2299 51.6327 61.3512 51.3892C62.0816 51.2679 62.4463 51.1458 62.8928 51.0245C63.704 50.781 63.9066 50.4158 63.9475 49.3616C63.9475 48.5912 64.1092 42.0214 63.8658 40.4398C63.6227 38.8178 62.4059 36.9119 59.7292 36.9119C58.7154 36.9119 57.1342 37.3175 55.5931 38.493C55.5122 38.5743 55.4305 38.7769 55.4305 38.8986V38.9395C55.5931 39.7907 55.5931 40.7646 55.5931 42.2649V44.9007C55.5931 46.7257 55.5522 48.4291 55.5931 49.7263C55.5931 50.6189 56.1204 50.8214 56.5664 50.984C56.8099 51.024 56.9716 51.0649 57.1746 51.1053C57.5394 51.1866 57.9046 51.2679 58.4724 51.3892C58.5536 51.5518 58.5536 52.0787 58.4319 52.5248C58.391 52.7682 58.3098 52.8895 58.2693 52.9304C56.8908 52.8899 55.4713 52.8491 53.4033 52.8491C52.7951 52.8491 51.7404 52.8899 50.8483 52.8899C50.1179 52.8899 49.4288 52.9304 49.0237 52.9304C48.9828 52.8491 48.9015 52.5656 48.9015 52.1191C48.9015 51.7544 48.9828 51.4705 49.0641 51.3892C49.2667 51.3488 49.4288 51.3084 49.6319 51.3084C50.1179 51.2271 50.524 51.1458 50.9291 51.0649C51.6191 50.8623 51.8621 50.4971 51.9025 49.605C52.0243 47.5774 52.146 41.7784 51.8621 40.3181C51.3756 37.9661 50.0375 36.7901 47.8877 36.7901C46.6308 36.7901 45.0488 37.3983 43.7515 38.3722C43.5485 38.5339 43.3864 38.9391 43.3864 39.3043V41.6971C43.3864 44.6168 43.3864 48.2669 43.4268 49.8485C43.4677 50.3345 43.6294 50.9027 44.5623 51.1053C44.7654 51.1458 45.0897 51.2271 45.4953 51.2679L46.2248 51.3892C46.3065 51.6327 46.2657 52.6061 46.1035 52.9304C45.6979 52.9304 45.2114 52.8899 44.6432 52.8899C43.792 52.8491 42.6969 52.8086 41.4805 52.8086C40.061 52.8086 39.0472 52.8491 38.236 52.8899C37.6682 52.8086 37.2222 52.8086 36.7357 52.8086Z" fill="#442D22"/>
<path fill-rule="evenodd" clip-rule="evenodd" d="M15.4042 62.5416L13.7418 61.9734C13.7418 61.9734 13.9448 53.4981 10.9029 52.8899C8.87573 50.5375 11.2281 -46.8716 18.5274 52.5652C18.5274 52.5652 16.0129 53.822 15.5668 55.9718C15.0799 58.0808 15.4042 62.5416 15.4042 62.5416Z" fill="white"/>
<path fill-rule="evenodd" clip-rule="evenodd" d="M15.4042 62.5416L13.7418 61.9734C13.7418 61.9734 13.9448 53.4981 10.9029 52.8899C8.87573 50.5375 11.2281 -46.8716 18.5274 52.5652C18.5274 52.5652 16.0129 53.822 15.5668 55.9718C15.0799 58.0808 15.4042 62.5416 15.4042 62.5416Z" fill="#A6A385"/>
<path fill-rule="evenodd" clip-rule="evenodd" d="M16.2967 54.3498C16.2967 54.3498 30.8558 44.7789 27.4487 24.8669C24.1642 10.39 16.4184 5.64521 15.5667 3.82016C14.6342 2.52245 13.7417 0.251801 13.7417 0.251801L14.3503 40.5206C14.3503 40.5615 13.0931 52.8491 16.2971 54.3502" fill="white"/>
<path fill-rule="evenodd" clip-rule="evenodd" d="M16.2967 54.3498C16.2967 54.3498 30.8558 44.7789 27.4487 24.8669C24.1642 10.39 16.4184 5.64521 15.5667 3.82016C14.6342 2.52245 13.7417 0.251801 13.7417 0.251801L14.3503 40.5206C14.3503 40.5615 13.0931 52.8491 16.2971 54.3502" fill="#499D4A"/>
<path fill-rule="evenodd" clip-rule="evenodd" d="M12.8905 54.8767C12.8905 54.8767 -0.776494 45.5493 0.0347362 29.1256C0.805098 12.7015 10.4568 4.63139 12.3223 3.17153C13.5391 1.87382 13.5796 1.38691 13.6609 0.0892029C14.5125 1.91425 14.3504 27.3819 14.4717 30.3825C14.8364 41.9401 13.823 52.6873 12.8905 54.8767Z" fill="white"/>
<path fill-rule="evenodd" clip-rule="evenodd" d="M12.8905 54.8767C12.8905 54.8767 -0.776494 45.5493 0.0347362 29.1256C0.805098 12.7015 10.4568 4.63139 12.3223 3.17153C13.5391 1.87382 13.5796 1.38691 13.6609 0.0892029C14.5125 1.91425 14.3504 27.3819 14.4717 30.3825C14.8364 41.9401 13.823 52.6873 12.8905 54.8767Z" fill="#58AA50"/>
</g>
<defs>
<clipPath id="clip0_338_951">
<rect width="225" height="64.1602" fill="white"/>
</clipPath>
</defs>
</svg>
