<svg width="272" height="74" viewBox="0 0 272 74" fill="none" xmlns="http://www.w3.org/2000/svg">
<g clip-path="url(#clip0_545_2908)">
<path d="M180.974 0V53.2328C187.54 53.5383 194.089 53.9075 200.619 54.3432V65.6296C190.261 64.9389 179.893 64.4148 169.519 64.0576V0H180.974ZM272 0.006375L257.084 34.5876L271.996 73.0703L271.979 73.0772C267.632 72.4586 263.279 71.8701 258.923 71.3118L250.549 49.7133L242.095 69.3069C238.089 68.8643 234.077 68.4463 230.056 68.0531L244.597 34.3559L231.28 0.00690625H243.672L251.128 19.2297L259.418 0.006375H272ZM130.205 63.4982V0.00584375H162.181V11.3937H141.66V26.1518H157.187V37.4383H141.66V63.4961L130.205 63.4982ZM87.4327 11.3942V0.0053125H122.862V11.3937H110.874V63.8068C107.051 63.9078 103.232 64.0257 99.4203 64.1697V11.3942H87.4327ZM48.2732 67.4507V0.0074375H80.0897V11.3948H59.7264V26.8202C64.4046 26.7601 71.0564 26.6927 75.1948 26.7022V37.9897C70.0146 37.9259 64.1671 38.0609 59.7264 38.105V55.1921C66.5092 54.6576 73.2973 54.1936 80.0897 53.8002V65.0877C69.4719 65.7002 58.8649 66.4884 48.2732 67.4518V67.4507ZM25.8029 41.3599L25.8024 0.0053125H37.2572V68.5153C33.0699 68.9456 28.89 69.4041 24.7181 69.8881L11.4533 31.7815V71.5201C7.62777 72.0184 3.80968 72.5374 -0.000976562 73.0798V0.006375H10.8849L25.8024 41.3599H25.8029ZM210.069 66.3101V0.006375H221.524V67.2562C217.711 66.9163 213.894 66.6028 210.069 66.3106V66.3101Z" fill="#DB202C"/>
</g>
<defs>
<clipPath id="clip0_545_2908">
<rect width="272" height="73.3125" fill="white"/>
</clipPath>
</defs>
</svg>
