<svg width="82" height="82" viewBox="0 0 82 82" fill="none" xmlns="http://www.w3.org/2000/svg">
<path d="M41 76.875C40.032 76.8754 39.0811 76.6209 38.2427 76.137L29.4687 70.9428C28.1593 70.21 28.7974 69.9511 29.2304 69.8C30.6231 69.3697 31.9565 68.7671 33.1997 68.0062C33.3038 67.9581 33.4184 67.9373 33.5328 67.9458C33.6471 67.9543 33.7574 67.9919 33.8532 68.0549L40.5951 72.0601C40.7206 72.1265 40.8605 72.1612 41.0025 72.1612C41.1446 72.1612 41.2844 72.1265 41.41 72.0601L67.7012 56.885C67.8243 56.8113 67.926 56.7068 67.9966 56.582C68.0671 56.4571 68.1039 56.316 68.1035 56.1726V25.8172C68.1036 25.6715 68.0662 25.5283 67.9948 25.4012C67.9235 25.2742 67.8206 25.1677 67.6961 25.092L41.4049 9.92971C41.2809 9.85989 41.141 9.82321 40.9987 9.82321C40.8564 9.82321 40.7165 9.85989 40.5925 9.92971L14.3167 25.0971C14.1913 25.1713 14.0873 25.2765 14.0145 25.4027C13.9418 25.5288 13.9029 25.6716 13.9015 25.8172V56.1598C13.9019 56.3029 13.9403 56.4433 14.0128 56.5667C14.0853 56.6901 14.1893 56.7919 14.3141 56.8619L21.525 61.0234C25.4328 62.976 27.8262 60.6749 27.8262 58.3635V28.4053C27.8262 28.2015 27.9072 28.0059 28.0513 27.8617C28.1955 27.7176 28.391 27.6366 28.5949 27.6366H31.9262C32.13 27.6366 32.3256 27.7176 32.4698 27.8617C32.6139 28.0059 32.6949 28.2015 32.6949 28.4053V58.3661C32.6949 63.5808 29.8557 66.5661 24.91 66.5661C22.7764 66.6033 20.6763 66.0327 18.8549 64.921L11.9438 60.9568C11.1048 60.4682 10.4086 59.7681 9.92482 58.9263C9.44099 58.0846 9.18643 57.1307 9.18654 56.1598V25.8172C9.18405 24.8448 9.43753 23.8889 9.92153 23.0455C10.4055 22.2021 11.103 21.501 11.9438 21.0125L38.2376 5.83228C39.0846 5.36889 40.0345 5.12602 41 5.12602C41.9654 5.12602 42.9154 5.36889 43.7624 5.83228L70.0536 21.0125C70.8925 21.5001 71.5888 22.1993 72.0731 23.0401C72.5574 23.8809 72.8126 24.8341 72.8134 25.8044V56.1598C72.812 57.1307 72.5565 58.0843 72.0723 58.9258C71.5882 59.7673 70.8922 60.4675 70.0536 60.9568L43.7624 76.137C42.9225 76.6216 41.9696 76.8762 41 76.875Z" fill="#83CD29"/>
<path d="M36.0132 46.0046C36.0132 45.8007 36.0942 45.6051 36.2383 45.461C36.3825 45.3168 36.578 45.2358 36.7819 45.2358H40.1824C40.3641 45.2364 40.5397 45.3013 40.678 45.4191C40.8164 45.5368 40.9086 45.6997 40.9383 45.879C41.4508 49.3409 42.9883 51.086 49.9404 51.086C55.4779 51.086 57.838 49.8329 57.838 46.8937C57.838 45.1999 57.1692 43.9417 48.5617 43.0987C41.3662 42.3863 36.9177 40.7924 36.9177 35.0422C36.9177 29.7378 41.3893 26.5731 48.8846 26.5731C57.3076 26.5731 61.4767 29.4969 62.0046 35.7699C62.0127 35.8747 61.9992 35.9799 61.965 36.0792C61.9308 36.1786 61.8766 36.2698 61.8058 36.3474C61.7349 36.4249 61.649 36.4871 61.5531 36.5302C61.4573 36.5732 61.3537 36.5962 61.2487 36.5976H57.8252C57.6534 36.5952 57.4874 36.5354 57.3537 36.4276C57.2199 36.3199 57.1261 36.1704 57.0872 36.0031C56.2697 32.3618 54.2684 31.1984 48.8872 31.1984C42.8397 31.1984 42.1376 33.3048 42.1376 34.8833C42.1376 36.7949 42.9678 37.3536 51.1319 38.4324C59.2115 39.5009 63.0501 41.0128 63.0501 46.6913C63.0501 52.4211 58.2736 55.7011 49.9429 55.7011C38.4245 55.7164 36.0132 50.4351 36.0132 46.0046Z" fill="#83CD29"/>
</svg>
