<svg width="176" height="56" viewBox="0 0 176 56" fill="none" xmlns="http://www.w3.org/2000/svg">
<path d="M0 11H135V46H0V11Z" fill="#2B50C8"/>
<path d="M32.66 35.18C31.3533 35.18 30.2133 34.8867 29.24 34.3C28.28 33.7 27.5333 32.86 27 31.78C26.48 30.7 26.22 29.42 26.22 27.94C26.22 26.46 26.48 25.18 27 24.1C27.52 23.02 28.26 22.1867 29.22 21.6C30.1933 21.0133 31.34 20.72 32.66 20.72C33.9933 20.72 35.14 21.0133 36.1 21.6C37.0733 22.1867 37.82 23.02 38.34 24.1C38.8733 25.1667 39.14 26.44 39.14 27.92C39.14 29.4 38.8733 30.6867 38.34 31.78C37.8067 32.86 37.0533 33.7 36.08 34.3C35.12 34.8867 33.98 35.18 32.66 35.18ZM32.66 33.72C34.1667 33.72 35.3333 33.2133 36.16 32.2C36.9867 31.1867 37.4 29.7667 37.4 27.94C37.4 26.1133 36.9867 24.7 36.16 23.7C35.3333 22.6867 34.1667 22.18 32.66 22.18C31.18 22.18 30.0267 22.6867 29.2 23.7C28.3733 24.7 27.96 26.1133 27.96 27.94C27.96 29.7533 28.3733 31.1733 29.2 32.2C30.0267 33.2133 31.18 33.72 32.66 33.72ZM42.652 35.14C42.1187 35.14 41.852 34.86 41.852 34.3V25.96C41.852 25.4133 42.112 25.14 42.632 25.14C43.1654 25.14 43.432 25.4133 43.432 25.96V26.94C43.752 26.3267 44.2054 25.8667 44.792 25.56C45.3787 25.2533 46.0387 25.1 46.772 25.1C49.0787 25.1 50.232 26.38 50.232 28.94V34.3C50.232 34.86 49.9654 35.14 49.432 35.14C48.8854 35.14 48.612 34.86 48.612 34.3V29.04C48.612 28.1333 48.432 27.4733 48.072 27.06C47.7254 26.6333 47.1654 26.42 46.392 26.42C45.4987 26.42 44.7854 26.7 44.252 27.26C43.732 27.8067 43.472 28.54 43.472 29.46V34.3C43.472 34.86 43.1987 35.14 42.652 35.14ZM65.0355 35.18C62.7688 35.18 61.0421 34.54 59.8555 33.26C58.6688 31.98 58.0755 30.2133 58.0755 27.96C58.0755 26.4667 58.3421 25.18 58.8755 24.1C59.4088 23.02 60.1755 22.1867 61.1755 21.6C62.1755 21.0133 63.3821 20.72 64.7955 20.72C65.6355 20.72 66.4488 20.84 67.2355 21.08C68.0221 21.3067 68.7221 21.6733 69.3355 22.18C69.5221 22.3133 69.6288 22.48 69.6555 22.68C69.6821 22.8667 69.6421 23.0467 69.5355 23.22C69.4421 23.38 69.3021 23.4867 69.1155 23.54C68.9421 23.5933 68.7555 23.5533 68.5555 23.42C68.0088 22.9933 67.4288 22.6867 66.8155 22.5C66.2021 22.3 65.5221 22.2 64.7755 22.2C63.1755 22.2 61.9488 22.7067 61.0955 23.72C60.2421 24.72 59.8155 26.1333 59.8155 27.96C59.8155 29.8267 60.2555 31.2533 61.1355 32.24C62.0155 33.2267 63.3288 33.72 65.0755 33.72C66.2088 33.72 67.2955 33.5267 68.3355 33.14V28.96H65.4755C64.9955 28.96 64.7555 28.74 64.7555 28.3C64.7555 27.8733 64.9955 27.66 65.4755 27.66H69.0555C69.5221 27.66 69.7555 27.8933 69.7555 28.36V33.58C69.7555 33.9933 69.6088 34.26 69.3155 34.38C68.7555 34.62 68.0821 34.8133 67.2955 34.96C66.5221 35.1067 65.7688 35.18 65.0355 35.18ZM76.9272 35.18C75.9805 35.18 75.1605 34.9733 74.4672 34.56C73.7739 34.1467 73.2339 33.5667 72.8472 32.82C72.4739 32.06 72.2872 31.1667 72.2872 30.14C72.2872 29.1133 72.4739 28.2267 72.8472 27.48C73.2339 26.72 73.7739 26.1333 74.4672 25.72C75.1605 25.3067 75.9805 25.1 76.9272 25.1C77.8605 25.1 78.6739 25.3067 79.3672 25.72C80.0739 26.1333 80.6139 26.72 80.9872 27.48C81.3739 28.2267 81.5672 29.1133 81.5672 30.14C81.5672 31.1667 81.3739 32.06 80.9872 32.82C80.6139 33.5667 80.0739 34.1467 79.3672 34.56C78.6739 34.9733 77.8605 35.18 76.9272 35.18ZM76.9272 33.88C77.8339 33.88 78.5605 33.56 79.1072 32.92C79.6539 32.2667 79.9272 31.34 79.9272 30.14C79.9272 28.9267 79.6539 28 79.1072 27.36C78.5605 26.72 77.8339 26.4 76.9272 26.4C76.0072 26.4 75.2739 26.72 74.7272 27.36C74.1939 28 73.9272 28.9267 73.9272 30.14C73.9272 31.34 74.1939 32.2667 74.7272 32.92C75.2739 33.56 76.0072 33.88 76.9272 33.88ZM84.8005 22.94C84.0938 22.94 83.7405 22.6067 83.7405 21.94C83.7405 21.2867 84.0938 20.96 84.8005 20.96C85.5071 20.96 85.8605 21.2867 85.8605 21.94C85.8605 22.6067 85.5071 22.94 84.8005 22.94ZM84.8005 35.1C84.2671 35.1 84.0005 34.8067 84.0005 34.22V26.04C84.0005 25.4667 84.2671 25.18 84.8005 25.18C85.3471 25.18 85.6205 25.4667 85.6205 26.04V34.22C85.6205 34.8067 85.3471 35.1 84.8005 35.1ZM89.4489 35.14C88.9156 35.14 88.6489 34.86 88.6489 34.3V25.96C88.6489 25.4133 88.9089 25.14 89.4289 25.14C89.9622 25.14 90.2289 25.4133 90.2289 25.96V26.94C90.5489 26.3267 91.0022 25.8667 91.5889 25.56C92.1756 25.2533 92.8356 25.1 93.5689 25.1C95.8756 25.1 97.0289 26.38 97.0289 28.94V34.3C97.0289 34.86 96.7622 35.14 96.2289 35.14C95.6822 35.14 95.4089 34.86 95.4089 34.3V29.04C95.4089 28.1333 95.2289 27.4733 94.8689 27.06C94.5222 26.6333 93.9622 26.42 93.1889 26.42C92.2956 26.42 91.5822 26.7 91.0489 27.26C90.5289 27.8067 90.2689 28.54 90.2689 29.46V34.3C90.2689 34.86 89.9956 35.14 89.4489 35.14ZM104.316 38.78C103.609 38.78 102.916 38.6933 102.236 38.52C101.569 38.36 100.963 38.1 100.416 37.74C100.216 37.62 100.096 37.4733 100.056 37.3C100.029 37.14 100.056 36.98 100.136 36.82C100.216 36.6733 100.329 36.5667 100.476 36.5C100.636 36.4333 100.803 36.4467 100.976 36.54C101.563 36.9 102.123 37.1467 102.656 37.28C103.189 37.4133 103.716 37.48 104.236 37.48C106.156 37.48 107.116 36.4933 107.116 34.52V32.8C106.836 33.4133 106.396 33.9 105.796 34.26C105.209 34.6067 104.536 34.78 103.776 34.78C102.883 34.78 102.109 34.5733 101.456 34.16C100.803 33.7467 100.296 33.18 99.9361 32.46C99.5894 31.7267 99.4161 30.88 99.4161 29.92C99.4161 28.96 99.5894 28.12 99.9361 27.4C100.296 26.6667 100.803 26.1 101.456 25.7C102.109 25.3 102.883 25.1 103.776 25.1C104.536 25.1 105.209 25.2667 105.796 25.6C106.383 25.9333 106.816 26.4 107.096 27V25.96C107.096 25.4133 107.363 25.14 107.896 25.14C108.429 25.14 108.696 25.4133 108.696 25.96V34.3C108.696 35.7933 108.323 36.9133 107.576 37.66C106.843 38.4067 105.756 38.78 104.316 38.78ZM104.076 33.46C105.009 33.46 105.749 33.14 106.296 32.5C106.843 31.86 107.116 31 107.116 29.92C107.116 28.84 106.843 27.9867 106.296 27.36C105.749 26.72 105.009 26.4 104.076 26.4C103.156 26.4 102.423 26.72 101.876 27.36C101.329 27.9867 101.056 28.84 101.056 29.92C101.056 31 101.329 31.86 101.876 32.5C102.423 33.14 103.156 33.46 104.076 33.46Z" fill="white"/>
<path d="M175.024 27.5L133.795 51.3517L133.753 3.7203L175.024 27.5Z" fill="#2B50C8"/>
</svg>
