<svg width="26" height="35" viewBox="0 0 26 35" fill="none" xmlns="http://www.w3.org/2000/svg">
<path d="M22.5006 35H3.50065C2.6608 35 1.85534 34.636 1.26148 33.9882C0.667614 33.3403 0.333984 32.4616 0.333984 31.5454V3.90907C0.333984 2.99287 0.667614 2.11419 1.26148 1.46634C1.85534 0.818483 2.6608 0.454523 3.50065 0.454523H14.584C14.5982 0.452496 14.6125 0.452496 14.6267 0.454523H14.6362C14.6512 0.459621 14.6666 0.463093 14.6821 0.464887C14.8215 0.47525 14.9592 0.504614 15.0922 0.552977H15.1587C15.188 0.575292 15.2155 0.600129 15.2411 0.62725C15.4135 0.710924 15.5707 0.827962 15.705 0.972705L25.205 11.3363C25.3377 11.4828 25.445 11.6543 25.5217 11.8424C25.5354 11.8798 25.5476 11.9178 25.5581 11.9564L25.5739 12.0048C25.6182 12.1482 25.6436 12.2984 25.6515 12.4504C25.6529 12.4676 25.6566 12.4845 25.6626 12.5005V12.5109C25.6651 12.5222 25.6667 12.5338 25.6673 12.5454V31.5454C25.6673 32.4616 25.3337 33.3403 24.7398 33.9882C24.146 34.636 23.3405 35 22.5006 35ZM16.8386 21.1818V29.8182H18.327V26.2945H20.6386V24.8471H18.327V22.6344H20.9173V21.1818H16.8386ZM10.9803 21.1818V29.8182H12.8898C13.691 29.8613 14.4668 29.5055 14.9988 28.8509C15.5449 28.0907 15.8185 27.1396 15.7683 26.1753V24.7762C15.8052 23.8221 15.5239 22.8858 14.9766 22.1404C14.4621 21.5013 13.71 21.149 12.9294 21.1818H10.9803ZM5.08398 21.1818V29.8182H6.57232V26.7799H7.56348C8.22532 26.8196 8.87132 26.5519 9.34315 26.0441C9.79282 25.4948 10.0256 24.7763 9.99232 24.0404C10.0217 23.2877 9.78862 22.5508 9.33998 21.9781C9.12082 21.7129 8.85055 21.504 8.5486 21.3664C8.24665 21.2287 7.9205 21.1657 7.59357 21.1818H5.08398ZM14.584 3.90907V12.5454H22.5006L14.584 3.90907ZM12.9151 28.3707H12.4686V22.6344H13.0101C13.1994 22.6223 13.3884 22.6621 13.5599 22.7502C13.7314 22.8383 13.8799 22.9719 13.9918 23.1388C14.2246 23.6622 14.3243 24.2442 14.28 24.8246V26.3256C14.3148 26.8783 14.2056 27.4311 13.9633 27.9164C13.8355 28.0792 13.6733 28.2056 13.4907 28.2848C13.3081 28.3639 13.1105 28.3934 12.9151 28.3707ZM7.59357 25.3272H6.57073V22.6344H7.60782C7.73518 22.6359 7.86011 22.6727 7.97088 22.7413C8.08166 22.8099 8.17466 22.908 8.24115 23.0265C8.41215 23.3357 8.49448 23.6915 8.47865 24.0525C8.4985 24.3884 8.41674 24.7222 8.2459 25.0025C8.16826 25.1088 8.06872 25.1936 7.95537 25.2501C7.84201 25.3065 7.71805 25.3329 7.59357 25.3272Z" fill="#F81D1D"/>
</svg>
