<svg width="58" height="58" viewBox="0 0 58 58" fill="none" xmlns="http://www.w3.org/2000/svg">
<path d="M28.6114 4.41696C16.066 4.41696 16.8593 9.84153 16.8593 9.84153V15.4781H28.7899V17.2451H12.108C12.108 17.2451 4.07715 16.2556 4.07715 28.9865C4.07715 41.7175 11.168 41.1998 11.168 41.1998H15.262V35.261C15.262 35.261 15.0323 28.1702 22.1532 28.1702H34.1014C34.1014 28.1702 40.7663 28.2762 40.7663 21.7173V10.9547C40.7663 10.9547 41.777 4.39575 28.6768 4.39575L28.6114 4.41696ZM22.0171 8.19295C22.4412 8.18225 22.859 8.29757 23.2176 8.52432C23.5762 8.75107 23.8595 9.07907 24.0317 9.46684C24.2039 9.85461 24.2572 10.2847 24.1849 10.7028C24.1127 11.1209 23.918 11.5081 23.6256 11.8156C23.3333 12.123 22.9563 12.3369 22.5424 12.4301C22.1285 12.5233 21.6962 12.4916 21.3003 12.3391C20.9043 12.1866 20.5625 11.9202 20.318 11.5734C20.0736 11.2267 19.9374 10.8152 19.9268 10.3911V10.3557C19.9268 9.7868 20.1528 9.24119 20.5551 8.8389C20.9574 8.43662 21.503 8.21062 22.0719 8.21062L22.0171 8.19295Z" fill="url(#paint0_linear_338_2949)"/>
<path d="M28.9639 53.5561C41.5093 53.5561 40.7159 48.1138 40.7159 48.1138V42.4949H28.7872V40.7279H45.5203C45.5203 40.7279 53.5511 41.6255 53.5511 28.9688C53.5511 16.3121 46.4603 16.7556 46.4603 16.7556H42.3133V22.6166C42.3133 22.6166 42.543 29.7074 35.4221 29.7074H23.4686C23.4686 29.7074 16.7983 29.6067 16.7983 36.1656V47.0006C16.7983 47.0006 15.7876 53.5596 28.8879 53.5596H28.9586L28.9639 53.5561ZM35.5582 49.7624C35.134 49.7731 34.7162 49.6578 34.3576 49.431C33.999 49.2043 33.7157 48.8763 33.5435 48.4885C33.3714 48.1007 33.318 47.6706 33.3903 47.2525C33.4626 46.8345 33.6572 46.4472 33.9496 46.1398C34.242 45.8323 34.619 45.6185 35.0329 45.5253C35.4468 45.4321 35.8791 45.4637 36.275 45.6162C36.6709 45.7687 37.0127 46.0352 37.2572 46.3819C37.5017 46.7287 37.6379 47.1401 37.6485 47.5643V47.6173C37.6485 48.1862 37.4225 48.7318 37.0202 49.1341C36.6179 49.5364 36.0723 49.7624 35.5034 49.7624H35.5564H35.5582Z" fill="url(#paint1_linear_338_2949)"/>
<defs>
<linearGradient id="paint0_linear_338_2949" x1="8.96661" y1="9.22821" x2="32.4436" y2="32.6521" gradientUnits="userSpaceOnUse">
<stop stop-color="#387EB8"/>
<stop offset="1" stop-color="#366994"/>
</linearGradient>
<linearGradient id="paint1_linear_338_2949" x1="22.8546" y1="24.487" x2="49.6774" y2="47.9038" gradientUnits="userSpaceOnUse">
<stop stop-color="#FFE052"/>
<stop offset="1" stop-color="#FFC331"/>
</linearGradient>
</defs>
</svg>
