<svg width="32" height="38" viewBox="0 0 32 38" fill="none" xmlns="http://www.w3.org/2000/svg">
<path d="M16.0213 0.266602C7.39363 0.266602 0.384766 7.27546 0.384766 15.9032C0.384766 24.5309 7.39363 31.5397 16.0213 31.5397H16.9411V37.0585C25.8816 32.7539 31.6579 24.1814 31.6579 15.9032C31.6579 7.27546 24.649 0.266602 16.0213 0.266602ZM17.8609 26.9408H14.1817V23.2616H17.8609V26.9408ZM17.8609 20.5022H14.1817C14.1817 14.5235 19.7005 14.9834 19.7005 11.3042C19.7005 9.28062 18.0449 7.62499 16.0213 7.62499C13.9978 7.62499 12.3421 9.28062 12.3421 11.3042H8.66295C8.66295 7.23867 11.9558 3.94579 16.0213 3.94579C20.0868 3.94579 23.3797 7.23867 23.3797 11.3042C23.3797 15.9032 17.8609 16.3631 17.8609 20.5022Z" fill="white"/>
</svg>
