<svg width="120" height="120" viewBox="0 0 120 120" fill="none" xmlns="http://www.w3.org/2000/svg">
<path d="M60 69.2775C65.1777 69.2775 69.375 65.0802 69.375 59.9025C69.375 54.7248 65.1777 50.5275 60 50.5275C54.8223 50.5275 50.625 54.7248 50.625 59.9025C50.625 65.0802 54.8223 69.2775 60 69.2775Z" fill="#00D8FF"/>
<path d="M60 81.3975C48.7318 81.67 37.4917 80.1511 26.7 76.8975C21.7148 75.3172 17.0653 72.8277 12.9863 69.555C11.4297 68.4369 10.1335 66.9954 9.18653 65.3293C8.23955 63.6631 7.66421 61.8119 7.5 59.9025C7.5 53.7037 14.31 47.6287 25.7175 43.6537C36.7977 40.1315 48.3747 38.4245 60 38.5987C71.4701 38.4385 82.892 40.1146 93.8325 43.5637C98.6336 45.0943 103.125 47.4634 107.1 50.5612C108.63 51.6271 109.907 53.0164 110.84 54.6307C111.773 56.245 112.34 58.0448 112.5 59.9025C112.5 66.345 104.888 72.8737 92.625 76.9312C82.0422 80.0789 71.0394 81.5851 60 81.3975ZM60 43.0837C48.8779 42.9351 37.8031 44.5579 27.1912 47.8912C16.6912 51.555 11.985 56.565 11.985 59.8912C11.985 63.3712 17.0438 68.8425 28.1512 72.6412C38.4753 75.7382 49.2248 77.1798 60 76.9125C70.5615 77.1013 81.0897 75.6723 91.2188 72.675C102.75 68.8537 108 63.375 108 59.9025C107.811 58.7108 107.377 57.5714 106.725 56.556C106.073 55.5407 105.217 54.6717 104.213 54.0037C100.657 51.2555 96.6439 49.1559 92.3587 47.8012C81.8926 44.5153 70.9687 42.9227 60 43.0837Z" fill="#00D8FF"/>
<path d="M38.7 106.661C36.9506 106.701 35.2219 106.277 33.69 105.431C28.32 102.334 26.46 93.4013 28.7138 81.5325C31.1987 70.1741 35.5043 59.2924 41.4638 49.3088C47.054 39.2929 54.2107 30.2359 62.6625 22.4813C66.3868 19.0864 70.6833 16.3783 75.3525 14.4825C77.0414 13.691 78.8836 13.2808 80.7488 13.2808C82.6139 13.2808 84.4562 13.691 86.145 14.4825C91.7288 17.7 93.5775 27.555 90.9713 40.2038C88.4096 50.9459 84.2159 61.2317 78.5363 70.7025C73.1428 80.6001 66.2114 89.5782 58.0013 97.3013C54.1417 100.829 49.6625 103.612 44.79 105.51C42.8393 106.234 40.7804 106.623 38.7 106.661ZM45.3488 51.5363C39.6641 61.0962 35.5375 71.5002 33.1238 82.3575C31.05 93.2888 33.0413 99.8625 35.9363 101.535C38.9363 103.271 46.2188 101.625 55.0613 93.9C62.8989 86.5011 69.5146 77.907 74.6625 68.4375C80.1035 59.3832 84.1264 49.5493 86.5913 39.2775C89.0438 27.3713 86.925 20.0813 83.9175 18.3488C82.7903 17.9169 81.5857 17.7235 80.38 17.781C79.1743 17.8384 77.9935 18.1454 76.9125 18.6825C72.7563 20.3976 68.9352 22.8324 65.625 25.875C57.55 33.303 50.7138 41.9735 45.375 51.5588L45.3488 51.5363Z" fill="#00D8FF"/>
<path d="M81.2887 106.71C76.2074 106.71 69.7537 103.635 63.0337 97.8562C54.4338 90.031 47.1561 80.8664 41.4824 70.7175C35.5977 60.8713 31.3262 50.147 28.8299 38.9512C27.7473 34.0256 27.5467 28.9469 28.2374 23.9512C28.3971 22.098 28.9614 20.3024 29.8905 18.691C30.8197 17.0796 32.091 15.6916 33.6149 14.625C39.1912 11.3962 48.6524 14.715 58.3087 23.2875C66.3359 30.8707 73.1526 39.6401 78.5212 49.29C84.4023 58.9063 88.7186 69.3957 91.3087 80.3662C92.4379 85.4726 92.612 90.7439 91.8224 95.9137C91.6346 97.8203 91.0366 99.6636 90.0696 101.317C89.1025 102.971 87.7893 104.396 86.2199 105.495C84.713 106.33 83.0111 106.75 81.2887 106.71ZM45.3637 68.46C50.8065 78.1591 57.7585 86.9301 65.9587 94.4437C74.3924 101.7 81.0824 103.26 83.9587 101.569C86.9587 99.825 89.1712 92.7075 86.8912 81.1912C84.3932 70.7173 80.2532 60.7046 74.6249 51.525C69.5018 42.2892 62.9952 33.892 55.3312 26.625C46.2412 18.555 38.8687 16.7512 35.8649 18.4912C34.9287 19.252 34.1604 20.1987 33.6086 21.2714C33.0567 22.3442 32.7333 23.5197 32.6587 24.7237C32.0624 29.1791 32.2567 33.7046 33.2324 38.0925C35.6336 48.7993 39.7302 59.0535 45.3674 68.4675L45.3637 68.46Z" fill="#00D8FF"/>
</svg>
