<svg width="654" height="339" viewBox="0 0 654 339" fill="none" xmlns="http://www.w3.org/2000/svg">
<path d="M0.403285 10C0.403285 4.69988 4.69988 0.403285 10 0.403285H644C649.3 0.403285 653.597 4.69988 653.597 10V338.597H0.403285V10Z" fill="url(#paint0_linear_545_5907)" fill-opacity="0.9"/>
<path d="M34.92 45.14C34.5467 45.1533 34.2533 45.0533 34.04 44.84C33.8267 44.6267 33.72 44.3533 33.72 44.02C33.72 43.7667 33.8 43.5467 33.96 43.36C34.1067 43.16 34.3267 43.0533 34.62 43.04L35.22 43C36.4067 42.92 37 42.2667 37 41.04V32.04C37 31.1733 37.4267 30.74 38.28 30.74C39.1333 30.74 39.56 31.1733 39.56 32.04V41.02C39.56 42.2733 39.2267 43.2467 38.56 43.94C37.8933 44.6333 36.9067 45.02 35.6 45.1L34.92 45.14ZM42.7503 45.16C42.2836 45.16 41.9503 45 41.7503 44.68C41.5503 44.36 41.557 43.9733 41.7703 43.52L47.0503 31.82C47.2236 31.4333 47.4303 31.16 47.6703 31C47.9236 30.8267 48.2103 30.74 48.5303 30.74C48.837 30.74 49.1103 30.8267 49.3503 31C49.6036 31.16 49.817 31.4333 49.9903 31.82L55.2903 43.52C55.5036 43.9867 55.517 44.38 55.3303 44.7C55.1436 45.0067 54.8236 45.16 54.3703 45.16C53.997 45.16 53.7036 45.0733 53.4903 44.9C53.2903 44.7133 53.1103 44.4333 52.9503 44.06L51.9503 41.74H45.0703L44.0903 44.06C43.917 44.4467 43.737 44.7267 43.5503 44.9C43.3636 45.0733 43.097 45.16 42.7503 45.16ZM48.4903 33.68L45.9503 39.7H51.0703L48.5303 33.68H48.4903ZM58.6931 45.16C57.8931 45.16 57.4931 44.7467 57.4931 43.92V32.02C57.4931 31.6067 57.5931 31.2933 57.7931 31.08C58.0065 30.8533 58.2798 30.74 58.6131 30.74C58.9198 30.74 59.1465 30.8 59.2931 30.92C59.4531 31.0267 59.6398 31.2133 59.8531 31.48L66.9931 40.74V31.96C66.9931 31.1467 67.3931 30.74 68.1931 30.74C68.9798 30.74 69.3731 31.1467 69.3731 31.96V43.96C69.3731 44.3333 69.2798 44.6267 69.0931 44.84C68.9065 45.0533 68.6531 45.16 68.3331 45.16C68.0265 45.16 67.7798 45.1 67.5931 44.98C67.4198 44.86 67.2265 44.6667 67.0131 44.4L59.8731 35.12V43.92C59.8731 44.7467 59.4798 45.16 58.6931 45.16ZM79.4638 45C78.7304 45 78.3638 44.64 78.3638 43.92C78.3638 43.2267 78.7304 42.88 79.4638 42.88H81.7038V33.82L80.0038 34.84C79.6838 35.0267 79.3904 35.0733 79.1238 34.98C78.8704 34.8867 78.6771 34.72 78.5438 34.48C78.4104 34.24 78.3704 33.98 78.4238 33.7C78.4771 33.4067 78.6638 33.1667 78.9837 32.98L81.7438 31.32C82.0104 31.16 82.2771 31.0267 82.5438 30.92C82.8104 30.8 83.0571 30.74 83.2838 30.74C83.5638 30.74 83.7971 30.82 83.9838 30.98C84.1704 31.1267 84.2638 31.3733 84.2638 31.72V42.88H86.3038C87.0371 42.88 87.4038 43.2267 87.4038 43.92C87.4038 44.64 87.0371 45 86.3038 45H79.4638ZM94.3359 45.2C92.6693 45.2 91.3959 44.5733 90.5159 43.32C89.6359 42.0533 89.1959 40.2533 89.1959 37.92C89.1959 35.56 89.6359 33.7667 90.5159 32.54C91.3959 31.3133 92.6693 30.7 94.3359 30.7C96.0159 30.7 97.2893 31.3133 98.1559 32.54C99.0359 33.7667 99.4759 35.5533 99.4759 37.9C99.4759 40.2467 99.0359 42.0533 98.1559 43.32C97.2759 44.5733 96.0026 45.2 94.3359 45.2ZM94.3359 43.1C95.2426 43.1 95.9093 42.68 96.3359 41.84C96.7759 41 96.9959 39.6867 96.9959 37.9C96.9959 36.1133 96.7759 34.82 96.3359 34.02C95.9093 33.2067 95.2426 32.8 94.3359 32.8C93.4426 32.8 92.7759 33.2067 92.3359 34.02C91.8959 34.82 91.6759 36.1133 91.6759 37.9C91.6759 39.6867 91.8959 41 92.3359 41.84C92.7759 42.68 93.4426 43.1 94.3359 43.1ZM106.108 45.2C103.521 45.2 102.228 43.92 102.228 41.36V37.1H101.188C100.521 37.1 100.188 36.7867 100.188 36.16C100.188 35.5333 100.521 35.22 101.188 35.22H102.228V33.4C102.228 32.56 102.648 32.14 103.488 32.14C104.315 32.14 104.728 32.56 104.728 33.4V35.22H106.848C107.515 35.22 107.848 35.5333 107.848 36.16C107.848 36.7867 107.515 37.1 106.848 37.1H104.728V41.22C104.728 41.86 104.868 42.34 105.148 42.66C105.428 42.98 105.881 43.14 106.508 43.14C106.735 43.14 106.935 43.12 107.108 43.08C107.281 43.04 107.435 43.0133 107.568 43C107.728 42.9867 107.861 43.04 107.968 43.16C108.075 43.2667 108.128 43.4933 108.128 43.84C108.128 44.1067 108.081 44.3467 107.988 44.56C107.908 44.76 107.755 44.9 107.528 44.98C107.355 45.0333 107.128 45.08 106.848 45.12C106.568 45.1733 106.321 45.2 106.108 45.2ZM110.798 45.16C109.971 45.16 109.558 44.7333 109.558 43.88V32C109.558 31.16 109.971 30.74 110.798 30.74C111.638 30.74 112.058 31.16 112.058 32V36.64C112.391 36.1067 112.838 35.7067 113.398 35.44C113.958 35.16 114.578 35.02 115.258 35.02C117.564 35.02 118.718 36.36 118.718 39.04V43.88C118.718 44.7333 118.304 45.16 117.478 45.16C116.638 45.16 116.218 44.7333 116.218 43.88V39.16C116.218 38.4 116.071 37.8467 115.778 37.5C115.498 37.1533 115.058 36.98 114.458 36.98C113.724 36.98 113.138 37.2133 112.698 37.68C112.271 38.1333 112.058 38.74 112.058 39.5V43.88C112.058 44.7333 111.638 45.16 110.798 45.16Z" fill="#A9A8A8"/>
<path d="M34.92 113.14C34.5467 113.153 34.2533 113.053 34.04 112.84C33.8267 112.627 33.72 112.353 33.72 112.02C33.72 111.767 33.8 111.547 33.96 111.36C34.1067 111.16 34.3267 111.053 34.62 111.04L35.22 111C36.4067 110.92 37 110.267 37 109.04V100.04C37 99.1733 37.4267 98.74 38.28 98.74C39.1333 98.74 39.56 99.1733 39.56 100.04V109.02C39.56 110.273 39.2267 111.247 38.56 111.94C37.8933 112.633 36.9067 113.02 35.6 113.1L34.92 113.14ZM42.7503 113.16C42.2836 113.16 41.9503 113 41.7503 112.68C41.5503 112.36 41.557 111.973 41.7703 111.52L47.0503 99.82C47.2236 99.4333 47.4303 99.16 47.6703 99C47.9236 98.8267 48.2103 98.74 48.5303 98.74C48.837 98.74 49.1103 98.8267 49.3503 99C49.6036 99.16 49.817 99.4333 49.9903 99.82L55.2903 111.52C55.5036 111.987 55.517 112.38 55.3303 112.7C55.1436 113.007 54.8236 113.16 54.3703 113.16C53.997 113.16 53.7036 113.073 53.4903 112.9C53.2903 112.713 53.1103 112.433 52.9503 112.06L51.9503 109.74H45.0703L44.0903 112.06C43.917 112.447 43.737 112.727 43.5503 112.9C43.3636 113.073 43.097 113.16 42.7503 113.16ZM48.4903 101.68L45.9503 107.7H51.0703L48.5303 101.68H48.4903ZM58.6931 113.16C57.8931 113.16 57.4931 112.747 57.4931 111.92V100.02C57.4931 99.6067 57.5931 99.2933 57.7931 99.08C58.0065 98.8533 58.2798 98.74 58.6131 98.74C58.9198 98.74 59.1465 98.8 59.2931 98.92C59.4531 99.0267 59.6398 99.2133 59.8531 99.48L66.9931 108.74V99.96C66.9931 99.1467 67.3931 98.74 68.1931 98.74C68.9798 98.74 69.3731 99.1467 69.3731 99.96V111.96C69.3731 112.333 69.2798 112.627 69.0931 112.84C68.9065 113.053 68.6531 113.16 68.3331 113.16C68.0265 113.16 67.7798 113.1 67.5931 112.98C67.4198 112.86 67.2265 112.667 67.0131 112.4L59.8731 103.12V111.92C59.8731 112.747 59.4798 113.16 58.6931 113.16ZM79.4638 113C78.7304 113 78.3638 112.64 78.3638 111.92C78.3638 111.227 78.7304 110.88 79.4638 110.88H81.7038V101.82L80.0038 102.84C79.6838 103.027 79.3904 103.073 79.1238 102.98C78.8704 102.887 78.6771 102.72 78.5438 102.48C78.4104 102.24 78.3704 101.98 78.4238 101.7C78.4771 101.407 78.6638 101.167 78.9837 100.98L81.7438 99.32C82.0104 99.16 82.2771 99.0267 82.5438 98.92C82.8104 98.8 83.0571 98.74 83.2838 98.74C83.5638 98.74 83.7971 98.82 83.9838 98.98C84.1704 99.1267 84.2638 99.3733 84.2638 99.72V110.88H86.3038C87.0371 110.88 87.4038 111.227 87.4038 111.92C87.4038 112.64 87.0371 113 86.3038 113H79.4638ZM94.3359 113.2C92.6693 113.2 91.3959 112.573 90.5159 111.32C89.6359 110.053 89.1959 108.253 89.1959 105.92C89.1959 103.56 89.6359 101.767 90.5159 100.54C91.3959 99.3133 92.6693 98.7 94.3359 98.7C96.0159 98.7 97.2893 99.3133 98.1559 100.54C99.0359 101.767 99.4759 103.553 99.4759 105.9C99.4759 108.247 99.0359 110.053 98.1559 111.32C97.2759 112.573 96.0026 113.2 94.3359 113.2ZM94.3359 111.1C95.2426 111.1 95.9093 110.68 96.3359 109.84C96.7759 109 96.9959 107.687 96.9959 105.9C96.9959 104.113 96.7759 102.82 96.3359 102.02C95.9093 101.207 95.2426 100.8 94.3359 100.8C93.4426 100.8 92.7759 101.207 92.3359 102.02C91.8959 102.82 91.6759 104.113 91.6759 105.9C91.6759 107.687 91.8959 109 92.3359 109.84C92.7759 110.68 93.4426 111.1 94.3359 111.1ZM106.108 113.2C103.521 113.2 102.228 111.92 102.228 109.36V105.1H101.188C100.521 105.1 100.188 104.787 100.188 104.16C100.188 103.533 100.521 103.22 101.188 103.22H102.228V101.4C102.228 100.56 102.648 100.14 103.488 100.14C104.315 100.14 104.728 100.56 104.728 101.4V103.22H106.848C107.515 103.22 107.848 103.533 107.848 104.16C107.848 104.787 107.515 105.1 106.848 105.1H104.728V109.22C104.728 109.86 104.868 110.34 105.148 110.66C105.428 110.98 105.881 111.14 106.508 111.14C106.735 111.14 106.935 111.12 107.108 111.08C107.281 111.04 107.435 111.013 107.568 111C107.728 110.987 107.861 111.04 107.968 111.16C108.075 111.267 108.128 111.493 108.128 111.84C108.128 112.107 108.081 112.347 107.988 112.56C107.908 112.76 107.755 112.9 107.528 112.98C107.355 113.033 107.128 113.08 106.848 113.12C106.568 113.173 106.321 113.2 106.108 113.2ZM110.798 113.16C109.971 113.16 109.558 112.733 109.558 111.88V100C109.558 99.16 109.971 98.74 110.798 98.74C111.638 98.74 112.058 99.16 112.058 100V104.64C112.391 104.107 112.838 103.707 113.398 103.44C113.958 103.16 114.578 103.02 115.258 103.02C117.564 103.02 118.718 104.36 118.718 107.04V111.88C118.718 112.733 118.304 113.16 117.478 113.16C116.638 113.16 116.218 112.733 116.218 111.88V107.16C116.218 106.4 116.071 105.847 115.778 105.5C115.498 105.153 115.058 104.98 114.458 104.98C113.724 104.98 113.138 105.213 112.698 105.68C112.271 106.133 112.058 106.74 112.058 107.5V111.88C112.058 112.733 111.638 113.16 110.798 113.16Z" fill="#A9A8A8"/>
<path d="M34.92 181.14C34.5467 181.153 34.2533 181.053 34.04 180.84C33.8267 180.627 33.72 180.353 33.72 180.02C33.72 179.767 33.8 179.547 33.96 179.36C34.1067 179.16 34.3267 179.053 34.62 179.04L35.22 179C36.4067 178.92 37 178.267 37 177.04V168.04C37 167.173 37.4267 166.74 38.28 166.74C39.1333 166.74 39.56 167.173 39.56 168.04V177.02C39.56 178.273 39.2267 179.247 38.56 179.94C37.8933 180.633 36.9067 181.02 35.6 181.1L34.92 181.14ZM42.7503 181.16C42.2836 181.16 41.9503 181 41.7503 180.68C41.5503 180.36 41.557 179.973 41.7703 179.52L47.0503 167.82C47.2236 167.433 47.4303 167.16 47.6703 167C47.9236 166.827 48.2103 166.74 48.5303 166.74C48.837 166.74 49.1103 166.827 49.3503 167C49.6036 167.16 49.817 167.433 49.9903 167.82L55.2903 179.52C55.5036 179.987 55.517 180.38 55.3303 180.7C55.1436 181.007 54.8236 181.16 54.3703 181.16C53.997 181.16 53.7036 181.073 53.4903 180.9C53.2903 180.713 53.1103 180.433 52.9503 180.06L51.9503 177.74H45.0703L44.0903 180.06C43.917 180.447 43.737 180.727 43.5503 180.9C43.3636 181.073 43.097 181.16 42.7503 181.16ZM48.4903 169.68L45.9503 175.7H51.0703L48.5303 169.68H48.4903ZM58.6931 181.16C57.8931 181.16 57.4931 180.747 57.4931 179.92V168.02C57.4931 167.607 57.5931 167.293 57.7931 167.08C58.0065 166.853 58.2798 166.74 58.6131 166.74C58.9198 166.74 59.1465 166.8 59.2931 166.92C59.4531 167.027 59.6398 167.213 59.8531 167.48L66.9931 176.74V167.96C66.9931 167.147 67.3931 166.74 68.1931 166.74C68.9798 166.74 69.3731 167.147 69.3731 167.96V179.96C69.3731 180.333 69.2798 180.627 69.0931 180.84C68.9065 181.053 68.6531 181.16 68.3331 181.16C68.0265 181.16 67.7798 181.1 67.5931 180.98C67.4198 180.86 67.2265 180.667 67.0131 180.4L59.8731 171.12V179.92C59.8731 180.747 59.4798 181.16 58.6931 181.16ZM79.4638 181C78.7304 181 78.3638 180.64 78.3638 179.92C78.3638 179.227 78.7304 178.88 79.4638 178.88H81.7038V169.82L80.0038 170.84C79.6838 171.027 79.3904 171.073 79.1238 170.98C78.8704 170.887 78.6771 170.72 78.5438 170.48C78.4104 170.24 78.3704 169.98 78.4238 169.7C78.4771 169.407 78.6638 169.167 78.9837 168.98L81.7438 167.32C82.0104 167.16 82.2771 167.027 82.5438 166.92C82.8104 166.8 83.0571 166.74 83.2838 166.74C83.5638 166.74 83.7971 166.82 83.9838 166.98C84.1704 167.127 84.2638 167.373 84.2638 167.72V178.88H86.3038C87.0371 178.88 87.4038 179.227 87.4038 179.92C87.4038 180.64 87.0371 181 86.3038 181H79.4638ZM94.3359 181.2C92.6693 181.2 91.3959 180.573 90.5159 179.32C89.6359 178.053 89.1959 176.253 89.1959 173.92C89.1959 171.56 89.6359 169.767 90.5159 168.54C91.3959 167.313 92.6693 166.7 94.3359 166.7C96.0159 166.7 97.2893 167.313 98.1559 168.54C99.0359 169.767 99.4759 171.553 99.4759 173.9C99.4759 176.247 99.0359 178.053 98.1559 179.32C97.2759 180.573 96.0026 181.2 94.3359 181.2ZM94.3359 179.1C95.2426 179.1 95.9093 178.68 96.3359 177.84C96.7759 177 96.9959 175.687 96.9959 173.9C96.9959 172.113 96.7759 170.82 96.3359 170.02C95.9093 169.207 95.2426 168.8 94.3359 168.8C93.4426 168.8 92.7759 169.207 92.3359 170.02C91.8959 170.82 91.6759 172.113 91.6759 173.9C91.6759 175.687 91.8959 177 92.3359 177.84C92.7759 178.68 93.4426 179.1 94.3359 179.1ZM106.108 181.2C103.521 181.2 102.228 179.92 102.228 177.36V173.1H101.188C100.521 173.1 100.188 172.787 100.188 172.16C100.188 171.533 100.521 171.22 101.188 171.22H102.228V169.4C102.228 168.56 102.648 168.14 103.488 168.14C104.315 168.14 104.728 168.56 104.728 169.4V171.22H106.848C107.515 171.22 107.848 171.533 107.848 172.16C107.848 172.787 107.515 173.1 106.848 173.1H104.728V177.22C104.728 177.86 104.868 178.34 105.148 178.66C105.428 178.98 105.881 179.14 106.508 179.14C106.735 179.14 106.935 179.12 107.108 179.08C107.281 179.04 107.435 179.013 107.568 179C107.728 178.987 107.861 179.04 107.968 179.16C108.075 179.267 108.128 179.493 108.128 179.84C108.128 180.107 108.081 180.347 107.988 180.56C107.908 180.76 107.755 180.9 107.528 180.98C107.355 181.033 107.128 181.08 106.848 181.12C106.568 181.173 106.321 181.2 106.108 181.2ZM110.798 181.16C109.971 181.16 109.558 180.733 109.558 179.88V168C109.558 167.16 109.971 166.74 110.798 166.74C111.638 166.74 112.058 167.16 112.058 168V172.64C112.391 172.107 112.838 171.707 113.398 171.44C113.958 171.16 114.578 171.02 115.258 171.02C117.564 171.02 118.718 172.36 118.718 175.04V179.88C118.718 180.733 118.304 181.16 117.478 181.16C116.638 181.16 116.218 180.733 116.218 179.88V175.16C116.218 174.4 116.071 173.847 115.778 173.5C115.498 173.153 115.058 172.98 114.458 172.98C113.724 172.98 113.138 173.213 112.698 173.68C112.271 174.133 112.058 174.74 112.058 175.5V179.88C112.058 180.733 111.638 181.16 110.798 181.16Z" fill="#A9A8A8"/>
<path d="M34.92 249.14C34.5467 249.153 34.2533 249.053 34.04 248.84C33.8267 248.627 33.72 248.353 33.72 248.02C33.72 247.767 33.8 247.547 33.96 247.36C34.1067 247.16 34.3267 247.053 34.62 247.04L35.22 247C36.4067 246.92 37 246.267 37 245.04V236.04C37 235.173 37.4267 234.74 38.28 234.74C39.1333 234.74 39.56 235.173 39.56 236.04V245.02C39.56 246.273 39.2267 247.247 38.56 247.94C37.8933 248.633 36.9067 249.02 35.6 249.1L34.92 249.14ZM42.7503 249.16C42.2836 249.16 41.9503 249 41.7503 248.68C41.5503 248.36 41.557 247.973 41.7703 247.52L47.0503 235.82C47.2236 235.433 47.4303 235.16 47.6703 235C47.9236 234.827 48.2103 234.74 48.5303 234.74C48.837 234.74 49.1103 234.827 49.3503 235C49.6036 235.16 49.817 235.433 49.9903 235.82L55.2903 247.52C55.5036 247.987 55.517 248.38 55.3303 248.7C55.1436 249.007 54.8236 249.16 54.3703 249.16C53.997 249.16 53.7036 249.073 53.4903 248.9C53.2903 248.713 53.1103 248.433 52.9503 248.06L51.9503 245.74H45.0703L44.0903 248.06C43.917 248.447 43.737 248.727 43.5503 248.9C43.3636 249.073 43.097 249.16 42.7503 249.16ZM48.4903 237.68L45.9503 243.7H51.0703L48.5303 237.68H48.4903ZM58.6931 249.16C57.8931 249.16 57.4931 248.747 57.4931 247.92V236.02C57.4931 235.607 57.5931 235.293 57.7931 235.08C58.0065 234.853 58.2798 234.74 58.6131 234.74C58.9198 234.74 59.1465 234.8 59.2931 234.92C59.4531 235.027 59.6398 235.213 59.8531 235.48L66.9931 244.74V235.96C66.9931 235.147 67.3931 234.74 68.1931 234.74C68.9798 234.74 69.3731 235.147 69.3731 235.96V247.96C69.3731 248.333 69.2798 248.627 69.0931 248.84C68.9065 249.053 68.6531 249.16 68.3331 249.16C68.0265 249.16 67.7798 249.1 67.5931 248.98C67.4198 248.86 67.2265 248.667 67.0131 248.4L59.8731 239.12V247.92C59.8731 248.747 59.4798 249.16 58.6931 249.16ZM79.4638 249C78.7304 249 78.3638 248.64 78.3638 247.92C78.3638 247.227 78.7304 246.88 79.4638 246.88H81.7038V237.82L80.0038 238.84C79.6838 239.027 79.3904 239.073 79.1238 238.98C78.8704 238.887 78.6771 238.72 78.5438 238.48C78.4104 238.24 78.3704 237.98 78.4238 237.7C78.4771 237.407 78.6638 237.167 78.9837 236.98L81.7438 235.32C82.0104 235.16 82.2771 235.027 82.5438 234.92C82.8104 234.8 83.0571 234.74 83.2838 234.74C83.5638 234.74 83.7971 234.82 83.9838 234.98C84.1704 235.127 84.2638 235.373 84.2638 235.72V246.88H86.3038C87.0371 246.88 87.4038 247.227 87.4038 247.92C87.4038 248.64 87.0371 249 86.3038 249H79.4638ZM94.3359 249.2C92.6693 249.2 91.3959 248.573 90.5159 247.32C89.6359 246.053 89.1959 244.253 89.1959 241.92C89.1959 239.56 89.6359 237.767 90.5159 236.54C91.3959 235.313 92.6693 234.7 94.3359 234.7C96.0159 234.7 97.2893 235.313 98.1559 236.54C99.0359 237.767 99.4759 239.553 99.4759 241.9C99.4759 244.247 99.0359 246.053 98.1559 247.32C97.2759 248.573 96.0026 249.2 94.3359 249.2ZM94.3359 247.1C95.2426 247.1 95.9093 246.68 96.3359 245.84C96.7759 245 96.9959 243.687 96.9959 241.9C96.9959 240.113 96.7759 238.82 96.3359 238.02C95.9093 237.207 95.2426 236.8 94.3359 236.8C93.4426 236.8 92.7759 237.207 92.3359 238.02C91.8959 238.82 91.6759 240.113 91.6759 241.9C91.6759 243.687 91.8959 245 92.3359 245.84C92.7759 246.68 93.4426 247.1 94.3359 247.1ZM106.108 249.2C103.521 249.2 102.228 247.92 102.228 245.36V241.1H101.188C100.521 241.1 100.188 240.787 100.188 240.16C100.188 239.533 100.521 239.22 101.188 239.22H102.228V237.4C102.228 236.56 102.648 236.14 103.488 236.14C104.315 236.14 104.728 236.56 104.728 237.4V239.22H106.848C107.515 239.22 107.848 239.533 107.848 240.16C107.848 240.787 107.515 241.1 106.848 241.1H104.728V245.22C104.728 245.86 104.868 246.34 105.148 246.66C105.428 246.98 105.881 247.14 106.508 247.14C106.735 247.14 106.935 247.12 107.108 247.08C107.281 247.04 107.435 247.013 107.568 247C107.728 246.987 107.861 247.04 107.968 247.16C108.075 247.267 108.128 247.493 108.128 247.84C108.128 248.107 108.081 248.347 107.988 248.56C107.908 248.76 107.755 248.9 107.528 248.98C107.355 249.033 107.128 249.08 106.848 249.12C106.568 249.173 106.321 249.2 106.108 249.2ZM110.798 249.16C109.971 249.16 109.558 248.733 109.558 247.88V236C109.558 235.16 109.971 234.74 110.798 234.74C111.638 234.74 112.058 235.16 112.058 236V240.64C112.391 240.107 112.838 239.707 113.398 239.44C113.958 239.16 114.578 239.02 115.258 239.02C117.564 239.02 118.718 240.36 118.718 243.04V247.88C118.718 248.733 118.304 249.16 117.478 249.16C116.638 249.16 116.218 248.733 116.218 247.88V243.16C116.218 242.4 116.071 241.847 115.778 241.5C115.498 241.153 115.058 240.98 114.458 240.98C113.724 240.98 113.138 241.213 112.698 241.68C112.271 242.133 112.058 242.74 112.058 243.5V247.88C112.058 248.733 111.638 249.16 110.798 249.16Z" fill="#A9A8A8"/>
<path d="M186.74 45.16C185.967 45.16 185.58 44.76 185.58 43.96V31.94C185.58 31.14 185.98 30.74 186.78 30.74C187.113 30.74 187.373 30.8067 187.56 30.94C187.76 31.06 187.94 31.2733 188.1 31.58L192.72 40.12L197.34 31.58C197.5 31.2733 197.673 31.06 197.86 30.94C198.047 30.8067 198.307 30.74 198.64 30.74C199.413 30.74 199.8 31.14 199.8 31.94V43.96C199.8 44.76 199.413 45.16 198.64 45.16C197.867 45.16 197.48 44.76 197.48 43.96V35.5L193.72 42.36C193.587 42.5867 193.447 42.7533 193.3 42.86C193.153 42.9667 192.953 43.02 192.7 43.02C192.447 43.02 192.24 42.9667 192.08 42.86C191.92 42.74 191.78 42.5733 191.66 42.36L187.9 35.54V43.96C187.9 44.76 187.513 45.16 186.74 45.16ZM209.223 45.2C207.863 45.2 206.67 44.9 205.643 44.3C204.63 43.7 203.843 42.86 203.283 41.78C202.723 40.6867 202.443 39.4067 202.443 37.94C202.443 36.46 202.723 35.18 203.283 34.1C203.843 33.02 204.63 32.1867 205.643 31.6C206.657 31 207.85 30.7 209.223 30.7C210.597 30.7 211.79 31 212.803 31.6C213.817 32.1867 214.603 33.02 215.163 34.1C215.723 35.18 216.003 36.4533 216.003 37.92C216.003 39.4 215.723 40.6867 215.163 41.78C214.603 42.86 213.817 43.7 212.803 44.3C211.79 44.9 210.597 45.2 209.223 45.2ZM209.223 43C210.517 43 211.523 42.5533 212.243 41.66C212.963 40.7667 213.323 39.5267 213.323 37.94C213.323 36.34 212.963 35.1 212.243 34.22C211.537 33.34 210.53 32.9 209.223 32.9C207.93 32.9 206.923 33.34 206.203 34.22C205.483 35.1 205.123 36.34 205.123 37.94C205.123 39.5267 205.483 40.7667 206.203 41.66C206.923 42.5533 207.93 43 209.223 43ZM219.806 45.16C219.006 45.16 218.606 44.7467 218.606 43.92V32.02C218.606 31.6067 218.706 31.2933 218.906 31.08C219.12 30.8533 219.393 30.74 219.726 30.74C220.033 30.74 220.26 30.8 220.406 30.92C220.566 31.0267 220.753 31.2133 220.966 31.48L228.106 40.74V31.96C228.106 31.1467 228.506 30.74 229.306 30.74C230.093 30.74 230.486 31.1467 230.486 31.96V43.96C230.486 44.3333 230.393 44.6267 230.206 44.84C230.02 45.0533 229.766 45.16 229.446 45.16C229.14 45.16 228.893 45.1 228.706 44.98C228.533 44.86 228.34 44.6667 228.126 44.4L220.986 35.12V43.92C220.986 44.7467 220.593 45.16 219.806 45.16ZM243.237 45.2C240.65 45.2 239.357 43.92 239.357 41.36V37.1H238.317C237.65 37.1 237.317 36.7867 237.317 36.16C237.317 35.5333 237.65 35.22 238.317 35.22H239.357V33.4C239.357 32.56 239.777 32.14 240.617 32.14C241.444 32.14 241.857 32.56 241.857 33.4V35.22H243.977C244.644 35.22 244.977 35.5333 244.977 36.16C244.977 36.7867 244.644 37.1 243.977 37.1H241.857V41.22C241.857 41.86 241.997 42.34 242.277 42.66C242.557 42.98 243.01 43.14 243.637 43.14C243.864 43.14 244.064 43.12 244.237 43.08C244.41 43.04 244.564 43.0133 244.697 43C244.857 42.9867 244.99 43.04 245.097 43.16C245.204 43.2667 245.257 43.4933 245.257 43.84C245.257 44.1067 245.21 44.3467 245.117 44.56C245.037 44.76 244.884 44.9 244.657 44.98C244.484 45.0333 244.257 45.08 243.977 45.12C243.697 45.1733 243.45 45.2 243.237 45.2ZM250.795 45.2C249.782 45.2 248.902 44.9933 248.155 44.58C247.408 44.1667 246.828 43.58 246.415 42.82C246.002 42.0467 245.795 41.14 245.795 40.1C245.795 39.06 246.002 38.16 246.415 37.4C246.828 36.64 247.408 36.0533 248.155 35.64C248.902 35.2267 249.782 35.02 250.795 35.02C251.808 35.02 252.688 35.2267 253.435 35.64C254.182 36.0533 254.762 36.64 255.175 37.4C255.588 38.16 255.795 39.06 255.795 40.1C255.795 41.14 255.588 42.0467 255.175 42.82C254.762 43.58 254.182 44.1667 253.435 44.58C252.688 44.9933 251.808 45.2 250.795 45.2ZM250.795 43.3C251.542 43.3 252.142 43.0333 252.595 42.5C253.048 41.9533 253.275 41.1533 253.275 40.1C253.275 39.0333 253.048 38.24 252.595 37.72C252.142 37.1867 251.542 36.92 250.795 36.92C250.048 36.92 249.448 37.1867 248.995 37.72C248.542 38.24 248.315 39.0333 248.315 40.1C248.315 41.1533 248.542 41.9533 248.995 42.5C249.448 43.0333 250.048 43.3 250.795 43.3ZM264.848 45.16C263.968 45.16 263.528 44.7067 263.528 43.8V32.26C263.528 31.3533 263.982 30.9 264.888 30.9H271.868C272.562 30.9 272.908 31.2333 272.908 31.9C272.908 32.5933 272.562 32.94 271.868 32.94H266.088V36.92H271.448C272.142 36.92 272.488 37.2533 272.488 37.92C272.488 38.6133 272.142 38.96 271.448 38.96H266.088V43.8C266.088 44.7067 265.675 45.16 264.848 45.16ZM276.039 45.16C275.185 45.16 274.759 44.72 274.759 43.84V32.2C274.759 31.3333 275.192 30.9 276.059 30.9H280.879C282.425 30.9 283.619 31.2733 284.459 32.02C285.299 32.7533 285.719 33.7867 285.719 35.12C285.719 36.1733 285.445 37.0467 284.899 37.74C284.352 38.42 283.565 38.88 282.539 39.12C283.219 39.3333 283.779 39.8467 284.219 40.66L285.719 43.44C285.945 43.8667 285.985 44.26 285.839 44.62C285.705 44.98 285.365 45.16 284.819 45.16C284.459 45.16 284.165 45.0867 283.939 44.94C283.712 44.78 283.512 44.54 283.339 44.22L281.319 40.5C281.079 40.0467 280.792 39.7467 280.459 39.6C280.139 39.44 279.725 39.36 279.219 39.36H277.319V43.84C277.319 44.72 276.892 45.16 276.039 45.16ZM277.319 37.46H280.439C282.305 37.46 283.239 36.7 283.239 35.18C283.239 33.6733 282.305 32.92 280.439 32.92H277.319V37.46ZM289.75 45.16C288.896 45.16 288.47 44.72 288.47 43.84V32.06C288.47 31.18 288.896 30.74 289.75 30.74C290.603 30.74 291.03 31.18 291.03 32.06V43.84C291.03 44.72 290.603 45.16 289.75 45.16Z" fill="#A9A8A8"/>
<path d="M186.74 113.16C185.967 113.16 185.58 112.76 185.58 111.96V99.94C185.58 99.14 185.98 98.74 186.78 98.74C187.113 98.74 187.373 98.8067 187.56 98.94C187.76 99.06 187.94 99.2733 188.1 99.58L192.72 108.12L197.34 99.58C197.5 99.2733 197.673 99.06 197.86 98.94C198.047 98.8067 198.307 98.74 198.64 98.74C199.413 98.74 199.8 99.14 199.8 99.94V111.96C199.8 112.76 199.413 113.16 198.64 113.16C197.867 113.16 197.48 112.76 197.48 111.96V103.5L193.72 110.36C193.587 110.587 193.447 110.753 193.3 110.86C193.153 110.967 192.953 111.02 192.7 111.02C192.447 111.02 192.24 110.967 192.08 110.86C191.92 110.74 191.78 110.573 191.66 110.36L187.9 103.54V111.96C187.9 112.76 187.513 113.16 186.74 113.16ZM209.223 113.2C207.863 113.2 206.67 112.9 205.643 112.3C204.63 111.7 203.843 110.86 203.283 109.78C202.723 108.687 202.443 107.407 202.443 105.94C202.443 104.46 202.723 103.18 203.283 102.1C203.843 101.02 204.63 100.187 205.643 99.6C206.657 99 207.85 98.7 209.223 98.7C210.597 98.7 211.79 99 212.803 99.6C213.817 100.187 214.603 101.02 215.163 102.1C215.723 103.18 216.003 104.453 216.003 105.92C216.003 107.4 215.723 108.687 215.163 109.78C214.603 110.86 213.817 111.7 212.803 112.3C211.79 112.9 210.597 113.2 209.223 113.2ZM209.223 111C210.517 111 211.523 110.553 212.243 109.66C212.963 108.767 213.323 107.527 213.323 105.94C213.323 104.34 212.963 103.1 212.243 102.22C211.537 101.34 210.53 100.9 209.223 100.9C207.93 100.9 206.923 101.34 206.203 102.22C205.483 103.1 205.123 104.34 205.123 105.94C205.123 107.527 205.483 108.767 206.203 109.66C206.923 110.553 207.93 111 209.223 111ZM219.806 113.16C219.006 113.16 218.606 112.747 218.606 111.92V100.02C218.606 99.6067 218.706 99.2933 218.906 99.08C219.12 98.8533 219.393 98.74 219.726 98.74C220.033 98.74 220.26 98.8 220.406 98.92C220.566 99.0267 220.753 99.2133 220.966 99.48L228.106 108.74V99.96C228.106 99.1467 228.506 98.74 229.306 98.74C230.093 98.74 230.486 99.1467 230.486 99.96V111.96C230.486 112.333 230.393 112.627 230.206 112.84C230.02 113.053 229.766 113.16 229.446 113.16C229.14 113.16 228.893 113.1 228.706 112.98C228.533 112.86 228.34 112.667 228.126 112.4L220.986 103.12V111.92C220.986 112.747 220.593 113.16 219.806 113.16ZM243.237 113.2C240.65 113.2 239.357 111.92 239.357 109.36V105.1H238.317C237.65 105.1 237.317 104.787 237.317 104.16C237.317 103.533 237.65 103.22 238.317 103.22H239.357V101.4C239.357 100.56 239.777 100.14 240.617 100.14C241.444 100.14 241.857 100.56 241.857 101.4V103.22H243.977C244.644 103.22 244.977 103.533 244.977 104.16C244.977 104.787 244.644 105.1 243.977 105.1H241.857V109.22C241.857 109.86 241.997 110.34 242.277 110.66C242.557 110.98 243.01 111.14 243.637 111.14C243.864 111.14 244.064 111.12 244.237 111.08C244.41 111.04 244.564 111.013 244.697 111C244.857 110.987 244.99 111.04 245.097 111.16C245.204 111.267 245.257 111.493 245.257 111.84C245.257 112.107 245.21 112.347 245.117 112.56C245.037 112.76 244.884 112.9 244.657 112.98C244.484 113.033 244.257 113.08 243.977 113.12C243.697 113.173 243.45 113.2 243.237 113.2ZM250.795 113.2C249.782 113.2 248.902 112.993 248.155 112.58C247.408 112.167 246.828 111.58 246.415 110.82C246.002 110.047 245.795 109.14 245.795 108.1C245.795 107.06 246.002 106.16 246.415 105.4C246.828 104.64 247.408 104.053 248.155 103.64C248.902 103.227 249.782 103.02 250.795 103.02C251.808 103.02 252.688 103.227 253.435 103.64C254.182 104.053 254.762 104.64 255.175 105.4C255.588 106.16 255.795 107.06 255.795 108.1C255.795 109.14 255.588 110.047 255.175 110.82C254.762 111.58 254.182 112.167 253.435 112.58C252.688 112.993 251.808 113.2 250.795 113.2ZM250.795 111.3C251.542 111.3 252.142 111.033 252.595 110.5C253.048 109.953 253.275 109.153 253.275 108.1C253.275 107.033 253.048 106.24 252.595 105.72C252.142 105.187 251.542 104.92 250.795 104.92C250.048 104.92 249.448 105.187 248.995 105.72C248.542 106.24 248.315 107.033 248.315 108.1C248.315 109.153 248.542 109.953 248.995 110.5C249.448 111.033 250.048 111.3 250.795 111.3ZM264.848 113.16C263.968 113.16 263.528 112.707 263.528 111.8V100.26C263.528 99.3533 263.982 98.9 264.888 98.9H271.868C272.562 98.9 272.908 99.2333 272.908 99.9C272.908 100.593 272.562 100.94 271.868 100.94H266.088V104.92H271.448C272.142 104.92 272.488 105.253 272.488 105.92C272.488 106.613 272.142 106.96 271.448 106.96H266.088V111.8C266.088 112.707 265.675 113.16 264.848 113.16ZM276.039 113.16C275.185 113.16 274.759 112.72 274.759 111.84V100.2C274.759 99.3333 275.192 98.9 276.059 98.9H280.879C282.425 98.9 283.619 99.2733 284.459 100.02C285.299 100.753 285.719 101.787 285.719 103.12C285.719 104.173 285.445 105.047 284.899 105.74C284.352 106.42 283.565 106.88 282.539 107.12C283.219 107.333 283.779 107.847 284.219 108.66L285.719 111.44C285.945 111.867 285.985 112.26 285.839 112.62C285.705 112.98 285.365 113.16 284.819 113.16C284.459 113.16 284.165 113.087 283.939 112.94C283.712 112.78 283.512 112.54 283.339 112.22L281.319 108.5C281.079 108.047 280.792 107.747 280.459 107.6C280.139 107.44 279.725 107.36 279.219 107.36H277.319V111.84C277.319 112.72 276.892 113.16 276.039 113.16ZM277.319 105.46H280.439C282.305 105.46 283.239 104.7 283.239 103.18C283.239 101.673 282.305 100.92 280.439 100.92H277.319V105.46ZM289.75 113.16C288.896 113.16 288.47 112.72 288.47 111.84V100.06C288.47 99.18 288.896 98.74 289.75 98.74C290.603 98.74 291.03 99.18 291.03 100.06V111.84C291.03 112.72 290.603 113.16 289.75 113.16Z" fill="#A9A8A8"/>
<path d="M186.74 181.16C185.967 181.16 185.58 180.76 185.58 179.96V167.94C185.58 167.14 185.98 166.74 186.78 166.74C187.113 166.74 187.373 166.807 187.56 166.94C187.76 167.06 187.94 167.273 188.1 167.58L192.72 176.12L197.34 167.58C197.5 167.273 197.673 167.06 197.86 166.94C198.047 166.807 198.307 166.74 198.64 166.74C199.413 166.74 199.8 167.14 199.8 167.94V179.96C199.8 180.76 199.413 181.16 198.64 181.16C197.867 181.16 197.48 180.76 197.48 179.96V171.5L193.72 178.36C193.587 178.587 193.447 178.753 193.3 178.86C193.153 178.967 192.953 179.02 192.7 179.02C192.447 179.02 192.24 178.967 192.08 178.86C191.92 178.74 191.78 178.573 191.66 178.36L187.9 171.54V179.96C187.9 180.76 187.513 181.16 186.74 181.16ZM209.223 181.2C207.863 181.2 206.67 180.9 205.643 180.3C204.63 179.7 203.843 178.86 203.283 177.78C202.723 176.687 202.443 175.407 202.443 173.94C202.443 172.46 202.723 171.18 203.283 170.1C203.843 169.02 204.63 168.187 205.643 167.6C206.657 167 207.85 166.7 209.223 166.7C210.597 166.7 211.79 167 212.803 167.6C213.817 168.187 214.603 169.02 215.163 170.1C215.723 171.18 216.003 172.453 216.003 173.92C216.003 175.4 215.723 176.687 215.163 177.78C214.603 178.86 213.817 179.7 212.803 180.3C211.79 180.9 210.597 181.2 209.223 181.2ZM209.223 179C210.517 179 211.523 178.553 212.243 177.66C212.963 176.767 213.323 175.527 213.323 173.94C213.323 172.34 212.963 171.1 212.243 170.22C211.537 169.34 210.53 168.9 209.223 168.9C207.93 168.9 206.923 169.34 206.203 170.22C205.483 171.1 205.123 172.34 205.123 173.94C205.123 175.527 205.483 176.767 206.203 177.66C206.923 178.553 207.93 179 209.223 179ZM219.806 181.16C219.006 181.16 218.606 180.747 218.606 179.92V168.02C218.606 167.607 218.706 167.293 218.906 167.08C219.12 166.853 219.393 166.74 219.726 166.74C220.033 166.74 220.26 166.8 220.406 166.92C220.566 167.027 220.753 167.213 220.966 167.48L228.106 176.74V167.96C228.106 167.147 228.506 166.74 229.306 166.74C230.093 166.74 230.486 167.147 230.486 167.96V179.96C230.486 180.333 230.393 180.627 230.206 180.84C230.02 181.053 229.766 181.16 229.446 181.16C229.14 181.16 228.893 181.1 228.706 180.98C228.533 180.86 228.34 180.667 228.126 180.4L220.986 171.12V179.92C220.986 180.747 220.593 181.16 219.806 181.16ZM243.237 181.2C240.65 181.2 239.357 179.92 239.357 177.36V173.1H238.317C237.65 173.1 237.317 172.787 237.317 172.16C237.317 171.533 237.65 171.22 238.317 171.22H239.357V169.4C239.357 168.56 239.777 168.14 240.617 168.14C241.444 168.14 241.857 168.56 241.857 169.4V171.22H243.977C244.644 171.22 244.977 171.533 244.977 172.16C244.977 172.787 244.644 173.1 243.977 173.1H241.857V177.22C241.857 177.86 241.997 178.34 242.277 178.66C242.557 178.98 243.01 179.14 243.637 179.14C243.864 179.14 244.064 179.12 244.237 179.08C244.41 179.04 244.564 179.013 244.697 179C244.857 178.987 244.99 179.04 245.097 179.16C245.204 179.267 245.257 179.493 245.257 179.84C245.257 180.107 245.21 180.347 245.117 180.56C245.037 180.76 244.884 180.9 244.657 180.98C244.484 181.033 244.257 181.08 243.977 181.12C243.697 181.173 243.45 181.2 243.237 181.2ZM250.795 181.2C249.782 181.2 248.902 180.993 248.155 180.58C247.408 180.167 246.828 179.58 246.415 178.82C246.002 178.047 245.795 177.14 245.795 176.1C245.795 175.06 246.002 174.16 246.415 173.4C246.828 172.64 247.408 172.053 248.155 171.64C248.902 171.227 249.782 171.02 250.795 171.02C251.808 171.02 252.688 171.227 253.435 171.64C254.182 172.053 254.762 172.64 255.175 173.4C255.588 174.16 255.795 175.06 255.795 176.1C255.795 177.14 255.588 178.047 255.175 178.82C254.762 179.58 254.182 180.167 253.435 180.58C252.688 180.993 251.808 181.2 250.795 181.2ZM250.795 179.3C251.542 179.3 252.142 179.033 252.595 178.5C253.048 177.953 253.275 177.153 253.275 176.1C253.275 175.033 253.048 174.24 252.595 173.72C252.142 173.187 251.542 172.92 250.795 172.92C250.048 172.92 249.448 173.187 248.995 173.72C248.542 174.24 248.315 175.033 248.315 176.1C248.315 177.153 248.542 177.953 248.995 178.5C249.448 179.033 250.048 179.3 250.795 179.3ZM264.848 181.16C263.968 181.16 263.528 180.707 263.528 179.8V168.26C263.528 167.353 263.982 166.9 264.888 166.9H271.868C272.562 166.9 272.908 167.233 272.908 167.9C272.908 168.593 272.562 168.94 271.868 168.94H266.088V172.92H271.448C272.142 172.92 272.488 173.253 272.488 173.92C272.488 174.613 272.142 174.96 271.448 174.96H266.088V179.8C266.088 180.707 265.675 181.16 264.848 181.16ZM276.039 181.16C275.185 181.16 274.759 180.72 274.759 179.84V168.2C274.759 167.333 275.192 166.9 276.059 166.9H280.879C282.425 166.9 283.619 167.273 284.459 168.02C285.299 168.753 285.719 169.787 285.719 171.12C285.719 172.173 285.445 173.047 284.899 173.74C284.352 174.42 283.565 174.88 282.539 175.12C283.219 175.333 283.779 175.847 284.219 176.66L285.719 179.44C285.945 179.867 285.985 180.26 285.839 180.62C285.705 180.98 285.365 181.16 284.819 181.16C284.459 181.16 284.165 181.087 283.939 180.94C283.712 180.78 283.512 180.54 283.339 180.22L281.319 176.5C281.079 176.047 280.792 175.747 280.459 175.6C280.139 175.44 279.725 175.36 279.219 175.36H277.319V179.84C277.319 180.72 276.892 181.16 276.039 181.16ZM277.319 173.46H280.439C282.305 173.46 283.239 172.7 283.239 171.18C283.239 169.673 282.305 168.92 280.439 168.92H277.319V173.46ZM289.75 181.16C288.896 181.16 288.47 180.72 288.47 179.84V168.06C288.47 167.18 288.896 166.74 289.75 166.74C290.603 166.74 291.03 167.18 291.03 168.06V179.84C291.03 180.72 290.603 181.16 289.75 181.16Z" fill="#A9A8A8"/>
<path d="M186.74 249.16C185.967 249.16 185.58 248.76 185.58 247.96V235.94C185.58 235.14 185.98 234.74 186.78 234.74C187.113 234.74 187.373 234.807 187.56 234.94C187.76 235.06 187.94 235.273 188.1 235.58L192.72 244.12L197.34 235.58C197.5 235.273 197.673 235.06 197.86 234.94C198.047 234.807 198.307 234.74 198.64 234.74C199.413 234.74 199.8 235.14 199.8 235.94V247.96C199.8 248.76 199.413 249.16 198.64 249.16C197.867 249.16 197.48 248.76 197.48 247.96V239.5L193.72 246.36C193.587 246.587 193.447 246.753 193.3 246.86C193.153 246.967 192.953 247.02 192.7 247.02C192.447 247.02 192.24 246.967 192.08 246.86C191.92 246.74 191.78 246.573 191.66 246.36L187.9 239.54V247.96C187.9 248.76 187.513 249.16 186.74 249.16ZM209.223 249.2C207.863 249.2 206.67 248.9 205.643 248.3C204.63 247.7 203.843 246.86 203.283 245.78C202.723 244.687 202.443 243.407 202.443 241.94C202.443 240.46 202.723 239.18 203.283 238.1C203.843 237.02 204.63 236.187 205.643 235.6C206.657 235 207.85 234.7 209.223 234.7C210.597 234.7 211.79 235 212.803 235.6C213.817 236.187 214.603 237.02 215.163 238.1C215.723 239.18 216.003 240.453 216.003 241.92C216.003 243.4 215.723 244.687 215.163 245.78C214.603 246.86 213.817 247.7 212.803 248.3C211.79 248.9 210.597 249.2 209.223 249.2ZM209.223 247C210.517 247 211.523 246.553 212.243 245.66C212.963 244.767 213.323 243.527 213.323 241.94C213.323 240.34 212.963 239.1 212.243 238.22C211.537 237.34 210.53 236.9 209.223 236.9C207.93 236.9 206.923 237.34 206.203 238.22C205.483 239.1 205.123 240.34 205.123 241.94C205.123 243.527 205.483 244.767 206.203 245.66C206.923 246.553 207.93 247 209.223 247ZM219.806 249.16C219.006 249.16 218.606 248.747 218.606 247.92V236.02C218.606 235.607 218.706 235.293 218.906 235.08C219.12 234.853 219.393 234.74 219.726 234.74C220.033 234.74 220.26 234.8 220.406 234.92C220.566 235.027 220.753 235.213 220.966 235.48L228.106 244.74V235.96C228.106 235.147 228.506 234.74 229.306 234.74C230.093 234.74 230.486 235.147 230.486 235.96V247.96C230.486 248.333 230.393 248.627 230.206 248.84C230.02 249.053 229.766 249.16 229.446 249.16C229.14 249.16 228.893 249.1 228.706 248.98C228.533 248.86 228.34 248.667 228.126 248.4L220.986 239.12V247.92C220.986 248.747 220.593 249.16 219.806 249.16ZM243.237 249.2C240.65 249.2 239.357 247.92 239.357 245.36V241.1H238.317C237.65 241.1 237.317 240.787 237.317 240.16C237.317 239.533 237.65 239.22 238.317 239.22H239.357V237.4C239.357 236.56 239.777 236.14 240.617 236.14C241.444 236.14 241.857 236.56 241.857 237.4V239.22H243.977C244.644 239.22 244.977 239.533 244.977 240.16C244.977 240.787 244.644 241.1 243.977 241.1H241.857V245.22C241.857 245.86 241.997 246.34 242.277 246.66C242.557 246.98 243.01 247.14 243.637 247.14C243.864 247.14 244.064 247.12 244.237 247.08C244.41 247.04 244.564 247.013 244.697 247C244.857 246.987 244.99 247.04 245.097 247.16C245.204 247.267 245.257 247.493 245.257 247.84C245.257 248.107 245.21 248.347 245.117 248.56C245.037 248.76 244.884 248.9 244.657 248.98C244.484 249.033 244.257 249.08 243.977 249.12C243.697 249.173 243.45 249.2 243.237 249.2ZM250.795 249.2C249.782 249.2 248.902 248.993 248.155 248.58C247.408 248.167 246.828 247.58 246.415 246.82C246.002 246.047 245.795 245.14 245.795 244.1C245.795 243.06 246.002 242.16 246.415 241.4C246.828 240.64 247.408 240.053 248.155 239.64C248.902 239.227 249.782 239.02 250.795 239.02C251.808 239.02 252.688 239.227 253.435 239.64C254.182 240.053 254.762 240.64 255.175 241.4C255.588 242.16 255.795 243.06 255.795 244.1C255.795 245.14 255.588 246.047 255.175 246.82C254.762 247.58 254.182 248.167 253.435 248.58C252.688 248.993 251.808 249.2 250.795 249.2ZM250.795 247.3C251.542 247.3 252.142 247.033 252.595 246.5C253.048 245.953 253.275 245.153 253.275 244.1C253.275 243.033 253.048 242.24 252.595 241.72C252.142 241.187 251.542 240.92 250.795 240.92C250.048 240.92 249.448 241.187 248.995 241.72C248.542 242.24 248.315 243.033 248.315 244.1C248.315 245.153 248.542 245.953 248.995 246.5C249.448 247.033 250.048 247.3 250.795 247.3ZM264.848 249.16C263.968 249.16 263.528 248.707 263.528 247.8V236.26C263.528 235.353 263.982 234.9 264.888 234.9H271.868C272.562 234.9 272.908 235.233 272.908 235.9C272.908 236.593 272.562 236.94 271.868 236.94H266.088V240.92H271.448C272.142 240.92 272.488 241.253 272.488 241.92C272.488 242.613 272.142 242.96 271.448 242.96H266.088V247.8C266.088 248.707 265.675 249.16 264.848 249.16ZM276.039 249.16C275.185 249.16 274.759 248.72 274.759 247.84V236.2C274.759 235.333 275.192 234.9 276.059 234.9H280.879C282.425 234.9 283.619 235.273 284.459 236.02C285.299 236.753 285.719 237.787 285.719 239.12C285.719 240.173 285.445 241.047 284.899 241.74C284.352 242.42 283.565 242.88 282.539 243.12C283.219 243.333 283.779 243.847 284.219 244.66L285.719 247.44C285.945 247.867 285.985 248.26 285.839 248.62C285.705 248.98 285.365 249.16 284.819 249.16C284.459 249.16 284.165 249.087 283.939 248.94C283.712 248.78 283.512 248.54 283.339 248.22L281.319 244.5C281.079 244.047 280.792 243.747 280.459 243.6C280.139 243.44 279.725 243.36 279.219 243.36H277.319V247.84C277.319 248.72 276.892 249.16 276.039 249.16ZM277.319 241.46H280.439C282.305 241.46 283.239 240.7 283.239 239.18C283.239 237.673 282.305 236.92 280.439 236.92H277.319V241.46ZM289.75 249.16C288.896 249.16 288.47 248.72 288.47 247.84V236.06C288.47 235.18 288.896 234.74 289.75 234.74C290.603 234.74 291.03 235.18 291.03 236.06V247.84C291.03 248.72 290.603 249.16 289.75 249.16Z" fill="#A9A8A8"/>
<path d="M401.22 45.16C400.367 45.16 399.94 44.72 399.94 43.84V33.04H396.04C395.307 33.04 394.94 32.68 394.94 31.96C394.94 31.2533 395.307 30.9 396.04 30.9H406.4C407.133 30.9 407.5 31.2533 407.5 31.96C407.5 32.68 407.133 33.04 406.4 33.04H402.5V43.84C402.5 44.72 402.073 45.16 401.22 45.16ZM411.056 33.22C410.589 33.22 410.222 33.1067 409.956 32.88C409.702 32.64 409.576 32.3133 409.576 31.9C409.576 31.4733 409.702 31.1467 409.956 30.92C410.222 30.6933 410.589 30.58 411.056 30.58C412.042 30.58 412.536 31.02 412.536 31.9C412.536 32.78 412.042 33.22 411.056 33.22ZM411.056 45.14C410.656 45.14 410.349 45.02 410.136 44.78C409.922 44.54 409.816 44.2067 409.816 43.78V36.44C409.816 35.5333 410.229 35.08 411.056 35.08C411.896 35.08 412.316 35.5333 412.316 36.44V43.78C412.316 44.2067 412.209 44.54 411.996 44.78C411.782 45.02 411.469 45.14 411.056 45.14ZM416.193 45.16C415.367 45.16 414.953 44.7333 414.953 43.88V36.32C414.953 35.48 415.36 35.06 416.173 35.06C416.987 35.06 417.393 35.48 417.393 36.32V36.72C417.687 36.1867 418.093 35.7733 418.613 35.48C419.133 35.1733 419.733 35.02 420.413 35.02C421.88 35.02 422.84 35.66 423.293 36.94C423.6 36.34 424.04 35.8733 424.613 35.54C425.187 35.1933 425.84 35.02 426.573 35.02C428.773 35.02 429.873 36.36 429.873 39.04V43.88C429.873 44.7333 429.453 45.16 428.613 45.16C427.787 45.16 427.373 44.7333 427.373 43.88V39.14C427.373 38.3933 427.247 37.8467 426.993 37.5C426.753 37.1533 426.34 36.98 425.753 36.98C425.1 36.98 424.587 37.2133 424.213 37.68C423.84 38.1333 423.653 38.7667 423.653 39.58V43.88C423.653 44.7333 423.24 45.16 422.413 45.16C421.573 45.16 421.153 44.7333 421.153 43.88V39.14C421.153 38.3933 421.027 37.8467 420.773 37.5C420.533 37.1533 420.127 36.98 419.553 36.98C418.9 36.98 418.387 37.2133 418.013 37.68C417.64 38.1333 417.453 38.7667 417.453 39.58V43.88C417.453 44.7333 417.033 45.16 416.193 45.16ZM433.692 33.22C433.226 33.22 432.859 33.1067 432.592 32.88C432.339 32.64 432.212 32.3133 432.212 31.9C432.212 31.4733 432.339 31.1467 432.592 30.92C432.859 30.6933 433.226 30.58 433.692 30.58C434.679 30.58 435.172 31.02 435.172 31.9C435.172 32.78 434.679 33.22 433.692 33.22ZM433.692 45.14C433.292 45.14 432.986 45.02 432.772 44.78C432.559 44.54 432.452 44.2067 432.452 43.78V36.44C432.452 35.5333 432.866 35.08 433.692 35.08C434.532 35.08 434.952 35.5333 434.952 36.44V43.78C434.952 44.2067 434.846 44.54 434.632 44.78C434.419 45.02 434.106 45.14 433.692 45.14ZM438.79 45.16C437.963 45.16 437.55 44.7333 437.55 43.88V36.32C437.55 35.48 437.957 35.06 438.77 35.06C439.583 35.06 439.99 35.48 439.99 36.32V36.74C440.323 36.18 440.77 35.7533 441.33 35.46C441.903 35.1667 442.543 35.02 443.25 35.02C445.557 35.02 446.71 36.36 446.71 39.04V43.88C446.71 44.7333 446.297 45.16 445.47 45.16C444.63 45.16 444.21 44.7333 444.21 43.88V39.16C444.21 38.4 444.063 37.8467 443.77 37.5C443.49 37.1533 443.05 36.98 442.45 36.98C441.717 36.98 441.13 37.2133 440.69 37.68C440.263 38.1333 440.05 38.74 440.05 39.5V43.88C440.05 44.7333 439.63 45.16 438.79 45.16ZM453.809 48.8C453.089 48.8 452.389 48.7333 451.709 48.6C451.043 48.4667 450.436 48.26 449.889 47.98C449.569 47.82 449.376 47.6133 449.309 47.36C449.256 47.12 449.283 46.8867 449.389 46.66C449.496 46.4333 449.656 46.2667 449.869 46.16C450.096 46.0667 450.336 46.08 450.589 46.2C451.176 46.4933 451.729 46.68 452.249 46.76C452.783 46.8533 453.236 46.9 453.609 46.9C455.396 46.9 456.289 46.04 456.289 44.32V42.98C456.009 43.5267 455.576 43.96 454.989 44.28C454.416 44.6 453.776 44.76 453.069 44.76C452.189 44.76 451.423 44.56 450.769 44.16C450.116 43.7467 449.609 43.1733 449.249 42.44C448.889 41.7067 448.709 40.8533 448.709 39.88C448.709 38.9067 448.889 38.06 449.249 37.34C449.609 36.6067 450.116 36.04 450.769 35.64C451.423 35.2267 452.189 35.02 453.069 35.02C453.776 35.02 454.416 35.1733 454.989 35.48C455.563 35.7867 455.983 36.2067 456.249 36.74V36.32C456.249 35.9067 456.356 35.5933 456.569 35.38C456.796 35.1667 457.103 35.06 457.489 35.06C458.316 35.06 458.729 35.48 458.729 36.32V44.02C458.729 45.6067 458.309 46.8 457.469 47.6C456.629 48.4 455.409 48.8 453.809 48.8ZM453.749 42.86C454.523 42.86 455.136 42.5933 455.589 42.06C456.043 41.5267 456.269 40.8 456.269 39.88C456.269 38.96 456.043 38.24 455.589 37.72C455.136 37.1867 454.523 36.92 453.749 36.92C452.976 36.92 452.363 37.1867 451.909 37.72C451.456 38.24 451.229 38.96 451.229 39.88C451.229 40.8 451.456 41.5267 451.909 42.06C452.363 42.5933 452.976 42.86 453.749 42.86ZM467.669 40.64C467.376 40.64 467.129 40.5467 466.929 40.36C466.743 40.16 466.649 39.92 466.649 39.64C466.649 39.3467 466.743 39.1067 466.929 38.92C467.129 38.7333 467.376 38.64 467.669 38.64H471.929C472.209 38.64 472.443 38.7333 472.629 38.92C472.829 39.1067 472.929 39.3467 472.929 39.64C472.929 39.92 472.829 40.16 472.629 40.36C472.443 40.5467 472.209 40.64 471.929 40.64H467.669ZM482.991 45.16C482.524 45.16 482.191 45 481.991 44.68C481.791 44.36 481.811 43.9733 482.051 43.52L487.631 33.04H481.611C480.864 33.04 480.491 32.6867 480.491 31.98C480.491 31.26 480.864 30.9 481.611 30.9H489.351C489.711 30.9 490.004 30.9933 490.231 31.18C490.457 31.3667 490.571 31.6333 490.571 31.98C490.571 32.2733 490.531 32.5333 490.451 32.76C490.371 32.9733 490.264 33.2067 490.131 33.46L484.451 44.32C484.157 44.88 483.671 45.16 482.991 45.16ZM494.043 45.1C493.59 45.1 493.223 44.96 492.943 44.68C492.676 44.4 492.543 44.04 492.543 43.6C492.543 43.1733 492.676 42.8267 492.943 42.56C493.223 42.28 493.59 42.14 494.043 42.14C494.51 42.14 494.87 42.28 495.123 42.56C495.39 42.8267 495.523 43.1733 495.523 43.6C495.523 44.04 495.39 44.4 495.123 44.68C494.87 44.96 494.51 45.1 494.043 45.1ZM502.504 45.2C500.837 45.2 499.564 44.5733 498.684 43.32C497.804 42.0533 497.364 40.2533 497.364 37.92C497.364 35.56 497.804 33.7667 498.684 32.54C499.564 31.3133 500.837 30.7 502.504 30.7C504.184 30.7 505.457 31.3133 506.324 32.54C507.204 33.7667 507.644 35.5533 507.644 37.9C507.644 40.2467 507.204 42.0533 506.324 43.32C505.444 44.5733 504.171 45.2 502.504 45.2ZM502.504 43.1C503.411 43.1 504.077 42.68 504.504 41.84C504.944 41 505.164 39.6867 505.164 37.9C505.164 36.1133 504.944 34.82 504.504 34.02C504.077 33.2067 503.411 32.8 502.504 32.8C501.611 32.8 500.944 33.2067 500.504 34.02C500.064 34.82 499.844 36.1133 499.844 37.9C499.844 39.6867 500.064 41 500.504 41.84C500.944 42.68 501.611 43.1 502.504 43.1ZM514.496 45.2C512.829 45.2 511.556 44.5733 510.676 43.32C509.796 42.0533 509.356 40.2533 509.356 37.92C509.356 35.56 509.796 33.7667 510.676 32.54C511.556 31.3133 512.829 30.7 514.496 30.7C516.176 30.7 517.449 31.3133 518.316 32.54C519.196 33.7667 519.636 35.5533 519.636 37.9C519.636 40.2467 519.196 42.0533 518.316 43.32C517.436 44.5733 516.163 45.2 514.496 45.2ZM514.496 43.1C515.403 43.1 516.069 42.68 516.496 41.84C516.936 41 517.156 39.6867 517.156 37.9C517.156 36.1133 516.936 34.82 516.496 34.02C516.069 33.2067 515.403 32.8 514.496 32.8C513.603 32.8 512.936 33.2067 512.496 34.02C512.056 34.82 511.836 36.1133 511.836 37.9C511.836 39.6867 512.056 41 512.496 41.84C512.936 42.68 513.603 43.1 514.496 43.1ZM523.308 45.16C522.455 45.16 522.028 44.72 522.028 43.84V32.2C522.028 31.3333 522.462 30.9 523.328 30.9H528.148C529.695 30.9 530.888 31.2867 531.728 32.06C532.568 32.8333 532.988 33.9133 532.988 35.3C532.988 36.6867 532.568 37.7733 531.728 38.56C530.888 39.3333 529.695 39.72 528.148 39.72H524.588V43.84C524.588 44.72 524.162 45.16 523.308 45.16ZM524.588 37.7H527.748C529.588 37.7 530.508 36.9 530.508 35.3C530.508 33.7133 529.588 32.92 527.748 32.92H524.588V37.7ZM536.275 45.16C535.502 45.16 535.115 44.76 535.115 43.96V31.94C535.115 31.14 535.515 30.74 536.315 30.74C536.648 30.74 536.908 30.8067 537.095 30.94C537.295 31.06 537.475 31.2733 537.635 31.58L542.255 40.12L546.875 31.58C547.035 31.2733 547.208 31.06 547.395 30.94C547.582 30.8067 547.842 30.74 548.175 30.74C548.948 30.74 549.335 31.14 549.335 31.94V43.96C549.335 44.76 548.948 45.16 548.175 45.16C547.402 45.16 547.015 44.76 547.015 43.96V35.5L543.255 42.36C543.122 42.5867 542.982 42.7533 542.835 42.86C542.688 42.9667 542.488 43.02 542.235 43.02C541.982 43.02 541.775 42.9667 541.615 42.86C541.455 42.74 541.315 42.5733 541.195 42.36L537.435 35.54V43.96C537.435 44.76 537.048 45.16 536.275 45.16ZM562.108 45.2C559.521 45.2 558.228 43.92 558.228 41.36V37.1H557.188C556.521 37.1 556.188 36.7867 556.188 36.16C556.188 35.5333 556.521 35.22 557.188 35.22H558.228V33.4C558.228 32.56 558.648 32.14 559.488 32.14C560.315 32.14 560.728 32.56 560.728 33.4V35.22H562.848C563.515 35.22 563.848 35.5333 563.848 36.16C563.848 36.7867 563.515 37.1 562.848 37.1H560.728V41.22C560.728 41.86 560.868 42.34 561.148 42.66C561.428 42.98 561.881 43.14 562.508 43.14C562.735 43.14 562.935 43.12 563.108 43.08C563.281 43.04 563.435 43.0133 563.568 43C563.728 42.9867 563.861 43.04 563.968 43.16C564.075 43.2667 564.128 43.4933 564.128 43.84C564.128 44.1067 564.081 44.3467 563.988 44.56C563.908 44.76 563.755 44.9 563.528 44.98C563.355 45.0333 563.128 45.08 562.848 45.12C562.568 45.1733 562.321 45.2 562.108 45.2ZM569.666 45.2C568.653 45.2 567.773 44.9933 567.026 44.58C566.28 44.1667 565.7 43.58 565.286 42.82C564.873 42.0467 564.666 41.14 564.666 40.1C564.666 39.06 564.873 38.16 565.286 37.4C565.7 36.64 566.28 36.0533 567.026 35.64C567.773 35.2267 568.653 35.02 569.666 35.02C570.68 35.02 571.56 35.2267 572.306 35.64C573.053 36.0533 573.633 36.64 574.046 37.4C574.46 38.16 574.666 39.06 574.666 40.1C574.666 41.14 574.46 42.0467 574.046 42.82C573.633 43.58 573.053 44.1667 572.306 44.58C571.56 44.9933 570.68 45.2 569.666 45.2ZM569.666 43.3C570.413 43.3 571.013 43.0333 571.466 42.5C571.92 41.9533 572.146 41.1533 572.146 40.1C572.146 39.0333 571.92 38.24 571.466 37.72C571.013 37.1867 570.413 36.92 569.666 36.92C568.92 36.92 568.32 37.1867 567.866 37.72C567.413 38.24 567.186 39.0333 567.186 40.1C567.186 41.1533 567.413 41.9533 567.866 42.5C568.32 43.0333 568.92 43.3 569.666 43.3ZM585.759 45.2C585.186 45.2 584.593 45.1133 583.979 44.94C583.366 44.7533 582.793 44.48 582.259 44.12C582.006 43.9467 581.853 43.7267 581.799 43.46C581.759 43.18 581.799 42.92 581.919 42.68C582.039 42.4267 582.219 42.26 582.459 42.18C582.713 42.0867 582.999 42.1333 583.319 42.32C583.773 42.5867 584.199 42.7733 584.599 42.88C584.999 42.9867 585.399 43.04 585.799 43.04C586.959 43.04 587.846 42.6333 588.459 41.82C589.073 41.0067 589.379 39.7933 589.379 38.18V37.6C589.099 38.3333 588.646 38.9067 588.019 39.32C587.393 39.7333 586.673 39.94 585.859 39.94C585.059 39.94 584.339 39.7467 583.699 39.36C583.073 38.9733 582.579 38.44 582.219 37.76C581.859 37.0667 581.679 36.2867 581.679 35.42C581.679 34.5 581.873 33.6867 582.259 32.98C582.659 32.2733 583.213 31.72 583.919 31.32C584.626 30.9067 585.433 30.7 586.339 30.7C588.086 30.7 589.433 31.3133 590.379 32.54C591.339 33.7533 591.819 35.4733 591.819 37.7C591.819 40.0867 591.286 41.9333 590.219 43.24C589.153 44.5467 587.666 45.2 585.759 45.2ZM586.499 37.9C587.219 37.9 587.799 37.66 588.239 37.18C588.693 36.7 588.919 36.0733 588.919 35.3C588.919 34.5267 588.693 33.9067 588.239 33.44C587.799 32.96 587.219 32.72 586.499 32.72C585.779 32.72 585.193 32.96 584.739 33.44C584.299 33.9067 584.079 34.5267 584.079 35.3C584.079 36.0733 584.299 36.7 584.739 37.18C585.193 37.66 585.779 37.9 586.499 37.9ZM595.672 45.16C594.818 45.16 594.392 44.72 594.392 43.84V32.2C594.392 31.3333 594.825 30.9 595.692 30.9H600.512C602.058 30.9 603.252 31.2867 604.092 32.06C604.932 32.8333 605.352 33.9133 605.352 35.3C605.352 36.6867 604.932 37.7733 604.092 38.56C603.252 39.3333 602.058 39.72 600.512 39.72H596.952V43.84C596.952 44.72 596.525 45.16 595.672 45.16ZM596.952 37.7H600.112C601.952 37.7 602.872 36.9 602.872 35.3C602.872 33.7133 601.952 32.92 600.112 32.92H596.952V37.7ZM608.638 45.16C607.865 45.16 607.478 44.76 607.478 43.96V31.94C607.478 31.14 607.878 30.74 608.678 30.74C609.012 30.74 609.272 30.8067 609.458 30.94C609.658 31.06 609.838 31.2733 609.998 31.58L614.618 40.12L619.238 31.58C619.398 31.2733 619.572 31.06 619.758 30.94C619.945 30.8067 620.205 30.74 620.538 30.74C621.312 30.74 621.698 31.14 621.698 31.94V43.96C621.698 44.76 621.312 45.16 620.538 45.16C619.765 45.16 619.378 44.76 619.378 43.96V35.5L615.618 42.36C615.485 42.5867 615.345 42.7533 615.198 42.86C615.052 42.9667 614.852 43.02 614.598 43.02C614.345 43.02 614.138 42.9667 613.978 42.86C613.818 42.74 613.678 42.5733 613.558 42.36L609.798 35.54V43.96C609.798 44.76 609.412 45.16 608.638 45.16Z" fill="#A9A8A8"/>
<path d="M401.22 113.16C400.367 113.16 399.94 112.72 399.94 111.84V101.04H396.04C395.307 101.04 394.94 100.68 394.94 99.96C394.94 99.2533 395.307 98.9 396.04 98.9H406.4C407.133 98.9 407.5 99.2533 407.5 99.96C407.5 100.68 407.133 101.04 406.4 101.04H402.5V111.84C402.5 112.72 402.073 113.16 401.22 113.16ZM411.056 101.22C410.589 101.22 410.222 101.107 409.956 100.88C409.702 100.64 409.576 100.313 409.576 99.9C409.576 99.4733 409.702 99.1467 409.956 98.92C410.222 98.6933 410.589 98.58 411.056 98.58C412.042 98.58 412.536 99.02 412.536 99.9C412.536 100.78 412.042 101.22 411.056 101.22ZM411.056 113.14C410.656 113.14 410.349 113.02 410.136 112.78C409.922 112.54 409.816 112.207 409.816 111.78V104.44C409.816 103.533 410.229 103.08 411.056 103.08C411.896 103.08 412.316 103.533 412.316 104.44V111.78C412.316 112.207 412.209 112.54 411.996 112.78C411.782 113.02 411.469 113.14 411.056 113.14ZM416.193 113.16C415.367 113.16 414.953 112.733 414.953 111.88V104.32C414.953 103.48 415.36 103.06 416.173 103.06C416.987 103.06 417.393 103.48 417.393 104.32V104.72C417.687 104.187 418.093 103.773 418.613 103.48C419.133 103.173 419.733 103.02 420.413 103.02C421.88 103.02 422.84 103.66 423.293 104.94C423.6 104.34 424.04 103.873 424.613 103.54C425.187 103.193 425.84 103.02 426.573 103.02C428.773 103.02 429.873 104.36 429.873 107.04V111.88C429.873 112.733 429.453 113.16 428.613 113.16C427.787 113.16 427.373 112.733 427.373 111.88V107.14C427.373 106.393 427.247 105.847 426.993 105.5C426.753 105.153 426.34 104.98 425.753 104.98C425.1 104.98 424.587 105.213 424.213 105.68C423.84 106.133 423.653 106.767 423.653 107.58V111.88C423.653 112.733 423.24 113.16 422.413 113.16C421.573 113.16 421.153 112.733 421.153 111.88V107.14C421.153 106.393 421.027 105.847 420.773 105.5C420.533 105.153 420.127 104.98 419.553 104.98C418.9 104.98 418.387 105.213 418.013 105.68C417.64 106.133 417.453 106.767 417.453 107.58V111.88C417.453 112.733 417.033 113.16 416.193 113.16ZM433.692 101.22C433.226 101.22 432.859 101.107 432.592 100.88C432.339 100.64 432.212 100.313 432.212 99.9C432.212 99.4733 432.339 99.1467 432.592 98.92C432.859 98.6933 433.226 98.58 433.692 98.58C434.679 98.58 435.172 99.02 435.172 99.9C435.172 100.78 434.679 101.22 433.692 101.22ZM433.692 113.14C433.292 113.14 432.986 113.02 432.772 112.78C432.559 112.54 432.452 112.207 432.452 111.78V104.44C432.452 103.533 432.866 103.08 433.692 103.08C434.532 103.08 434.952 103.533 434.952 104.44V111.78C434.952 112.207 434.846 112.54 434.632 112.78C434.419 113.02 434.106 113.14 433.692 113.14ZM438.79 113.16C437.963 113.16 437.55 112.733 437.55 111.88V104.32C437.55 103.48 437.957 103.06 438.77 103.06C439.583 103.06 439.99 103.48 439.99 104.32V104.74C440.323 104.18 440.77 103.753 441.33 103.46C441.903 103.167 442.543 103.02 443.25 103.02C445.557 103.02 446.71 104.36 446.71 107.04V111.88C446.71 112.733 446.297 113.16 445.47 113.16C444.63 113.16 444.21 112.733 444.21 111.88V107.16C444.21 106.4 444.063 105.847 443.77 105.5C443.49 105.153 443.05 104.98 442.45 104.98C441.717 104.98 441.13 105.213 440.69 105.68C440.263 106.133 440.05 106.74 440.05 107.5V111.88C440.05 112.733 439.63 113.16 438.79 113.16ZM453.809 116.8C453.089 116.8 452.389 116.733 451.709 116.6C451.043 116.467 450.436 116.26 449.889 115.98C449.569 115.82 449.376 115.613 449.309 115.36C449.256 115.12 449.283 114.887 449.389 114.66C449.496 114.433 449.656 114.267 449.869 114.16C450.096 114.067 450.336 114.08 450.589 114.2C451.176 114.493 451.729 114.68 452.249 114.76C452.783 114.853 453.236 114.9 453.609 114.9C455.396 114.9 456.289 114.04 456.289 112.32V110.98C456.009 111.527 455.576 111.96 454.989 112.28C454.416 112.6 453.776 112.76 453.069 112.76C452.189 112.76 451.423 112.56 450.769 112.16C450.116 111.747 449.609 111.173 449.249 110.44C448.889 109.707 448.709 108.853 448.709 107.88C448.709 106.907 448.889 106.06 449.249 105.34C449.609 104.607 450.116 104.04 450.769 103.64C451.423 103.227 452.189 103.02 453.069 103.02C453.776 103.02 454.416 103.173 454.989 103.48C455.563 103.787 455.983 104.207 456.249 104.74V104.32C456.249 103.907 456.356 103.593 456.569 103.38C456.796 103.167 457.103 103.06 457.489 103.06C458.316 103.06 458.729 103.48 458.729 104.32V112.02C458.729 113.607 458.309 114.8 457.469 115.6C456.629 116.4 455.409 116.8 453.809 116.8ZM453.749 110.86C454.523 110.86 455.136 110.593 455.589 110.06C456.043 109.527 456.269 108.8 456.269 107.88C456.269 106.96 456.043 106.24 455.589 105.72C455.136 105.187 454.523 104.92 453.749 104.92C452.976 104.92 452.363 105.187 451.909 105.72C451.456 106.24 451.229 106.96 451.229 107.88C451.229 108.8 451.456 109.527 451.909 110.06C452.363 110.593 452.976 110.86 453.749 110.86ZM467.669 108.64C467.376 108.64 467.129 108.547 466.929 108.36C466.743 108.16 466.649 107.92 466.649 107.64C466.649 107.347 466.743 107.107 466.929 106.92C467.129 106.733 467.376 106.64 467.669 106.64H471.929C472.209 106.64 472.443 106.733 472.629 106.92C472.829 107.107 472.929 107.347 472.929 107.64C472.929 107.92 472.829 108.16 472.629 108.36C472.443 108.547 472.209 108.64 471.929 108.64H467.669ZM482.991 113.16C482.524 113.16 482.191 113 481.991 112.68C481.791 112.36 481.811 111.973 482.051 111.52L487.631 101.04H481.611C480.864 101.04 480.491 100.687 480.491 99.98C480.491 99.26 480.864 98.9 481.611 98.9H489.351C489.711 98.9 490.004 98.9933 490.231 99.18C490.457 99.3667 490.571 99.6333 490.571 99.98C490.571 100.273 490.531 100.533 490.451 100.76C490.371 100.973 490.264 101.207 490.131 101.46L484.451 112.32C484.157 112.88 483.671 113.16 482.991 113.16ZM494.043 113.1C493.59 113.1 493.223 112.96 492.943 112.68C492.676 112.4 492.543 112.04 492.543 111.6C492.543 111.173 492.676 110.827 492.943 110.56C493.223 110.28 493.59 110.14 494.043 110.14C494.51 110.14 494.87 110.28 495.123 110.56C495.39 110.827 495.523 111.173 495.523 111.6C495.523 112.04 495.39 112.4 495.123 112.68C494.87 112.96 494.51 113.1 494.043 113.1ZM502.504 113.2C500.837 113.2 499.564 112.573 498.684 111.32C497.804 110.053 497.364 108.253 497.364 105.92C497.364 103.56 497.804 101.767 498.684 100.54C499.564 99.3133 500.837 98.7 502.504 98.7C504.184 98.7 505.457 99.3133 506.324 100.54C507.204 101.767 507.644 103.553 507.644 105.9C507.644 108.247 507.204 110.053 506.324 111.32C505.444 112.573 504.171 113.2 502.504 113.2ZM502.504 111.1C503.411 111.1 504.077 110.68 504.504 109.84C504.944 109 505.164 107.687 505.164 105.9C505.164 104.113 504.944 102.82 504.504 102.02C504.077 101.207 503.411 100.8 502.504 100.8C501.611 100.8 500.944 101.207 500.504 102.02C500.064 102.82 499.844 104.113 499.844 105.9C499.844 107.687 500.064 109 500.504 109.84C500.944 110.68 501.611 111.1 502.504 111.1ZM514.496 113.2C512.829 113.2 511.556 112.573 510.676 111.32C509.796 110.053 509.356 108.253 509.356 105.92C509.356 103.56 509.796 101.767 510.676 100.54C511.556 99.3133 512.829 98.7 514.496 98.7C516.176 98.7 517.449 99.3133 518.316 100.54C519.196 101.767 519.636 103.553 519.636 105.9C519.636 108.247 519.196 110.053 518.316 111.32C517.436 112.573 516.163 113.2 514.496 113.2ZM514.496 111.1C515.403 111.1 516.069 110.68 516.496 109.84C516.936 109 517.156 107.687 517.156 105.9C517.156 104.113 516.936 102.82 516.496 102.02C516.069 101.207 515.403 100.8 514.496 100.8C513.603 100.8 512.936 101.207 512.496 102.02C512.056 102.82 511.836 104.113 511.836 105.9C511.836 107.687 512.056 109 512.496 109.84C512.936 110.68 513.603 111.1 514.496 111.1ZM523.308 113.16C522.455 113.16 522.028 112.72 522.028 111.84V100.2C522.028 99.3333 522.462 98.9 523.328 98.9H528.148C529.695 98.9 530.888 99.2867 531.728 100.06C532.568 100.833 532.988 101.913 532.988 103.3C532.988 104.687 532.568 105.773 531.728 106.56C530.888 107.333 529.695 107.72 528.148 107.72H524.588V111.84C524.588 112.72 524.162 113.16 523.308 113.16ZM524.588 105.7H527.748C529.588 105.7 530.508 104.9 530.508 103.3C530.508 101.713 529.588 100.92 527.748 100.92H524.588V105.7ZM536.275 113.16C535.502 113.16 535.115 112.76 535.115 111.96V99.94C535.115 99.14 535.515 98.74 536.315 98.74C536.648 98.74 536.908 98.8067 537.095 98.94C537.295 99.06 537.475 99.2733 537.635 99.58L542.255 108.12L546.875 99.58C547.035 99.2733 547.208 99.06 547.395 98.94C547.582 98.8067 547.842 98.74 548.175 98.74C548.948 98.74 549.335 99.14 549.335 99.94V111.96C549.335 112.76 548.948 113.16 548.175 113.16C547.402 113.16 547.015 112.76 547.015 111.96V103.5L543.255 110.36C543.122 110.587 542.982 110.753 542.835 110.86C542.688 110.967 542.488 111.02 542.235 111.02C541.982 111.02 541.775 110.967 541.615 110.86C541.455 110.74 541.315 110.573 541.195 110.36L537.435 103.54V111.96C537.435 112.76 537.048 113.16 536.275 113.16ZM562.108 113.2C559.521 113.2 558.228 111.92 558.228 109.36V105.1H557.188C556.521 105.1 556.188 104.787 556.188 104.16C556.188 103.533 556.521 103.22 557.188 103.22H558.228V101.4C558.228 100.56 558.648 100.14 559.488 100.14C560.315 100.14 560.728 100.56 560.728 101.4V103.22H562.848C563.515 103.22 563.848 103.533 563.848 104.16C563.848 104.787 563.515 105.1 562.848 105.1H560.728V109.22C560.728 109.86 560.868 110.34 561.148 110.66C561.428 110.98 561.881 111.14 562.508 111.14C562.735 111.14 562.935 111.12 563.108 111.08C563.281 111.04 563.435 111.013 563.568 111C563.728 110.987 563.861 111.04 563.968 111.16C564.075 111.267 564.128 111.493 564.128 111.84C564.128 112.107 564.081 112.347 563.988 112.56C563.908 112.76 563.755 112.9 563.528 112.98C563.355 113.033 563.128 113.08 562.848 113.12C562.568 113.173 562.321 113.2 562.108 113.2ZM569.666 113.2C568.653 113.2 567.773 112.993 567.026 112.58C566.28 112.167 565.7 111.58 565.286 110.82C564.873 110.047 564.666 109.14 564.666 108.1C564.666 107.06 564.873 106.16 565.286 105.4C565.7 104.64 566.28 104.053 567.026 103.64C567.773 103.227 568.653 103.02 569.666 103.02C570.68 103.02 571.56 103.227 572.306 103.64C573.053 104.053 573.633 104.64 574.046 105.4C574.46 106.16 574.666 107.06 574.666 108.1C574.666 109.14 574.46 110.047 574.046 110.82C573.633 111.58 573.053 112.167 572.306 112.58C571.56 112.993 570.68 113.2 569.666 113.2ZM569.666 111.3C570.413 111.3 571.013 111.033 571.466 110.5C571.92 109.953 572.146 109.153 572.146 108.1C572.146 107.033 571.92 106.24 571.466 105.72C571.013 105.187 570.413 104.92 569.666 104.92C568.92 104.92 568.32 105.187 567.866 105.72C567.413 106.24 567.186 107.033 567.186 108.1C567.186 109.153 567.413 109.953 567.866 110.5C568.32 111.033 568.92 111.3 569.666 111.3ZM585.759 113.2C585.186 113.2 584.593 113.113 583.979 112.94C583.366 112.753 582.793 112.48 582.259 112.12C582.006 111.947 581.853 111.727 581.799 111.46C581.759 111.18 581.799 110.92 581.919 110.68C582.039 110.427 582.219 110.26 582.459 110.18C582.713 110.087 582.999 110.133 583.319 110.32C583.773 110.587 584.199 110.773 584.599 110.88C584.999 110.987 585.399 111.04 585.799 111.04C586.959 111.04 587.846 110.633 588.459 109.82C589.073 109.007 589.379 107.793 589.379 106.18V105.6C589.099 106.333 588.646 106.907 588.019 107.32C587.393 107.733 586.673 107.94 585.859 107.94C585.059 107.94 584.339 107.747 583.699 107.36C583.073 106.973 582.579 106.44 582.219 105.76C581.859 105.067 581.679 104.287 581.679 103.42C581.679 102.5 581.873 101.687 582.259 100.98C582.659 100.273 583.213 99.72 583.919 99.32C584.626 98.9067 585.433 98.7 586.339 98.7C588.086 98.7 589.433 99.3133 590.379 100.54C591.339 101.753 591.819 103.473 591.819 105.7C591.819 108.087 591.286 109.933 590.219 111.24C589.153 112.547 587.666 113.2 585.759 113.2ZM586.499 105.9C587.219 105.9 587.799 105.66 588.239 105.18C588.693 104.7 588.919 104.073 588.919 103.3C588.919 102.527 588.693 101.907 588.239 101.44C587.799 100.96 587.219 100.72 586.499 100.72C585.779 100.72 585.193 100.96 584.739 101.44C584.299 101.907 584.079 102.527 584.079 103.3C584.079 104.073 584.299 104.7 584.739 105.18C585.193 105.66 585.779 105.9 586.499 105.9ZM595.672 113.16C594.818 113.16 594.392 112.72 594.392 111.84V100.2C594.392 99.3333 594.825 98.9 595.692 98.9H600.512C602.058 98.9 603.252 99.2867 604.092 100.06C604.932 100.833 605.352 101.913 605.352 103.3C605.352 104.687 604.932 105.773 604.092 106.56C603.252 107.333 602.058 107.72 600.512 107.72H596.952V111.84C596.952 112.72 596.525 113.16 595.672 113.16ZM596.952 105.7H600.112C601.952 105.7 602.872 104.9 602.872 103.3C602.872 101.713 601.952 100.92 600.112 100.92H596.952V105.7ZM608.638 113.16C607.865 113.16 607.478 112.76 607.478 111.96V99.94C607.478 99.14 607.878 98.74 608.678 98.74C609.012 98.74 609.272 98.8067 609.458 98.94C609.658 99.06 609.838 99.2733 609.998 99.58L614.618 108.12L619.238 99.58C619.398 99.2733 619.572 99.06 619.758 98.94C619.945 98.8067 620.205 98.74 620.538 98.74C621.312 98.74 621.698 99.14 621.698 99.94V111.96C621.698 112.76 621.312 113.16 620.538 113.16C619.765 113.16 619.378 112.76 619.378 111.96V103.5L615.618 110.36C615.485 110.587 615.345 110.753 615.198 110.86C615.052 110.967 614.852 111.02 614.598 111.02C614.345 111.02 614.138 110.967 613.978 110.86C613.818 110.74 613.678 110.573 613.558 110.36L609.798 103.54V111.96C609.798 112.76 609.412 113.16 608.638 113.16Z" fill="#A9A8A8"/>
<path d="M401.22 181.16C400.367 181.16 399.94 180.72 399.94 179.84V169.04H396.04C395.307 169.04 394.94 168.68 394.94 167.96C394.94 167.253 395.307 166.9 396.04 166.9H406.4C407.133 166.9 407.5 167.253 407.5 167.96C407.5 168.68 407.133 169.04 406.4 169.04H402.5V179.84C402.5 180.72 402.073 181.16 401.22 181.16ZM411.056 169.22C410.589 169.22 410.222 169.107 409.956 168.88C409.702 168.64 409.576 168.313 409.576 167.9C409.576 167.473 409.702 167.147 409.956 166.92C410.222 166.693 410.589 166.58 411.056 166.58C412.042 166.58 412.536 167.02 412.536 167.9C412.536 168.78 412.042 169.22 411.056 169.22ZM411.056 181.14C410.656 181.14 410.349 181.02 410.136 180.78C409.922 180.54 409.816 180.207 409.816 179.78V172.44C409.816 171.533 410.229 171.08 411.056 171.08C411.896 171.08 412.316 171.533 412.316 172.44V179.78C412.316 180.207 412.209 180.54 411.996 180.78C411.782 181.02 411.469 181.14 411.056 181.14ZM416.193 181.16C415.367 181.16 414.953 180.733 414.953 179.88V172.32C414.953 171.48 415.36 171.06 416.173 171.06C416.987 171.06 417.393 171.48 417.393 172.32V172.72C417.687 172.187 418.093 171.773 418.613 171.48C419.133 171.173 419.733 171.02 420.413 171.02C421.88 171.02 422.84 171.66 423.293 172.94C423.6 172.34 424.04 171.873 424.613 171.54C425.187 171.193 425.84 171.02 426.573 171.02C428.773 171.02 429.873 172.36 429.873 175.04V179.88C429.873 180.733 429.453 181.16 428.613 181.16C427.787 181.16 427.373 180.733 427.373 179.88V175.14C427.373 174.393 427.247 173.847 426.993 173.5C426.753 173.153 426.34 172.98 425.753 172.98C425.1 172.98 424.587 173.213 424.213 173.68C423.84 174.133 423.653 174.767 423.653 175.58V179.88C423.653 180.733 423.24 181.16 422.413 181.16C421.573 181.16 421.153 180.733 421.153 179.88V175.14C421.153 174.393 421.027 173.847 420.773 173.5C420.533 173.153 420.127 172.98 419.553 172.98C418.9 172.98 418.387 173.213 418.013 173.68C417.64 174.133 417.453 174.767 417.453 175.58V179.88C417.453 180.733 417.033 181.16 416.193 181.16ZM433.692 169.22C433.226 169.22 432.859 169.107 432.592 168.88C432.339 168.64 432.212 168.313 432.212 167.9C432.212 167.473 432.339 167.147 432.592 166.92C432.859 166.693 433.226 166.58 433.692 166.58C434.679 166.58 435.172 167.02 435.172 167.9C435.172 168.78 434.679 169.22 433.692 169.22ZM433.692 181.14C433.292 181.14 432.986 181.02 432.772 180.78C432.559 180.54 432.452 180.207 432.452 179.78V172.44C432.452 171.533 432.866 171.08 433.692 171.08C434.532 171.08 434.952 171.533 434.952 172.44V179.78C434.952 180.207 434.846 180.54 434.632 180.78C434.419 181.02 434.106 181.14 433.692 181.14ZM438.79 181.16C437.963 181.16 437.55 180.733 437.55 179.88V172.32C437.55 171.48 437.957 171.06 438.77 171.06C439.583 171.06 439.99 171.48 439.99 172.32V172.74C440.323 172.18 440.77 171.753 441.33 171.46C441.903 171.167 442.543 171.02 443.25 171.02C445.557 171.02 446.71 172.36 446.71 175.04V179.88C446.71 180.733 446.297 181.16 445.47 181.16C444.63 181.16 444.21 180.733 444.21 179.88V175.16C444.21 174.4 444.063 173.847 443.77 173.5C443.49 173.153 443.05 172.98 442.45 172.98C441.717 172.98 441.13 173.213 440.69 173.68C440.263 174.133 440.05 174.74 440.05 175.5V179.88C440.05 180.733 439.63 181.16 438.79 181.16ZM453.809 184.8C453.089 184.8 452.389 184.733 451.709 184.6C451.043 184.467 450.436 184.26 449.889 183.98C449.569 183.82 449.376 183.613 449.309 183.36C449.256 183.12 449.283 182.887 449.389 182.66C449.496 182.433 449.656 182.267 449.869 182.16C450.096 182.067 450.336 182.08 450.589 182.2C451.176 182.493 451.729 182.68 452.249 182.76C452.783 182.853 453.236 182.9 453.609 182.9C455.396 182.9 456.289 182.04 456.289 180.32V178.98C456.009 179.527 455.576 179.96 454.989 180.28C454.416 180.6 453.776 180.76 453.069 180.76C452.189 180.76 451.423 180.56 450.769 180.16C450.116 179.747 449.609 179.173 449.249 178.44C448.889 177.707 448.709 176.853 448.709 175.88C448.709 174.907 448.889 174.06 449.249 173.34C449.609 172.607 450.116 172.04 450.769 171.64C451.423 171.227 452.189 171.02 453.069 171.02C453.776 171.02 454.416 171.173 454.989 171.48C455.563 171.787 455.983 172.207 456.249 172.74V172.32C456.249 171.907 456.356 171.593 456.569 171.38C456.796 171.167 457.103 171.06 457.489 171.06C458.316 171.06 458.729 171.48 458.729 172.32V180.02C458.729 181.607 458.309 182.8 457.469 183.6C456.629 184.4 455.409 184.8 453.809 184.8ZM453.749 178.86C454.523 178.86 455.136 178.593 455.589 178.06C456.043 177.527 456.269 176.8 456.269 175.88C456.269 174.96 456.043 174.24 455.589 173.72C455.136 173.187 454.523 172.92 453.749 172.92C452.976 172.92 452.363 173.187 451.909 173.72C451.456 174.24 451.229 174.96 451.229 175.88C451.229 176.8 451.456 177.527 451.909 178.06C452.363 178.593 452.976 178.86 453.749 178.86ZM467.669 176.64C467.376 176.64 467.129 176.547 466.929 176.36C466.743 176.16 466.649 175.92 466.649 175.64C466.649 175.347 466.743 175.107 466.929 174.92C467.129 174.733 467.376 174.64 467.669 174.64H471.929C472.209 174.64 472.443 174.733 472.629 174.92C472.829 175.107 472.929 175.347 472.929 175.64C472.929 175.92 472.829 176.16 472.629 176.36C472.443 176.547 472.209 176.64 471.929 176.64H467.669ZM482.991 181.16C482.524 181.16 482.191 181 481.991 180.68C481.791 180.36 481.811 179.973 482.051 179.52L487.631 169.04H481.611C480.864 169.04 480.491 168.687 480.491 167.98C480.491 167.26 480.864 166.9 481.611 166.9H489.351C489.711 166.9 490.004 166.993 490.231 167.18C490.457 167.367 490.571 167.633 490.571 167.98C490.571 168.273 490.531 168.533 490.451 168.76C490.371 168.973 490.264 169.207 490.131 169.46L484.451 180.32C484.157 180.88 483.671 181.16 482.991 181.16ZM494.043 181.1C493.59 181.1 493.223 180.96 492.943 180.68C492.676 180.4 492.543 180.04 492.543 179.6C492.543 179.173 492.676 178.827 492.943 178.56C493.223 178.28 493.59 178.14 494.043 178.14C494.51 178.14 494.87 178.28 495.123 178.56C495.39 178.827 495.523 179.173 495.523 179.6C495.523 180.04 495.39 180.4 495.123 180.68C494.87 180.96 494.51 181.1 494.043 181.1ZM502.504 181.2C500.837 181.2 499.564 180.573 498.684 179.32C497.804 178.053 497.364 176.253 497.364 173.92C497.364 171.56 497.804 169.767 498.684 168.54C499.564 167.313 500.837 166.7 502.504 166.7C504.184 166.7 505.457 167.313 506.324 168.54C507.204 169.767 507.644 171.553 507.644 173.9C507.644 176.247 507.204 178.053 506.324 179.32C505.444 180.573 504.171 181.2 502.504 181.2ZM502.504 179.1C503.411 179.1 504.077 178.68 504.504 177.84C504.944 177 505.164 175.687 505.164 173.9C505.164 172.113 504.944 170.82 504.504 170.02C504.077 169.207 503.411 168.8 502.504 168.8C501.611 168.8 500.944 169.207 500.504 170.02C500.064 170.82 499.844 172.113 499.844 173.9C499.844 175.687 500.064 177 500.504 177.84C500.944 178.68 501.611 179.1 502.504 179.1ZM514.496 181.2C512.829 181.2 511.556 180.573 510.676 179.32C509.796 178.053 509.356 176.253 509.356 173.92C509.356 171.56 509.796 169.767 510.676 168.54C511.556 167.313 512.829 166.7 514.496 166.7C516.176 166.7 517.449 167.313 518.316 168.54C519.196 169.767 519.636 171.553 519.636 173.9C519.636 176.247 519.196 178.053 518.316 179.32C517.436 180.573 516.163 181.2 514.496 181.2ZM514.496 179.1C515.403 179.1 516.069 178.68 516.496 177.84C516.936 177 517.156 175.687 517.156 173.9C517.156 172.113 516.936 170.82 516.496 170.02C516.069 169.207 515.403 168.8 514.496 168.8C513.603 168.8 512.936 169.207 512.496 170.02C512.056 170.82 511.836 172.113 511.836 173.9C511.836 175.687 512.056 177 512.496 177.84C512.936 178.68 513.603 179.1 514.496 179.1ZM523.308 181.16C522.455 181.16 522.028 180.72 522.028 179.84V168.2C522.028 167.333 522.462 166.9 523.328 166.9H528.148C529.695 166.9 530.888 167.287 531.728 168.06C532.568 168.833 532.988 169.913 532.988 171.3C532.988 172.687 532.568 173.773 531.728 174.56C530.888 175.333 529.695 175.72 528.148 175.72H524.588V179.84C524.588 180.72 524.162 181.16 523.308 181.16ZM524.588 173.7H527.748C529.588 173.7 530.508 172.9 530.508 171.3C530.508 169.713 529.588 168.92 527.748 168.92H524.588V173.7ZM536.275 181.16C535.502 181.16 535.115 180.76 535.115 179.96V167.94C535.115 167.14 535.515 166.74 536.315 166.74C536.648 166.74 536.908 166.807 537.095 166.94C537.295 167.06 537.475 167.273 537.635 167.58L542.255 176.12L546.875 167.58C547.035 167.273 547.208 167.06 547.395 166.94C547.582 166.807 547.842 166.74 548.175 166.74C548.948 166.74 549.335 167.14 549.335 167.94V179.96C549.335 180.76 548.948 181.16 548.175 181.16C547.402 181.16 547.015 180.76 547.015 179.96V171.5L543.255 178.36C543.122 178.587 542.982 178.753 542.835 178.86C542.688 178.967 542.488 179.02 542.235 179.02C541.982 179.02 541.775 178.967 541.615 178.86C541.455 178.74 541.315 178.573 541.195 178.36L537.435 171.54V179.96C537.435 180.76 537.048 181.16 536.275 181.16ZM562.108 181.2C559.521 181.2 558.228 179.92 558.228 177.36V173.1H557.188C556.521 173.1 556.188 172.787 556.188 172.16C556.188 171.533 556.521 171.22 557.188 171.22H558.228V169.4C558.228 168.56 558.648 168.14 559.488 168.14C560.315 168.14 560.728 168.56 560.728 169.4V171.22H562.848C563.515 171.22 563.848 171.533 563.848 172.16C563.848 172.787 563.515 173.1 562.848 173.1H560.728V177.22C560.728 177.86 560.868 178.34 561.148 178.66C561.428 178.98 561.881 179.14 562.508 179.14C562.735 179.14 562.935 179.12 563.108 179.08C563.281 179.04 563.435 179.013 563.568 179C563.728 178.987 563.861 179.04 563.968 179.16C564.075 179.267 564.128 179.493 564.128 179.84C564.128 180.107 564.081 180.347 563.988 180.56C563.908 180.76 563.755 180.9 563.528 180.98C563.355 181.033 563.128 181.08 562.848 181.12C562.568 181.173 562.321 181.2 562.108 181.2ZM569.666 181.2C568.653 181.2 567.773 180.993 567.026 180.58C566.28 180.167 565.7 179.58 565.286 178.82C564.873 178.047 564.666 177.14 564.666 176.1C564.666 175.06 564.873 174.16 565.286 173.4C565.7 172.64 566.28 172.053 567.026 171.64C567.773 171.227 568.653 171.02 569.666 171.02C570.68 171.02 571.56 171.227 572.306 171.64C573.053 172.053 573.633 172.64 574.046 173.4C574.46 174.16 574.666 175.06 574.666 176.1C574.666 177.14 574.46 178.047 574.046 178.82C573.633 179.58 573.053 180.167 572.306 180.58C571.56 180.993 570.68 181.2 569.666 181.2ZM569.666 179.3C570.413 179.3 571.013 179.033 571.466 178.5C571.92 177.953 572.146 177.153 572.146 176.1C572.146 175.033 571.92 174.24 571.466 173.72C571.013 173.187 570.413 172.92 569.666 172.92C568.92 172.92 568.32 173.187 567.866 173.72C567.413 174.24 567.186 175.033 567.186 176.1C567.186 177.153 567.413 177.953 567.866 178.5C568.32 179.033 568.92 179.3 569.666 179.3ZM585.759 181.2C585.186 181.2 584.593 181.113 583.979 180.94C583.366 180.753 582.793 180.48 582.259 180.12C582.006 179.947 581.853 179.727 581.799 179.46C581.759 179.18 581.799 178.92 581.919 178.68C582.039 178.427 582.219 178.26 582.459 178.18C582.713 178.087 582.999 178.133 583.319 178.32C583.773 178.587 584.199 178.773 584.599 178.88C584.999 178.987 585.399 179.04 585.799 179.04C586.959 179.04 587.846 178.633 588.459 177.82C589.073 177.007 589.379 175.793 589.379 174.18V173.6C589.099 174.333 588.646 174.907 588.019 175.32C587.393 175.733 586.673 175.94 585.859 175.94C585.059 175.94 584.339 175.747 583.699 175.36C583.073 174.973 582.579 174.44 582.219 173.76C581.859 173.067 581.679 172.287 581.679 171.42C581.679 170.5 581.873 169.687 582.259 168.98C582.659 168.273 583.213 167.72 583.919 167.32C584.626 166.907 585.433 166.7 586.339 166.7C588.086 166.7 589.433 167.313 590.379 168.54C591.339 169.753 591.819 171.473 591.819 173.7C591.819 176.087 591.286 177.933 590.219 179.24C589.153 180.547 587.666 181.2 585.759 181.2ZM586.499 173.9C587.219 173.9 587.799 173.66 588.239 173.18C588.693 172.7 588.919 172.073 588.919 171.3C588.919 170.527 588.693 169.907 588.239 169.44C587.799 168.96 587.219 168.72 586.499 168.72C585.779 168.72 585.193 168.96 584.739 169.44C584.299 169.907 584.079 170.527 584.079 171.3C584.079 172.073 584.299 172.7 584.739 173.18C585.193 173.66 585.779 173.9 586.499 173.9ZM595.672 181.16C594.818 181.16 594.392 180.72 594.392 179.84V168.2C594.392 167.333 594.825 166.9 595.692 166.9H600.512C602.058 166.9 603.252 167.287 604.092 168.06C604.932 168.833 605.352 169.913 605.352 171.3C605.352 172.687 604.932 173.773 604.092 174.56C603.252 175.333 602.058 175.72 600.512 175.72H596.952V179.84C596.952 180.72 596.525 181.16 595.672 181.16ZM596.952 173.7H600.112C601.952 173.7 602.872 172.9 602.872 171.3C602.872 169.713 601.952 168.92 600.112 168.92H596.952V173.7ZM608.638 181.16C607.865 181.16 607.478 180.76 607.478 179.96V167.94C607.478 167.14 607.878 166.74 608.678 166.74C609.012 166.74 609.272 166.807 609.458 166.94C609.658 167.06 609.838 167.273 609.998 167.58L614.618 176.12L619.238 167.58C619.398 167.273 619.572 167.06 619.758 166.94C619.945 166.807 620.205 166.74 620.538 166.74C621.312 166.74 621.698 167.14 621.698 167.94V179.96C621.698 180.76 621.312 181.16 620.538 181.16C619.765 181.16 619.378 180.76 619.378 179.96V171.5L615.618 178.36C615.485 178.587 615.345 178.753 615.198 178.86C615.052 178.967 614.852 179.02 614.598 179.02C614.345 179.02 614.138 178.967 613.978 178.86C613.818 178.74 613.678 178.573 613.558 178.36L609.798 171.54V179.96C609.798 180.76 609.412 181.16 608.638 181.16Z" fill="#A9A8A8"/>
<path d="M401.22 249.16C400.367 249.16 399.94 248.72 399.94 247.84V237.04H396.04C395.307 237.04 394.94 236.68 394.94 235.96C394.94 235.253 395.307 234.9 396.04 234.9H406.4C407.133 234.9 407.5 235.253 407.5 235.96C407.5 236.68 407.133 237.04 406.4 237.04H402.5V247.84C402.5 248.72 402.073 249.16 401.22 249.16ZM411.056 237.22C410.589 237.22 410.222 237.107 409.956 236.88C409.702 236.64 409.576 236.313 409.576 235.9C409.576 235.473 409.702 235.147 409.956 234.92C410.222 234.693 410.589 234.58 411.056 234.58C412.042 234.58 412.536 235.02 412.536 235.9C412.536 236.78 412.042 237.22 411.056 237.22ZM411.056 249.14C410.656 249.14 410.349 249.02 410.136 248.78C409.922 248.54 409.816 248.207 409.816 247.78V240.44C409.816 239.533 410.229 239.08 411.056 239.08C411.896 239.08 412.316 239.533 412.316 240.44V247.78C412.316 248.207 412.209 248.54 411.996 248.78C411.782 249.02 411.469 249.14 411.056 249.14ZM416.193 249.16C415.367 249.16 414.953 248.733 414.953 247.88V240.32C414.953 239.48 415.36 239.06 416.173 239.06C416.987 239.06 417.393 239.48 417.393 240.32V240.72C417.687 240.187 418.093 239.773 418.613 239.48C419.133 239.173 419.733 239.02 420.413 239.02C421.88 239.02 422.84 239.66 423.293 240.94C423.6 240.34 424.04 239.873 424.613 239.54C425.187 239.193 425.84 239.02 426.573 239.02C428.773 239.02 429.873 240.36 429.873 243.04V247.88C429.873 248.733 429.453 249.16 428.613 249.16C427.787 249.16 427.373 248.733 427.373 247.88V243.14C427.373 242.393 427.247 241.847 426.993 241.5C426.753 241.153 426.34 240.98 425.753 240.98C425.1 240.98 424.587 241.213 424.213 241.68C423.84 242.133 423.653 242.767 423.653 243.58V247.88C423.653 248.733 423.24 249.16 422.413 249.16C421.573 249.16 421.153 248.733 421.153 247.88V243.14C421.153 242.393 421.027 241.847 420.773 241.5C420.533 241.153 420.127 240.98 419.553 240.98C418.9 240.98 418.387 241.213 418.013 241.68C417.64 242.133 417.453 242.767 417.453 243.58V247.88C417.453 248.733 417.033 249.16 416.193 249.16ZM433.692 237.22C433.226 237.22 432.859 237.107 432.592 236.88C432.339 236.64 432.212 236.313 432.212 235.9C432.212 235.473 432.339 235.147 432.592 234.92C432.859 234.693 433.226 234.58 433.692 234.58C434.679 234.58 435.172 235.02 435.172 235.9C435.172 236.78 434.679 237.22 433.692 237.22ZM433.692 249.14C433.292 249.14 432.986 249.02 432.772 248.78C432.559 248.54 432.452 248.207 432.452 247.78V240.44C432.452 239.533 432.866 239.08 433.692 239.08C434.532 239.08 434.952 239.533 434.952 240.44V247.78C434.952 248.207 434.846 248.54 434.632 248.78C434.419 249.02 434.106 249.14 433.692 249.14ZM438.79 249.16C437.963 249.16 437.55 248.733 437.55 247.88V240.32C437.55 239.48 437.957 239.06 438.77 239.06C439.583 239.06 439.99 239.48 439.99 240.32V240.74C440.323 240.18 440.77 239.753 441.33 239.46C441.903 239.167 442.543 239.02 443.25 239.02C445.557 239.02 446.71 240.36 446.71 243.04V247.88C446.71 248.733 446.297 249.16 445.47 249.16C444.63 249.16 444.21 248.733 444.21 247.88V243.16C444.21 242.4 444.063 241.847 443.77 241.5C443.49 241.153 443.05 240.98 442.45 240.98C441.717 240.98 441.13 241.213 440.69 241.68C440.263 242.133 440.05 242.74 440.05 243.5V247.88C440.05 248.733 439.63 249.16 438.79 249.16ZM453.809 252.8C453.089 252.8 452.389 252.733 451.709 252.6C451.043 252.467 450.436 252.26 449.889 251.98C449.569 251.82 449.376 251.613 449.309 251.36C449.256 251.12 449.283 250.887 449.389 250.66C449.496 250.433 449.656 250.267 449.869 250.16C450.096 250.067 450.336 250.08 450.589 250.2C451.176 250.493 451.729 250.68 452.249 250.76C452.783 250.853 453.236 250.9 453.609 250.9C455.396 250.9 456.289 250.04 456.289 248.32V246.98C456.009 247.527 455.576 247.96 454.989 248.28C454.416 248.6 453.776 248.76 453.069 248.76C452.189 248.76 451.423 248.56 450.769 248.16C450.116 247.747 449.609 247.173 449.249 246.44C448.889 245.707 448.709 244.853 448.709 243.88C448.709 242.907 448.889 242.06 449.249 241.34C449.609 240.607 450.116 240.04 450.769 239.64C451.423 239.227 452.189 239.02 453.069 239.02C453.776 239.02 454.416 239.173 454.989 239.48C455.563 239.787 455.983 240.207 456.249 240.74V240.32C456.249 239.907 456.356 239.593 456.569 239.38C456.796 239.167 457.103 239.06 457.489 239.06C458.316 239.06 458.729 239.48 458.729 240.32V248.02C458.729 249.607 458.309 250.8 457.469 251.6C456.629 252.4 455.409 252.8 453.809 252.8ZM453.749 246.86C454.523 246.86 455.136 246.593 455.589 246.06C456.043 245.527 456.269 244.8 456.269 243.88C456.269 242.96 456.043 242.24 455.589 241.72C455.136 241.187 454.523 240.92 453.749 240.92C452.976 240.92 452.363 241.187 451.909 241.72C451.456 242.24 451.229 242.96 451.229 243.88C451.229 244.8 451.456 245.527 451.909 246.06C452.363 246.593 452.976 246.86 453.749 246.86ZM467.669 244.64C467.376 244.64 467.129 244.547 466.929 244.36C466.743 244.16 466.649 243.92 466.649 243.64C466.649 243.347 466.743 243.107 466.929 242.92C467.129 242.733 467.376 242.64 467.669 242.64H471.929C472.209 242.64 472.443 242.733 472.629 242.92C472.829 243.107 472.929 243.347 472.929 243.64C472.929 243.92 472.829 244.16 472.629 244.36C472.443 244.547 472.209 244.64 471.929 244.64H467.669ZM482.991 249.16C482.524 249.16 482.191 249 481.991 248.68C481.791 248.36 481.811 247.973 482.051 247.52L487.631 237.04H481.611C480.864 237.04 480.491 236.687 480.491 235.98C480.491 235.26 480.864 234.9 481.611 234.9H489.351C489.711 234.9 490.004 234.993 490.231 235.18C490.457 235.367 490.571 235.633 490.571 235.98C490.571 236.273 490.531 236.533 490.451 236.76C490.371 236.973 490.264 237.207 490.131 237.46L484.451 248.32C484.157 248.88 483.671 249.16 482.991 249.16ZM494.043 249.1C493.59 249.1 493.223 248.96 492.943 248.68C492.676 248.4 492.543 248.04 492.543 247.6C492.543 247.173 492.676 246.827 492.943 246.56C493.223 246.28 493.59 246.14 494.043 246.14C494.51 246.14 494.87 246.28 495.123 246.56C495.39 246.827 495.523 247.173 495.523 247.6C495.523 248.04 495.39 248.4 495.123 248.68C494.87 248.96 494.51 249.1 494.043 249.1ZM502.504 249.2C500.837 249.2 499.564 248.573 498.684 247.32C497.804 246.053 497.364 244.253 497.364 241.92C497.364 239.56 497.804 237.767 498.684 236.54C499.564 235.313 500.837 234.7 502.504 234.7C504.184 234.7 505.457 235.313 506.324 236.54C507.204 237.767 507.644 239.553 507.644 241.9C507.644 244.247 507.204 246.053 506.324 247.32C505.444 248.573 504.171 249.2 502.504 249.2ZM502.504 247.1C503.411 247.1 504.077 246.68 504.504 245.84C504.944 245 505.164 243.687 505.164 241.9C505.164 240.113 504.944 238.82 504.504 238.02C504.077 237.207 503.411 236.8 502.504 236.8C501.611 236.8 500.944 237.207 500.504 238.02C500.064 238.82 499.844 240.113 499.844 241.9C499.844 243.687 500.064 245 500.504 245.84C500.944 246.68 501.611 247.1 502.504 247.1ZM514.496 249.2C512.829 249.2 511.556 248.573 510.676 247.32C509.796 246.053 509.356 244.253 509.356 241.92C509.356 239.56 509.796 237.767 510.676 236.54C511.556 235.313 512.829 234.7 514.496 234.7C516.176 234.7 517.449 235.313 518.316 236.54C519.196 237.767 519.636 239.553 519.636 241.9C519.636 244.247 519.196 246.053 518.316 247.32C517.436 248.573 516.163 249.2 514.496 249.2ZM514.496 247.1C515.403 247.1 516.069 246.68 516.496 245.84C516.936 245 517.156 243.687 517.156 241.9C517.156 240.113 516.936 238.82 516.496 238.02C516.069 237.207 515.403 236.8 514.496 236.8C513.603 236.8 512.936 237.207 512.496 238.02C512.056 238.82 511.836 240.113 511.836 241.9C511.836 243.687 512.056 245 512.496 245.84C512.936 246.68 513.603 247.1 514.496 247.1ZM523.308 249.16C522.455 249.16 522.028 248.72 522.028 247.84V236.2C522.028 235.333 522.462 234.9 523.328 234.9H528.148C529.695 234.9 530.888 235.287 531.728 236.06C532.568 236.833 532.988 237.913 532.988 239.3C532.988 240.687 532.568 241.773 531.728 242.56C530.888 243.333 529.695 243.72 528.148 243.72H524.588V247.84C524.588 248.72 524.162 249.16 523.308 249.16ZM524.588 241.7H527.748C529.588 241.7 530.508 240.9 530.508 239.3C530.508 237.713 529.588 236.92 527.748 236.92H524.588V241.7ZM536.275 249.16C535.502 249.16 535.115 248.76 535.115 247.96V235.94C535.115 235.14 535.515 234.74 536.315 234.74C536.648 234.74 536.908 234.807 537.095 234.94C537.295 235.06 537.475 235.273 537.635 235.58L542.255 244.12L546.875 235.58C547.035 235.273 547.208 235.06 547.395 234.94C547.582 234.807 547.842 234.74 548.175 234.74C548.948 234.74 549.335 235.14 549.335 235.94V247.96C549.335 248.76 548.948 249.16 548.175 249.16C547.402 249.16 547.015 248.76 547.015 247.96V239.5L543.255 246.36C543.122 246.587 542.982 246.753 542.835 246.86C542.688 246.967 542.488 247.02 542.235 247.02C541.982 247.02 541.775 246.967 541.615 246.86C541.455 246.74 541.315 246.573 541.195 246.36L537.435 239.54V247.96C537.435 248.76 537.048 249.16 536.275 249.16ZM562.108 249.2C559.521 249.2 558.228 247.92 558.228 245.36V241.1H557.188C556.521 241.1 556.188 240.787 556.188 240.16C556.188 239.533 556.521 239.22 557.188 239.22H558.228V237.4C558.228 236.56 558.648 236.14 559.488 236.14C560.315 236.14 560.728 236.56 560.728 237.4V239.22H562.848C563.515 239.22 563.848 239.533 563.848 240.16C563.848 240.787 563.515 241.1 562.848 241.1H560.728V245.22C560.728 245.86 560.868 246.34 561.148 246.66C561.428 246.98 561.881 247.14 562.508 247.14C562.735 247.14 562.935 247.12 563.108 247.08C563.281 247.04 563.435 247.013 563.568 247C563.728 246.987 563.861 247.04 563.968 247.16C564.075 247.267 564.128 247.493 564.128 247.84C564.128 248.107 564.081 248.347 563.988 248.56C563.908 248.76 563.755 248.9 563.528 248.98C563.355 249.033 563.128 249.08 562.848 249.12C562.568 249.173 562.321 249.2 562.108 249.2ZM569.666 249.2C568.653 249.2 567.773 248.993 567.026 248.58C566.28 248.167 565.7 247.58 565.286 246.82C564.873 246.047 564.666 245.14 564.666 244.1C564.666 243.06 564.873 242.16 565.286 241.4C565.7 240.64 566.28 240.053 567.026 239.64C567.773 239.227 568.653 239.02 569.666 239.02C570.68 239.02 571.56 239.227 572.306 239.64C573.053 240.053 573.633 240.64 574.046 241.4C574.46 242.16 574.666 243.06 574.666 244.1C574.666 245.14 574.46 246.047 574.046 246.82C573.633 247.58 573.053 248.167 572.306 248.58C571.56 248.993 570.68 249.2 569.666 249.2ZM569.666 247.3C570.413 247.3 571.013 247.033 571.466 246.5C571.92 245.953 572.146 245.153 572.146 244.1C572.146 243.033 571.92 242.24 571.466 241.72C571.013 241.187 570.413 240.92 569.666 240.92C568.92 240.92 568.32 241.187 567.866 241.72C567.413 242.24 567.186 243.033 567.186 244.1C567.186 245.153 567.413 245.953 567.866 246.5C568.32 247.033 568.92 247.3 569.666 247.3ZM585.759 249.2C585.186 249.2 584.593 249.113 583.979 248.94C583.366 248.753 582.793 248.48 582.259 248.12C582.006 247.947 581.853 247.727 581.799 247.46C581.759 247.18 581.799 246.92 581.919 246.68C582.039 246.427 582.219 246.26 582.459 246.18C582.713 246.087 582.999 246.133 583.319 246.32C583.773 246.587 584.199 246.773 584.599 246.88C584.999 246.987 585.399 247.04 585.799 247.04C586.959 247.04 587.846 246.633 588.459 245.82C589.073 245.007 589.379 243.793 589.379 242.18V241.6C589.099 242.333 588.646 242.907 588.019 243.32C587.393 243.733 586.673 243.94 585.859 243.94C585.059 243.94 584.339 243.747 583.699 243.36C583.073 242.973 582.579 242.44 582.219 241.76C581.859 241.067 581.679 240.287 581.679 239.42C581.679 238.5 581.873 237.687 582.259 236.98C582.659 236.273 583.213 235.72 583.919 235.32C584.626 234.907 585.433 234.7 586.339 234.7C588.086 234.7 589.433 235.313 590.379 236.54C591.339 237.753 591.819 239.473 591.819 241.7C591.819 244.087 591.286 245.933 590.219 247.24C589.153 248.547 587.666 249.2 585.759 249.2ZM586.499 241.9C587.219 241.9 587.799 241.66 588.239 241.18C588.693 240.7 588.919 240.073 588.919 239.3C588.919 238.527 588.693 237.907 588.239 237.44C587.799 236.96 587.219 236.72 586.499 236.72C585.779 236.72 585.193 236.96 584.739 237.44C584.299 237.907 584.079 238.527 584.079 239.3C584.079 240.073 584.299 240.7 584.739 241.18C585.193 241.66 585.779 241.9 586.499 241.9ZM595.672 249.16C594.818 249.16 594.392 248.72 594.392 247.84V236.2C594.392 235.333 594.825 234.9 595.692 234.9H600.512C602.058 234.9 603.252 235.287 604.092 236.06C604.932 236.833 605.352 237.913 605.352 239.3C605.352 240.687 604.932 241.773 604.092 242.56C603.252 243.333 602.058 243.72 600.512 243.72H596.952V247.84C596.952 248.72 596.525 249.16 595.672 249.16ZM596.952 241.7H600.112C601.952 241.7 602.872 240.9 602.872 239.3C602.872 237.713 601.952 236.92 600.112 236.92H596.952V241.7ZM608.638 249.16C607.865 249.16 607.478 248.76 607.478 247.96V235.94C607.478 235.14 607.878 234.74 608.678 234.74C609.012 234.74 609.272 234.807 609.458 234.94C609.658 235.06 609.838 235.273 609.998 235.58L614.618 244.12L619.238 235.58C619.398 235.273 619.572 235.06 619.758 234.94C619.945 234.807 620.205 234.74 620.538 234.74C621.312 234.74 621.698 235.14 621.698 235.94V247.96C621.698 248.76 621.312 249.16 620.538 249.16C619.765 249.16 619.378 248.76 619.378 247.96V239.5L615.618 246.36C615.485 246.587 615.345 246.753 615.198 246.86C615.052 246.967 614.852 247.02 614.598 247.02C614.345 247.02 614.138 246.967 613.978 246.86C613.818 246.74 613.678 246.573 613.558 246.36L609.798 239.54V247.96C609.798 248.76 609.412 249.16 608.638 249.16Z" fill="#A9A8A8"/>
<rect x="29" y="61" width="591" height="4" fill="#C4C4C4"/>
<rect x="29" y="129" width="591" height="4" fill="#C4C4C4"/>
<rect x="29" y="197" width="591" height="4" fill="#C4C4C4"/>
<rect x="29" y="265" width="591" height="4" fill="#C4C4C4"/>
<path d="M0.403285 10C0.403285 4.69988 4.69988 0.403285 10 0.403285H644C649.3 0.403285 653.597 4.69988 653.597 10V338.597H0.403285V10Z" stroke="url(#paint1_linear_545_5907)" stroke-width="0.806569"/>
<defs>
<linearGradient id="paint0_linear_545_5907" x1="327" y1="0" x2="327" y2="339" gradientUnits="userSpaceOnUse">
<stop stop-color="#353535" stop-opacity="0.57"/>
<stop offset="1" stop-color="#5C5C5C" stop-opacity="0.17"/>
</linearGradient>
<linearGradient id="paint1_linear_545_5907" x1="620.102" y1="-2.91803e-05" x2="123.45" y2="469.57" gradientUnits="userSpaceOnUse">
<stop stop-color="#6E7079"/>
<stop offset="1" stop-color="#383838"/>
</linearGradient>
</defs>
</svg>
