<svg width="26" height="26" viewBox="0 0 26 26" fill="none" xmlns="http://www.w3.org/2000/svg">
<path d="M13.098 0.842529C6.2944 0.842529 0.777832 6.35909 0.777832 13.1627C0.777832 19.9662 6.2944 25.4828 13.098 25.4828C19.9016 25.4828 25.4181 19.9662 25.4181 13.1627C25.4181 6.35909 19.9016 0.842529 13.098 0.842529ZM19.0188 10.1294C19.027 10.2586 19.027 10.3934 19.027 10.5254C19.027 14.5624 15.9525 19.2127 10.3342 19.2127C8.60167 19.2127 6.99565 18.7095 5.64264 17.8432C5.89014 17.8707 6.12664 17.8817 6.37965 17.8817C7.80966 17.8817 9.12418 17.3977 10.1719 16.5782C8.82992 16.5507 7.70241 15.6707 7.31741 14.4607C7.78766 14.5294 8.21117 14.5294 8.69517 14.4057C8.00416 14.2653 7.38306 13.89 6.9374 13.3436C6.49173 12.7971 6.24898 12.1133 6.25039 11.4082V11.3696C6.65465 11.5979 7.1304 11.7382 7.62816 11.7574C7.20972 11.4785 6.86656 11.1007 6.6291 10.6575C6.39165 10.2142 6.26723 9.71922 6.26689 9.21638C6.26689 8.64712 6.4154 8.12736 6.68215 7.67636C7.44914 8.62054 8.40623 9.39277 9.49121 9.94284C10.5762 10.4929 11.7648 10.8085 12.9797 10.8691C12.548 8.79287 14.099 7.1126 15.9635 7.1126C16.8435 7.1126 17.6355 7.48111 18.1938 8.07511C18.884 7.94586 19.544 7.68736 20.1326 7.34085C19.9043 8.04761 19.4258 8.64437 18.7905 9.02112C19.4065 8.95512 20.0006 8.78462 20.5506 8.54537C20.1353 9.15587 19.6155 9.69763 19.0188 10.1294Z" fill="#A9A8A8"/>
</svg>
