<svg width="78" height="79" viewBox="0 0 78 79" fill="none" xmlns="http://www.w3.org/2000/svg">
<g clip-path="url(#clip0_338_830)">
<path d="M20.4281 66.9712L21.6916 67.6031C26.957 70.762 32.8536 72.2363 38.7506 72.2363C57.2835 72.2363 72.4467 57.073 72.4467 38.5401C72.4467 29.695 68.8663 21.0603 62.5485 14.7422C56.2304 8.42407 47.8061 4.84399 38.7506 4.84399C20.2177 4.84399 5.05413 20.0072 5.26487 38.7509C5.26487 45.0687 7.16027 51.1764 10.3192 56.4411L11.1615 57.7049L7.79217 70.1304L20.4281 66.9712Z" fill="#00E676"/>
<path d="M66.1288 11.3724C58.9683 4.00155 49.0701 0 38.9612 0C17.4801 0 0.210735 17.4798 0.421168 38.7505C0.421168 45.4897 2.31657 52.0186 5.47579 57.9152L0 77.9224L20.4283 72.6573C26.1145 75.8165 32.4323 77.2908 38.7508 77.2908C60.0214 77.2908 77.2908 59.8107 77.2908 38.5403C77.2908 28.2207 73.2892 18.5329 66.1291 11.3724H66.1288ZM38.9612 70.7622C33.275 70.7622 27.5888 69.2883 22.7449 66.3398L21.4814 65.7079L9.2666 68.8668L12.4255 56.8628L11.5832 55.599C2.31657 40.6465 6.73929 20.8495 21.9025 11.5829C37.0658 2.31657 56.6518 6.73929 65.9184 21.9025C75.1846 37.0658 70.7619 56.6517 55.599 65.9183C50.7548 69.0772 44.8582 70.7619 38.9612 70.7619V70.7622ZM57.4941 47.3857L55.1775 46.3327C55.1775 46.3327 51.8082 44.8584 49.702 43.8054C49.4913 43.8054 49.2809 43.5946 49.0701 43.5946C48.4382 43.5946 48.0171 43.8054 47.5959 44.0161C47.5959 44.0161 47.3855 44.2265 44.437 47.5962C44.2262 48.0174 43.8051 48.2281 43.3839 48.2281H43.1732C42.9627 48.2281 42.5416 48.0173 42.3308 47.8069L41.2778 47.3857C38.9612 46.3327 36.8554 45.0689 35.1704 43.3842C34.7492 42.963 34.1173 42.5419 33.6961 42.1207C32.2219 40.6465 30.7477 38.9615 29.6949 37.0661L29.4842 36.6449C29.2737 36.4342 29.2737 36.2237 29.063 35.8026C29.063 35.3814 29.063 34.9602 29.2737 34.7495C29.2737 34.7495 30.1161 33.6964 30.7477 33.0648C31.1691 32.6434 31.3796 32.0118 31.8007 31.5906C32.2219 30.9587 32.4326 30.1164 32.2219 29.4845C32.0115 28.4314 29.4842 22.7452 28.8526 21.4817C28.4311 20.8498 28.0102 20.6393 27.3783 20.4286H25.0618C24.6403 20.4286 24.2194 20.6393 23.7979 20.6393L23.5872 20.8498C23.166 21.0605 22.7449 21.4817 22.3237 21.6921C21.9025 22.1136 21.6918 22.5344 21.2706 22.9559C19.7964 24.8513 18.9541 27.1679 18.9541 29.4845C18.9541 31.1691 19.3752 32.8541 20.0071 34.3283L20.2179 34.9602C22.1133 38.9615 24.6403 42.5419 28.0102 45.7008L28.8526 46.5431C29.4842 47.175 30.1161 47.5962 30.5372 48.2278C34.9599 52.0189 40.0143 54.7566 45.7005 56.2309C46.3324 56.4413 47.1747 56.4413 47.8066 56.652H49.9125C50.9655 56.652 52.229 56.2309 53.0717 55.8097C53.7033 55.3885 54.1244 55.3885 54.5456 54.9674L54.9671 54.5459C55.3883 54.1247 55.8094 53.9143 56.2306 53.4931C56.6518 53.072 57.0729 52.6508 57.2837 52.2293C57.7048 51.387 57.9153 50.3339 58.126 49.2812V47.8069C58.126 47.8069 57.9153 47.5962 57.4941 47.3857Z" fill="white"/>
</g>
<defs>
<clipPath id="clip0_338_830">
<rect width="77.2896" height="78.1953" fill="white"/>
</clipPath>
</defs>
</svg>
