<svg width="101" height="71" viewBox="0 0 101 71" fill="none" xmlns="http://www.w3.org/2000/svg">
<g clip-path="url(#clip0_338_827)">
<path d="M98.4434 11.0399C97.866 8.90607 96.7397 6.96072 95.1766 5.39757C93.6135 3.83442 91.6682 2.70802 89.5344 2.13052C81.7225 0 50.2823 0 50.2823 0C50.2823 0 18.8405 0.0644894 11.0286 2.19501C8.89472 2.77254 6.94939 3.89901 5.38631 5.46223C3.82322 7.02545 2.69693 8.97088 2.11958 11.1048C-0.243333 24.985 -1.15995 46.1352 2.18446 59.4602C2.76187 61.594 3.88819 63.5394 5.45127 65.1025C7.01435 66.6657 8.95965 67.7921 11.0935 68.3696C18.9054 70.5001 50.3464 70.5001 50.3464 70.5001C50.3464 70.5001 81.787 70.5001 89.5985 68.3696C91.7324 67.7921 93.6778 66.6657 95.241 65.1026C96.8041 63.5394 97.9305 61.5941 98.5079 59.4602C101 45.5603 101.768 24.4235 98.4434 11.0403V11.0399Z" fill="#FF0000"/>
<path d="M40.2744 50.357L66.3569 35.2499L40.2748 20.1428L40.2744 50.357Z" fill="white"/>
</g>
<defs>
<clipPath id="clip0_338_827">
<rect width="100.667" height="70.7812" fill="white"/>
</clipPath>
</defs>
</svg>
